<?xml version="1.0" encoding="utf-8"?>
<!-- Generator: Adobe Illustrator 16.0.0, SVG Export Plug-In . SVG Version: 6.00 Build 0)  -->
<!DOCTYPE svg PUBLIC "-//W3C//DTD SVG 1.1//EN" "http://www.w3.org/Graphics/SVG/1.1/DTD/svg11.dtd">
<svg version="1.1" id="Layer_1" xmlns="http://www.w3.org/2000/svg" xmlns:xlink="http://www.w3.org/1999/xlink" x="0px" y="0px"
	 width="25px" height="25px" viewBox="0 0 15 15" enable-background="new 0 0 15 15" xml:space="preserve">
<g>
	<g>
		<path fill-rule="evenodd" clip-rule="evenodd" fill="#99B6E4" d="M12.15,3.412c-0.631-0.23-1.26,0.234-1.213,0.864
			c0.015,0.184-0.037,0.258-0.185,0.351c-0.408,0.253-0.8,0.531-1.195,0.805C9.493,5.474,9.459,5.466,9.405,5.417
			c-0.248-0.222-0.537-0.3-0.857-0.203c-0.13,0.04-0.249,0.118-0.379,0.181c-0.491-0.396-0.99-0.8-1.489-1.202
			c-0.051-0.041-0.055-0.08-0.04-0.14C6.668,3.938,6.703,3.817,6.7,3.699C6.69,3.218,6.329,2.875,5.894,2.836
			C5.431,2.796,5.068,3.062,4.936,3.509C4.918,3.572,4.901,3.676,4.901,3.797C4.918,3.95,4.967,4.088,5.006,4.139
			c0.038,0.048,0.016,0.079-0.02,0.113C4.453,4.789,3.92,5.324,3.392,5.864C3.302,5.956,3.225,6.028,3.099,5.93
			C3.08,5.916,3.05,5.918,3.025,5.911C2.697,5.802,2.326,5.916,2.082,6.2C1.865,6.453,1.815,6.865,1.965,7.16
			c0.173,0.341,0.501,0.539,0.912,0.5c0.629-0.061,0.975-0.726,0.703-1.29c-0.029-0.06-0.028-0.091,0.018-0.137
			c0.563-0.563,1.125-1.129,1.689-1.691C5.305,4.522,5.356,4.514,5.38,4.525c0.299,0.144,0.594,0.147,0.883-0.022
			c0.062-0.037,0.108-0.047,0.165,0.012C6.481,4.572,6.55,4.615,6.611,4.664C7.034,5.006,7.456,5.349,7.88,5.69
			C7.93,5.73,7.951,5.765,7.931,5.833C7.879,6.015,7.886,6.195,7.95,6.377c0.198,0.567,0.909,0.785,1.383,0.418
			c0.275-0.212,0.388-0.497,0.348-0.838C9.673,5.878,9.689,5.833,9.76,5.786c0.438-0.291,0.87-0.588,1.304-0.883
			c0.06-0.041,0.104-0.039,0.162,0.015c0.254,0.236,0.558,0.286,0.878,0.19c0.354-0.107,0.61-0.457,0.618-0.812
			C12.73,3.898,12.508,3.543,12.15,3.412z M2.776,7.263c-0.267,0-0.496-0.229-0.49-0.493c0.005-0.283,0.216-0.486,0.49-0.494
			c0.26-0.007,0.504,0.222,0.488,0.49C3.284,7.034,3.046,7.263,2.776,7.263z M6.043,4.158C5.732,4.343,5.356,4.116,5.32,3.795
			C5.294,3.571,5.39,3.387,5.438,3.373C5.449,3.37,5.573,3.278,5.571,3.288c0.024-0.005,0.05-0.006,0.071-0.016
			c0.22-0.104,0.514,0.039,0.611,0.257C6.36,3.769,6.272,4.022,6.043,4.158z M8.8,6.567c-0.294,0-0.508-0.275-0.5-0.497
			c0.008-0.263,0.232-0.487,0.5-0.49c0.242-0.002,0.504,0.232,0.482,0.499C9.309,6.311,9.049,6.567,8.8,6.567z M11.821,4.746
			c-0.268-0.005-0.505-0.237-0.485-0.494c-0.014-0.275,0.22-0.501,0.493-0.495c0.275,0.005,0.484,0.219,0.486,0.497
			C12.318,4.517,12.082,4.75,11.821,4.746z"/>
		<path fill-rule="evenodd" clip-rule="evenodd" fill="#99B6E4" d="M12.749,7.848c-0.003-0.028-0.006-0.057-0.003-0.084
			c0.008-0.058,0.029-0.116,0.029-0.173c0.003-0.316,0.002-0.631,0.002-0.947c0-0.168-0.068-0.239-0.236-0.239
			c-0.503,0-1.007,0-1.51,0c-0.175,0-0.241,0.067-0.243,0.243c0,0.275,0,0.549,0,0.823c0,1.005,0,2.012,0,3.018
			c0,0.169,0.078,0.252,0.241,0.252c0.503,0.001,1.007,0.001,1.512,0c0.152,0,0.236-0.086,0.236-0.236
			c0-0.691,0.001-1.384-0.005-2.075C12.772,8.368,12.762,7.965,12.749,7.848z M12.374,10.217c0,0.092-0.028,0.122-0.121,0.12
			c-0.314-0.005-0.631-0.003-0.946,0c-0.082,0.002-0.11-0.023-0.11-0.107c0.001-1.109,0.001-2.218,0-3.327
			c0-0.079,0.024-0.106,0.104-0.106c0.32,0.003,0.643,0.003,0.965,0c0.084,0,0.108,0.03,0.107,0.113
			c-0.004,0.338,0.006,0.676-0.005,1.014c-0.005,0.135,0.014,0.303,0.005,0.31c0.011,0.14,0.001,0.549,0,0.617
			C12.369,9.306,12.369,9.762,12.374,10.217z"/>
		<path fill-rule="evenodd" clip-rule="evenodd" fill="#99B6E4" d="M6.553,6.562c-0.497-0.001-0.994-0.001-1.491,0
			c-0.167,0-0.254,0.085-0.254,0.25c0,1.223,0,2.446,0,3.669c0,0.176,0.08,0.259,0.254,0.259c0.494,0.001,0.987,0.001,1.481,0
			c0.182,0,0.248-0.067,0.248-0.246c0-0.614,0-1.229,0-1.844c0-0.615,0-1.229,0-1.844C6.792,6.63,6.726,6.562,6.553,6.562z
			 M6.403,10.222c0,0.087-0.03,0.117-0.117,0.115c-0.325-0.003-0.65-0.003-0.974,0c-0.081,0.002-0.104-0.028-0.104-0.105
			C5.211,9.705,5.21,9.18,5.21,8.654c0-0.522,0.001-1.045-0.002-1.567c0-0.089,0.026-0.117,0.114-0.115
			c0.321,0.004,0.643,0.003,0.965,0c0.085-0.001,0.118,0.025,0.117,0.115C6.401,8.132,6.401,9.176,6.403,10.222z"/>
		<path fill-rule="evenodd" clip-rule="evenodd" fill="#99B6E4" d="M9.563,7.673c-0.512-0.001-1.025-0.001-1.537,0
			c-0.158,0-0.217,0.062-0.218,0.221c0,0.434,0,0.867,0,1.299c0,0.443,0,0.886,0.001,1.329c0,0.134,0.068,0.215,0.199,0.216
			c0.521,0.003,1.044,0.003,1.567,0c0.134-0.001,0.216-0.093,0.216-0.229c0-0.868,0-1.738,0-2.608
			C9.792,7.749,9.716,7.673,9.563,7.673z M9.283,10.337c-0.323-0.003-0.648-0.003-0.974,0c-0.081,0-0.112-0.026-0.112-0.11
			c0.003-0.682,0.002-1.363,0-2.045c0-0.079,0.031-0.105,0.107-0.105c0.331,0.003,0.663,0.003,0.993,0
			c0.071,0,0.095,0.026,0.093,0.096c-0.001,0.345,0,0.688,0,1.032c0,0.341-0.003,0.682,0.002,1.021
			C9.393,10.308,9.371,10.339,9.283,10.337z"/>
		<path fill-rule="evenodd" clip-rule="evenodd" fill="#99B6E4" d="M3.531,8.518c-0.296,0-0.592,0-0.889,0
			c-0.188,0-0.376-0.003-0.563,0c-0.183,0.005-0.255,0.08-0.255,0.257c-0.001,0.28,0,0.561,0,0.841c0,0.289-0.001,0.58,0,0.87
			c0,0.176,0.078,0.255,0.255,0.255c0.491,0.001,0.981,0.001,1.472,0c0.186,0,0.26-0.075,0.26-0.26c0-0.561,0-1.122,0-1.683
			C3.812,8.586,3.744,8.518,3.531,8.518z M3.404,10.225c0.001,0.081-0.02,0.114-0.106,0.112c-0.321-0.005-0.643-0.003-0.964,0
			c-0.079,0-0.107-0.024-0.106-0.104c0.002-0.401,0.002-0.801,0-1.202c0-0.073,0.023-0.104,0.099-0.104
			c0.328,0.002,0.655,0.002,0.983,0c0.071-0.001,0.096,0.026,0.095,0.096c-0.003,0.203-0.001,0.407,0,0.611
			C3.404,9.831,3.4,10.029,3.404,10.225z"/>
		<path fill-rule="evenodd" clip-rule="evenodd" fill="#99B6E4" d="M7.303,11.764c-0.319,0-0.637,0-0.956,0
			c-0.096,0-0.165-0.043-0.201-0.134c-0.029-0.072-0.025-0.15,0.038-0.2c0.047-0.036,0.114-0.063,0.172-0.065
			c0.213-0.008,0.427-0.003,0.64-0.002c0.387,0,0.774,0,1.162,0c0.034,0,0.07-0.004,0.104-0.001c0.124,0.006,0.207,0.09,0.205,0.203
			c0,0.115-0.084,0.198-0.21,0.199C7.939,11.766,7.621,11.764,7.303,11.764z"/>
	</g>
	
		<circle fill-rule="evenodd" clip-rule="evenodd" fill="none" stroke="#99B6E4" stroke-width="0.5299" stroke-miterlimit="10" cx="7.5" cy="7.5" r="7.191"/>
</g>
</svg>
