<svg id="svg" version="1.1" width="45" height="45" viewBox="0 0 400 400" xmlns="http://www.w3.org/2000/svg" xmlns:xlink="http://www.w3.org/1999/xlink" ><g id="svgg"><path id="path0" d="M271.200 90.600 L 271.200 119.200 215.200 119.200 L 159.200 119.200 159.200 152.000 L 159.200 184.800 215.200 184.800 L 271.200 184.800 271.200 213.400 L 271.200 242.000 272.354 242.000 C 273.106 242.000,273.717 241.687,274.108 241.100 C 276.103 238.108,297.044 217.703,297.800 218.015 C 299.241 218.608,300.010 218.426,300.400 217.400 C 300.609 216.850,301.055 216.400,301.390 216.400 C 301.726 216.400,302.000 216.230,302.000 216.021 C 302.000 215.813,303.350 214.279,305.000 212.613 C 306.650 210.947,308.000 209.414,308.000 209.206 C 308.000 208.998,308.391 208.619,308.869 208.363 C 309.346 208.108,310.201 207.342,310.769 206.661 C 311.336 205.981,314.140 203.046,317.000 200.140 C 319.860 197.234,327.316 189.640,333.570 183.265 C 344.037 172.593,345.015 171.702,345.896 172.036 C 347.419 172.615,347.993 172.469,348.400 171.400 C 348.609 170.850,349.055 170.400,349.390 170.400 C 349.726 170.400,350.000 170.230,350.000 170.021 C 350.000 169.813,351.350 168.279,353.000 166.613 C 354.650 164.947,356.000 163.414,356.000 163.206 C 356.000 162.998,356.391 162.619,356.869 162.363 C 357.346 162.108,358.201 161.342,358.769 160.662 C 359.336 159.982,361.195 158.023,362.900 156.309 C 367.030 152.156,367.035 151.757,363.000 147.838 C 361.350 146.236,360.000 144.729,360.000 144.489 C 360.000 144.250,359.649 143.943,359.220 143.806 C 358.792 143.670,358.336 143.228,358.207 142.823 C 358.079 142.418,357.606 141.990,357.157 141.873 C 356.708 141.755,356.243 141.286,356.124 140.830 C 356.004 140.373,355.752 140.000,355.563 140.000 C 355.374 140.000,354.630 139.338,353.910 138.529 C 353.189 137.720,351.691 136.144,350.580 135.026 C 349.469 133.908,348.432 132.659,348.275 132.251 C 348.077 131.735,347.749 131.584,347.195 131.755 C 346.758 131.890,346.069 132.103,345.664 132.230 C 345.078 132.413,334.000 122.087,334.000 121.358 C 334.000 121.307,330.805 118.020,326.900 114.053 C 314.243 101.194,312.000 98.846,312.000 98.446 C 312.000 98.231,311.649 97.943,311.220 97.806 C 310.792 97.670,310.336 97.228,310.207 96.823 C 310.079 96.418,309.606 95.990,309.157 95.873 C 308.708 95.755,308.243 95.286,308.124 94.830 C 308.004 94.373,307.763 94.000,307.587 94.000 C 307.411 94.000,306.667 93.358,305.934 92.574 C 305.200 91.789,303.691 90.212,302.580 89.070 C 301.469 87.928,300.432 86.659,300.275 86.251 C 300.077 85.735,299.749 85.584,299.195 85.755 C 298.758 85.890,298.069 86.103,297.664 86.230 C 297.083 86.411,286.000 76.090,286.000 75.367 C 286.000 74.755,272.675 62.000,272.036 62.000 L 271.200 62.000 271.200 90.600 M287.455 71.800 C 287.582 72.130,287.958 72.400,288.292 72.400 C 288.785 72.400,288.805 72.288,288.400 71.800 C 288.126 71.470,287.750 71.200,287.564 71.200 C 287.377 71.200,287.329 71.470,287.455 71.800 M335.455 117.800 C 335.582 118.130,335.958 118.400,336.292 118.400 C 336.785 118.400,336.805 118.288,336.400 117.800 C 336.126 117.470,335.750 117.200,335.564 117.200 C 335.377 117.200,335.329 117.470,335.455 117.800 M124.112 161.115 C 122.524 162.812,117.158 168.330,112.187 173.378 L 103.149 182.556 101.894 182.082 C 100.526 181.566,100.342 181.710,96.409 186.357 C 95.644 187.260,94.789 188.000,94.509 188.000 C 94.229 188.000,94.000 188.181,94.000 188.402 C 94.000 188.624,91.345 191.508,88.100 194.813 C 84.855 198.117,79.590 203.528,76.400 206.836 C 73.210 210.143,67.123 216.384,62.872 220.702 L 55.145 228.555 53.892 228.082 C 52.527 227.566,52.340 227.712,48.409 232.357 C 47.644 233.260,46.789 234.000,46.509 234.000 C 46.229 234.000,46.000 234.181,46.000 234.402 C 46.000 234.624,43.300 237.532,40.000 240.866 C 32.424 248.520,32.493 247.603,39.000 254.129 C 41.750 256.887,44.000 259.306,44.000 259.504 C 44.000 259.703,44.450 260.106,45.000 260.400 C 45.550 260.694,46.000 261.144,46.000 261.400 C 46.000 261.656,46.450 262.106,47.000 262.400 C 47.550 262.694,48.000 263.154,48.000 263.422 C 48.000 263.689,48.450 264.203,49.000 264.563 C 49.550 264.924,50.000 265.484,50.000 265.809 C 50.000 266.134,50.266 266.400,50.591 266.400 C 50.916 266.400,51.479 266.855,51.843 267.410 C 52.490 268.398,52.764 268.428,54.644 267.724 C 54.888 267.632,56.688 269.195,58.644 271.196 C 60.600 273.198,62.902 275.502,63.760 276.317 C 64.617 277.133,65.517 278.023,65.760 278.295 C 66.221 278.814,76.051 288.893,86.100 299.151 C 89.345 302.464,92.000 305.330,92.000 305.519 C 92.000 305.709,92.450 306.106,93.000 306.400 C 93.550 306.694,94.000 307.144,94.000 307.400 C 94.000 307.656,94.450 308.106,95.000 308.400 C 95.550 308.694,96.000 309.154,96.000 309.422 C 96.000 309.689,96.450 310.203,97.000 310.563 C 97.550 310.924,98.000 311.484,98.000 311.809 C 98.000 312.134,98.266 312.400,98.591 312.400 C 98.916 312.400,99.479 312.855,99.843 313.410 C 100.490 314.398,100.764 314.428,102.644 313.724 C 102.888 313.632,104.688 315.195,106.644 317.196 C 108.600 319.198,110.902 321.502,111.760 322.317 C 112.617 323.133,113.517 324.021,113.760 324.291 C 118.734 329.843,127.354 338.034,128.108 337.927 L 129.000 337.800 129.103 309.300 L 129.205 280.800 185.203 280.800 L 241.200 280.800 241.200 248.000 L 241.200 215.200 185.200 215.200 L 129.200 215.200 129.200 187.080 C 129.200 157.993,129.199 157.977,127.620 158.015 C 127.279 158.023,125.701 159.418,124.112 161.115 M120.400 160.600 C 119.992 161.091,120.020 161.200,120.551 161.200 C 120.908 161.200,121.200 160.930,121.200 160.600 C 121.200 160.270,121.132 160.000,121.049 160.000 C 120.966 160.000,120.674 160.270,120.400 160.600 M116.080 164.080 C 115.427 164.733,115.477 165.200,116.200 165.200 C 116.530 165.200,116.800 165.125,116.800 165.033 C 116.800 164.941,116.909 164.581,117.043 164.233 C 117.329 163.486,116.764 163.396,116.080 164.080 M103.467 175.467 C 103.320 175.613,103.200 176.008,103.200 176.343 C 103.200 176.878,103.261 176.876,103.700 176.322 C 103.975 175.976,104.470 175.596,104.800 175.478 C 105.212 175.330,105.139 175.253,104.567 175.232 C 104.108 175.214,103.613 175.320,103.467 175.467 M337.827 183.970 C 337.165 184.701,337.165 184.734,337.832 184.636 C 338.218 184.580,338.578 184.233,338.631 183.867 C 338.756 183.020,338.678 183.030,337.827 183.970 M335.600 186.249 C 335.600 186.780,335.709 186.808,336.200 186.400 C 336.530 186.126,336.800 185.834,336.800 185.751 C 336.800 185.668,336.530 185.600,336.200 185.600 C 335.870 185.600,335.600 185.892,335.600 186.249 M332.095 189.066 C 331.818 189.178,331.399 189.628,331.165 190.065 C 330.785 190.776,330.823 190.816,331.523 190.441 C 332.111 190.127,333.175 188.655,332.687 188.832 C 332.639 188.849,332.373 188.955,332.095 189.066 M72.400 206.600 C 71.992 207.091,72.020 207.200,72.551 207.200 C 72.908 207.200,73.200 206.930,73.200 206.600 C 73.200 206.270,73.132 206.000,73.049 206.000 C 72.966 206.000,72.674 206.270,72.400 206.600 M68.080 210.080 C 67.427 210.733,67.477 211.200,68.200 211.200 C 68.530 211.200,68.800 211.125,68.800 211.033 C 68.800 210.941,68.909 210.581,69.043 210.233 C 69.329 209.486,68.764 209.396,68.080 210.080 M55.467 221.467 C 55.320 221.613,55.200 222.008,55.200 222.343 C 55.200 222.878,55.261 222.876,55.700 222.322 C 55.975 221.976,56.470 221.596,56.800 221.478 C 57.212 221.330,57.139 221.253,56.567 221.232 C 56.108 221.214,55.613 221.320,55.467 221.467 M289.827 229.970 C 289.165 230.701,289.165 230.734,289.832 230.636 C 290.218 230.580,290.578 230.233,290.631 229.867 C 290.756 229.020,290.678 229.030,289.827 229.970 M287.600 232.249 C 287.600 232.780,287.709 232.808,288.200 232.400 C 288.530 232.126,288.800 231.834,288.800 231.751 C 288.800 231.668,288.530 231.600,288.200 231.600 C 287.870 231.600,287.600 231.892,287.600 232.249 M284.095 235.066 C 283.818 235.178,283.399 235.628,283.165 236.065 C 282.785 236.776,282.823 236.816,283.523 236.441 C 284.111 236.127,285.175 234.655,284.687 234.832 C 284.639 234.849,284.373 234.955,284.095 235.066 M63.200 281.564 C 63.200 281.750,63.470 282.126,63.800 282.400 C 64.288 282.805,64.400 282.785,64.400 282.292 C 64.400 281.958,64.130 281.582,63.800 281.455 C 63.470 281.329,63.200 281.377,63.200 281.564 M67.600 285.151 C 67.600 285.344,67.854 285.713,68.164 285.970 C 68.791 286.491,69.432 285.900,69.000 285.200 C 68.695 284.707,67.600 284.669,67.600 285.151 M72.000 288.951 C 72.000 289.034,72.270 289.326,72.600 289.600 C 73.091 290.008,73.200 289.980,73.200 289.449 C 73.200 289.092,72.930 288.800,72.600 288.800 C 72.270 288.800,72.000 288.868,72.000 288.951 M111.200 327.564 C 111.200 327.750,111.470 328.126,111.800 328.400 C 112.288 328.805,112.400 328.785,112.400 328.292 C 112.400 327.958,112.130 327.582,111.800 327.455 C 111.470 327.329,111.200 327.377,111.200 327.564 M115.600 331.151 C 115.600 331.344,115.854 331.713,116.164 331.970 C 116.791 332.491,117.432 331.900,117.000 331.200 C 116.695 330.707,115.600 330.669,115.600 331.151 M120.000 334.951 C 120.000 335.034,120.270 335.326,120.600 335.600 C 121.091 336.008,121.200 335.980,121.200 335.449 C 121.200 335.092,120.930 334.800,120.600 334.800 C 120.270 334.800,120.000 334.868,120.000 334.951 " stroke="none" fill="#fcfcfc" fill-rule="evenodd"></path><path id="path1" d="M271.200 60.378 C 271.200 61.537,271.283 61.600,272.800 61.600 C 273.944 61.600,274.400 61.768,274.400 62.191 C 274.400 62.516,274.850 63.076,275.400 63.437 C 275.950 63.797,276.400 64.346,276.400 64.656 C 276.400 64.966,276.850 65.391,277.400 65.600 C 277.950 65.809,278.400 66.259,278.400 66.599 C 278.400 66.939,278.850 67.422,279.400 67.673 C 279.950 67.923,280.400 68.373,280.400 68.673 C 280.400 68.972,280.850 69.422,281.400 69.673 C 281.950 69.923,282.400 70.373,282.400 70.673 C 282.400 70.972,282.850 71.422,283.400 71.673 C 283.950 71.923,284.400 72.279,284.400 72.462 C 284.400 72.645,287.287 75.679,290.816 79.203 C 297.222 85.601,297.234 85.611,298.916 85.506 C 300.408 85.412,300.615 85.505,300.731 86.324 C 300.836 87.064,301.074 87.223,301.931 87.124 C 303.330 86.962,303.449 85.464,302.078 85.269 C 301.563 85.196,301.004 84.736,300.809 84.224 C 300.618 83.721,300.069 83.207,299.590 83.082 C 299.094 82.952,298.836 82.666,298.990 82.417 C 299.149 82.159,298.753 81.803,298.028 81.550 C 297.256 81.281,296.705 80.761,296.554 80.160 C 296.406 79.570,296.022 79.200,295.557 79.200 C 295.140 79.200,294.821 79.065,294.847 78.900 C 295.001 77.927,294.747 77.186,294.345 77.434 C 294.086 77.594,293.397 77.150,292.745 76.403 C 292.115 75.682,291.600 75.228,291.600 75.395 C 291.600 75.562,291.330 75.474,291.000 75.200 C 290.670 74.926,290.400 74.364,290.400 73.951 C 290.400 73.538,290.265 73.221,290.100 73.247 C 289.196 73.390,288.385 73.148,288.600 72.800 C 288.736 72.580,288.610 72.400,288.320 72.400 C 287.836 72.400,286.648 70.960,286.614 70.333 C 286.606 70.187,286.436 69.917,286.236 69.733 C 286.024 69.540,285.992 69.610,286.159 69.900 C 286.318 70.175,286.257 70.400,286.024 70.400 C 285.791 70.400,285.600 70.130,285.600 69.800 C 285.600 69.470,285.343 69.200,285.029 69.200 C 284.715 69.200,284.092 68.735,283.646 68.167 C 283.199 67.599,282.561 67.094,282.228 67.045 C 281.895 66.996,281.483 66.802,281.312 66.614 C 281.140 66.426,281.225 66.401,281.500 66.559 C 282.176 66.949,282.133 66.476,281.429 65.771 C 281.114 65.457,280.484 65.200,280.029 65.200 C 279.411 65.200,279.200 64.945,279.200 64.200 C 279.200 63.408,278.998 63.200,278.228 63.200 C 277.524 63.200,277.220 62.951,277.128 62.300 C 277.047 61.730,276.679 61.354,276.125 61.275 C 275.579 61.198,275.202 60.821,275.125 60.275 C 274.895 58.662,271.200 58.759,271.200 60.378 M302.800 88.200 C 302.800 89.000,303.000 89.200,303.800 89.200 C 304.588 89.200,304.800 89.403,304.800 90.157 C 304.800 90.843,305.082 91.184,305.800 91.364 C 306.430 91.522,306.800 91.898,306.800 92.380 C 306.800 92.868,307.125 93.191,307.700 93.272 C 308.278 93.354,308.646 93.722,308.728 94.299 C 308.807 94.860,309.221 95.290,309.828 95.443 C 310.429 95.594,310.800 95.976,310.800 96.443 C 310.800 97.119,311.223 97.383,312.093 97.250 C 312.254 97.225,312.497 97.647,312.633 98.188 C 312.768 98.729,313.194 99.271,313.579 99.393 C 313.964 99.515,314.482 100.062,314.731 100.608 C 314.979 101.153,315.461 101.600,315.801 101.600 C 316.141 101.600,316.591 102.050,316.800 102.600 C 317.009 103.150,317.426 103.600,317.726 103.600 C 318.026 103.600,318.477 104.050,318.727 104.600 C 318.978 105.150,319.428 105.600,319.727 105.600 C 320.027 105.600,320.477 106.050,320.727 106.600 C 320.978 107.150,321.457 107.600,321.791 107.600 C 322.126 107.600,322.400 107.866,322.400 108.191 C 322.400 108.516,322.850 109.076,323.400 109.437 C 323.950 109.797,324.400 110.346,324.400 110.656 C 324.400 110.966,324.850 111.391,325.400 111.600 C 325.950 111.809,326.400 112.259,326.400 112.599 C 326.400 112.939,326.850 113.422,327.400 113.673 C 327.950 113.923,328.400 114.373,328.400 114.673 C 328.400 114.972,328.850 115.422,329.400 115.673 C 329.950 115.923,330.400 116.373,330.400 116.673 C 330.400 116.972,330.850 117.422,331.400 117.673 C 331.950 117.923,332.400 118.279,332.400 118.462 C 332.400 118.645,335.287 121.679,338.816 125.203 C 345.222 131.601,345.234 131.611,346.916 131.506 C 348.408 131.412,348.615 131.505,348.731 132.324 C 348.836 133.064,349.074 133.223,349.931 133.124 C 351.330 132.962,351.449 131.464,350.078 131.269 C 349.563 131.196,349.004 130.736,348.809 130.224 C 348.618 129.721,348.069 129.207,347.590 129.082 C 347.094 128.952,346.836 128.666,346.990 128.417 C 347.149 128.159,346.753 127.803,346.028 127.550 C 345.256 127.281,344.705 126.761,344.554 126.160 C 344.406 125.570,344.022 125.200,343.557 125.200 C 343.140 125.200,342.821 125.065,342.847 124.900 C 343.001 123.927,342.747 123.186,342.345 123.434 C 342.086 123.594,341.397 123.150,340.745 122.403 C 340.115 121.682,339.600 121.228,339.600 121.395 C 339.600 121.562,339.330 121.474,339.000 121.200 C 338.670 120.926,338.400 120.364,338.400 119.951 C 338.400 119.538,338.265 119.221,338.100 119.247 C 337.196 119.390,336.385 119.148,336.600 118.800 C 336.736 118.580,336.610 118.400,336.320 118.400 C 335.836 118.400,334.648 116.960,334.614 116.333 C 334.606 116.187,334.436 115.917,334.236 115.733 C 334.024 115.540,333.992 115.610,334.159 115.900 C 334.318 116.175,334.257 116.400,334.024 116.400 C 333.791 116.400,333.600 116.130,333.600 115.800 C 333.600 115.470,333.343 115.200,333.029 115.200 C 332.715 115.200,332.092 114.735,331.646 114.167 C 331.199 113.599,330.561 113.094,330.228 113.045 C 329.895 112.996,329.483 112.802,329.312 112.614 C 329.140 112.426,329.225 112.401,329.500 112.559 C 330.176 112.949,330.133 112.476,329.429 111.771 C 329.114 111.457,328.484 111.200,328.029 111.200 C 327.411 111.200,327.200 110.945,327.200 110.200 C 327.200 109.408,326.998 109.200,326.228 109.200 C 325.524 109.200,325.220 108.951,325.128 108.300 C 325.047 107.730,324.679 107.354,324.125 107.275 C 323.579 107.198,323.202 106.821,323.125 106.275 C 323.048 105.735,322.670 105.353,322.138 105.277 C 321.613 105.202,321.179 104.772,321.030 104.177 C 320.874 103.556,320.499 103.200,320.000 103.200 C 319.497 103.200,319.125 102.842,318.964 102.200 C 318.807 101.574,318.430 101.200,317.957 101.200 C 317.416 101.200,317.200 100.914,317.200 100.200 C 317.200 99.400,317.000 99.200,316.200 99.200 C 315.400 99.200,315.200 99.000,315.200 98.200 C 315.200 97.397,315.001 97.200,314.190 97.200 C 313.481 97.200,313.067 96.902,312.800 96.200 C 312.591 95.650,312.149 95.200,311.818 95.200 C 311.486 95.200,311.102 94.750,310.964 94.200 C 310.814 93.601,310.427 93.200,310.000 93.200 C 309.578 93.200,309.187 92.803,309.043 92.228 C 308.890 91.621,308.460 91.207,307.899 91.128 C 307.405 91.057,306.997 90.820,306.994 90.600 C 306.982 89.829,306.346 89.200,305.576 89.200 C 305.015 89.200,304.800 88.923,304.800 88.200 C 304.800 87.400,304.600 87.200,303.800 87.200 C 303.000 87.200,302.800 87.400,302.800 88.200 M350.800 134.173 C 350.800 135.002,350.993 135.200,351.800 135.200 C 352.588 135.200,352.800 135.403,352.800 136.157 C 352.800 136.843,353.082 137.184,353.800 137.364 C 354.430 137.522,354.800 137.898,354.800 138.380 C 354.800 138.868,355.125 139.191,355.700 139.272 C 356.278 139.354,356.646 139.722,356.728 140.299 C 356.807 140.860,357.221 141.290,357.828 141.443 C 358.429 141.594,358.800 141.976,358.800 142.443 C 358.800 143.119,359.223 143.383,360.093 143.250 C 360.254 143.225,360.497 143.647,360.633 144.188 C 360.768 144.729,361.194 145.271,361.579 145.393 C 361.964 145.515,362.482 146.062,362.731 146.608 C 362.979 147.153,363.461 147.600,363.801 147.600 C 364.141 147.600,364.591 148.050,364.800 148.600 C 365.009 149.150,365.435 149.600,365.747 149.600 C 366.451 149.600,366.800 150.462,366.800 152.204 C 366.800 153.460,365.973 154.800,365.198 154.800 C 365.009 154.800,364.743 155.151,364.606 155.580 C 364.470 156.008,364.028 156.464,363.623 156.593 C 363.218 156.721,362.790 157.194,362.673 157.643 C 362.555 158.092,362.101 158.553,361.664 158.667 C 361.226 158.782,360.759 159.309,360.626 159.838 C 360.477 160.434,360.094 160.800,359.620 160.800 C 359.132 160.800,358.809 161.125,358.728 161.700 C 358.646 162.278,358.278 162.646,357.700 162.728 C 357.049 162.820,356.800 163.124,356.800 163.828 C 356.800 164.591,356.591 164.800,355.828 164.800 C 355.124 164.800,354.820 165.049,354.728 165.700 C 354.646 166.278,354.278 166.646,353.700 166.728 C 353.049 166.820,352.800 167.124,352.800 167.828 C 352.800 168.591,352.591 168.800,351.828 168.800 C 351.124 168.800,350.820 169.049,350.728 169.700 C 350.646 170.278,350.278 170.646,349.700 170.728 C 349.034 170.822,348.800 171.122,348.800 171.880 C 348.800 172.862,348.723 172.895,346.944 172.695 C 345.094 172.486,342.400 174.207,342.400 175.597 C 342.400 175.829,341.950 176.191,341.400 176.400 C 340.850 176.609,340.400 177.059,340.400 177.400 C 340.400 177.741,339.965 178.185,339.434 178.387 C 338.903 178.589,338.351 179.124,338.207 179.577 C 338.064 180.030,337.684 180.400,337.364 180.400 C 337.045 180.400,336.578 180.850,336.327 181.400 C 336.077 181.950,335.626 182.400,335.326 182.400 C 335.026 182.400,334.609 182.850,334.400 183.400 C 334.191 183.950,333.741 184.400,333.400 184.400 C 333.059 184.400,332.615 184.835,332.413 185.366 C 332.211 185.897,331.676 186.449,331.223 186.593 C 330.770 186.736,330.400 187.116,330.400 187.436 C 330.400 187.755,329.950 188.222,329.400 188.473 C 328.850 188.723,328.400 189.240,328.400 189.621 C 328.400 190.026,327.985 190.417,327.400 190.564 C 326.779 190.720,326.400 191.099,326.400 191.564 C 326.400 192.030,326.021 192.408,325.400 192.564 C 324.781 192.720,324.400 193.099,324.400 193.561 C 324.400 193.979,324.036 194.402,323.570 194.524 C 323.114 194.643,322.647 195.097,322.533 195.533 C 322.419 195.969,321.969 196.419,321.533 196.533 C 321.097 196.647,320.645 197.108,320.527 197.557 C 320.410 198.006,319.982 198.479,319.577 198.607 C 319.172 198.736,318.733 199.183,318.600 199.600 C 318.467 200.017,318.017 200.467,317.600 200.600 C 317.183 200.733,316.733 201.183,316.600 201.600 C 316.467 202.017,316.028 202.464,315.623 202.593 C 315.218 202.721,314.790 203.194,314.673 203.643 C 314.555 204.092,314.101 204.553,313.664 204.667 C 313.226 204.782,312.759 205.309,312.626 205.838 C 312.477 206.434,312.094 206.800,311.620 206.800 C 311.132 206.800,310.809 207.125,310.728 207.700 C 310.646 208.278,310.278 208.646,309.700 208.728 C 309.049 208.820,308.800 209.124,308.800 209.828 C 308.800 210.591,308.591 210.800,307.828 210.800 C 307.124 210.800,306.820 211.049,306.728 211.700 C 306.646 212.278,306.278 212.646,305.700 212.728 C 305.049 212.820,304.800 213.124,304.800 213.828 C 304.800 214.591,304.591 214.800,303.828 214.800 C 303.124 214.800,302.820 215.049,302.728 215.700 C 302.646 216.278,302.278 216.646,301.700 216.728 C 301.034 216.822,300.800 217.122,300.800 217.880 C 300.800 218.862,300.723 218.895,298.944 218.695 C 297.094 218.486,294.400 220.207,294.400 221.597 C 294.400 221.829,293.950 222.191,293.400 222.400 C 292.850 222.609,292.400 223.059,292.400 223.400 C 292.400 223.741,291.965 224.185,291.434 224.387 C 290.903 224.589,290.351 225.124,290.207 225.577 C 290.064 226.030,289.684 226.400,289.364 226.400 C 289.045 226.400,288.578 226.850,288.327 227.400 C 288.077 227.950,287.626 228.400,287.326 228.400 C 287.026 228.400,286.609 228.850,286.400 229.400 C 286.191 229.950,285.741 230.400,285.400 230.400 C 285.059 230.400,284.615 230.835,284.413 231.366 C 284.211 231.897,283.676 232.449,283.223 232.593 C 282.770 232.736,282.400 233.116,282.400 233.436 C 282.400 233.755,281.950 234.222,281.400 234.473 C 280.850 234.723,280.400 235.240,280.400 235.621 C 280.400 236.026,279.985 236.417,279.400 236.564 C 278.779 236.720,278.400 237.099,278.400 237.564 C 278.400 238.030,278.021 238.408,277.400 238.564 C 276.781 238.720,276.400 239.099,276.400 239.561 C 276.400 239.979,276.036 240.402,275.570 240.524 C 275.114 240.643,274.643 241.115,274.523 241.573 C 274.366 242.172,273.870 242.475,272.753 242.654 C 270.126 243.074,270.486 244.800,273.200 244.800 C 275.067 244.800,275.200 244.733,275.200 243.800 C 275.200 243.000,275.400 242.800,276.200 242.800 C 276.750 242.800,277.179 242.665,277.153 242.500 C 276.987 241.452,277.315 240.839,278.100 240.728 C 278.678 240.646,279.046 240.278,279.128 239.700 C 279.220 239.052,279.525 238.800,280.216 238.800 C 280.816 238.800,281.504 238.356,282.052 237.616 C 282.533 236.964,283.058 236.512,283.218 236.611 C 283.379 236.710,283.485 236.478,283.455 236.096 C 283.421 235.662,283.662 235.421,284.096 235.455 C 284.478 235.485,284.722 235.395,284.638 235.255 C 284.553 235.115,284.735 234.768,285.042 234.484 C 285.389 234.163,285.600 234.132,285.600 234.400 C 285.600 234.668,285.810 234.636,286.156 234.316 C 286.511 233.986,286.564 233.708,286.303 233.544 C 286.078 233.403,286.278 233.166,286.747 233.017 C 287.216 232.868,287.600 232.488,287.600 232.173 C 287.600 231.858,287.881 231.600,288.224 231.600 C 288.567 231.600,288.736 231.420,288.600 231.200 C 288.378 230.840,288.903 230.627,289.700 230.753 C 289.865 230.779,289.955 230.575,289.900 230.300 C 289.845 230.025,290.038 229.849,290.330 229.910 C 290.621 229.970,290.751 229.844,290.619 229.630 C 290.337 229.175,291.852 228.261,292.363 228.577 C 292.554 228.695,292.685 228.486,292.655 228.113 C 292.624 227.735,293.089 227.195,293.700 226.895 C 294.694 226.408,294.860 226.169,294.773 225.344 C 294.758 225.204,295.286 224.827,295.946 224.507 C 296.696 224.144,297.065 223.715,296.930 223.363 C 296.780 222.970,297.021 222.800,297.729 222.800 C 298.471 222.800,298.779 222.562,298.872 221.916 C 298.952 221.361,299.372 220.942,300.000 220.790 C 300.660 220.630,300.959 220.313,300.879 219.860 C 300.799 219.402,301.156 219.034,301.951 218.757 C 302.817 218.455,303.102 218.131,302.994 217.571 C 302.881 216.980,303.074 216.800,303.823 216.800 C 304.598 216.800,304.800 216.594,304.800 215.800 C 304.800 215.000,305.000 214.800,305.800 214.800 C 306.350 214.800,306.822 214.620,306.850 214.400 C 306.877 214.180,306.923 213.777,306.950 213.504 C 306.978 213.231,307.450 212.916,308.000 212.804 C 308.550 212.692,309.018 212.375,309.040 212.100 C 309.134 210.928,309.250 210.800,310.218 210.800 C 310.800 210.800,311.207 210.586,311.170 210.300 C 311.028 209.206,311.238 208.850,312.100 208.728 C 312.670 208.647,313.046 208.279,313.125 207.725 C 313.202 207.179,313.579 206.802,314.125 206.725 C 314.679 206.646,315.047 206.270,315.128 205.700 C 315.207 205.143,315.533 204.800,315.984 204.800 C 316.423 204.800,316.811 204.412,316.957 203.828 C 317.110 203.221,317.540 202.807,318.101 202.728 C 318.670 202.647,319.046 202.278,319.125 201.725 C 319.202 201.179,319.579 200.802,320.125 200.725 C 320.679 200.646,321.047 200.270,321.128 199.700 C 321.220 199.049,321.524 198.800,322.228 198.800 C 322.998 198.800,323.200 198.592,323.200 197.800 C 323.200 197.000,323.400 196.800,324.200 196.800 C 324.750 196.800,325.179 196.665,325.153 196.500 C 324.987 195.452,325.315 194.839,326.100 194.728 C 326.678 194.646,327.046 194.278,327.128 193.700 C 327.220 193.052,327.525 192.800,328.216 192.800 C 328.816 192.800,329.504 192.356,330.052 191.616 C 330.533 190.964,331.058 190.512,331.218 190.611 C 331.379 190.710,331.485 190.478,331.455 190.096 C 331.421 189.662,331.662 189.421,332.096 189.455 C 332.478 189.485,332.722 189.395,332.638 189.255 C 332.553 189.115,332.735 188.768,333.042 188.484 C 333.389 188.163,333.600 188.132,333.600 188.400 C 333.600 188.668,333.810 188.636,334.156 188.316 C 334.511 187.986,334.564 187.708,334.303 187.544 C 334.078 187.403,334.278 187.166,334.747 187.017 C 335.216 186.868,335.600 186.488,335.600 186.173 C 335.600 185.858,335.881 185.600,336.224 185.600 C 336.567 185.600,336.736 185.420,336.600 185.200 C 336.378 184.840,336.903 184.627,337.700 184.753 C 337.865 184.779,337.955 184.575,337.900 184.300 C 337.845 184.025,338.038 183.849,338.330 183.910 C 338.621 183.970,338.751 183.844,338.619 183.630 C 338.337 183.175,339.852 182.261,340.363 182.577 C 340.554 182.695,340.685 182.486,340.655 182.113 C 340.624 181.735,341.089 181.195,341.700 180.895 C 342.305 180.599,342.800 180.186,342.800 179.978 C 342.800 179.182,342.962 178.984,344.038 178.463 C 344.720 178.132,345.063 177.710,344.930 177.363 C 344.780 176.970,345.021 176.800,345.729 176.800 C 346.471 176.800,346.779 176.562,346.872 175.916 C 346.952 175.361,347.372 174.942,348.000 174.790 C 348.660 174.630,348.959 174.313,348.879 173.860 C 348.799 173.402,349.156 173.034,349.951 172.757 C 350.817 172.455,351.102 172.131,350.994 171.571 C 350.881 170.985,351.073 170.800,351.795 170.800 C 352.475 170.800,352.781 170.545,352.872 169.900 C 352.954 169.322,353.322 168.954,353.900 168.872 C 354.395 168.802,354.822 168.577,354.850 168.372 C 354.878 168.167,354.923 167.775,354.950 167.500 C 354.978 167.225,355.405 166.942,355.900 166.872 C 356.551 166.780,356.800 166.476,356.800 165.772 C 356.800 164.956,356.995 164.800,358.018 164.800 C 358.760 164.800,359.210 164.605,359.170 164.300 C 359.028 163.206,359.238 162.850,360.100 162.728 C 360.670 162.647,361.046 162.279,361.125 161.725 C 361.202 161.179,361.579 160.802,362.125 160.725 C 362.679 160.646,363.047 160.270,363.128 159.700 C 363.207 159.143,363.533 158.800,363.984 158.800 C 364.423 158.800,364.811 158.412,364.957 157.828 C 365.110 157.221,365.540 156.807,366.101 156.728 C 366.670 156.647,367.046 156.278,367.125 155.725 C 367.202 155.179,367.579 154.802,368.125 154.725 C 369.703 154.500,369.584 149.200,368.000 149.200 C 367.497 149.200,367.125 148.842,366.964 148.200 C 366.807 147.574,366.430 147.200,365.957 147.200 C 365.416 147.200,365.200 146.914,365.200 146.200 C 365.200 145.400,365.000 145.200,364.200 145.200 C 363.400 145.200,363.200 145.000,363.200 144.200 C 363.200 143.397,363.001 143.200,362.190 143.200 C 361.481 143.200,361.067 142.902,360.800 142.200 C 360.591 141.650,360.149 141.200,359.818 141.200 C 359.486 141.200,359.102 140.750,358.964 140.200 C 358.784 139.482,358.443 139.200,357.757 139.200 C 357.010 139.200,356.800 138.986,356.800 138.228 C 356.800 137.524,356.551 137.220,355.900 137.128 C 355.405 137.058,355.000 136.750,355.000 136.444 C 355.000 135.989,354.454 135.513,353.270 134.937 C 353.198 134.902,353.092 134.542,353.034 134.137 C 352.852 132.867,350.800 132.901,350.800 134.173 M125.200 156.178 C 125.200 157.001,125.006 157.200,124.200 157.200 C 123.400 157.200,123.200 157.400,123.200 158.200 C 123.200 159.000,123.000 159.200,122.200 159.200 C 121.400 159.200,121.200 159.400,121.200 160.200 C 121.200 160.978,120.995 161.200,120.275 161.200 C 119.242 161.200,117.435 162.920,117.018 164.300 C 116.858 164.829,116.427 165.200,115.973 165.200 C 115.548 165.200,115.197 165.425,115.194 165.700 C 115.190 166.030,115.088 166.056,114.894 165.778 C 114.628 165.397,113.200 166.427,113.200 167.000 C 113.200 167.110,113.200 167.402,113.200 167.649 C 113.200 167.960,113.046 167.972,112.700 167.689 C 112.267 167.335,110.737 168.292,111.100 168.690 C 111.471 169.097,111.058 169.488,110.300 169.448 C 109.606 169.411,109.411 169.606,109.448 170.300 C 109.489 171.081,109.232 171.323,108.400 171.286 C 108.108 171.272,107.177 172.340,107.217 172.643 C 107.235 172.785,106.834 173.108,106.325 173.360 C 105.774 173.633,105.350 174.251,105.276 174.887 C 105.193 175.596,104.968 175.886,104.606 175.747 C 104.307 175.632,103.861 175.912,103.617 176.369 C 103.351 176.865,102.775 177.200,102.186 177.200 C 101.414 177.200,101.200 177.407,101.200 178.153 C 101.200 178.782,100.917 179.181,100.370 179.324 C 99.914 179.443,99.446 179.904,99.330 180.348 C 99.213 180.792,98.732 181.210,98.259 181.278 C 97.730 181.353,97.352 181.736,97.275 182.275 C 97.198 182.821,96.821 183.198,96.275 183.275 C 95.721 183.354,95.353 183.730,95.272 184.300 C 95.180 184.951,94.876 185.200,94.172 185.200 C 93.402 185.200,93.200 185.408,93.200 186.200 C 93.200 187.000,93.000 187.200,92.200 187.200 C 91.408 187.200,91.200 187.402,91.200 188.172 C 91.200 188.876,90.951 189.180,90.300 189.272 C 89.730 189.353,89.354 189.721,89.275 190.275 C 89.198 190.821,88.821 191.198,88.275 191.275 C 87.721 191.354,87.353 191.730,87.272 192.300 C 87.180 192.951,86.876 193.200,86.172 193.200 C 85.402 193.200,85.200 193.408,85.200 194.200 C 85.200 195.000,85.000 195.200,84.200 195.200 C 83.408 195.200,83.200 195.402,83.200 196.172 C 83.200 196.876,82.951 197.180,82.300 197.272 C 81.722 197.354,81.354 197.722,81.272 198.300 C 81.180 198.951,80.876 199.200,80.172 199.200 C 79.402 199.200,79.200 199.408,79.200 200.200 C 79.200 201.000,79.000 201.200,78.200 201.200 C 77.400 201.200,77.200 201.400,77.200 202.200 C 77.200 203.000,77.000 203.200,76.200 203.200 C 75.400 203.200,75.200 203.400,75.200 204.200 C 75.200 205.000,75.000 205.200,74.200 205.200 C 73.400 205.200,73.200 205.400,73.200 206.200 C 73.200 206.978,72.995 207.200,72.275 207.200 C 71.242 207.200,69.435 208.920,69.018 210.300 C 68.858 210.829,68.427 211.200,67.973 211.200 C 67.548 211.200,67.197 211.425,67.194 211.700 C 67.190 212.030,67.088 212.056,66.894 211.778 C 66.628 211.397,65.200 212.427,65.200 213.000 C 65.200 213.110,65.200 213.402,65.200 213.649 C 65.200 213.960,65.046 213.972,64.700 213.689 C 64.267 213.335,62.737 214.292,63.100 214.690 C 63.471 215.097,63.058 215.488,62.300 215.448 C 61.606 215.411,61.411 215.606,61.448 216.300 C 61.489 217.081,61.232 217.323,60.400 217.286 C 60.108 217.272,59.177 218.340,59.217 218.643 C 59.235 218.785,58.834 219.108,58.325 219.360 C 57.774 219.633,57.350 220.251,57.276 220.887 C 57.193 221.596,56.968 221.886,56.606 221.747 C 56.307 221.632,55.861 221.912,55.617 222.369 C 55.351 222.865,54.775 223.200,54.186 223.200 C 53.414 223.200,53.200 223.407,53.200 224.153 C 53.200 224.782,52.917 225.181,52.370 225.324 C 51.914 225.443,51.446 225.904,51.330 226.348 C 51.213 226.792,50.732 227.210,50.259 227.278 C 49.730 227.353,49.352 227.736,49.275 228.275 C 49.198 228.821,48.821 229.198,48.275 229.275 C 47.721 229.354,47.353 229.730,47.272 230.300 C 47.180 230.951,46.876 231.200,46.172 231.200 C 45.402 231.200,45.200 231.408,45.200 232.200 C 45.200 233.000,45.000 233.200,44.200 233.200 C 43.408 233.200,43.200 233.402,43.200 234.172 C 43.200 234.876,42.951 235.180,42.300 235.272 C 41.730 235.353,41.354 235.721,41.275 236.275 C 41.198 236.821,40.821 237.198,40.275 237.275 C 39.721 237.354,39.353 237.730,39.272 238.300 C 39.180 238.951,38.876 239.200,38.172 239.200 C 37.402 239.200,37.200 239.408,37.200 240.200 C 37.200 241.000,37.000 241.200,36.200 241.200 C 35.408 241.200,35.200 241.402,35.200 242.172 C 35.200 242.876,34.951 243.180,34.300 243.272 C 33.722 243.354,33.354 243.722,33.272 244.300 C 33.180 244.951,32.876 245.200,32.172 245.200 C 31.235 245.200,31.200 245.301,31.200 248.000 C 31.200 250.720,31.229 250.800,32.200 250.800 C 33.000 250.800,33.200 251.000,33.200 251.800 C 33.200 252.600,33.400 252.800,34.200 252.800 C 35.000 252.800,35.200 253.000,35.200 253.800 C 35.200 254.600,35.400 254.800,36.200 254.800 C 37.000 254.800,37.200 255.000,37.200 255.800 C 37.200 256.592,37.402 256.800,38.172 256.800 C 38.876 256.800,39.180 257.049,39.272 257.700 C 39.354 258.278,39.722 258.646,40.300 258.728 C 40.951 258.820,41.200 259.124,41.200 259.828 C 41.200 260.598,41.408 260.800,42.200 260.800 C 43.000 260.800,43.200 261.000,43.200 261.800 C 43.200 262.592,43.402 262.800,44.172 262.800 C 44.876 262.800,45.180 263.049,45.272 263.700 C 45.354 264.278,45.722 264.646,46.300 264.728 C 46.951 264.820,47.200 265.124,47.200 265.828 C 47.200 266.598,47.408 266.800,48.200 266.800 C 49.000 266.800,49.200 267.000,49.200 267.800 C 49.200 268.592,49.402 268.800,50.172 268.800 C 50.876 268.800,51.180 269.049,51.272 269.700 C 51.354 270.278,51.722 270.646,52.299 270.728 C 52.860 270.807,53.290 271.221,53.443 271.828 C 53.594 272.429,53.976 272.800,54.443 272.800 C 54.933 272.800,55.200 273.082,55.200 273.600 C 55.200 274.040,55.457 274.400,55.771 274.400 C 56.582 274.400,57.684 275.604,57.445 276.227 C 57.316 276.564,57.628 276.795,58.322 276.876 C 58.915 276.944,59.387 277.180,59.371 277.400 C 59.330 277.985,60.248 278.800,60.948 278.800 C 61.339 278.800,61.499 279.084,61.400 279.600 C 61.296 280.142,61.464 280.404,61.923 280.413 C 62.729 280.429,64.400 281.745,64.400 282.364 C 64.400 282.604,64.625 282.755,64.900 282.700 C 65.175 282.645,65.355 282.825,65.300 283.100 C 65.245 283.375,65.470 283.600,65.800 283.600 C 66.130 283.600,66.400 283.791,66.400 284.024 C 66.400 284.257,66.175 284.318,65.900 284.159 C 65.625 284.001,65.535 284.020,65.699 284.202 C 65.864 284.383,66.474 284.583,67.055 284.645 C 68.848 284.836,69.275 285.133,69.001 285.998 C 68.857 286.450,68.932 286.822,69.173 286.850 C 70.206 286.971,70.351 287.018,70.667 287.333 C 70.850 287.517,71.000 287.877,71.000 288.133 C 71.000 288.390,71.495 288.657,72.100 288.727 C 72.964 288.826,73.200 289.062,73.200 289.827 C 73.200 290.598,73.407 290.800,74.200 290.800 C 75.000 290.800,75.200 291.000,75.200 291.800 C 75.200 292.600,75.400 292.800,76.200 292.800 C 77.000 292.800,77.200 293.000,77.200 293.800 C 77.200 294.600,77.400 294.800,78.200 294.800 C 79.000 294.800,79.200 295.000,79.200 295.800 C 79.200 296.600,79.400 296.800,80.200 296.800 C 81.000 296.800,81.200 297.000,81.200 297.800 C 81.200 298.600,81.400 298.800,82.200 298.800 C 83.000 298.800,83.200 299.000,83.200 299.800 C 83.200 300.600,83.400 300.800,84.200 300.800 C 85.000 300.800,85.200 301.000,85.200 301.800 C 85.200 302.592,85.402 302.800,86.172 302.800 C 86.876 302.800,87.180 303.049,87.272 303.700 C 87.354 304.278,87.722 304.646,88.300 304.728 C 88.951 304.820,89.200 305.124,89.200 305.828 C 89.200 306.598,89.408 306.800,90.200 306.800 C 91.000 306.800,91.200 307.000,91.200 307.800 C 91.200 308.592,91.402 308.800,92.172 308.800 C 92.876 308.800,93.180 309.049,93.272 309.700 C 93.354 310.278,93.722 310.646,94.300 310.728 C 94.951 310.820,95.200 311.124,95.200 311.828 C 95.200 312.598,95.408 312.800,96.200 312.800 C 97.000 312.800,97.200 313.000,97.200 313.800 C 97.200 314.592,97.402 314.800,98.172 314.800 C 98.876 314.800,99.180 315.049,99.272 315.700 C 99.354 316.278,99.722 316.646,100.299 316.728 C 100.860 316.807,101.290 317.221,101.443 317.828 C 101.594 318.429,101.976 318.800,102.443 318.800 C 102.933 318.800,103.200 319.082,103.200 319.600 C 103.200 320.040,103.457 320.400,103.771 320.400 C 104.582 320.400,105.684 321.604,105.445 322.227 C 105.316 322.564,105.628 322.795,106.322 322.876 C 106.915 322.944,107.387 323.180,107.371 323.400 C 107.330 323.985,108.248 324.800,108.948 324.800 C 109.339 324.800,109.499 325.084,109.400 325.600 C 109.296 326.142,109.464 326.404,109.923 326.413 C 110.729 326.429,112.400 327.745,112.400 328.364 C 112.400 328.604,112.625 328.755,112.900 328.700 C 113.175 328.645,113.355 328.825,113.300 329.100 C 113.245 329.375,113.470 329.600,113.800 329.600 C 114.130 329.600,114.400 329.791,114.400 330.024 C 114.400 330.257,114.175 330.318,113.900 330.159 C 113.625 330.001,113.535 330.020,113.699 330.202 C 113.864 330.383,114.474 330.583,115.055 330.645 C 116.848 330.836,117.275 331.133,117.001 331.998 C 116.857 332.450,116.932 332.822,117.173 332.850 C 118.206 332.971,118.351 333.018,118.667 333.333 C 118.850 333.517,119.000 333.877,119.000 334.133 C 119.000 334.390,119.495 334.657,120.100 334.727 C 120.964 334.826,121.200 335.062,121.200 335.827 C 121.200 336.598,121.407 336.800,122.200 336.800 C 123.000 336.800,123.200 337.000,123.200 337.800 C 123.200 338.600,123.400 338.800,124.200 338.800 C 125.000 338.800,125.200 339.000,125.200 339.800 C 125.200 340.733,125.333 340.800,127.200 340.800 C 129.498 340.800,130.443 338.862,128.200 338.750 C 127.650 338.723,127.020 338.655,126.800 338.600 C 126.580 338.545,126.220 338.478,126.000 338.450 C 125.780 338.423,125.600 338.036,125.600 337.590 C 125.600 337.094,125.212 336.633,124.600 336.400 C 124.050 336.191,123.600 335.757,123.600 335.437 C 123.600 335.116,123.230 334.736,122.777 334.593 C 122.324 334.449,121.789 333.897,121.587 333.366 C 121.385 332.835,120.941 332.400,120.600 332.400 C 120.259 332.400,119.809 331.950,119.600 331.400 C 119.391 330.850,118.941 330.400,118.600 330.400 C 118.259 330.400,117.809 329.950,117.600 329.400 C 117.391 328.850,116.974 328.400,116.674 328.400 C 116.374 328.400,115.923 327.950,115.673 327.400 C 115.422 326.850,114.943 326.400,114.609 326.400 C 114.274 326.400,114.000 326.235,114.000 326.033 C 114.000 325.507,110.947 322.400,110.431 322.400 C 110.194 322.400,110.000 322.233,110.000 322.029 C 110.000 320.557,102.956 314.600,101.216 314.600 C 99.652 314.600,99.383 314.478,99.275 313.725 C 99.198 313.179,98.821 312.802,98.275 312.725 C 97.721 312.646,97.353 312.270,97.272 311.700 C 97.191 311.125,96.868 310.800,96.380 310.800 C 95.903 310.800,95.523 310.433,95.370 309.823 C 95.221 309.228,94.787 308.798,94.262 308.723 C 93.730 308.647,93.352 308.265,93.275 307.725 C 93.198 307.180,92.820 306.802,92.275 306.723 C 91.645 306.633,91.425 306.353,91.491 305.725 C 91.556 305.093,91.336 304.818,90.691 304.727 C 90.122 304.646,89.754 304.275,89.672 303.700 C 89.580 303.049,89.276 302.800,88.572 302.800 C 87.863 302.800,87.600 302.581,87.600 301.990 C 87.600 301.494,87.212 301.033,86.600 300.800 C 86.004 300.573,85.600 300.104,85.600 299.638 C 85.600 299.131,85.283 298.811,84.700 298.728 C 84.135 298.648,83.754 298.279,83.677 297.738 C 83.602 297.213,83.172 296.779,82.577 296.630 C 81.976 296.479,81.600 296.096,81.600 295.636 C 81.600 295.176,81.224 294.792,80.628 294.643 C 80.021 294.490,79.607 294.060,79.528 293.499 C 79.457 293.005,79.175 292.578,78.900 292.550 C 78.625 292.522,78.220 292.478,78.000 292.450 C 77.780 292.423,77.600 292.036,77.600 291.590 C 77.600 291.094,77.212 290.633,76.600 290.400 C 76.050 290.191,75.600 289.757,75.600 289.437 C 75.600 289.116,75.230 288.736,74.777 288.593 C 74.324 288.449,73.789 287.897,73.587 287.366 C 73.385 286.835,72.941 286.400,72.600 286.400 C 72.259 286.400,71.809 285.950,71.600 285.400 C 71.391 284.850,70.941 284.400,70.600 284.400 C 70.259 284.400,69.809 283.950,69.600 283.400 C 69.391 282.850,68.974 282.400,68.674 282.400 C 68.374 282.400,67.923 281.950,67.673 281.400 C 67.422 280.850,66.943 280.400,66.609 280.400 C 66.274 280.400,66.000 280.235,66.000 280.033 C 66.000 279.507,62.947 276.400,62.431 276.400 C 62.194 276.400,62.000 276.233,62.000 276.029 C 62.000 274.557,54.956 268.600,53.216 268.600 C 51.652 268.600,51.383 268.478,51.275 267.725 C 51.198 267.179,50.821 266.802,50.275 266.725 C 49.721 266.646,49.353 266.270,49.272 265.700 C 49.191 265.125,48.868 264.800,48.380 264.800 C 47.903 264.800,47.523 264.433,47.370 263.823 C 47.221 263.228,46.787 262.798,46.262 262.723 C 45.730 262.647,45.352 262.265,45.275 261.725 C 45.198 261.180,44.820 260.802,44.275 260.723 C 43.645 260.633,43.425 260.353,43.491 259.725 C 43.556 259.093,43.336 258.818,42.691 258.727 C 42.122 258.646,41.754 258.275,41.672 257.700 C 41.580 257.049,41.276 256.800,40.572 256.800 C 39.863 256.800,39.600 256.581,39.600 255.990 C 39.600 255.494,39.212 255.033,38.600 254.800 C 38.004 254.573,37.600 254.104,37.600 253.638 C 37.600 253.131,37.283 252.811,36.700 252.728 C 36.135 252.648,35.754 252.279,35.677 251.738 C 35.602 251.213,35.172 250.779,34.577 250.630 C 33.137 250.269,33.069 245.731,34.500 245.528 C 35.063 245.448,35.446 245.079,35.522 244.541 C 35.590 244.068,36.008 243.587,36.452 243.470 C 36.896 243.354,37.353 242.903,37.467 242.467 C 37.581 242.031,38.015 241.585,38.432 241.476 C 38.849 241.367,39.368 240.810,39.585 240.239 C 39.822 239.615,40.289 239.200,40.753 239.200 C 41.328 239.200,41.472 238.996,41.316 238.399 C 41.147 237.755,41.352 237.550,42.367 237.347 C 43.060 237.208,43.538 237.005,43.428 236.895 C 43.073 236.539,44.010 235.200,44.614 235.200 C 44.936 235.200,45.200 234.843,45.200 234.408 C 45.200 233.901,45.552 233.527,46.177 233.370 C 46.772 233.221,47.202 232.787,47.277 232.262 C 47.354 231.721,47.735 231.352,48.300 231.272 C 48.951 231.180,49.200 230.876,49.200 230.172 C 49.200 229.402,49.408 229.200,50.200 229.200 C 51.012 229.200,51.200 229.003,51.200 228.154 C 51.200 227.121,51.228 227.111,53.365 227.378 C 55.275 227.617,55.559 227.559,55.772 226.888 C 55.905 226.470,56.452 225.893,56.988 225.607 C 57.523 225.320,57.927 224.976,57.884 224.843 C 57.841 224.709,60.549 221.846,63.903 218.479 C 67.256 215.113,70.000 212.188,70.000 211.979 C 70.000 211.771,70.274 211.600,70.610 211.600 C 70.945 211.600,71.382 211.175,71.579 210.655 C 71.777 210.135,72.312 209.612,72.769 209.492 C 73.226 209.373,73.600 208.984,73.600 208.628 C 73.600 208.272,74.050 207.809,74.600 207.600 C 75.150 207.391,75.600 206.941,75.600 206.600 C 75.600 206.259,76.050 205.809,76.600 205.600 C 77.150 205.391,77.600 204.941,77.600 204.600 C 77.600 204.259,78.050 203.809,78.600 203.600 C 79.150 203.391,79.600 202.941,79.600 202.600 C 79.600 202.259,80.050 201.809,80.600 201.600 C 81.196 201.373,81.600 200.904,81.600 200.438 C 81.600 199.931,81.917 199.611,82.500 199.528 C 83.063 199.448,83.446 199.079,83.522 198.541 C 83.590 198.068,84.008 197.587,84.452 197.470 C 84.896 197.354,85.353 196.903,85.467 196.467 C 85.581 196.031,86.015 195.585,86.432 195.476 C 86.849 195.367,87.368 194.810,87.585 194.239 C 87.822 193.615,88.289 193.200,88.753 193.200 C 89.328 193.200,89.472 192.996,89.316 192.399 C 89.147 191.755,89.352 191.550,90.367 191.347 C 91.060 191.208,91.538 191.005,91.428 190.895 C 91.073 190.539,92.010 189.200,92.614 189.200 C 92.936 189.200,93.200 188.843,93.200 188.408 C 93.200 187.901,93.552 187.527,94.177 187.370 C 94.772 187.221,95.202 186.787,95.277 186.262 C 95.354 185.721,95.735 185.352,96.300 185.272 C 96.951 185.180,97.200 184.876,97.200 184.172 C 97.200 183.402,97.408 183.200,98.200 183.200 C 99.012 183.200,99.200 183.003,99.200 182.154 C 99.200 181.121,99.228 181.111,101.365 181.378 C 103.275 181.617,103.559 181.559,103.772 180.888 C 103.905 180.470,104.452 179.893,104.988 179.607 C 105.523 179.320,105.927 178.976,105.884 178.843 C 105.841 178.709,108.549 175.846,111.903 172.479 C 115.256 169.113,118.000 166.188,118.000 165.979 C 118.000 165.771,118.274 165.600,118.610 165.600 C 118.945 165.600,119.391 165.150,119.600 164.600 C 119.809 164.050,120.259 163.600,120.600 163.600 C 120.941 163.600,121.391 163.150,121.600 162.600 C 121.809 162.050,122.259 161.600,122.600 161.600 C 122.941 161.600,123.391 161.150,123.600 160.600 C 123.809 160.050,124.259 159.600,124.600 159.600 C 124.941 159.600,125.387 159.161,125.590 158.625 C 125.879 157.867,126.299 157.623,127.480 157.525 C 130.033 157.315,129.716 155.446,127.100 155.278 C 125.297 155.162,125.200 155.209,125.200 156.178 M67.817 285.572 C 67.544 286.014,68.175 286.492,68.544 286.122 C 68.925 285.742,68.854 285.200,68.424 285.200 C 68.217 285.200,67.944 285.368,67.817 285.572 M115.817 331.572 C 115.544 332.014,116.175 332.492,116.544 332.122 C 116.925 331.742,116.854 331.200,116.424 331.200 C 116.217 331.200,115.944 331.368,115.817 331.572 " stroke="none" fill="#cccccc" fill-rule="evenodd"></path><path id="path2" d="" stroke="none" fill="#f0100e4" fill-rule="evenodd"></path><path id="path3" d="" stroke="none" fill="#f0100e4" fill-rule="evenodd"></path><path id="path4" d="" stroke="none" fill="#f0100e4" fill-rule="evenodd"></path></g></svg>