<svg id="icon_Personal_Banker" data-name="icon Personal Banker" xmlns="http://www.w3.org/2000/svg" width="28" height="26" viewBox="0 0 28 26">
  <defs>
    <style>
      .cls-1, .cls-2 {
        fill: #fff;
        stroke: #c6c3d2;
        stroke-width: 1px;
      }

      .cls-1 {
        fill-rule: evenodd;
      }
    </style>
  </defs>
  <path class="cls-1" d="M675,386h-5a4.749,4.749,0,0,0-3.882-2.831h-0.959a2.711,2.711,0,0,0-5.313,0h-0.959A4.757,4.757,0,0,0,655,386h-5a1.562,1.562,0,0,0-1,1v18.42a0.576,0.576,0,0,0,.573.58h25.854a0.576,0.576,0,0,0,.573-0.58V387A1.554,1.554,0,0,0,675,386Zm-18.5.023a2.55,2.55,0,0,1,2.386-1.7h1.472a0.576,0.576,0,0,0,.573-0.579,1.571,1.571,0,1,1,3.141,0,0.576,0.576,0,0,0,.574.579h1.471a2.548,2.548,0,0,1,2.386,1.7L669,387H656ZM655,388h15a3.629,3.629,0,0,0,0-1h5v18H650V387h5m2.327,7.965a2.494,2.494,0,1,0-2.316-2.488A2.411,2.411,0,0,0,657.327,394.965Zm0-3.939a1.455,1.455,0,1,1-1.351,1.451A1.405,1.405,0,0,1,657.327,391.026Zm0.174,4.408a5.757,5.757,0,0,0-5.5,5.974,0.555,0.555,0,0,0,.531.577h9.93a0.555,0.555,0,0,0,.531-0.577A5.753,5.753,0,0,0,657.5,395.434ZM653,401a4.84,4.84,0,0,1,4.5-4.407,4.582,4.582,0,0,1,4.4,4.238Z" transform="translate(-648.5 -380.5)"/>
  <rect class="cls-2" x="16.5" y="13.5" width="9" height="1"/>
  <rect id="Rectangle_2_copy" data-name="Rectangle 2 copy" class="cls-2" x="16.5" y="16.5" width="9" height="1"/>
</svg>
