<svg xmlns="http://www.w3.org/2000/svg" width="21" height="29" viewBox="0 0 21 29"><defs><clipPath id="a"><path fill="#000000" d="M1111 5036c-1.04 0-2-1.13-2-2v-26a1 1 0 0 1 1-1h18.99a1 1 0 0 1 1 1v26c0 1.01-1.05 2-2 2z"/></clipPath></defs><path fill="none" stroke="#99b6e4" stroke-miterlimit="50" stroke-width="2" d="M1111 5036c-1.04 0-2-1.13-2-2v-26a1 1 0 0 1 1-1h18.99a1 1 0 0 1 1 1v26c0 1.01-1.05 2-2 2z" clip-path="url(&quot;#a&quot;)" transform="translate(-1109 -5007)"/><path fill="none" stroke="#000000" stroke-miterlimit="50" d="M10.01 6h8M4 5.5L5.67 7 8 5M10.01 14h8M4 13.5L5.67 15 8 13M10.01 22h8M4 21.5L5.67 23 8 21"/></svg>