<svg xmlns="http://www.w3.org/2000/svg" width="19" height="22" viewBox="0 0 19 22">
	<defs>
		<clipPath id="a">
			<path fill="#000000" d="M3360 244h15a2 2 0 0 1 2 2v18a2 2 0 0 1-2 2h-15a2 2 0 0 1-2-2v-18c0-1.1.9-2 2-2z"/>
		</clipPath>
	</defs>
	<path fill="none" stroke="#000000" stroke-miterlimit="50" stroke-width="2"
		  d="M3360 244h15a2 2 0 0 1 2 2v18a2 2 0 0 1-2 2h-15a2 2 0 0 1-2-2v-18c0-1.1.9-2 2-2z"
		  clip-path="url(&quot;#a&quot;)" transform="translate(-3358 -244)"/>
	<path fill="none" stroke="#000000" stroke-miterlimit="50" d="M5 7h9M5 11h9M5 15h9"/>
</svg>
