<?xml version="1.0" encoding="utf-8"?>
<!-- Generator: Adobe Illustrator 16.0.0, SVG Export Plug-In . SVG Version: 6.00 Build 0)  -->
<!DOCTYPE svg PUBLIC "-//W3C//DTD SVG 1.1//EN" "http://www.w3.org/Graphics/SVG/1.1/DTD/svg11.dtd">
<svg version="1.1" id="Layer_1" xmlns="http://www.w3.org/2000/svg" xmlns:xlink="http://www.w3.org/1999/xlink" x="0px" y="0px"
	 width="21px" height="29px" viewBox="0 0 21 29" enable-background="new 0 0 21 29" xml:space="preserve">
<g>
	<g transform="translate(-3545 -988)">
		<g>
			<defs>
				<path id="SVGID_1_" d="M3563.7,1015.91c0.72,0,1.3-0.54,1.3-1.2v-20.36l-4.52-4.35H3547.3c-0.72,0-1.3,0.54-1.3,1.21v23.5
					c0,0.66,0.58,1.2,1.3,1.2l2.7-1.91l2.86,1.95l3.14-1.95l2.12,2l2.88-2L3563.7,1015.91z"/>
			</defs>
			<clipPath id="SVGID_2_">
				<use xlink:href="#SVGID_1_"  overflow="visible"/>
			</clipPath>
			<g clip-path="url(#SVGID_2_)">
				<path id="qh17a" fill="#00CCC2" fill-opacity="0" stroke="#99B6E4" stroke-width="2" stroke-miterlimit="50" d="M3563.7,1015.91
					c0.72,0,1.3-0.54,1.3-1.2v-20.36l-4.52-4.35H3547.3c-0.72,0-1.3,0.54-1.3,1.21v23.5c0,0.66,0.58,1.2,1.3,1.2l2.7-1.91l2.86,1.95
					l3.14-1.95l2.12,2l2.88-2L3563.7,1015.91z"/>
			</g>
		</g>
	</g>
	<g transform="translate(-3545 -988)">
		<g>
			<path id="qh17b" fill="#00CCC2" fill-opacity="0" stroke="#99B6E4" stroke-miterlimit="50" d="M3560,991v4h4"/>
		</g>
	</g>
	<g transform="translate(-3545 -988)">
		<g>
			<path id="qh17c" fill="#00CCC2" fill-opacity="0" stroke="#99B6E4" stroke-miterlimit="50" d="M3550,1000h11"/>
		</g>
	</g>
	<g transform="translate(-3545 -988)">
		<g>
			<path id="qh17d" fill="#00CCC2" fill-opacity="0" stroke="#99B6E4" stroke-miterlimit="50" d="M3550,1004h11"/>
		</g>
	</g>
	<g transform="translate(-3545 -988)">
		<g>
			<path id="qh17e" fill="#00CCC2" fill-opacity="0" stroke="#99B6E4" stroke-miterlimit="50" d="M3555,1008h6"/>
		</g>
	</g>
</g>
</svg>
