<svg xmlns="http://www.w3.org/2000/svg" width="22" height="18" viewBox="0 0 22 18">
	<defs>
		<clipPath id="a">
			<path fill="#99b6e4"
				  d="M3251.23 263a2.26 2.26 0 0 1-2.23-2.27v-11.47c0-1.24 1-2.27 2.23-2.27h17.52a2.26 2.26 0 0 1 2.24 2.27v11.47a2.26 2.26 0 0 1-2.24 2.27z"/>
		</clipPath>
	</defs>
	<path fill="none" stroke="#99b6e4" stroke-miterlimit="50"
		  d="M15.13 13.76c-.3.16-.65.25-1.01.25-1.17 0-2.12-.9-2.12-2 0-1.11.95-2.01 2.12-2.01.4 0 .79.1 1.11.3.06.03.09.16.1.34.4-.4.94-.64 1.55-.64 1.17 0 2.12.9 2.12 2 0 1.11-.95 2-2.12 2-.69 0-1.3-.3-1.69-.8l-.06.56zM.05 5.97H22"/>
	<path fill="none" stroke="#99b6e4" stroke-miterlimit="50" stroke-width="2"
		  d="M3251.23 263a2.26 2.26 0 0 1-2.23-2.27v-11.47c0-1.24 1-2.27 2.23-2.27h17.52a2.26 2.26 0 0 1 2.24 2.27v11.47a2.26 2.26 0 0 1-2.24 2.27z"
		  clip-path="url(&quot;#a&quot;)" transform="translate(-3249 -246)"/>
</svg>
