<svg id="svg" version="1.1" width="40" height="30" viewBox="0 0 400 378.40000000000003" xmlns="http://www.w3.org/2000/svg" xmlns:xlink="http://www.w3.org/1999/xlink" ><g id="svgg"><path id="path0" d="M190.782 8.034 C 186.174 12.151,182.403 15.472,182.403 15.414 C 182.403 15.356,180.998 16.629,179.281 18.243 C 177.564 19.858,176.044 21.182,175.903 21.185 C 175.762 21.189,174.150 22.640,172.320 24.409 C 170.490 26.178,168.789 27.625,168.539 27.625 C 168.290 27.625,167.547 28.307,166.887 29.139 C 166.228 29.972,165.550 30.653,165.380 30.653 C 165.050 30.653,163.076 32.388,160.105 35.289 C 159.093 36.277,158.151 37.086,158.012 37.086 C 157.873 37.086,157.132 37.685,156.363 38.417 C 153.705 40.950,151.272 43.141,151.116 43.141 C 151.031 43.141,143.946 49.399,135.372 57.048 C 126.798 64.697,119.696 70.968,119.589 70.984 C 119.482 71.000,118.032 72.316,116.367 73.909 C 114.702 75.502,113.224 76.809,113.084 76.813 C 112.943 76.818,111.330 78.269,109.500 80.038 C 107.670 81.807,105.963 83.254,105.706 83.254 C 105.449 83.254,104.692 83.936,104.023 84.768 C 103.354 85.601,102.664 86.282,102.490 86.282 C 102.316 86.282,101.559 86.963,100.806 87.796 C 100.054 88.628,99.218 89.309,98.947 89.309 C 98.677 89.309,97.781 90.076,96.957 91.012 C 96.133 91.949,95.273 92.715,95.046 92.715 C 94.819 92.715,94.453 93.053,94.233 93.465 C 94.012 93.877,93.197 94.644,92.422 95.169 C 91.647 95.694,89.735 97.308,88.174 98.757 C 84.213 102.432,56.764 126.801,56.764 126.642 C 56.764 126.571,55.364 127.848,53.652 129.481 C 51.941 131.114,50.407 132.450,50.245 132.450 C 50.082 132.450,48.469 133.898,46.659 135.667 C 44.850 137.436,43.190 138.888,42.971 138.892 C 42.752 138.897,41.221 140.259,39.567 141.920 C 37.914 143.580,36.361 144.939,36.115 144.939 C 35.870 144.939,34.962 145.705,34.099 146.641 C 33.236 147.578,32.391 148.344,32.222 148.344 C 32.053 148.344,31.367 149.026,30.698 149.858 C 30.029 150.691,29.276 151.372,29.025 151.372 C 28.774 151.372,27.151 152.692,25.419 154.305 C 23.687 155.918,17.362 161.580,11.363 166.887 L 0.457 176.537 1.553 177.416 C 2.156 177.900,2.649 178.468,2.649 178.680 C 2.649 179.098,4.457 181.177,7.285 184.010 C 8.273 185.001,9.082 185.904,9.082 186.018 C 9.082 186.263,20.853 199.432,21.072 199.432 C 21.196 199.432,35.660 186.622,40.570 182.163 C 41.342 181.462,42.083 180.889,42.219 180.889 C 42.354 180.889,42.779 180.489,43.163 180.001 C 43.548 179.512,45.105 178.114,46.624 176.894 C 48.142 175.675,50.152 173.903,51.089 172.958 C 52.027 172.013,53.558 170.643,54.492 169.915 C 55.426 169.186,56.893 167.867,57.753 166.982 C 58.612 166.097,59.465 165.371,59.648 165.369 C 59.831 165.366,61.514 163.919,63.387 162.153 C 65.260 160.388,66.850 158.943,66.920 158.942 C 67.040 158.940,74.516 152.303,90.912 137.643 C 94.818 134.151,98.013 131.343,98.013 131.403 C 98.013 131.463,99.584 130.034,101.504 128.227 C 103.424 126.421,105.109 125.012,105.247 125.098 C 105.386 125.184,105.750 124.871,106.056 124.404 C 106.362 123.937,107.766 122.619,109.177 121.475 C 110.588 120.331,112.941 118.232,114.407 116.811 C 115.873 115.390,117.797 113.729,118.682 113.120 C 119.566 112.511,120.654 111.503,121.098 110.879 C 121.542 110.255,122.082 109.745,122.298 109.745 C 122.513 109.745,123.310 109.155,124.069 108.435 C 124.828 107.715,128.770 104.188,132.829 100.598 C 136.887 97.009,144.849 89.927,150.520 84.861 C 156.192 79.796,160.833 75.718,160.833 75.800 C 160.833 75.881,162.323 74.526,164.144 72.789 C 165.965 71.052,167.647 69.631,167.883 69.631 C 168.119 69.631,168.739 69.078,169.262 68.401 C 169.785 67.725,171.180 66.405,172.362 65.468 C 173.544 64.532,175.819 62.509,177.417 60.973 C 179.014 59.437,180.954 57.779,181.726 57.288 C 182.499 56.797,183.510 55.882,183.973 55.255 C 184.437 54.628,184.974 54.115,185.168 54.115 C 185.361 54.115,186.138 53.518,186.894 52.787 C 190.724 49.086,199.505 41.627,200.033 41.627 C 200.365 41.627,202.963 43.681,205.806 46.191 C 213.396 52.893,213.938 53.359,214.145 53.359 C 214.249 53.359,215.150 54.167,216.146 55.156 C 218.956 57.945,221.049 59.792,221.401 59.792 C 221.577 59.792,222.162 60.369,222.700 61.075 C 223.238 61.780,224.311 62.777,225.084 63.288 C 225.857 63.800,227.640 65.330,229.044 66.687 C 230.449 68.045,231.599 69.085,231.599 69.000 C 231.599 68.914,234.707 71.627,238.505 75.028 C 242.304 78.429,250.265 85.518,256.197 90.780 C 262.129 96.043,267.598 100.930,268.351 101.640 C 269.103 102.351,269.803 102.933,269.905 102.933 C 270.007 102.933,270.932 103.742,271.961 104.730 C 274.186 106.868,276.671 108.988,276.952 108.988 C 277.063 108.988,277.952 109.797,278.927 110.785 C 281.210 113.100,283.869 115.421,284.239 115.421 C 284.398 115.421,285.156 116.187,285.924 117.124 C 286.691 118.061,287.473 118.827,287.662 118.827 C 288.048 118.827,289.945 120.435,292.616 123.026 C 293.602 123.982,294.456 124.718,294.513 124.660 C 294.571 124.603,296.189 126.034,298.109 127.841 C 300.029 129.648,301.730 131.195,301.888 131.280 C 302.046 131.364,308.968 137.495,317.269 144.903 C 325.571 152.311,332.529 158.436,332.733 158.513 C 332.937 158.590,333.912 159.442,334.899 160.405 C 338.032 163.464,339.796 164.995,340.186 164.995 C 340.394 164.995,340.932 165.493,341.381 166.100 C 341.830 166.708,343.556 168.275,345.215 169.582 C 346.874 170.889,348.664 172.525,349.192 173.217 C 349.721 173.910,350.227 174.403,350.317 174.312 C 350.408 174.222,351.193 174.788,352.062 175.570 C 352.931 176.352,355.260 178.428,357.237 180.182 C 359.215 181.936,364.749 186.866,369.536 191.137 C 374.324 195.409,378.438 199.024,378.681 199.170 C 379.033 199.383,390.913 186.728,390.919 186.133 C 390.920 186.059,392.365 184.465,394.131 182.592 C 395.896 180.719,397.343 179.006,397.346 178.785 C 397.349 178.563,397.856 178.009,398.474 177.553 C 399.588 176.729,399.690 175.756,398.688 175.518 C 398.216 175.406,371.479 151.844,369.158 149.494 C 368.533 148.862,367.898 148.344,367.746 148.344 C 367.595 148.344,366.764 147.578,365.901 146.641 C 365.038 145.705,364.111 144.939,363.841 144.939 C 363.572 144.939,362.768 144.257,362.056 143.425 C 361.343 142.592,360.627 141.911,360.466 141.911 C 360.304 141.911,359.497 141.145,358.672 140.208 C 357.848 139.272,356.962 138.505,356.703 138.505 C 356.445 138.505,354.866 137.165,353.195 135.528 C 351.524 133.890,349.969 132.485,349.740 132.406 C 349.510 132.326,347.911 130.955,346.185 129.359 C 344.459 127.763,341.556 125.153,339.735 123.560 C 337.914 121.967,336.424 120.505,336.424 120.312 C 336.424 120.120,336.294 120.005,336.136 120.057 C 335.978 120.109,328.833 113.893,320.258 106.244 C 311.684 98.595,304.599 92.337,304.513 92.337 C 304.427 92.337,303.526 91.572,302.510 90.636 C 298.604 87.041,297.741 86.282,297.556 86.282 C 297.451 86.282,296.536 85.473,295.524 84.484 C 292.518 81.549,290.578 79.849,290.235 79.849 C 290.058 79.849,289.365 79.167,288.696 78.335 C 288.027 77.502,287.290 76.821,287.058 76.821 C 286.826 76.821,285.152 75.386,283.337 73.631 C 281.523 71.877,280.038 70.524,280.038 70.624 C 280.038 70.724,277.696 68.704,274.834 66.135 C 262.104 54.705,241.838 36.708,241.699 36.708 C 241.615 36.708,240.628 35.855,239.505 34.812 C 235.892 31.456,234.947 30.653,234.614 30.653 C 234.434 30.653,233.823 30.045,233.256 29.302 C 232.689 28.558,231.492 27.446,230.597 26.830 C 229.701 26.214,227.867 24.608,226.520 23.262 C 225.174 21.915,223.935 20.812,223.767 20.810 C 223.600 20.808,222.100 19.504,220.435 17.912 C 218.770 16.320,217.319 15.032,217.211 15.049 C 217.102 15.065,215.422 13.581,213.476 11.751 C 211.530 9.920,209.868 8.406,209.782 8.387 C 209.696 8.368,207.668 6.614,205.276 4.489 C 199.564 -0.584,200.754 -0.875,190.782 8.034 M60.170 62.416 L 60.170 99.104 61.022 98.646 C 61.490 98.395,63.489 96.617,65.464 94.695 C 67.439 92.774,69.249 91.202,69.486 91.202 C 69.724 91.202,70.718 90.265,71.696 89.120 C 72.674 87.975,73.620 87.039,73.799 87.039 C 74.232 87.039,77.311 84.311,79.666 81.840 C 80.711 80.745,81.734 79.849,81.941 79.849 C 82.147 79.849,84.059 78.146,86.189 76.064 C 88.318 73.983,90.153 72.280,90.265 72.280 C 90.377 72.280,94.729 68.401,99.937 63.659 L 109.406 55.038 109.376 42.423 C 109.356 33.835,109.479 29.649,109.759 29.310 C 109.986 29.037,110.118 28.163,110.053 27.368 L 109.934 25.922 85.052 25.825 L 60.170 25.728 60.170 62.416 M198.493 70.003 C 197.684 70.831,196.975 71.463,196.919 71.406 C 196.862 71.350,195.404 72.629,193.678 74.249 C 191.951 75.870,190.424 77.196,190.283 77.198 C 190.142 77.199,188.530 78.647,186.700 80.416 C 184.870 82.185,183.234 83.633,183.064 83.633 C 182.894 83.633,181.363 84.995,179.661 86.660 C 177.960 88.325,176.357 89.688,176.099 89.688 C 175.840 89.688,174.988 90.454,174.205 91.391 C 173.423 92.327,172.643 93.094,172.472 93.094 C 172.302 93.094,171.623 93.707,170.965 94.458 C 170.306 95.208,169.451 95.939,169.065 96.082 C 168.678 96.225,167.051 97.569,165.449 99.068 C 163.846 100.568,159.215 104.726,155.156 108.307 C 151.097 111.888,144.669 117.598,140.870 120.996 C 137.072 124.393,133.964 127.126,133.964 127.068 C 133.964 127.010,132.559 128.282,130.842 129.894 C 129.125 131.506,127.605 132.826,127.464 132.827 C 127.323 132.828,125.711 134.276,123.881 136.045 C 122.051 137.815,120.407 139.262,120.228 139.262 C 120.049 139.262,118.526 140.624,116.842 142.289 C 115.159 143.955,113.569 145.317,113.309 145.317 C 113.049 145.317,112.162 146.083,111.337 147.020 C 110.513 147.956,109.706 148.723,109.544 148.723 C 109.382 148.723,108.666 149.404,107.954 150.237 C 107.241 151.069,106.452 151.750,106.199 151.750 C 105.947 151.750,104.348 153.113,102.647 154.778 C 100.946 156.443,99.454 157.805,99.332 157.805 C 99.135 157.805,95.247 161.246,76.569 177.948 C 73.829 180.398,71.515 182.403,71.427 182.403 C 71.339 182.403,69.839 183.765,68.094 185.430 C 66.349 187.096,64.792 188.458,64.635 188.458 C 64.478 188.458,63.409 189.398,62.260 190.547 L 60.170 192.637 60.170 282.567 L 60.170 372.497 61.094 374.074 C 61.890 375.432,65.090 378.129,65.090 377.442 C 65.090 377.310,65.371 377.435,65.716 377.721 C 66.237 378.153,73.804 378.257,110.933 378.341 L 155.524 378.442 155.624 337.821 L 155.724 297.201 156.642 295.860 C 157.713 294.297,160.969 291.953,161.561 292.319 C 161.785 292.458,161.968 292.390,161.968 292.170 C 161.968 291.891,173.485 291.769,200.000 291.769 C 226.515 291.769,238.032 291.891,238.032 292.170 C 238.032 292.390,238.215 292.458,238.439 292.319 C 239.031 291.953,242.287 294.297,243.358 295.860 L 244.276 297.201 244.376 337.821 L 244.476 378.442 289.067 378.341 C 326.196 378.257,333.763 378.153,334.284 377.721 C 334.629 377.435,334.910 377.310,334.910 377.442 C 334.910 378.169,338.135 375.390,339.000 373.918 L 340.019 372.185 340.119 282.575 L 340.219 192.964 337.848 190.579 C 336.545 189.268,335.269 188.126,335.013 188.043 C 334.757 187.959,333.139 186.577,331.418 184.973 C 329.696 183.368,321.902 176.410,314.096 169.511 C 306.291 162.611,298.488 155.665,296.755 154.074 C 295.023 152.484,293.417 151.115,293.186 151.033 C 292.955 150.951,291.399 149.546,289.728 147.911 C 288.058 146.276,286.491 144.939,286.247 144.939 C 286.002 144.939,285.187 144.257,284.435 143.425 C 283.683 142.592,282.961 141.911,282.830 141.911 C 282.700 141.911,281.919 141.145,281.094 140.208 C 280.270 139.272,279.384 138.505,279.125 138.505 C 278.867 138.505,277.265 137.143,275.566 135.478 C 273.867 133.813,272.342 132.450,272.177 132.450 C 272.013 132.450,270.396 131.018,268.586 129.268 C 266.775 127.517,265.141 126.027,264.954 125.956 C 264.767 125.886,258.611 120.464,251.273 113.907 C 243.936 107.351,237.696 101.849,237.408 101.680 C 237.120 101.512,235.485 100.022,233.776 98.369 C 232.067 96.716,230.460 95.364,230.206 95.364 C 229.951 95.364,229.195 94.683,228.526 93.851 C 227.857 93.018,227.167 92.337,226.993 92.337 C 226.820 92.337,226.062 91.656,225.310 90.823 C 224.558 89.991,223.738 89.309,223.489 89.309 C 223.240 89.309,221.579 87.862,219.798 86.093 C 218.017 84.324,216.406 82.876,216.219 82.876 C 216.031 82.876,214.469 81.514,212.747 79.849 C 211.025 78.184,209.491 76.821,209.338 76.821 C 209.184 76.821,207.574 75.386,205.759 73.631 C 203.945 71.877,202.460 70.548,202.460 70.678 C 202.460 70.808,201.898 70.371,201.212 69.705 L 199.964 68.496 198.493 70.003 " stroke="none" fill="#fcfcfc" fill-rule="evenodd"></path><path id="path1" d="M196.833 1.437 C 195.924 2.208,193.776 4.115,192.061 5.676 C 190.345 7.237,187.640 9.600,186.051 10.926 C 184.461 12.252,183.160 13.489,183.160 13.675 C 183.160 13.861,182.651 14.322,182.030 14.700 C 181.409 15.078,179.493 16.671,177.773 18.241 C 176.053 19.810,173.113 22.436,171.241 24.076 C 165.020 29.524,153.493 39.756,150.615 42.384 C 149.054 43.809,147.266 45.360,146.641 45.830 C 146.017 46.300,144.484 47.667,143.236 48.868 C 141.987 50.068,140.454 51.430,139.830 51.894 C 139.205 52.357,137.403 53.941,135.825 55.413 C 134.248 56.885,131.736 59.096,130.244 60.327 C 128.752 61.558,127.531 62.692,127.531 62.848 C 127.531 63.005,126.807 63.660,125.922 64.306 C 125.038 64.951,123.037 66.658,121.476 68.097 C 119.915 69.537,117.773 71.450,116.715 72.349 C 113.814 74.815,91.045 95.010,87.756 98.034 C 86.174 99.489,84.274 101.145,83.534 101.712 C 82.209 102.728,79.145 105.466,73.466 110.709 C 71.877 112.176,69.981 113.814,69.253 114.350 C 68.524 114.886,66.977 116.241,65.814 117.360 C 64.652 118.479,62.867 120.076,61.847 120.908 C 60.828 121.741,59.054 123.300,57.906 124.374 C 56.758 125.447,54.967 127.049,53.926 127.933 C 52.886 128.818,50.757 130.691,49.196 132.095 C 47.635 133.500,43.803 136.902,40.681 139.654 C 37.559 142.406,33.614 145.920,31.913 147.463 C 30.213 149.006,28.340 150.633,27.750 151.079 C 27.161 151.524,25.658 152.871,24.409 154.071 C 23.160 155.271,21.627 156.633,21.003 157.097 C 20.378 157.561,18.577 159.145,17.000 160.616 C 15.423 162.088,12.996 164.224,11.608 165.363 C 10.219 166.502,9.082 167.551,9.082 167.694 C 9.082 167.837,8.005 168.800,6.688 169.835 C 2.945 172.777,-0.000 175.692,-0.000 176.456 C -0.000 176.839,1.490 178.853,3.311 180.930 C 5.132 183.008,8.071 186.360,9.841 188.380 C 11.612 190.400,13.636 192.649,14.340 193.377 C 15.043 194.106,16.225 195.468,16.966 196.405 C 20.925 201.409,20.666 201.368,24.667 197.617 C 26.398 195.995,28.325 194.279,28.950 193.804 C 29.574 193.329,31.362 191.766,32.923 190.331 C 34.484 188.895,36.710 186.907,37.869 185.913 C 39.029 184.919,43.116 181.312,46.952 177.897 C 59.720 166.530,62.600 163.977,66.604 160.472 C 68.789 158.560,71.939 155.750,73.605 154.229 C 75.270 152.707,77.483 150.782,78.524 149.950 C 79.565 149.118,81.012 147.799,81.741 147.019 C 82.469 146.239,83.746 145.103,84.579 144.494 C 85.412 143.885,87.200 142.318,88.553 141.011 C 89.905 139.704,91.421 138.359,91.921 138.021 C 92.421 137.683,94.210 136.133,95.895 134.576 C 97.580 133.018,101.258 129.727,104.068 127.261 C 106.878 124.796,112.229 120.059,115.959 116.735 C 119.689 113.410,123.691 109.868,124.852 108.862 C 126.013 107.856,128.243 105.862,129.807 104.431 C 131.371 103.000,133.275 101.354,134.038 100.773 C 135.339 99.782,136.913 98.370,144.110 91.736 C 145.710 90.260,147.438 88.773,147.948 88.430 C 148.459 88.087,150.061 86.654,151.508 85.246 C 152.955 83.839,154.550 82.412,155.052 82.075 C 155.555 81.739,157.274 80.265,158.872 78.799 C 160.471 77.334,168.079 70.578,175.781 63.787 C 183.482 56.995,191.145 50.190,192.810 48.663 C 194.475 47.137,196.776 45.131,197.924 44.205 L 200.011 42.521 201.898 44.011 C 202.935 44.831,207.360 48.690,211.731 52.587 C 216.102 56.483,222.148 61.849,225.166 64.511 C 228.184 67.173,232.060 70.634,233.780 72.204 C 235.500 73.773,237.405 75.360,238.013 75.730 C 238.622 76.100,239.287 76.709,239.493 77.085 C 239.699 77.460,241.013 78.704,242.413 79.849 C 244.927 81.904,248.514 85.091,254.127 90.255 C 255.711 91.712,257.615 93.369,258.360 93.936 C 259.104 94.504,261.008 96.157,262.591 97.610 C 265.776 100.536,277.846 111.273,283.250 115.989 C 287.260 119.488,292.620 124.254,296.689 127.939 C 298.250 129.353,300.251 131.033,301.135 131.672 C 302.020 132.311,302.744 132.966,302.744 133.127 C 302.744 133.288,303.966 134.437,305.461 135.679 C 306.956 136.921,309.683 139.342,311.521 141.060 C 313.359 142.777,314.993 144.182,315.151 144.182 C 315.309 144.182,316.371 145.127,317.511 146.282 C 318.651 147.438,320.341 148.977,321.265 149.703 C 322.190 150.429,324.234 152.186,325.807 153.607 C 328.886 156.391,334.732 161.599,337.528 164.049 C 342.383 168.303,357.068 181.354,359.834 183.874 C 361.574 185.458,363.381 187.010,363.851 187.323 C 364.320 187.635,366.186 189.253,367.998 190.918 C 369.809 192.583,372.600 195.149,374.198 196.619 C 379.312 201.325,379.136 201.299,381.926 197.729 C 382.740 196.689,384.304 194.901,385.402 193.756 C 386.499 192.611,388.381 190.482,389.582 189.026 C 390.783 187.569,392.048 186.121,392.392 185.809 C 394.294 184.083,400.000 177.063,400.000 176.448 C 400.000 175.707,395.488 171.320,392.526 169.180 C 391.641 168.541,390.918 167.886,390.918 167.725 C 390.918 167.563,389.693 166.415,388.196 165.172 C 385.638 163.049,383.798 161.412,376.726 154.967 C 375.127 153.510,373.254 151.884,372.564 151.353 C 371.874 150.823,369.888 149.096,368.152 147.516 C 366.416 145.935,358.694 139.077,350.993 132.275 C 343.292 125.473,336.053 119.026,334.906 117.948 C 333.758 116.871,331.970 115.314,330.932 114.489 C 329.894 113.665,327.938 111.927,326.585 110.627 C 325.232 109.327,323.444 107.766,322.611 107.158 C 321.779 106.549,320.416 105.329,319.584 104.447 C 318.751 103.564,317.389 102.344,316.556 101.735 C 315.724 101.127,313.936 99.561,312.583 98.255 C 311.230 96.949,309.612 95.494,308.988 95.022 C 308.363 94.549,306.575 93.010,305.014 91.601 C 301.799 88.701,284.806 73.601,282.498 71.594 C 281.665 70.870,279.707 69.112,278.146 67.687 C 276.585 66.262,274.669 64.663,273.888 64.134 C 273.108 63.604,272.469 63.039,272.469 62.879 C 272.469 62.718,271.169 61.490,269.580 60.149 C 266.608 57.640,262.555 54.026,257.508 49.385 C 255.924 47.928,253.972 46.225,253.170 45.601 C 252.368 44.976,250.465 43.322,248.940 41.924 C 247.416 40.526,241.996 35.694,236.897 31.187 C 231.798 26.679,225.605 21.182,223.135 18.970 C 220.665 16.758,218.434 14.826,218.177 14.677 C 217.920 14.528,216.620 13.354,215.288 12.068 C 213.956 10.783,211.973 9.069,210.880 8.259 C 209.787 7.450,208.893 6.661,208.893 6.505 C 208.893 6.350,207.769 5.291,206.396 4.152 C 205.022 3.013,203.339 1.613,202.656 1.041 C 200.822 -0.496,198.964 -0.370,196.833 1.437 M207.447 6.055 C 210.839 9.073,213.659 11.542,213.715 11.542 C 213.771 11.542,215.305 12.945,217.126 14.659 C 218.946 16.373,220.540 17.778,220.668 17.781 C 220.795 17.784,222.328 19.148,224.073 20.812 C 225.819 22.477,227.362 23.839,227.503 23.840 C 227.644 23.840,229.256 25.289,231.086 27.058 C 232.916 28.827,234.617 30.274,234.866 30.274 C 235.116 30.274,235.856 30.952,236.512 31.780 C 237.168 32.608,237.824 33.246,237.971 33.199 C 238.118 33.151,238.893 33.836,239.693 34.721 C 240.493 35.605,241.363 36.329,241.627 36.329 C 241.891 36.329,242.761 37.053,243.561 37.938 C 244.361 38.822,245.136 39.507,245.283 39.460 C 245.430 39.412,246.087 40.051,246.743 40.879 C 247.398 41.707,248.133 42.386,248.376 42.389 C 248.619 42.392,250.350 43.839,252.223 45.604 C 254.096 47.370,255.681 48.815,255.744 48.816 C 255.807 48.817,260.431 52.904,266.020 57.900 C 271.609 62.895,276.256 66.982,276.346 66.982 C 276.436 66.982,278.027 68.430,279.882 70.199 C 281.737 71.968,283.370 73.415,283.512 73.415 C 283.654 73.415,285.177 74.778,286.896 76.443 C 288.616 78.108,290.161 79.470,290.330 79.470 C 290.499 79.470,292.118 80.918,293.927 82.687 C 295.736 84.456,297.425 85.904,297.680 85.904 C 297.935 85.904,298.710 86.566,299.403 87.375 C 300.096 88.184,300.829 88.908,301.033 88.983 C 301.236 89.058,301.980 89.759,302.685 90.539 C 303.390 91.320,304.181 91.958,304.442 91.958 C 304.704 91.958,305.609 92.708,306.454 93.624 C 307.298 94.541,308.067 95.213,308.162 95.117 C 308.258 95.022,308.971 95.720,309.748 96.668 C 310.525 97.616,311.331 98.392,311.540 98.392 C 311.749 98.392,314.155 100.400,316.887 102.854 C 327.012 111.951,332.200 116.556,332.324 116.558 C 332.393 116.559,333.983 118.004,335.856 119.769 C 337.729 121.535,339.349 122.982,339.455 122.985 C 339.561 122.987,341.093 124.349,342.861 126.010 C 344.628 127.672,346.189 129.034,346.330 129.038 C 346.471 129.042,348.083 130.492,349.913 132.261 C 351.743 134.030,353.444 135.478,353.693 135.478 C 353.943 135.478,354.692 136.167,355.359 137.009 C 356.026 137.851,356.648 138.464,356.742 138.370 C 356.835 138.277,357.603 138.950,358.447 139.867 C 359.292 140.783,360.203 141.533,360.473 141.533 C 360.742 141.533,361.582 142.256,362.339 143.141 C 363.097 144.026,363.838 144.749,363.987 144.749 C 364.137 144.749,364.913 145.473,365.712 146.358 C 366.511 147.242,367.371 147.966,367.623 147.966 C 367.875 147.966,369.471 149.328,371.170 150.993 C 372.869 152.658,374.355 154.021,374.471 154.021 C 374.588 154.021,378.634 157.550,383.463 161.862 C 393.452 170.784,399.373 176.057,399.561 176.195 C 399.845 176.405,396.547 180.493,395.481 181.252 C 394.852 181.700,394.377 182.195,394.425 182.353 C 394.512 182.635,392.975 184.425,389.927 187.595 C 389.070 188.486,388.440 189.215,388.527 189.215 C 388.615 189.215,386.528 191.606,383.890 194.528 C 379.589 199.292,379.023 199.791,378.414 199.353 C 378.040 199.084,372.455 194.139,366.002 188.363 C 359.549 182.588,354.198 177.862,354.112 177.862 C 354.025 177.862,352.437 176.414,350.582 174.645 C 348.727 172.876,347.089 171.429,346.942 171.429 C 346.795 171.429,345.266 170.066,343.544 168.401 C 341.822 166.736,340.267 165.374,340.088 165.374 C 339.909 165.374,338.461 164.080,336.870 162.500 C 335.279 160.919,333.526 159.392,332.975 159.107 C 332.424 158.822,331.502 158.030,330.927 157.346 C 330.351 156.662,329.765 156.102,329.623 156.102 C 329.373 156.102,328.519 155.342,324.409 151.463 C 323.316 150.432,322.422 149.658,322.422 149.743 C 322.422 149.828,320.080 147.799,317.219 145.233 C 303.579 133.004,297.824 127.888,297.824 127.990 C 297.824 128.051,296.334 126.698,294.513 124.983 C 292.692 123.268,291.115 121.862,291.009 121.859 C 290.903 121.857,289.370 120.495,287.603 118.833 C 285.836 117.172,284.275 115.810,284.134 115.806 C 283.993 115.802,282.380 114.352,280.550 112.583 C 278.721 110.814,277.019 109.366,276.770 109.366 C 276.521 109.366,275.781 108.689,275.125 107.861 C 274.469 107.033,273.812 106.394,273.665 106.442 C 273.518 106.489,272.744 105.804,271.944 104.920 C 271.144 104.035,270.273 103.311,270.009 103.311 C 269.746 103.311,268.876 102.588,268.077 101.703 C 267.278 100.818,266.505 100.095,266.359 100.095 C 266.214 100.095,265.443 99.396,264.646 98.541 C 263.849 97.687,263.008 96.921,262.776 96.838 C 262.543 96.756,256.350 91.325,249.012 84.768 C 241.673 78.212,235.539 72.797,235.380 72.736 C 235.221 72.675,233.582 71.184,231.737 69.425 C 229.892 67.665,228.267 66.225,228.125 66.225 C 227.983 66.225,226.460 64.863,224.741 63.198 C 223.021 61.533,221.476 60.170,221.307 60.170 C 221.138 60.170,219.519 58.723,217.710 56.954 C 215.900 55.184,214.209 53.737,213.952 53.737 C 213.695 53.737,212.853 52.966,212.082 52.024 C 211.310 51.083,210.604 50.387,210.512 50.478 C 210.421 50.570,209.744 49.978,209.008 49.163 C 208.272 48.349,207.456 47.682,207.194 47.682 C 206.933 47.682,206.016 46.920,205.157 45.988 C 204.298 45.056,203.592 44.417,203.589 44.569 C 203.586 44.720,202.932 44.100,202.135 43.191 C 200.315 41.113,200.141 41.165,196.026 45.023 C 194.257 46.682,192.610 48.044,192.366 48.050 C 192.122 48.056,191.303 48.784,190.546 49.669 C 189.789 50.553,189.047 51.277,188.898 51.277 C 188.749 51.277,187.973 52.001,187.174 52.886 C 186.375 53.770,185.513 54.494,185.260 54.494 C 185.006 54.494,183.421 55.856,181.738 57.521 C 180.055 59.186,178.537 60.549,178.365 60.550 C 178.192 60.551,176.623 61.913,174.878 63.577 C 173.132 65.242,171.599 66.604,171.472 66.604 C 171.344 66.604,169.721 68.051,167.867 69.820 C 166.012 71.589,164.394 73.040,164.272 73.043 C 164.149 73.047,162.644 74.371,160.927 75.986 C 159.210 77.600,157.805 78.858,157.805 78.780 C 157.805 78.703,156.230 80.073,154.305 81.825 C 152.379 83.577,147.483 87.959,143.425 91.562 C 139.366 95.165,134.711 99.326,133.080 100.807 C 131.449 102.288,129.806 103.616,129.430 103.758 C 129.053 103.899,128.192 104.703,127.516 105.544 C 126.840 106.385,126.170 107.001,126.028 106.913 C 125.885 106.825,125.135 107.511,124.360 108.438 C 123.586 109.365,122.741 110.123,122.482 110.123 C 122.224 110.123,120.621 111.485,118.920 113.150 C 117.218 114.816,115.687 116.178,115.517 116.178 C 115.347 116.178,113.711 117.625,111.881 119.395 C 110.051 121.164,108.434 122.611,108.288 122.611 C 108.141 122.611,106.594 123.974,104.848 125.639 C 103.103 127.304,101.610 128.666,101.531 128.666 C 101.451 128.666,94.415 134.885,85.894 142.487 C 77.374 150.088,70.325 156.315,70.231 156.324 C 70.136 156.334,69.266 157.081,68.297 157.984 C 64.032 161.960,63.373 162.531,63.139 162.453 C 63.003 162.407,62.267 163.131,61.505 164.061 C 60.743 164.991,59.911 165.752,59.657 165.752 C 59.402 165.752,57.802 167.114,56.100 168.780 C 54.399 170.445,52.873 171.807,52.710 171.807 C 52.546 171.807,50.895 173.254,49.040 175.024 C 47.185 176.793,45.567 178.243,45.445 178.247 C 45.322 178.251,43.817 179.574,42.100 181.189 C 40.383 182.804,38.978 184.074,38.978 184.013 C 38.978 183.951,34.980 187.481,30.094 191.856 C 25.208 196.231,21.131 199.811,21.035 199.811 C 20.796 199.811,11.921 189.866,11.921 189.598 C 11.921 189.480,11.154 188.603,10.218 187.649 C 7.792 185.179,5.676 182.756,5.676 182.448 C 5.676 182.303,4.910 181.544,3.974 180.761 C 3.037 179.978,2.271 179.143,2.271 178.904 C 2.271 178.666,1.812 177.992,1.251 177.407 C 0.644 176.773,0.376 176.217,0.589 176.032 C 0.785 175.860,4.806 172.285,9.523 168.087 C 14.241 163.889,18.201 160.454,18.323 160.454 C 18.446 160.454,20.027 159.007,21.836 157.237 C 23.646 155.468,25.340 154.021,25.601 154.021 C 25.862 154.021,26.617 153.347,27.279 152.524 C 27.941 151.700,28.591 151.062,28.725 151.105 C 28.858 151.148,29.622 150.459,30.422 149.574 C 31.222 148.690,32.092 147.966,32.356 147.966 C 32.619 147.966,33.489 147.242,34.288 146.358 C 35.087 145.473,35.863 144.749,36.013 144.749 C 36.162 144.749,36.903 144.026,37.661 143.141 C 38.418 142.256,39.247 141.533,39.502 141.533 C 39.758 141.533,41.375 140.170,43.094 138.505 C 44.814 136.840,46.337 135.477,46.479 135.476 C 46.620 135.476,48.164 134.113,49.910 132.449 C 51.655 130.785,53.188 129.421,53.315 129.418 C 53.443 129.415,55.080 127.968,56.954 126.203 C 58.827 124.437,60.417 122.992,60.486 122.991 C 60.556 122.990,62.940 120.909,65.784 118.366 C 68.628 115.823,73.340 111.641,76.254 109.072 C 79.167 106.503,82.957 103.095,84.675 101.499 C 86.393 99.903,88.100 98.485,88.469 98.349 C 88.837 98.212,89.674 97.474,90.329 96.707 C 90.984 95.940,91.580 95.367,91.655 95.433 C 91.729 95.499,92.443 94.830,93.242 93.945 C 94.042 93.061,94.909 92.337,95.171 92.337 C 95.432 92.337,96.337 91.587,97.182 90.671 C 98.027 89.754,98.796 89.083,98.891 89.178 C 98.986 89.273,99.699 88.575,100.476 87.627 C 101.253 86.679,102.091 85.904,102.338 85.904 C 102.585 85.904,104.194 84.541,105.914 82.876 C 107.633 81.211,109.162 79.849,109.310 79.849 C 109.458 79.849,111.076 78.401,112.906 76.632 C 114.736 74.863,116.319 73.415,116.424 73.415 C 116.602 73.415,127.410 63.849,138.742 53.662 C 141.474 51.205,143.817 49.196,143.947 49.196 C 144.078 49.196,145.665 47.748,147.475 45.979 C 149.284 44.210,150.967 42.763,151.213 42.763 C 151.460 42.763,152.317 42.039,153.117 41.154 C 153.917 40.270,154.680 39.581,154.814 39.624 C 154.947 39.667,155.598 39.028,156.259 38.205 C 156.921 37.381,157.676 36.708,157.937 36.708 C 158.198 36.708,159.893 35.260,161.702 33.491 C 163.511 31.722,165.130 30.274,165.299 30.274 C 165.468 30.274,167.013 28.912,168.733 27.247 C 170.453 25.582,171.976 24.219,172.117 24.219 C 172.259 24.219,173.879 22.785,175.717 21.031 C 177.556 19.278,179.259 17.751,179.502 17.640 C 179.745 17.528,184.201 13.611,189.404 8.936 C 201.083 -1.558,199.225 -1.261,207.447 6.055 M59.035 63.009 C 59.035 89.004,59.159 101.041,59.427 101.041 C 59.643 101.041,61.558 99.482,63.683 97.576 C 71.051 90.968,75.136 87.278,78.713 83.999 C 80.691 82.186,82.996 80.128,83.837 79.424 C 84.677 78.721,86.564 76.993,88.031 75.584 C 89.497 74.174,91.211 72.642,91.839 72.178 C 92.467 71.714,93.815 70.504,94.835 69.489 C 95.854 68.475,97.838 66.710,99.243 65.568 C 100.648 64.425,101.798 63.371,101.798 63.224 C 101.798 63.077,103.585 61.444,105.770 59.595 C 110.587 55.517,110.023 57.937,110.336 40.019 L 110.599 24.976 84.817 24.976 L 59.035 24.976 59.035 63.009 M109.801 40.303 L 109.681 55.061 108.503 56.291 C 107.856 56.968,107.231 57.522,107.116 57.523 C 107.001 57.524,105.121 59.214,102.939 61.278 C 100.757 63.342,98.884 65.002,98.776 64.968 C 98.669 64.933,97.559 65.883,96.310 67.080 C 91.288 71.894,90.663 72.469,90.464 72.469 C 90.349 72.469,89.510 73.278,88.599 74.267 C 87.688 75.256,86.718 76.064,86.445 76.064 C 86.171 76.064,85.139 77.001,84.150 78.146 C 83.162 79.290,82.229 80.227,82.077 80.227 C 81.925 80.227,81.064 80.991,80.163 81.924 C 79.261 82.857,78.321 83.623,78.072 83.627 C 77.823 83.630,76.887 84.484,75.991 85.525 C 75.095 86.565,74.191 87.417,73.982 87.417 C 73.774 87.417,71.841 89.120,69.687 91.202 C 67.533 93.283,65.687 94.986,65.583 94.986 C 65.480 94.986,64.280 96.008,62.917 97.256 C 61.554 98.505,60.294 99.527,60.116 99.527 C 59.737 99.527,59.669 25.982,60.047 25.604 C 60.187 25.464,71.466 25.393,85.111 25.447 L 109.921 25.544 109.801 40.303 M197.619 69.436 C 196.639 70.370,189.536 76.691,181.835 83.484 C 174.134 90.277,166.556 96.992,164.995 98.406 C 163.434 99.820,161.646 101.363,161.022 101.834 C 160.397 102.304,158.585 103.894,156.993 105.366 C 151.555 110.396,148.108 113.470,146.239 114.957 C 145.212 115.775,143.498 117.278,142.432 118.298 C 141.366 119.317,139.109 121.321,137.418 122.750 C 135.726 124.178,134.342 125.482,134.342 125.645 C 134.342 125.809,133.846 126.257,133.239 126.642 C 132.632 127.027,130.120 129.152,127.657 131.365 C 125.194 133.578,119.092 138.991,114.096 143.394 C 109.101 147.798,103.737 152.573,102.176 154.005 C 100.615 155.437,98.632 157.176,97.770 157.869 C 96.908 158.562,94.892 160.322,93.290 161.779 C 85.734 168.650,84.342 169.885,81.624 172.124 C 80.023 173.443,78.713 174.662,78.713 174.832 C 78.713 175.003,77.904 175.726,76.916 176.440 C 75.927 177.154,73.926 178.850,72.469 180.208 C 69.518 182.961,64.652 187.285,61.272 190.161 L 59.047 192.053 59.043 281.741 C 59.040 343.175,59.164 371.879,59.436 372.858 C 60.222 375.688,63.677 378.472,66.305 378.392 L 67.550 378.353 66.070 378.006 C 63.876 377.492,62.255 376.342,60.953 374.376 L 59.792 372.623 59.792 282.234 L 59.792 191.845 60.643 191.506 C 61.112 191.320,62.838 189.876,64.480 188.299 C 66.121 186.721,67.569 185.428,67.696 185.425 C 67.824 185.423,69.461 183.976,71.334 182.210 C 73.207 180.445,74.802 178.999,74.879 178.999 C 74.956 178.998,78.054 176.272,81.764 172.942 C 85.474 169.612,88.563 166.887,88.629 166.887 C 88.695 166.887,90.195 165.528,91.962 163.867 C 93.729 162.205,95.315 160.843,95.486 160.839 C 95.657 160.836,97.264 159.385,99.057 157.616 C 100.850 155.847,102.524 154.399,102.775 154.399 C 103.027 154.399,103.794 153.761,104.479 152.980 C 105.164 152.200,105.853 151.561,106.009 151.561 C 106.165 151.561,106.913 150.837,107.670 149.953 C 108.427 149.068,109.267 148.344,109.537 148.344 C 109.806 148.344,110.718 147.595,111.562 146.678 C 112.407 145.762,113.174 145.089,113.268 145.182 C 113.361 145.275,113.983 144.663,114.650 143.821 C 115.317 142.979,116.067 142.289,116.316 142.289 C 116.565 142.289,118.266 140.842,120.096 139.073 C 121.926 137.304,123.539 135.853,123.680 135.850 C 123.820 135.846,125.382 134.484,127.149 132.822 C 128.916 131.161,130.411 129.801,130.472 129.801 C 130.532 129.801,135.253 125.629,140.961 120.530 C 146.670 115.430,151.390 111.257,151.451 111.256 C 151.511 111.255,153.009 109.894,154.778 108.231 C 156.547 106.568,158.144 105.207,158.327 105.205 C 158.510 105.204,160.117 103.756,161.898 101.987 C 163.679 100.218,165.340 98.770,165.589 98.770 C 165.839 98.770,166.619 98.132,167.325 97.351 C 168.030 96.570,168.720 95.932,168.860 95.932 C 168.999 95.932,169.732 95.208,170.489 94.324 C 171.246 93.439,172.076 92.715,172.333 92.715 C 172.590 92.715,174.268 91.268,176.061 89.499 C 177.854 87.729,179.466 86.282,179.642 86.282 C 179.819 86.282,181.391 84.920,183.136 83.254 C 184.882 81.589,186.410 80.224,186.532 80.220 C 186.655 80.217,188.201 78.855,189.968 77.193 C 191.735 75.532,193.243 74.172,193.319 74.172 C 193.394 74.172,194.863 72.895,196.582 71.334 C 200.316 67.944,199.746 68.005,202.728 70.672 C 204.066 71.868,205.448 73.032,205.797 73.256 C 206.147 73.481,207.796 74.969,209.461 76.564 C 211.126 78.158,212.617 79.464,212.774 79.466 C 212.931 79.468,214.540 80.918,216.349 82.687 C 218.158 84.456,219.849 85.904,220.106 85.904 C 220.363 85.904,221.205 86.674,221.977 87.616 C 222.749 88.558,223.455 89.254,223.547 89.162 C 223.638 89.071,224.315 89.663,225.051 90.477 C 225.787 91.292,226.605 91.958,226.868 91.958 C 227.132 91.958,228.002 92.682,228.801 93.567 C 229.600 94.451,230.348 95.175,230.464 95.175 C 230.579 95.175,231.327 95.899,232.126 96.783 C 232.925 97.668,233.785 98.392,234.037 98.392 C 234.289 98.392,235.885 99.754,237.584 101.419 C 239.283 103.084,240.767 104.447,240.882 104.447 C 240.997 104.447,245.762 108.619,251.470 113.718 C 257.179 118.817,261.899 122.990,261.960 122.990 C 262.020 122.990,263.515 124.349,265.283 126.010 C 267.050 127.672,268.611 129.034,268.752 129.038 C 268.893 129.042,270.505 130.492,272.335 132.261 C 274.165 134.030,275.852 135.478,276.084 135.478 C 276.316 135.478,277.062 136.170,277.742 137.017 C 278.422 137.863,279.058 138.476,279.156 138.378 C 279.254 138.280,280.024 138.950,280.869 139.867 C 281.714 140.783,282.625 141.533,282.895 141.533 C 283.164 141.533,283.951 142.195,284.644 143.004 C 285.337 143.813,286.070 144.537,286.274 144.612 C 286.477 144.688,287.221 145.388,287.926 146.168 C 288.631 146.949,289.412 147.588,289.661 147.588 C 289.910 147.588,291.581 149.035,293.374 150.804 C 295.167 152.573,296.778 154.021,296.953 154.021 C 297.129 154.021,298.681 155.383,300.403 157.048 C 302.125 158.713,303.621 160.076,303.728 160.076 C 303.834 160.076,306.957 162.800,310.667 166.131 C 314.378 169.461,317.476 172.186,317.552 172.187 C 317.629 172.188,319.224 173.633,321.097 175.398 C 322.971 177.164,324.590 178.611,324.696 178.614 C 324.802 178.616,326.335 179.978,328.102 181.640 C 329.869 183.301,331.430 184.663,331.571 184.667 C 331.712 184.671,333.324 186.121,335.154 187.890 C 336.984 189.659,338.673 191.107,338.908 191.107 C 339.142 191.107,339.618 191.421,339.966 191.805 C 340.972 192.917,340.738 371.561,339.728 373.409 C 338.620 375.437,336.542 377.235,334.625 377.825 C 333.135 378.283,333.014 378.381,333.913 378.403 C 335.733 378.447,338.626 376.599,339.763 374.664 L 340.776 372.942 340.873 282.491 L 340.971 192.039 335.788 187.505 C 332.937 185.011,329.379 181.848,327.880 180.476 C 326.381 179.104,324.412 177.371,323.504 176.626 C 322.597 175.881,321.045 174.495,320.057 173.545 C 319.068 172.596,317.152 170.950,315.800 169.887 C 314.447 168.824,313.340 167.836,313.340 167.692 C 313.340 167.549,312.115 166.415,310.618 165.172 C 308.076 163.062,306.624 161.771,299.142 154.967 C 297.539 153.510,295.543 151.765,294.705 151.090 C 293.867 150.415,291.884 148.688,290.299 147.253 C 288.714 145.819,283.330 141.029,278.335 136.610 C 273.340 132.190,267.232 126.764,264.762 124.552 C 262.292 122.340,259.780 120.215,259.180 119.830 C 258.580 119.446,258.089 118.997,258.089 118.833 C 258.089 118.670,256.697 117.367,254.996 115.938 C 253.294 114.509,250.782 112.291,249.414 111.008 C 248.045 109.726,246.074 108.005,245.033 107.184 C 243.992 106.363,242.800 105.302,242.384 104.826 C 241.968 104.350,240.605 103.109,239.357 102.068 C 238.108 101.027,235.809 99.019,234.248 97.605 C 232.687 96.191,225.109 89.476,217.408 82.682 C 209.707 75.889,202.805 69.747,202.070 69.035 C 200.329 67.347,199.758 67.398,197.619 69.436 M160.643 292.856 C 158.797 293.699,156.729 295.725,156.152 297.256 C 155.839 298.087,155.776 309.168,155.917 338.505 L 156.111 378.619 156.203 339.073 C 156.302 296.608,156.245 297.764,158.398 295.248 C 160.859 292.372,158.888 292.495,200.979 292.612 C 242.623 292.727,239.356 292.500,241.790 295.451 C 243.728 297.800,243.699 297.174,243.796 339.073 L 243.888 378.619 244.082 338.505 C 244.292 295.085,244.381 297.091,242.145 294.834 C 239.313 291.975,242.301 292.164,200.000 292.164 C 164.156 292.164,162.077 292.201,160.643 292.856 " stroke="none" fill="#040404" fill-rule="evenodd"></path><path id="path2" d="M195.837 3.256 L 192.810 6.122 195.932 3.386 C 198.702 0.957,199.300 0.365,198.959 0.384 C 198.907 0.386,197.502 1.679,195.837 3.256 M200.946 0.466 C 200.946 0.556,202.266 1.801,203.879 3.232 C 205.492 4.664,206.471 5.440,206.055 4.957 C 205.186 3.948,200.946 0.221,200.946 0.466 M208.325 7.190 C 209.138 8.023,209.889 8.704,209.993 8.704 C 210.097 8.704,209.517 8.023,208.704 7.190 C 207.891 6.358,207.141 5.676,207.037 5.676 C 206.932 5.676,207.512 6.358,208.325 7.190 M189.215 9.129 L 185.998 12.185 189.309 9.263 C 192.226 6.689,192.888 6.030,192.526 6.064 C 192.474 6.068,190.984 7.448,189.215 9.129 M211.731 10.218 C 212.544 11.050,213.295 11.731,213.399 11.731 C 213.503 11.731,212.923 11.050,212.110 10.218 C 211.297 9.385,210.546 8.704,210.442 8.704 C 210.338 8.704,210.918 9.385,211.731 10.218 M213.813 11.589 C 213.813 11.789,214.622 12.711,215.610 13.639 L 217.408 15.326 215.705 13.441 C 214.768 12.404,213.959 11.482,213.907 11.391 C 213.855 11.301,213.813 11.390,213.813 11.589 M183.917 13.813 C 182.998 14.749,182.331 15.516,182.435 15.516 C 182.539 15.516,183.376 14.749,184.295 13.813 C 185.214 12.876,185.881 12.110,185.777 12.110 C 185.673 12.110,184.836 12.876,183.917 13.813 M180.700 16.651 C 180.102 17.275,179.431 17.792,179.210 17.799 C 178.989 17.805,178.128 18.614,177.297 19.596 C 176.027 21.096,176.284 20.935,178.905 18.584 C 180.621 17.045,182.025 15.725,182.025 15.651 C 182.025 15.351,181.739 15.567,180.700 16.651 M217.975 15.584 C 217.975 15.704,219.292 16.972,220.900 18.402 C 223.273 20.512,223.577 20.701,222.508 19.401 C 221.784 18.521,221.030 17.797,220.832 17.793 C 220.633 17.789,219.910 17.242,219.223 16.577 C 218.537 15.911,217.975 15.465,217.975 15.584 M173.321 23.273 C 172.832 23.794,172.242 24.219,172.010 24.219 C 171.779 24.219,170.917 25.028,170.096 26.017 C 168.733 27.657,168.859 27.586,171.529 25.196 C 173.139 23.756,174.456 22.522,174.456 22.453 C 174.456 22.166,174.161 22.379,173.321 23.273 M225.544 22.394 C 225.544 22.503,226.605 23.512,227.901 24.636 C 230.053 26.502,230.164 26.556,229.181 25.260 C 228.588 24.480,227.921 23.841,227.699 23.841 C 227.477 23.841,226.902 23.471,226.420 23.018 C 225.938 22.566,225.544 22.285,225.544 22.394 M60.044 25.607 C 59.660 25.991,59.740 99.527,60.124 99.527 C 60.307 99.527,60.690 99.229,60.975 98.865 C 61.446 98.265,61.433 98.251,60.833 98.722 C 60.203 99.216,60.170 97.436,60.170 62.482 L 60.170 25.723 85.111 25.822 C 98.828 25.877,109.972 25.795,109.875 25.639 C 109.659 25.288,60.394 25.257,60.044 25.607 M109.538 29.615 C 109.438 29.877,109.401 35.624,109.456 42.387 L 109.556 54.683 109.745 41.911 C 109.849 34.886,109.886 29.139,109.827 29.139 C 109.769 29.139,109.639 29.353,109.538 29.615 M166.131 29.707 C 165.871 30.019,165.439 30.274,165.170 30.274 C 164.901 30.274,164.136 30.998,163.470 31.883 L 162.260 33.491 163.633 32.072 C 164.388 31.291,165.147 30.653,165.320 30.653 C 165.493 30.653,165.943 30.312,166.320 29.896 C 166.696 29.480,166.914 29.139,166.803 29.139 C 166.692 29.139,166.390 29.395,166.131 29.707 M233.644 29.801 C 234.041 30.270,234.511 30.653,234.690 30.653 C 234.869 30.653,235.540 31.206,236.182 31.883 L 237.348 33.113 236.508 31.853 C 236.046 31.160,235.391 30.495,235.052 30.376 C 234.714 30.257,234.096 29.887,233.680 29.555 C 232.930 28.955,232.930 28.957,233.644 29.801 M158.038 36.648 C 157.437 37.000,156.524 37.882,156.008 38.607 L 155.070 39.924 156.383 38.505 C 157.105 37.725,157.870 37.086,158.083 37.086 C 158.295 37.086,158.681 36.831,158.940 36.518 C 159.519 35.822,159.420 35.836,158.038 36.648 M241.438 36.595 C 241.750 36.708,242.602 37.333,243.330 37.984 L 244.655 39.167 243.351 37.748 C 242.633 36.968,241.782 36.343,241.458 36.359 C 240.950 36.385,240.947 36.417,241.438 36.595 M250.253 44.166 C 254.131 47.674,254.860 48.200,251.865 45.330 C 250.189 43.724,248.697 42.405,248.550 42.397 C 248.403 42.390,249.169 43.186,250.253 44.166 M148.155 45.295 C 146.213 47.125,146.021 47.376,147.437 46.235 C 148.499 45.379,149.600 44.398,149.884 44.056 C 150.167 43.714,150.746 43.294,151.169 43.123 C 151.641 42.932,151.719 42.808,151.372 42.804 C 151.060 42.800,149.612 43.921,148.155 45.295 M195.000 45.695 C 193.128 47.494,193.070 47.582,194.665 46.203 C 197.374 43.860,197.732 43.519,197.484 43.519 C 197.364 43.519,196.246 44.499,195.000 45.695 M205.380 46.171 C 206.257 47.086,207.034 47.757,207.107 47.664 C 207.179 47.570,206.461 46.821,205.511 46.000 L 203.784 44.508 205.380 46.171 M255.927 49.056 C 256.255 49.598,262.252 55.016,262.252 54.770 C 262.252 54.669,260.771 53.246,258.960 51.608 C 257.150 49.969,255.785 48.821,255.927 49.056 M140.397 52.270 L 137.181 55.326 140.492 52.404 C 143.409 49.830,144.071 49.171,143.709 49.205 C 143.657 49.209,142.167 50.589,140.397 52.270 M211.932 51.684 C 211.919 52.153,213.512 53.737,213.996 53.737 C 214.175 53.737,214.675 54.035,215.107 54.399 C 215.893 55.061,215.893 55.061,215.173 54.210 C 214.777 53.742,214.300 53.359,214.114 53.359 C 213.928 53.359,213.364 52.890,212.860 52.318 C 212.357 51.746,211.939 51.460,211.932 51.684 M186.566 52.980 C 186.121 53.605,185.524 54.115,185.238 54.115 C 184.952 54.115,184.623 54.270,184.506 54.459 C 184.390 54.647,184.616 54.718,185.009 54.615 C 185.854 54.394,188.423 51.845,187.801 51.845 C 187.566 51.845,187.010 52.356,186.566 52.980 M108.142 56.207 C 107.364 56.930,106.863 57.521,107.027 57.521 C 107.191 57.521,107.903 56.925,108.609 56.197 C 110.257 54.497,109.974 54.503,108.142 56.207 M262.630 54.980 C 262.630 55.084,264.163 56.568,266.036 58.278 C 267.909 59.988,269.442 61.302,269.442 61.198 C 269.442 61.094,267.909 59.610,266.036 57.900 C 264.163 56.190,262.630 54.876,262.630 54.980 M133.396 58.521 L 129.991 61.769 133.491 58.658 C 136.558 55.932,137.276 55.216,136.897 55.262 C 136.845 55.268,135.270 56.735,133.396 58.521 M219.478 58.562 C 220.143 59.447,220.873 60.170,221.099 60.170 C 221.326 60.170,221.865 60.468,222.298 60.833 C 223.083 61.494,223.083 61.494,222.363 60.643 C 221.967 60.175,221.501 59.792,221.328 59.792 C 221.155 59.792,220.395 59.153,219.640 58.373 L 218.268 56.954 219.478 58.562 M178.808 59.684 C 177.559 60.854,176.854 61.576,177.240 61.289 C 177.626 61.002,178.289 60.591,178.711 60.374 C 179.370 60.037,181.626 57.490,181.222 57.539 C 181.143 57.548,180.057 58.513,178.808 59.684 M102.365 61.538 L 98.581 65.162 102.460 61.668 C 105.901 58.568,106.594 57.879,106.244 57.907 C 106.192 57.912,104.447 59.545,102.365 61.538 M269.820 61.430 C 269.820 61.538,272.162 63.718,275.024 66.274 C 277.886 68.830,279.467 70.077,278.539 69.046 C 277.610 68.015,276.673 67.104,276.457 67.023 C 276.241 66.941,274.659 65.605,272.942 64.054 C 271.225 62.503,269.820 61.323,269.820 61.430 M125.828 65.123 C 123.746 66.993,121.447 69.138,120.719 69.890 C 119.991 70.641,121.736 69.168,124.598 66.616 C 129.133 62.572,130.127 61.616,129.707 61.704 C 129.655 61.715,127.909 63.253,125.828 65.123 M226.455 64.806 C 227.044 65.587,227.711 66.225,227.936 66.225 C 228.162 66.225,228.908 66.769,229.594 67.435 C 230.280 68.100,230.842 68.543,230.842 68.420 C 230.842 68.296,229.614 67.113,228.113 65.791 C 225.877 63.820,225.578 63.643,226.455 64.806 M171.599 66.143 C 170.340 67.333,169.753 67.923,170.295 67.455 C 170.837 66.987,171.442 66.604,171.638 66.604 C 171.835 66.604,172.472 66.008,173.053 65.279 C 174.479 63.493,174.278 63.612,171.599 66.143 M95.553 67.624 C 94.513 68.585,94.002 69.188,94.418 68.964 C 95.139 68.577,97.969 65.830,97.614 65.862 C 97.522 65.870,96.594 66.663,95.553 67.624 M198.090 70.104 L 196.594 71.712 198.202 70.216 C 199.698 68.825,199.985 68.496,199.698 68.496 C 199.637 68.496,198.913 69.219,198.090 70.104 M200.189 68.614 C 200.189 68.679,200.743 69.233,201.419 69.844 L 202.649 70.956 201.538 69.726 C 200.501 68.579,200.189 68.322,200.189 68.614 M233.098 70.594 C 234.027 71.626,234.963 72.536,235.180 72.618 C 235.396 72.700,236.977 74.036,238.694 75.586 C 240.412 77.137,241.816 78.318,241.816 78.210 C 241.816 78.102,239.475 75.923,236.613 73.367 C 233.751 70.811,232.169 69.563,233.098 70.594 M164.600 72.390 C 163.030 73.890,162.263 74.671,162.897 74.124 C 163.531 73.577,164.230 73.066,164.451 72.989 C 164.835 72.854,167.880 69.615,167.594 69.646 C 167.517 69.654,166.170 70.889,164.600 72.390 M117.692 72.469 C 117.203 72.990,116.613 73.415,116.381 73.415 C 116.149 73.415,115.288 74.224,114.467 75.213 C 113.104 76.853,113.230 76.782,115.900 74.392 C 117.510 72.952,118.827 71.718,118.827 71.649 C 118.827 71.362,118.532 71.575,117.692 72.469 M194.891 72.848 C 194.185 73.576,193.428 74.187,193.209 74.204 C 192.989 74.222,192.214 74.945,191.485 75.812 C 190.533 76.945,191.039 76.606,193.283 74.605 C 196.096 72.097,196.656 71.523,196.290 71.523 C 196.227 71.523,195.597 72.119,194.891 72.848 M203.595 71.578 C 203.595 71.686,204.915 72.949,206.528 74.384 C 208.824 76.428,209.137 76.626,207.970 75.300 C 207.150 74.367,206.299 73.541,206.078 73.463 C 205.857 73.385,205.208 72.885,204.636 72.351 C 204.063 71.818,203.595 71.470,203.595 71.578 M281.173 71.578 C 281.173 71.686,282.490 72.952,284.100 74.392 C 286.770 76.782,286.896 76.853,285.533 75.213 C 284.712 74.224,283.873 73.415,283.668 73.415 C 283.463 73.415,282.818 72.958,282.235 72.398 C 281.651 71.839,281.173 71.470,281.173 71.578 M87.760 74.645 L 86.525 76.254 88.107 74.758 C 89.791 73.164,89.882 73.037,89.341 73.037 C 89.151 73.037,88.439 73.761,87.760 74.645 M159.136 77.193 C 158.327 78.021,157.739 78.756,157.830 78.825 C 157.920 78.894,158.655 78.216,159.463 77.318 C 161.306 75.268,161.095 75.187,159.136 77.193 M110.501 78.903 C 110.013 79.423,109.423 79.849,109.191 79.849 C 108.959 79.849,108.098 80.658,107.277 81.646 C 105.914 83.287,106.039 83.215,108.710 80.825 C 110.320 79.385,111.637 78.151,111.637 78.082 C 111.637 77.795,111.342 78.008,110.501 78.903 M210.785 78.003 C 210.785 78.101,212.019 79.280,213.527 80.623 C 216.201 83.005,216.232 83.021,214.806 81.268 C 214.001 80.279,213.162 79.470,212.940 79.470 C 212.718 79.470,212.143 79.100,211.661 78.647 C 211.179 78.195,210.785 77.905,210.785 78.003 M289.092 78.808 C 289.596 79.380,290.147 79.849,290.316 79.849 C 290.485 79.849,291.241 80.487,291.996 81.268 L 293.369 82.687 292.159 81.079 C 291.493 80.194,290.761 79.470,290.532 79.470 C 290.303 79.470,289.678 79.087,289.145 78.619 L 288.174 77.767 289.092 78.808 M187.701 79.281 C 187.212 79.801,186.629 80.233,186.405 80.239 C 186.181 80.246,185.317 81.055,184.485 82.037 C 183.143 83.620,183.303 83.526,185.904 81.204 C 187.517 79.764,188.836 78.529,188.836 78.460 C 188.836 78.173,188.541 78.386,187.701 79.281 M242.195 78.442 C 242.195 78.546,243.728 80.031,245.601 81.741 C 247.474 83.451,249.007 84.765,249.007 84.661 C 249.007 84.557,247.474 83.072,245.601 81.362 C 243.728 79.652,242.195 78.338,242.195 78.442 M82.984 79.136 C 82.751 79.368,82.183 79.751,81.720 79.987 C 81.258 80.223,80.454 81.012,79.934 81.741 L 78.989 83.065 80.370 81.646 C 81.129 80.866,81.893 80.227,82.066 80.227 C 82.239 80.227,82.689 79.886,83.065 79.470 C 83.782 78.678,83.715 78.404,82.984 79.136 M153.832 81.984 L 150.426 85.232 153.926 82.121 C 156.993 79.395,157.712 78.679,157.332 78.725 C 157.280 78.731,155.705 80.198,153.832 81.984 M249.385 84.871 C 249.385 84.971,250.866 86.394,252.676 88.033 C 254.487 89.672,255.852 90.820,255.709 90.584 C 255.382 90.042,249.385 84.624,249.385 84.871 M102.536 85.739 C 102.005 86.020,101.009 86.981,100.323 87.874 L 99.074 89.499 100.639 87.890 C 101.499 87.006,102.347 86.282,102.522 86.282 C 102.697 86.282,103.052 86.026,103.311 85.714 C 103.858 85.056,103.821 85.057,102.536 85.739 M146.831 88.232 L 143.614 91.290 146.742 88.552 C 149.524 86.115,150.530 85.118,150.164 85.160 C 150.100 85.167,148.600 86.550,146.831 88.232 M180.686 85.548 C 180.549 85.769,180.053 86.096,179.584 86.275 C 179.115 86.453,178.159 87.337,177.459 88.238 L 176.187 89.877 178.254 88.019 C 181.402 85.191,181.447 85.147,181.182 85.147 C 181.046 85.147,180.822 85.327,180.686 85.548 M218.923 85.445 C 219.130 85.628,220.230 86.615,221.367 87.638 L 223.434 89.499 222.202 87.910 C 221.525 87.036,220.425 86.049,219.758 85.716 C 219.091 85.384,218.716 85.262,218.923 85.445 M296.640 85.653 C 296.926 85.999,297.307 86.282,297.487 86.282 C 297.667 86.282,298.424 86.921,299.169 87.701 C 299.915 88.482,300.358 88.780,300.155 88.363 C 299.735 87.503,298.459 86.344,297.067 85.559 C 296.198 85.068,296.163 85.076,296.640 85.653 M74.708 86.417 C 74.577 86.759,74.264 87.039,74.013 87.039 C 73.762 87.039,73.057 87.592,72.445 88.269 L 71.334 89.499 72.490 88.458 C 73.126 87.886,73.829 87.417,74.052 87.417 C 74.592 87.417,75.479 86.327,75.181 86.029 C 75.052 85.901,74.839 86.075,74.708 86.417 M259.390 93.936 C 261.068 95.545,262.565 96.864,262.716 96.869 C 262.972 96.877,261.745 95.734,257.876 92.355 C 257.030 91.616,257.711 92.328,259.390 93.936 M66.215 93.963 C 64.649 95.462,63.807 96.306,64.344 95.837 C 64.881 95.369,65.481 94.986,65.678 94.986 C 65.875 94.986,66.769 94.134,67.665 93.093 C 68.561 92.053,69.243 91.209,69.179 91.219 C 69.115 91.229,67.782 92.463,66.215 93.963 M139.830 94.472 L 136.424 97.720 139.924 94.609 C 142.992 91.883,143.710 91.167,143.330 91.213 C 143.278 91.219,141.703 92.686,139.830 94.472 M95.175 92.321 C 94.209 92.723,92.051 94.986,92.633 94.986 C 92.874 94.986,93.449 94.475,93.910 93.851 C 94.372 93.226,94.963 92.715,95.224 92.715 C 95.485 92.715,95.803 92.545,95.932 92.337 C 96.201 91.901,96.186 91.901,95.175 92.321 M172.699 92.483 C 171.440 93.183,170.703 93.872,169.858 95.141 C 169.236 96.075,169.395 95.986,170.646 94.702 C 171.508 93.817,172.356 93.094,172.531 93.094 C 172.706 93.094,173.062 92.838,173.321 92.526 C 173.863 91.872,173.805 91.868,172.699 92.483 M226.679 92.224 C 226.991 92.337,227.878 93.133,228.650 93.992 C 229.422 94.851,230.060 95.426,230.069 95.271 C 230.102 94.690,227.324 91.960,226.730 91.988 C 226.215 92.013,226.207 92.053,226.679 92.224 M304.257 92.223 C 304.570 92.336,305.506 93.046,306.339 93.802 L 307.852 95.175 306.357 93.567 C 305.534 92.682,304.597 91.972,304.275 91.988 C 303.767 92.014,303.765 92.045,304.257 92.223 M85.336 100.923 C 83.879 102.296,83.253 102.969,83.946 102.419 C 84.638 101.869,85.333 101.419,85.491 101.419 C 85.648 101.419,86.324 100.738,86.993 99.905 C 87.662 99.073,88.159 98.400,88.097 98.409 C 88.035 98.419,86.793 99.550,85.336 100.923 M235.194 99.593 C 236.129 100.738,239.167 103.190,239.167 102.799 C 239.167 102.739,238.018 101.679,236.613 100.446 C 234.662 98.732,234.327 98.531,235.194 99.593 M311.826 98.494 C 311.826 98.595,313.307 100.018,315.117 101.656 C 316.928 103.295,318.292 104.443,318.150 104.208 C 317.823 103.666,311.826 98.248,311.826 98.494 M162.914 100.906 C 161.046 102.635,160.890 102.864,162.033 102.194 C 163.108 101.564,165.848 98.705,165.298 98.787 C 165.236 98.797,164.163 99.750,162.914 100.906 M131.945 101.419 C 130.538 102.668,129.523 103.682,129.689 103.673 C 130.033 103.654,135.019 99.164,134.706 99.155 C 134.594 99.151,133.351 100.170,131.945 101.419 M268.286 101.909 C 269.003 102.680,269.855 103.300,270.178 103.287 C 270.556 103.272,270.474 103.145,269.947 102.933 C 269.497 102.751,268.986 102.379,268.812 102.106 C 268.638 101.832,268.155 101.360,267.739 101.057 C 267.323 100.754,267.569 101.137,268.286 101.909 M241.060 104.554 C 241.060 104.658,242.592 106.142,244.465 107.852 C 246.339 109.563,247.871 110.877,247.871 110.773 C 247.871 110.668,246.339 109.184,244.465 107.474 C 242.592 105.764,241.060 104.450,241.060 104.554 M318.638 104.554 C 318.638 104.658,320.170 106.142,322.044 107.852 C 323.917 109.563,325.449 110.877,325.449 110.773 C 325.449 110.668,323.917 109.184,322.044 107.474 C 320.170 105.764,318.638 104.450,318.638 104.554 M77.578 107.899 L 74.361 110.955 77.673 108.033 C 80.589 105.459,81.251 104.800,80.889 104.834 C 80.837 104.839,79.347 106.218,77.578 107.899 M154.967 108.094 L 151.939 110.962 154.630 108.658 C 157.111 106.534,158.482 105.188,158.135 105.214 C 158.058 105.220,156.632 106.516,154.967 108.094 M275.131 107.699 C 275.117 108.166,276.333 109.366,276.821 109.366 C 276.997 109.366,277.494 109.664,277.927 110.028 C 278.713 110.690,278.713 110.690,277.992 109.839 C 277.596 109.371,277.112 108.988,276.918 108.988 C 276.723 108.988,276.244 108.605,275.854 108.136 C 275.463 107.668,275.138 107.471,275.131 107.699 M123.592 108.798 C 123.251 109.319,122.741 109.745,122.460 109.745 C 122.178 109.745,121.739 109.995,121.484 110.302 C 121.077 110.793,121.154 110.794,122.120 110.312 C 123.360 109.693,125.226 107.852,124.613 107.852 C 124.392 107.852,123.933 108.278,123.592 108.798 M70.577 114.150 L 67.171 117.398 70.672 114.287 C 73.739 111.561,74.457 110.845,74.078 110.891 C 74.026 110.898,72.450 112.364,70.577 114.150 M248.250 110.952 C 248.250 111.077,251.358 113.949,255.156 117.335 C 258.955 120.721,262.736 124.102,263.559 124.849 L 265.055 126.206 263.748 124.630 C 263.029 123.763,262.297 123.039,262.121 123.022 C 261.838 122.993,253.434 115.595,249.669 112.059 C 248.888 111.326,248.250 110.828,248.250 110.952 M325.828 110.979 C 325.828 111.085,328.169 113.268,331.031 115.831 C 334.073 118.555,335.527 119.689,334.532 118.562 C 333.595 117.501,332.683 116.616,332.506 116.595 C 332.328 116.574,330.753 115.258,329.005 113.672 C 327.258 112.085,325.828 110.873,325.828 110.979 M147.777 114.529 L 144.371 117.777 147.871 114.666 C 150.939 111.940,151.657 111.224,151.277 111.270 C 151.225 111.276,149.650 112.743,147.777 114.529 M282.508 114.380 C 283.072 115.161,283.715 115.799,283.937 115.799 C 284.159 115.799,284.778 116.183,285.311 116.651 L 286.282 117.502 285.364 116.462 C 284.860 115.889,284.304 115.421,284.129 115.421 C 283.954 115.421,283.288 114.868,282.647 114.191 L 281.483 112.961 282.508 114.380 M115.980 115.343 C 114.934 116.322,114.338 116.937,114.655 116.708 C 114.972 116.480,115.509 116.195,115.847 116.076 C 116.350 115.899,118.400 113.491,118.001 113.545 C 117.935 113.554,117.025 114.363,115.980 115.343 M63.765 120.147 C 62.100 121.694,60.568 122.984,60.360 123.013 C 60.151 123.043,59.215 123.934,58.278 124.995 C 57.283 126.122,58.737 124.988,61.779 122.264 C 66.359 118.163,67.272 117.280,66.887 117.324 C 66.835 117.330,65.430 118.600,63.765 120.147 M140.208 121.131 C 138.127 123.001,135.828 125.145,135.099 125.897 C 134.371 126.649,136.116 125.176,138.978 122.624 C 143.513 118.579,144.508 117.623,144.087 117.711 C 144.035 117.722,142.289 119.261,140.208 121.131 M289.503 120.603 C 290.021 121.268,290.608 121.822,290.807 121.833 C 291.006 121.845,291.850 122.493,292.681 123.273 C 293.513 124.054,293.964 124.390,293.684 124.021 C 293.403 123.651,292.136 122.459,290.868 121.372 C 289.132 119.883,288.795 119.693,289.503 120.603 M108.401 122.151 C 107.142 123.341,106.556 123.931,107.098 123.463 C 107.640 122.994,108.266 122.611,108.490 122.611 C 108.715 122.611,109.352 122.015,109.908 121.287 C 111.260 119.514,111.085 119.614,108.401 122.151 M336.424 120.413 C 336.424 120.537,337.829 121.891,339.546 123.422 C 341.790 125.423,342.296 125.763,341.343 124.630 C 340.615 123.763,339.856 123.039,339.656 123.022 C 339.457 123.004,338.648 122.359,337.859 121.588 C 337.070 120.818,336.424 120.289,336.424 120.413 M295.951 126.226 C 296.877 127.278,297.712 128.081,297.806 128.010 C 297.900 127.940,297.142 127.080,296.122 126.098 L 294.267 124.314 295.951 126.226 M101.780 128.019 C 100.001 129.728,99.150 130.593,99.888 129.942 C 100.626 129.291,101.407 128.695,101.623 128.617 C 102.007 128.480,105.439 124.867,105.157 124.897 C 105.078 124.905,103.559 126.310,101.780 128.019 M54.683 128.288 C 54.085 128.912,53.414 129.426,53.193 129.430 C 52.972 129.433,52.199 130.157,51.475 131.038 C 50.406 132.337,50.710 132.149,53.083 130.039 C 54.691 128.608,56.008 127.374,56.008 127.295 C 56.008 126.987,55.729 127.196,54.683 128.288 M132.072 128.477 C 131.366 129.205,130.609 129.816,130.389 129.833 C 130.170 129.851,129.395 130.575,128.666 131.441 C 127.714 132.574,128.219 132.235,130.464 130.234 C 133.276 127.726,133.836 127.152,133.471 127.152 C 133.407 127.152,132.778 127.748,132.072 128.477 M266.414 127.207 C 266.414 127.315,267.731 128.581,269.341 130.021 C 272.012 132.411,272.137 132.482,270.774 130.842 C 269.953 129.853,269.114 129.044,268.909 129.044 C 268.705 129.044,268.060 128.587,267.476 128.028 C 266.892 127.468,266.414 127.099,266.414 127.207 M343.992 127.207 C 343.992 127.315,345.309 128.581,346.919 130.021 C 349.590 132.411,349.715 132.482,348.353 130.842 C 347.531 129.853,346.692 129.044,346.487 129.044 C 346.283 129.044,345.638 128.587,345.054 128.028 C 344.470 127.468,343.992 127.099,343.992 127.207 M299.527 129.423 C 300.340 130.255,301.090 130.937,301.194 130.937 C 301.298 130.937,300.718 130.255,299.905 129.423 C 299.092 128.590,298.342 127.909,298.238 127.909 C 298.134 127.909,298.714 128.590,299.527 129.423 M302.933 132.450 C 303.746 133.283,304.496 133.964,304.600 133.964 C 304.704 133.964,304.124 133.283,303.311 132.450 C 302.498 131.618,301.748 130.937,301.644 130.937 C 301.540 130.937,302.120 131.618,302.933 132.450 M96.121 133.018 C 95.202 133.955,94.535 134.721,94.639 134.721 C 94.743 134.721,95.580 133.955,96.500 133.018 C 97.419 132.081,98.086 131.315,97.982 131.315 C 97.878 131.315,97.040 132.081,96.121 133.018 M47.493 134.721 C 47.116 135.137,46.615 135.478,46.379 135.478 C 46.143 135.478,45.278 136.287,44.456 137.275 C 43.023 138.999,43.074 138.973,45.700 136.631 C 47.207 135.287,48.439 134.138,48.439 134.076 C 48.439 133.806,48.130 134.017,47.493 134.721 M124.882 134.910 C 124.393 135.430,123.803 135.856,123.571 135.856 C 123.340 135.856,122.478 136.665,121.657 137.654 C 120.294 139.294,120.420 139.222,123.091 136.833 C 124.700 135.393,126.017 134.158,126.017 134.089 C 126.017 133.802,125.722 134.016,124.882 134.910 M273.983 134.020 C 273.983 134.123,275.129 135.218,276.531 136.451 C 278.922 138.557,278.999 138.596,277.792 137.086 C 277.084 136.202,276.332 135.478,276.120 135.478 C 275.908 135.478,275.341 135.107,274.859 134.655 C 274.377 134.202,273.983 133.917,273.983 134.020 M305.014 134.071 C 305.014 134.175,306.547 135.660,308.420 137.370 C 310.293 139.080,311.826 140.394,311.826 140.290 C 311.826 140.186,310.293 138.702,308.420 136.991 C 306.547 135.281,305.014 133.967,305.014 134.071 M351.561 134.020 C 351.561 134.123,352.711 135.218,354.115 136.451 C 356.549 138.589,356.610 138.619,355.408 137.086 C 354.714 136.202,353.959 135.478,353.730 135.478 C 353.500 135.478,352.919 135.107,352.437 134.655 C 351.955 134.202,351.561 133.917,351.561 134.020 M90.823 137.795 L 87.606 140.851 90.918 137.929 C 93.834 135.355,94.496 134.696,94.134 134.730 C 94.082 134.734,92.592 136.114,90.823 137.795 M312.313 140.636 C 312.641 141.178,318.638 146.596,318.638 146.350 C 318.638 146.249,317.157 144.826,315.346 143.187 C 313.536 141.549,312.171 140.401,312.313 140.636 M83.822 144.046 L 80.416 147.294 83.917 144.183 C 86.984 141.457,87.702 140.741,87.323 140.787 C 87.271 140.794,85.695 142.260,83.822 144.046 M39.735 141.423 C 38.916 141.724,37.878 142.689,36.972 143.992 C 36.380 144.844,36.698 144.661,38.242 143.261 C 39.376 142.235,40.374 141.341,40.460 141.275 C 40.666 141.118,40.438 141.164,39.735 141.423 M117.313 141.722 C 117.054 142.034,116.622 142.289,116.353 142.289 C 116.083 142.289,115.295 143.013,114.601 143.898 L 113.340 145.506 115.705 143.435 C 117.006 142.296,118.070 141.317,118.070 141.259 C 118.070 141.002,117.747 141.199,117.313 141.722 M282.122 141.537 C 282.249 141.743,282.507 141.911,282.696 141.911 C 282.884 141.911,283.743 142.635,284.605 143.519 C 285.793 144.739,285.989 144.854,285.416 143.992 C 284.347 142.385,281.194 140.035,282.122 141.537 M359.700 141.537 C 359.827 141.743,360.111 141.911,360.330 141.911 C 360.550 141.911,361.405 142.635,362.231 143.519 C 363.309 144.674,363.522 144.808,362.985 143.992 C 361.933 142.393,358.766 140.026,359.700 141.537 M320.514 148.061 C 321.442 149.049,322.251 149.858,322.312 149.858 C 322.596 149.858,322.295 149.518,320.624 147.950 L 318.827 146.263 320.514 148.061 M76.821 150.283 L 73.605 153.340 76.916 150.417 C 79.832 147.843,80.494 147.184,80.132 147.218 C 80.080 147.223,78.590 148.602,76.821 150.283 M291.182 149.290 C 292.042 150.227,292.896 150.993,293.079 150.993 C 293.263 150.993,293.766 151.283,294.199 151.637 C 294.632 151.991,293.879 151.232,292.526 149.952 C 289.627 147.208,288.976 146.887,291.182 149.290 M30.508 149.481 C 29.755 150.314,29.146 151.123,29.155 151.278 C 29.164 151.434,29.803 150.858,30.574 149.999 C 31.346 149.140,32.233 148.345,32.545 148.232 C 33.018 148.060,33.009 148.021,32.494 147.996 C 32.154 147.979,31.260 148.648,30.508 149.481 M109.745 148.234 C 108.904 148.544,107.866 149.523,107.024 150.804 C 106.488 151.619,106.700 151.486,107.778 150.331 C 108.604 149.447,109.459 148.723,109.679 148.723 C 109.899 148.723,110.184 148.553,110.312 148.344 C 110.568 147.931,110.568 147.931,109.745 148.234 M367.455 148.228 C 367.767 148.339,368.563 148.964,369.223 149.617 C 369.883 150.270,370.990 151.208,371.683 151.703 C 372.376 152.197,371.835 151.566,370.482 150.300 C 369.130 149.034,367.767 148.005,367.455 148.012 C 366.950 148.024,366.950 148.048,367.455 148.228 M323.936 151.132 C 324.664 151.923,325.601 152.749,326.017 152.968 C 326.433 153.187,326.689 153.287,326.585 153.191 C 324.164 150.939,322.733 149.827,323.936 151.132 M71.523 154.967 C 70.604 155.904,69.937 156.670,70.041 156.670 C 70.145 156.670,70.982 155.904,71.902 154.967 C 72.821 154.030,73.488 153.264,73.384 153.264 C 73.280 153.264,72.442 154.030,71.523 154.967 M22.698 156.404 C 21.341 157.695,20.575 158.476,20.995 158.141 C 21.416 157.805,22.031 157.379,22.364 157.195 C 22.919 156.886,25.605 153.998,25.299 154.038 C 25.226 154.048,24.055 155.112,22.698 156.404 M298.202 155.367 C 298.931 156.182,299.661 156.910,299.825 156.985 C 299.989 157.059,300.627 157.545,301.244 158.064 C 303.490 159.954,302.292 158.652,299.622 156.301 C 297.844 154.736,297.345 154.407,298.202 155.367 M374.645 154.128 C 374.645 154.232,376.178 155.717,378.051 157.427 C 379.924 159.137,381.457 160.451,381.457 160.347 C 381.457 160.243,379.924 158.758,378.051 157.048 C 376.178 155.338,374.645 154.024,374.645 154.128 M99.905 156.764 C 98.553 158.044,97.800 158.802,98.232 158.449 C 98.665 158.095,99.169 157.805,99.352 157.805 C 99.536 157.805,100.389 157.039,101.249 156.102 C 103.456 153.699,102.804 154.019,99.905 156.764 M68.307 157.805 C 67.708 158.430,67.013 158.940,66.762 158.940 C 66.512 158.940,66.204 159.207,66.079 159.532 C 65.900 159.998,66.073 159.965,66.890 159.380 C 67.981 158.598,69.894 156.670,69.579 156.670 C 69.477 156.670,68.905 157.181,68.307 157.805 M331.765 158.089 C 332.923 159.236,334.112 159.792,333.586 158.940 C 333.457 158.732,333.158 158.562,332.922 158.562 C 332.685 158.562,332.049 158.179,331.507 157.711 C 330.966 157.242,331.082 157.412,331.765 158.089 M305.503 161.857 C 309.732 165.681,310.405 166.185,307.307 163.209 C 305.526 161.498,303.948 160.093,303.801 160.087 C 303.653 160.081,304.420 160.877,305.503 161.857 M14.759 163.528 L 11.542 166.585 14.853 163.662 C 17.770 161.088,18.432 160.429,18.070 160.463 C 18.018 160.468,16.528 161.847,14.759 163.528 M381.835 160.557 C 381.835 160.657,383.317 162.080,385.127 163.719 C 386.937 165.358,388.302 166.506,388.160 166.270 C 387.832 165.728,381.835 160.310,381.835 160.557 M92.148 163.733 L 89.120 166.603 91.811 164.293 C 94.282 162.172,95.668 160.810,95.316 160.848 C 95.238 160.856,93.813 162.154,92.148 163.733 M338.694 164.428 C 339.183 164.948,339.753 165.374,339.960 165.374 C 340.168 165.374,340.692 165.672,341.124 166.036 C 341.910 166.698,341.910 166.697,341.190 165.847 C 340.794 165.378,340.246 164.995,339.974 164.995 C 339.701 164.995,339.296 164.655,339.073 164.238 C 338.850 163.822,338.474 163.482,338.237 163.482 C 338.000 163.482,338.206 163.907,338.694 164.428 M60.738 164.617 C 60.361 165.033,59.845 165.374,59.590 165.374 C 59.336 165.374,58.919 165.625,58.665 165.931 C 58.257 166.422,58.335 166.423,59.314 165.934 C 60.326 165.429,62.065 163.860,61.612 163.860 C 61.508 163.860,61.115 164.201,60.738 164.617 M7.750 169.650 C 5.872 171.357,3.403 173.592,2.263 174.617 C 1.122 175.643,0.445 176.335,0.757 176.155 C 1.457 175.752,11.353 166.894,11.353 166.670 C 11.353 166.385,11.217 166.497,7.750 169.650 M311.188 166.764 C 311.335 167.008,313.625 169.129,316.277 171.478 C 319.069 173.951,320.461 175.014,319.584 174.002 C 318.751 173.042,317.919 172.241,317.735 172.221 C 317.551 172.201,315.942 170.866,314.160 169.253 C 312.378 167.640,311.040 166.519,311.188 166.764 M388.647 166.616 C 388.647 166.720,390.180 168.205,392.053 169.915 C 393.926 171.625,395.459 172.939,395.459 172.835 C 395.459 172.731,393.926 171.247,392.053 169.536 C 390.180 167.826,388.647 166.512,388.647 166.616 M84.957 170.158 L 81.552 173.406 85.052 170.295 C 88.119 167.569,88.837 166.853,88.458 166.899 C 88.406 166.905,86.831 168.372,84.957 170.158 M345.449 170.199 C 345.925 170.875,346.506 171.429,346.741 171.429 C 346.976 171.429,347.645 171.886,348.229 172.445 C 348.813 173.005,349.290 173.362,349.290 173.240 C 349.290 173.117,348.232 172.106,346.937 170.993 C 344.985 169.314,344.732 169.178,345.449 170.199 M53.899 170.285 C 53.498 170.697,52.649 171.506,52.013 172.083 C 51.377 172.660,51.165 172.891,51.543 172.597 C 51.920 172.304,52.592 171.878,53.036 171.651 C 53.481 171.425,54.097 170.856,54.405 170.388 C 55.096 169.336,54.869 169.290,53.899 170.285 M396.973 174.267 C 397.679 174.995,398.341 175.591,398.446 175.591 C 398.550 175.591,398.057 174.995,397.351 174.267 C 396.645 173.538,395.982 172.942,395.878 172.942 C 395.774 172.942,396.266 173.538,396.973 174.267 M78.146 176.163 C 76.481 177.710,74.948 178.996,74.740 179.022 C 74.532 179.048,73.680 179.854,72.848 180.814 C 71.971 181.825,73.362 180.763,76.155 178.289 C 80.420 174.511,81.692 173.284,81.290 173.336 C 81.226 173.344,79.811 174.616,78.146 176.163 M321.416 175.830 C 321.547 176.065,323.061 177.513,324.782 179.046 C 327.026 181.048,327.535 181.390,326.585 180.259 C 325.856 179.392,325.096 178.668,324.896 178.651 C 324.696 178.633,323.777 177.895,322.855 177.010 C 321.932 176.126,321.285 175.595,321.416 175.830 M352.692 176.632 C 353.189 177.308,353.757 177.862,353.954 177.862 C 354.151 177.862,355.779 179.158,357.573 180.742 C 359.366 182.326,359.887 182.709,358.732 181.593 C 354.913 177.905,351.673 175.243,352.692 176.632 M45.199 178.152 C 43.937 179.345,43.434 179.853,44.082 179.281 C 44.729 178.709,45.431 178.240,45.642 178.240 C 45.853 178.240,46.404 177.729,46.865 177.105 C 48.021 175.543,47.833 175.660,45.199 178.152 M1.608 177.702 C 1.973 178.135,2.271 178.657,2.271 178.862 C 2.271 179.066,2.818 179.734,3.486 180.345 C 4.155 180.957,4.453 181.116,4.148 180.700 C 3.844 180.284,3.382 179.807,3.122 179.641 C 2.862 179.474,2.649 179.117,2.649 178.848 C 2.649 178.578,2.266 178.033,1.798 177.637 C 0.947 176.917,0.947 176.917,1.608 177.702 M397.473 178.524 C 397.345 178.888,396.797 179.695,396.255 180.316 C 395.378 181.320,395.368 181.362,396.162 180.694 C 397.382 179.667,398.631 177.862,398.122 177.862 C 397.893 177.862,397.601 178.160,397.473 178.524 M39.928 182.778 C 39.332 183.400,38.917 183.969,39.006 184.043 C 39.095 184.117,39.653 183.608,40.245 182.912 C 41.584 181.340,41.386 181.256,39.928 182.778 M69.063 184.295 C 68.465 184.920,67.795 185.434,67.573 185.437 C 67.352 185.441,66.579 186.165,65.855 187.046 C 64.787 188.345,65.090 188.156,67.463 186.046 C 69.072 184.616,70.388 183.381,70.388 183.303 C 70.388 182.995,70.109 183.204,69.063 184.295 M329.612 183.206 C 329.612 183.304,330.845 184.483,332.351 185.826 C 334.977 188.169,335.028 188.195,333.595 186.471 C 332.773 185.482,331.935 184.674,331.732 184.674 C 331.530 184.674,330.970 184.303,330.488 183.851 C 330.006 183.398,329.612 183.108,329.612 183.206 M361.022 183.646 C 361.022 183.750,362.554 185.234,364.428 186.944 C 366.301 188.654,367.833 189.968,367.833 189.864 C 367.833 189.760,366.301 188.276,364.428 186.566 C 362.554 184.856,361.022 183.542,361.022 183.646 M35.005 187.187 L 31.599 190.435 35.099 187.324 C 38.167 184.598,38.885 183.882,38.505 183.928 C 38.453 183.934,36.878 185.401,35.005 187.187 M391.958 184.857 C 391.386 185.360,390.918 185.900,390.918 186.057 C 390.918 186.213,390.364 186.928,389.688 187.645 C 389.011 188.363,388.653 188.840,388.892 188.706 C 389.334 188.457,393.372 183.907,393.131 183.929 C 393.058 183.935,392.531 184.353,391.958 184.857 M8.325 185.414 C 8.325 185.637,8.879 186.379,9.555 187.062 C 10.232 187.745,10.402 187.861,9.934 187.319 C 9.465 186.778,9.082 186.142,9.082 185.905 C 9.082 185.669,8.912 185.370,8.704 185.241 C 8.496 185.113,8.325 185.190,8.325 185.414 M386.755 190.918 C 385.836 191.854,385.169 192.621,385.273 192.621 C 385.377 192.621,386.214 191.854,387.133 190.918 C 388.053 189.981,388.720 189.215,388.615 189.215 C 388.511 189.215,387.674 189.981,386.755 190.918 M16.261 194.607 C 21.590 200.622,20.950 200.304,23.100 198.013 L 24.787 196.216 22.961 197.919 L 21.135 199.622 18.420 196.594 C 16.927 194.929,14.792 192.630,13.677 191.485 C 12.562 190.341,13.725 191.746,16.261 194.607 M62.030 190.579 C 61.753 190.913,61.136 191.334,60.659 191.515 L 59.792 191.845 59.793 282.204 C 59.795 371.616,59.803 372.577,60.545 373.794 C 60.957 374.470,61.380 375.024,61.484 375.024 C 61.588 375.024,61.335 374.470,60.923 373.794 C 60.181 372.577,60.173 371.617,60.172 282.538 L 60.170 192.512 61.589 191.257 C 62.370 190.568,62.902 189.996,62.771 189.987 C 62.640 189.979,62.307 190.245,62.030 190.579 M338.782 191.485 L 340.227 192.810 340.123 282.498 L 340.019 372.185 339.167 373.627 C 338.698 374.420,338.486 374.963,338.696 374.833 C 340.494 373.722,340.390 379.088,340.497 282.344 C 340.605 185.929,340.693 191.107,338.949 191.107 C 338.738 191.107,338.288 190.894,337.951 190.634 C 337.613 190.374,337.987 190.757,338.782 191.485 M368.212 190.074 C 368.212 190.175,369.693 191.598,371.503 193.236 C 373.314 194.875,374.678 196.023,374.536 195.788 C 374.209 195.246,368.212 189.828,368.212 190.074 M28.004 193.424 L 24.787 196.480 28.098 193.558 C 31.015 190.984,31.677 190.325,31.315 190.359 C 31.263 190.364,29.773 191.743,28.004 193.424 M381.940 196.288 L 378.930 199.577 376.882 197.720 C 374.916 195.936,374.895 195.927,376.348 197.488 C 378.863 200.189,378.738 200.213,382.219 196.399 C 383.926 194.529,385.239 192.999,385.136 192.999 C 385.034 192.999,383.595 194.479,381.940 196.288 M181.013 292.053 C 191.592 292.109,208.791 292.109,219.234 292.053 C 229.677 291.997,221.022 291.951,200.000 291.951 C 178.978 291.951,170.434 291.997,181.013 292.053 M155.717 338.884 C 155.717 360.738,155.763 369.623,155.818 358.628 C 155.874 347.633,155.874 329.752,155.818 318.893 C 155.762 308.033,155.717 317.029,155.717 338.884 M244.269 339.073 C 244.269 360.823,244.315 369.721,244.371 358.846 C 244.427 347.971,244.427 330.175,244.371 319.300 C 244.315 308.425,244.269 317.323,244.269 339.073 M61.939 375.811 C 62.408 376.379,64.711 377.828,64.711 377.555 C 64.711 377.467,63.988 376.917,63.103 376.334 C 62.219 375.751,61.695 375.515,61.939 375.811 M336.879 376.321 C 335.121 377.564,334.874 377.919,336.358 377.069 C 337.051 376.673,337.795 376.135,338.013 375.875 C 338.572 375.206,338.310 375.310,336.879 376.321 " stroke="none" fill="#c4d4ec" fill-rule="evenodd"></path><path id="path3" d="" stroke="none" fill="#bcec100" fill-rule="evenodd"></path><path id="path4" d="" stroke="none" fill="#bcec100" fill-rule="evenodd"></path></g></svg>