<?xml version="1.0" encoding="utf-8"?>
<!-- Generator: Adobe Illustrator 16.0.0, SVG Export Plug-In . SVG Version: 6.00 Build 0)  -->
<!DOCTYPE svg PUBLIC "-//W3C//DTD SVG 1.1//EN" "http://www.w3.org/Graphics/SVG/1.1/DTD/svg11.dtd">
<svg version="1.1" id="Layer_1" xmlns="http://www.w3.org/2000/svg" xmlns:xlink="http://www.w3.org/1999/xlink" x="0px" y="0px"
	 width="29px" height="32px" viewBox="-4.5 0 29 32" enable-background="new -4.5 0 29 32" xml:space="preserve">
<g>
	<path fill-rule="evenodd" clip-rule="evenodd" fill="#99B6E4" d="M19.419,17.546c0.189-0.131,0.331-0.219,0.461-0.322
		c0.685-0.548,0.843-0.631,1.513,0.092c0.314,0.34,0.657,0.66,0.984,0.99c0.371,0.372,0.381,0.541,0.062,0.964
		c-0.196,0.261-0.388,0.529-0.592,0.785c-0.092,0.114-0.098,0.197-0.032,0.339c0.164,0.343,0.295,0.702,0.432,1.059
		c0.061,0.156,0.132,0.257,0.323,0.274c0.371,0.033,0.738,0.102,1.107,0.156c0.279,0.042,0.471,0.257,0.472,0.548
		c0.004,0.686,0.003,1.373,0,2.06c-0.001,0.259-0.225,0.513-0.479,0.552c-0.377,0.058-0.758,0.1-1.131,0.173
		c-0.102,0.021-0.227,0.111-0.27,0.204c-0.177,0.376-0.333,0.763-0.478,1.152c-0.028,0.072,0.005,0.195,0.053,0.264
		c0.217,0.312,0.462,0.608,0.675,0.925c0.222,0.328,0.195,0.493-0.08,0.77c-0.448,0.451-0.897,0.901-1.35,1.349
		c-0.279,0.276-0.565,0.292-0.876,0.057c-0.283-0.214-0.565-0.43-0.857-0.63c-0.069-0.046-0.192-0.068-0.268-0.04
		c-0.39,0.145-0.773,0.304-1.152,0.471c-0.081,0.036-0.18,0.12-0.195,0.197c-0.072,0.374-0.125,0.753-0.172,1.132
		c-0.041,0.329-0.26,0.561-0.584,0.564c-0.668,0.008-1.336,0.008-2.004,0c-0.332-0.004-0.541-0.241-0.584-0.602
		c-0.042-0.352-0.093-0.703-0.166-1.05c-0.019-0.094-0.121-0.201-0.211-0.242c-0.37-0.169-0.748-0.322-1.129-0.465
		c-0.076-0.028-0.201-0.015-0.267,0.031c-0.293,0.199-0.572,0.42-0.856,0.632c-0.32,0.238-0.623,0.219-0.905-0.062
		c-0.363-0.359-0.729-0.717-1.081-1.087c-0.149-0.157-0.305-0.222-0.526-0.221c-2.854,0.007-5.708,0.015-8.563,0.001
		c-1.938-0.008-3.377-0.901-4.312-2.583c-0.351-0.631-0.524-1.337-0.524-2.068C-4.145,17.62-4.171,11.326-4.127,5.032
		c0.014-1.91,0.999-3.316,2.715-4.177c0.704-0.354,1.463-0.48,2.245-0.48c4.62-0.001,9.24-0.026,13.859,0.011
		c1.923,0.016,3.677,1.137,4.419,3.122c0.206,0.553,0.285,1.121,0.284,1.71c-0.006,3.961-0.004,7.922-0.003,11.883
		C19.393,17.224,19.407,17.348,19.419,17.546z M18.358,6.519c-0.007-0.122-0.021-0.243-0.019-0.364
		c0.006-0.756,0.012-1.51-0.247-2.24c-0.506-1.427-1.878-2.419-3.395-2.42C10.005,1.493,5.313,1.491,0.62,1.501
		C0.271,1.502-0.085,1.572-0.426,1.658c-1.468,0.373-2.611,1.898-2.606,3.445c0.021,6.257,0.011,12.515,0.006,18.771
		c-0.001,1.018,0.392,1.863,1.099,2.56c0.71,0.699,1.585,1.046,2.588,1.046c2.771,0.001,5.544-0.015,8.315,0.013
		c0.516,0.007,0.86-0.125,1.114-0.57c0.098-0.174,0.116-0.304,0.037-0.48c-0.157-0.348-0.29-0.704-0.44-1.053
		c-0.029-0.066-0.087-0.157-0.144-0.167c-0.375-0.068-0.753-0.13-1.133-0.172c-0.335-0.036-0.57-0.23-0.578-0.569
		c-0.015-0.686-0.014-1.373-0.001-2.059c0.006-0.308,0.195-0.497,0.476-0.539c0.377-0.055,0.758-0.099,1.131-0.174
		c0.097-0.021,0.205-0.126,0.25-0.219c0.159-0.336,0.281-0.688,0.44-1.023c0.086-0.181,0.081-0.324-0.04-0.479
		c-0.207-0.265-0.407-0.535-0.608-0.805c-0.194-0.26-0.193-0.558,0.032-0.79c0.473-0.487,0.956-0.966,1.443-1.44
		c0.21-0.204,0.478-0.214,0.719-0.041c0.295,0.212,0.588,0.43,0.873,0.654c0.141,0.11,0.266,0.115,0.427,0.042
		c0.355-0.158,0.723-0.289,1.076-0.449c0.083-0.037,0.17-0.142,0.188-0.229c0.068-0.355,0.119-0.717,0.164-1.078
		c0.043-0.334,0.22-0.546,0.53-0.551c0.704-0.012,1.409-0.012,2.112-0.001c0.301,0.004,0.495,0.22,0.525,0.524
		c0.022,0.218,0.013,0.45,0.087,0.65c0.098,0.269-0.054,0.691,0.443,0.75c0.163,0.021,0.224,0.004,0.236-0.147
		c0.009-0.1,0.006-0.2,0.006-0.302c0-2.479,0-4.958,0-7.437c0-0.741,0.002-1.482-0.003-2.223
		C18.336,6.967,18.386,6.522,18.358,6.519z M23.032,22.895c-0.377-0.053-0.726-0.115-1.077-0.15
		c-0.342-0.034-0.545-0.176-0.617-0.509c-0.134-0.618-0.391-1.184-0.716-1.722c-0.136-0.225-0.141-0.444,0.013-0.661
		c0.079-0.11,0.157-0.221,0.24-0.33c0.531-0.711,0.531-0.71-0.144-1.306c-0.007-0.006-0.013-0.019-0.019-0.02
		c-0.097-0.004-0.221-0.045-0.289-0.002c-0.236,0.15-0.458,0.326-0.678,0.502c-0.388,0.304-0.523,0.313-0.924,0.065
		c-0.489-0.303-1.01-0.535-1.581-0.639c-0.312-0.057-0.486-0.251-0.529-0.576c-0.039-0.296-0.075-0.594-0.118-0.89
		c-0.021-0.139-0.044-0.278-0.238-0.274c-0.246,0.004-0.493-0.009-0.739,0.008c-0.067,0.005-0.172,0.08-0.186,0.138
		c-0.069,0.328-0.124,0.661-0.165,0.996c-0.041,0.337-0.22,0.543-0.559,0.603c-0.071,0.013-0.146,0.021-0.211,0.049
		c-0.531,0.232-1.056,0.477-1.592,0.696c-0.107,0.046-0.275,0.052-0.37-0.004c-0.288-0.168-0.557-0.371-0.828-0.567
		c-0.314-0.227-0.312-0.229-0.579,0.034c-0.109,0.109-0.212,0.228-0.33,0.327c-0.156,0.129-0.177,0.241-0.038,0.409
		c0.216,0.258,0.403,0.537,0.604,0.808c0.141,0.188,0.144,0.375,0.019,0.58c-0.331,0.535-0.601,1.102-0.729,1.722
		c-0.071,0.343-0.279,0.534-0.631,0.561c-0.236,0.018-0.473,0.042-0.707,0.079c-0.396,0.062-0.406,0.08-0.407,0.489
		c0,0.139,0.009,0.276-0.002,0.413c-0.016,0.2,0.058,0.304,0.268,0.327c0.315,0.036,0.627,0.101,0.943,0.133
		c0.276,0.028,0.471,0.19,0.513,0.426c0.123,0.686,0.455,1.277,0.757,1.886c0.063,0.127,0.061,0.347-0.009,0.468
		c-0.186,0.319-0.421,0.611-0.644,0.907c-0.091,0.121-0.115,0.214,0.014,0.328c0.182,0.161,0.344,0.348,0.53,0.505
		c0.051,0.043,0.183,0.054,0.236,0.018c0.294-0.194,0.579-0.407,0.862-0.617c0.219-0.161,0.444-0.163,0.663-0.022
		c0.548,0.354,1.143,0.588,1.775,0.735c0.267,0.061,0.414,0.268,0.449,0.547c0.048,0.376,0.114,0.749,0.176,1.148
		c0.291,0,0.557-0.02,0.817,0.005c0.268,0.024,0.326-0.114,0.347-0.333c0.029-0.299,0.072-0.595,0.117-0.891
		c0.044-0.287,0.233-0.406,0.5-0.501c0.561-0.2,1.114-0.427,1.652-0.682c0.311-0.146,0.479-0.182,0.754,0.015
		c0.266,0.189,0.531,0.38,0.787,0.585c0.129,0.104,0.213,0.097,0.322-0.022c0.159-0.175,0.327-0.342,0.504-0.5
		c0.119-0.106,0.098-0.185,0.008-0.299c-0.214-0.271-0.414-0.553-0.615-0.835c-0.146-0.206-0.151-0.446-0.025-0.642
		c0.356-0.55,0.586-1.146,0.738-1.777c0.068-0.288,0.25-0.419,0.536-0.452c0.324-0.037,0.648-0.085,0.968-0.153
		c0.072-0.015,0.168-0.131,0.173-0.205C23.043,23.533,23.032,23.24,23.032,22.895z"/>
	<path fill-rule="evenodd" clip-rule="evenodd" fill="#99B6E4" d="M7.612,15.729c-1.281,0-2.562-0.014-3.843,0.004
		c-1.246,0.018-2.209-1.17-2.011-2.416c0.132-0.832,0.626-1.335,1.386-1.634c0.615-0.241,1.219-0.507,1.832-0.756
		c0.174-0.071,0.22-0.172,0.134-0.34c-0.09-0.176-0.149-0.372-0.26-0.532c-0.415-0.594-0.569-1.271-0.66-1.97
		c-0.032-0.244-0.08-0.488-0.087-0.733C4.068,5.999,4.397,4.791,5.527,3.919c0.509-0.392,1.077-0.62,1.727-0.662
		C8.175,3.2,9.033,3.342,9.773,3.94c0.677,0.547,1.138,1.235,1.264,2.102c0.077,0.537,0.135,1.091,0.089,1.628
		c-0.076,0.876-0.211,1.753-0.782,2.484c-0.061,0.078-0.106,0.171-0.142,0.263c-0.125,0.315-0.071,0.466,0.241,0.597
		c0.569,0.238,1.141,0.472,1.719,0.687c0.83,0.309,1.45,1.027,1.355,2.179c-0.07,0.852-0.722,1.619-1.6,1.811
		c-0.158,0.035-0.327,0.036-0.49,0.037C10.155,15.731,8.884,15.729,7.612,15.729z M5.854,14.645c0,0.008,0,0.018,0,0.026
		c0.448,0,0.896,0.004,1.344-0.001c0.448-0.004,0.896-0.023,1.343-0.025c0.094-0.001,1.131,0.007,1.293,0.002
		c0.547-0.013,1.096,0,1.644,0.003c0.551,0.003,0.898-0.477,0.943-0.825c0.072-0.565-0.187-0.932-0.716-1.131
		c-0.688-0.258-1.364-0.545-2.038-0.836c-0.328-0.143-0.592-0.367-0.634-0.755c-0.056-0.524,0.049-1.023,0.335-1.46
		c0.231-0.354,0.43-0.708,0.515-1.129c0.177-0.884,0.277-1.772-0.031-2.639c-0.34-0.958-1.061-1.491-2.066-1.558
		C6.804,4.249,6.046,4.681,5.549,5.54C5.211,6.124,5.176,6.77,5.22,7.422c0.048,0.699,0.115,1.407,0.536,2
		c0.374,0.526,0.543,1.093,0.438,1.722c-0.032,0.195-0.174,0.386-0.308,0.543c-0.088,0.103-0.245,0.156-0.378,0.211
		c-0.669,0.28-1.335,0.567-2.014,0.821c-0.49,0.185-0.731,0.654-0.673,1.008c0.073,0.452,0.368,0.913,0.922,0.917
		C4.447,14.65,5.15,14.645,5.854,14.645z"/>
	<path fill-rule="evenodd" clip-rule="evenodd" fill="#99B6E4" d="M3.937,17.336c1.254,0,2.506,0,3.76,0.001
		c0.348,0,0.631,0.244,0.637,0.546c0.006,0.275-0.306,0.57-0.625,0.571c-2.506,0.003-5.012,0.003-7.519,0
		c-0.342-0.001-0.605-0.273-0.59-0.586c0.013-0.312,0.262-0.531,0.605-0.532C1.449,17.336,2.693,17.336,3.937,17.336z"/>
	<path fill-rule="evenodd" clip-rule="evenodd" fill="#99B6E4" d="M2.929,21.751c-0.905,0-1.81,0-2.715-0.001
		c-0.36,0-0.612-0.228-0.615-0.55c-0.004-0.315,0.258-0.568,0.604-0.568c1.828-0.003,3.656-0.002,5.484-0.001
		c0.389,0,0.59,0.194,0.593,0.559c0.003,0.37-0.19,0.56-0.582,0.561C4.775,21.752,3.852,21.751,2.929,21.751z"/>
	<path fill-rule="evenodd" clip-rule="evenodd" fill="#99B6E4" d="M2.969,24.084c0.914-0.002,1.827-0.004,2.741,0
		c0.369,0.001,0.548,0.155,0.569,0.478c0.024,0.376-0.122,0.552-0.509,0.602c-0.09,0.012-0.182,0.009-0.273,0.009
		c-1.681,0.001-3.361,0.001-5.042,0c-0.127-0.001-0.256-0.005-0.381-0.029c-0.329-0.062-0.5-0.271-0.472-0.561
		c0.028-0.297,0.252-0.496,0.573-0.497C1.105,24.081,2.038,24.084,2.969,24.084z"/>
	<path fill-rule="evenodd" clip-rule="evenodd" fill="#99B6E4" d="M19.608,23.466c0.032,1.971-1.626,3.639-3.619,3.617
		c-2.074-0.021-3.631-1.588-3.638-3.613c-0.007-2.052,1.551-3.656,3.684-3.651C18.034,19.821,19.639,21.494,19.608,23.466z
		 M18.221,22.202c-0.041-0.045-0.088-0.087-0.122-0.139c-0.535-0.783-1.272-1.155-2.223-1.14c-1.196,0.021-2.312,1.025-2.422,2.311
		c-0.162,1.895,1.837,3.406,3.677,2.484c1.013-0.51,1.643-1.746,1.304-2.892C18.383,22.649,18.237,22.191,18.221,22.202z"/>
</g>
</svg>
