<svg id="icon_sign_white" data-name="icon sign white" xmlns="http://www.w3.org/2000/svg" viewBox="0 0 145.83 123.24">
    <defs>
        <style>
            .cls-1{
                fill:none;
                stroke:#99b6e4;
            }
            .cls-4{
                stroke: #99b6e4;
            }
            .cls-2, .cls-3, .cls-4{
                fill:none;
            }
            .cls-5, .cls-6 {
                fill:#99b6e4;
            }
        </style>
    </defs>
    <path class="cls-1" d="M0,121.87H145.83" transform="translate(0 -0.28)"/>
    <path class="cls-2"
          d="M7,87.71c0-28,.06-55.91-0.08-83.87,0-3,.6-3.57,3.56-3.56q64,0.18,128,0c3,0,3.57.6,3.56,3.56q-0.19,58.06,0,116.13c0,3-.6,3.57-3.56,3.56q-64-.18-128,0c-3,0-3.68-.58-3.56-3.56C7.18,112.86,7,105.74,7,98.62a0.93,0.93,0,0,1,1.33.1c1.5,3.17,1.39,6.76,2.63,10,3,7.86,9,9.68,15.56,4.5,2.59-2,5.13-4.17,7.63-6.32,1.38-1.19,2.86-2.61,4.83-1.76,2.22,0.95,1.46,3,1.32,4.79a15.45,15.45,0,0,0-.08,3c0.6,5.36,3.42,6.83,7.81,3.89,2.58-1.73,4.93-2.64,7.58-.25a4.53,4.53,0,0,0,3.24,1,14.31,14.31,0,0,1,4.92.28c1.58,0.51,3,1.45,5.61,2.41a13.42,13.42,0,0,0-8-3.44,5.63,5.63,0,0,1-2.44-.27c-4.51-2.82-8.54-2.84-12.94.68-2.22,1.78-3.93-.38-4.34-2.86s0-5.29-.33-7.92c-0.34-3-1.93-3.66-4.47-2.29-2.95,1.59-5.21,4-7.66,6.24-9.17,8.27-16.68,6-18.73-6.25a70,70,0,0,1,2.68-35.22,18.91,18.91,0,0,1,3.48-6c7.43-8.74,15.15-7.88,20.72,2.29,0.67,1.23,1,2.64,1.92,3.81a1.57,1.57,0,0,0,0-.56c-2.46-6-5.35-12-12.84-12C19.14,56.43,15.6,62,13,67.93c-2.09,4.72-2.88,9.81-3.62,14.89-0.24,1.62,0,3.33-1,4.78A0.93,0.93,0,0,1,7,87.71Z"
          transform="translate(0 -0.28)"/>
    <path class="cls-3" d="M7.93,98.64L7,98.62V87.71l0.94,0A9.75,9.75,0,0,1,7.93,98.64Z"
          transform="translate(0 -0.28)"/>
    <path class="cls-4"
          d="M139,12.54c0.1,5.53-2.73,9-4.65,12.77C126.86,40,119.14,54.54,111.54,69.15q-8.32,16-16.82,31.92A36.57,36.57,0,0,1,79,116.46c-0.44.22-.94,0.32-1.37,0.56-1.58.87-1.82,4.47-4.32,2.94-2.06-1.26.4-3.53,0.2-5.47C71.95,98.1,79.68,84.56,87,70.85,95.4,55,103.6,39,111.93,23.09c0.49-.94,1.16-1.8-0.17-2.42s-2.26.48-2.77,1.43c-2.26,4.22-4.38,8.51-6.55,12.78-1.12,2.19-2.21,4.39-3.38,6.56-0.39.72-1,1.48-2,1.05a1.6,1.6,0,0,1-.66-2.14,59.61,59.61,0,0,1,3-7.31c4-7.59,8.13-15.1,12.24-22.62,0.61-1.11.88-2.8,2.49-2.77,2.19,0,1,2,1.41,3,0.7,1.59,1.77,1.87,2.86.18a42.9,42.9,0,0,1,2.5-3.68c3-3.79,7-5.87,11.72-4.33C137.56,4.4,138.77,8.78,139,12.54Z"
          transform="translate(0 -0.28)"/>
    <path class="cls-4"
          d="M7.93,98.64q0-5.48,0-11a50.23,50.23,0,0,1,5.29-23.37c3.31-6.39,9.59-10.23,15-9.31s12.26,8.92,13,14.92c0.15,1.14.07,2.06-1,2.4-1.31.41-1.74-.81-2-1.67A21.48,21.48,0,0,0,32.48,61c-4.39-4-7.6-4-12.12-.18-6.88,5.74-8.14,13.84-9,21.8-0.81,7.48-1.27,15.15.57,22.65,2.4,9.81,7.91,11.68,15.48,5.09,3-2.6,5.57-5.65,9.08-7.6,3.93-2.18,5.91-1.15,6.19,3.32,0.18,2.8,0,5.62.08,8.42,0.09,2.26,1.6,3.26,3.22,1.71,3.94-3.77,7.66-5.55,12.16-.9,0.5,0.51,1.91.21,2.9,0.17a10.54,10.54,0,0,1,6.57,1.8c1.47,1,4.71,1.67,3.52,4-1.48,2.85-3.22-.35-4.76-1-2.28-.89-4.32-2.49-7-1.26a3.67,3.67,0,0,1-4.49-1.2c-1.94-2.76-3.63-2.06-5.65-.35s-3.94,4-6.9,2.16c-2.77-1.73-3.26-4.63-3.63-7.71-0.25-2.08,2.38-4.69.05-5.87-2.48-1.26-3.66,2.09-5.41,3.39-2,1.48-3.8,3.15-5.7,4.73-7.17,6-14.79,3.92-17.86-4.92A27.87,27.87,0,0,1,7.93,98.64Z"
          transform="translate(0 -0.28)"/>
    <path class="cls-2"
          d="M135.85,12.53a7.84,7.84,0,0,1-1.1,5.24c-6.58,12.56-13.28,25.06-19.71,37.7-1.57,3.09-3,3.68-6,1.9-10.67-6.33-9.2-3.15-3.79-13.73,5.7-11.16,11.59-22.22,17.39-33.33,1.8-3.44,4.89-5.41,8.47-4.63S135.43,10.22,135.85,12.53Z"
          transform="translate(0 -0.28)"/>
    <path class="cls-2"
          d="M76.53,109.31C76.69,96.59,82.36,86.3,87.9,76c2.41-4.51,4.88-9,7.18-13.56,1-2,2.14-2.75,4.25-1.49,2.69,1.61,5.41,3.18,8.2,4.59,2.11,1.07,1.2,2.36.5,3.66C102.38,79.78,97,90.55,90.92,100.94c-2.63,4.52-7,7.87-11,11.29-0.69.58-1.76,1.38-2.68,0.71C75.74,111.88,76.89,110.14,76.53,109.31Z"
          transform="translate(0 -0.28)"/>
    <path class="cls-5"
          d="M111,62.17c0,1-.52,1.76-1.49,1.26-3.52-1.81-7-3.75-10.42-5.69A1,1,0,0,1,99,56.05a1.47,1.47,0,0,1,1.25-.45c3.49,1.85,6.94,3.78,10.38,5.72A2,2,0,0,1,111,62.17Z"
          transform="translate(0 -0.28)"/>
    <path class="cls-6"
          d="M115.61,16c-0.32.89-.54,2-1.81,1.81a1.48,1.48,0,0,1-1.29-1.73,1.63,1.63,0,0,1,1.57-1.53A1.39,1.39,0,0,1,115.61,16Z"
          transform="translate(0 -0.28)"/>
</svg>