<?xml version="1.0" encoding="utf-8"?>
<!-- Generator: Adobe Illustrator 16.0.0, SVG Export Plug-In . SVG Version: 6.00 Build 0)  -->
<!DOCTYPE svg PUBLIC "-//W3C//DTD SVG 1.1//EN" "http://www.w3.org/Graphics/SVG/1.1/DTD/svg11.dtd">
<svg version="1.1" id="Layer_1" xmlns="http://www.w3.org/2000/svg" xmlns:xlink="http://www.w3.org/1999/xlink" x="0px" y="0px"
	 width="28px" height="31px" viewBox="0 0 28 31" enable-background="new 0 0 28 31" xml:space="preserve">
<g transform="translate(-1390 -386)">
	<g>
		<defs>
			<path id="SVGID_1_" d="M1406,411h-13c-1.104,0-2-0.896-2-2v-12c0-1.1,0.9-2,2-2h16c1.1,0,2,0.96,2,2.06v3.72"/>
		</defs>
		<clipPath id="SVGID_2_">
			<use xlink:href="#SVGID_1_"  overflow="visible"/>
		</clipPath>
		<g clip-path="url(#SVGID_2_)">
			<path id="a" fill="#FFFFFF" fill-opacity="0" stroke="#99B6E4" stroke-width="1.5" stroke-miterlimit="50" d="M1406,411h-13
				c-1.104,0-2-0.896-2-2v-12c0-1.1,0.9-2,2-2h16c1.1,0,2,0.96,2,2.06v3.72"/>
		</g>
	</g>
</g>
<g transform="translate(-1390 -386)">
	<g>
		<defs>
			<path id="SVGID_3_" d="M1394.9,395.06c0,0-0.9-8.06,6-8.06c7.1,0,6.02,8.06,6.02,8.06"/>
		</defs>
		<clipPath id="SVGID_4_">
			<use xlink:href="#SVGID_3_"  overflow="visible"/>
		</clipPath>
		<g clip-path="url(#SVGID_4_)">
			<path id="b" fill="#FFFFFF" fill-opacity="0" stroke="#99B6E4" stroke-width="1.5" stroke-miterlimit="50" d="M1394.9,395.06
				c0,0-0.9-8.06,6-8.06c7.1,0,6.02,8.06,6.02,8.06"/>
		</g>
	</g>
</g>
<g transform="translate(-1390 -386)">
	<g>
		<defs>
			<path id="SVGID_5_" d="M1398.88,407.12v-3.771c-1.253-1.1-1.378-3.008-0.278-4.261c0.576-0.656,1.406-1.031,2.278-1.028
				c1.668,0.003,3.017,1.358,3.014,3.026c-0.002,0.846-0.358,1.653-0.983,2.224v3.81H1398.88z"/>
		</defs>
		<clipPath id="SVGID_6_">
			<use xlink:href="#SVGID_5_"  overflow="visible"/>
		</clipPath>
		<g clip-path="url(#SVGID_6_)">
			<path id="h" fill="#FFFFFF" fill-opacity="0" stroke="#99B6E4" stroke-width="1.5" stroke-miterlimit="50" d="M1398.88,407.12
				v-3.771c-1.253-1.1-1.378-3.008-0.278-4.261c0.576-0.656,1.406-1.031,2.278-1.028c1.668,0.003,3.017,1.358,3.014,3.026
				c-0.002,0.846-0.358,1.653-0.983,2.224v3.81H1398.88z"/>
		</g>
	</g>
</g>
<g transform="translate(-1390 -386)">
	<g>
		<defs>
			<circle id="SVGID_7_" cx="1411" cy="404" r="3"/>
		</defs>
		<clipPath id="SVGID_8_">
			<use xlink:href="#SVGID_7_"  overflow="visible"/>
		</clipPath>
		<g clip-path="url(#SVGID_8_)">
			<path id="d" fill="#FFFFFF" fill-opacity="0" stroke="#99B6E4" stroke-width="1.5" stroke-miterlimit="50" d="M1411,401
				c1.656,0,3,1.344,3,3s-1.344,3-3,3s-3-1.344-3-3S1409.344,401,1411,401z"/>
		</g>
	</g>
</g>
<g transform="translate(-1390 -386)">
	<g>
		<defs>
			<path id="SVGID_9_" d="M1411,408c3.313,0,6,2.687,6,6c0,1.95-2.689,2-6,2c-3.3,0-6-0.04-6-2C1405,410.687,1407.687,408,1411,408z
				"/>
		</defs>
		<clipPath id="SVGID_10_">
			<use xlink:href="#SVGID_9_"  overflow="visible"/>
		</clipPath>
		<g clip-path="url(#SVGID_10_)">
			<path id="e" fill="#FFFFFF" fill-opacity="0" stroke="#99B6E4" stroke-width="1.5" stroke-miterlimit="50" d="M1411,408
				c3.313,0,6,2.687,6,6c0,1.95-2.689,2-6,2c-3.3,0-6-0.04-6-2C1405,410.687,1407.687,408,1411,408z"/>
		</g>
	</g>
</g>
</svg>
