<?xml version="1.0" encoding="utf-8"?>
<!-- Generator: Adobe Illustrator 16.0.0, SVG Export Plug-In . SVG Version: 6.00 Build 0)  -->
<!DOCTYPE svg PUBLIC "-//W3C//DTD SVG 1.1//EN" "http://www.w3.org/Graphics/SVG/1.1/DTD/svg11.dtd">
<svg version="1.1" id="Layer_1" xmlns="http://www.w3.org/2000/svg" xmlns:xlink="http://www.w3.org/1999/xlink" x="0px" y="0px"
	 width="28px" height="19px" viewBox="0 0 28 19" enable-background="new 0 0 28 19" xml:space="preserve">
<g transform="translate(-3368 -894)">
	<g>
		<path id="ttoca" fill="#FFFFFF" fill-opacity="0" stroke="#99B6E4" stroke-miterlimit="50" d="M3389.5,901.5h-4"/>
	</g>
</g>
<g transform="translate(-3368 -894)">
	<g>
		<path id="ttocb" fill="#FFFFFF" fill-opacity="0" stroke="#99B6E4" stroke-miterlimit="50" d="M3388.5,899.5h-3"/>
	</g>
</g>
<g transform="translate(-3368 -894)">
	<g>
		<path id="ttocc" fill="#FFFFFF" fill-opacity="0" stroke="#99B6E4" stroke-miterlimit="50" d="M3376.5,903.5h-5"/>
	</g>
</g>
<g transform="translate(-3368 -894)">
	<g>
		<path id="ttocd" fill="#FFFFFF" fill-opacity="0" stroke="#99B6E4" stroke-miterlimit="50" d="M3382.5,901.5h-11"/>
	</g>
</g>
<g transform="translate(-3368 -894)">
	<g>
		<path id="ttoce" fill="#FFFFFF" fill-opacity="0" stroke="#99B6E4" stroke-miterlimit="50" d="M3371.5,898.5h9"/>
	</g>
</g>
<g transform="translate(-3368 -894)">
	<g>
		<defs>
			<path id="SVGID_1_" d="M3394.5,897.28v12.44c0,0.979-0.83,1.779-1.85,1.779h-21.301c-1.02,0-1.85-0.8-1.85-1.779v-12.44
				c0-0.98,0.83-1.78,1.85-1.78h21.301C3393.67,895.5,3394.5,896.3,3394.5,897.28z"/>
		</defs>
		<clipPath id="SVGID_2_">
			<use xlink:href="#SVGID_1_"  overflow="visible"/>
		</clipPath>
		<g clip-path="url(#SVGID_2_)">
			<path id="ttocf" fill="#FFFFFF" fill-opacity="0" stroke="#99B6E4" stroke-width="2" stroke-miterlimit="50" d="M3394.5,897.28
				v12.44c0,0.979-0.83,1.779-1.85,1.779h-21.301c-1.02,0-1.85-0.8-1.85-1.779v-12.44c0-0.98,0.83-1.78,1.85-1.78h21.301
				C3393.67,895.5,3394.5,896.3,3394.5,897.28z"/>
		</g>
	</g>
</g>
<g transform="translate(-3368 -894)">
	<g>
		<path id="ttocg" fill="#FFFFFF" fill-opacity="0" stroke="#99B6E4" stroke-miterlimit="50" d="M3382.5,907.5h9"/>
	</g>
</g>
</svg>
