<svg id="svg" version="1.1" width="30" height="30" viewBox="0 0 400 415.59999999999997" xmlns="http://www.w3.org/2000/svg" xmlns:xlink="http://www.w3.org/1999/xlink" ><g id="svgg"><path id="path0" d="M59.731 1.444 C 58.814 2.300,49.193 13.260,38.352 25.800 C 9.514 59.159,8.753 60.018,8.295 59.735 C 8.056 59.587,7.995 59.668,8.153 59.925 C 8.312 60.181,6.624 62.459,4.215 65.239 L 0.000 70.104 0.000 241.278 C 0.000 364.982,0.122 412.681,0.440 413.275 C 0.760 413.872,0.760 414.022,0.440 413.825 C 0.164 413.654,-0.000 413.934,-0.000 414.576 C -0.000 415.408,0.192 415.600,1.024 415.600 C 1.666 415.600,1.946 415.436,1.775 415.160 C 1.578 414.840,1.728 414.840,2.325 415.160 C 4.069 416.093,300.668 415.748,301.983 414.812 C 302.592 414.378,303.202 414.136,303.339 414.272 C 304.130 415.064,303.601 259.309,302.809 258.303 C 301.515 256.658,297.200 256.768,297.200 258.446 C 297.200 258.641,297.009 258.800,296.776 258.800 C 296.543 258.800,296.482 258.575,296.641 258.300 C 296.808 258.010,296.776 257.940,296.564 258.133 C 296.364 258.317,296.192 258.677,296.182 258.933 C 296.172 259.190,295.933 259.351,295.652 259.290 C 295.371 259.230,295.235 259.333,295.350 259.519 C 295.700 260.085,289.352 266.141,288.780 265.787 C 288.441 265.578,288.376 265.638,288.582 265.970 C 288.893 266.474,287.311 267.895,286.670 267.687 C 286.489 267.628,286.442 267.744,286.565 267.943 C 286.853 268.409,278.878 276.096,278.408 275.805 C 278.214 275.685,277.925 275.798,277.766 276.055 C 277.572 276.369,277.651 276.416,278.006 276.196 C 278.415 275.943,278.452 276.043,278.168 276.634 C 277.953 277.083,277.717 300.177,277.600 332.335 L 277.400 387.269 276.278 388.235 L 275.155 389.200 236.951 389.200 C 208.673 389.200,198.520 389.079,197.874 388.735 C 196.714 388.117,195.979 387.123,196.207 386.479 C 196.308 386.193,196.229 386.059,196.030 386.181 C 195.591 386.453,185.879 372.474,185.849 371.529 C 185.838 371.161,185.704 370.936,185.551 371.030 C 185.292 371.190,175.600 357.133,175.600 356.597 C 175.600 356.463,175.825 356.482,176.100 356.641 C 176.390 356.808,176.460 356.776,176.267 356.564 C 176.083 356.364,175.774 356.200,175.578 356.200 C 175.383 356.200,173.009 352.780,170.302 348.600 C 162.857 337.102,161.521 334.852,161.836 334.342 C 162.007 334.065,161.950 333.984,161.694 334.142 C 161.443 334.297,160.501 333.150,159.432 331.390 C 157.502 328.210,157.313 327.775,158.062 328.238 C 158.350 328.416,158.415 328.348,158.234 328.055 C 158.075 327.798,157.794 327.680,157.610 327.794 C 157.131 328.090,155.104 324.480,155.442 323.933 C 155.603 323.671,155.547 323.585,155.310 323.732 C 154.958 323.950,152.293 319.707,146.630 309.912 C 146.029 308.874,145.670 307.811,145.831 307.550 C 146.017 307.250,145.952 307.182,145.654 307.367 C 145.346 307.557,144.783 306.787,144.016 305.128 C 142.641 302.153,142.746 300.853,144.478 299.396 L 145.661 298.400 171.461 298.400 L 197.262 298.400 198.413 297.249 C 199.046 296.616,199.646 296.180,199.747 296.280 C 200.114 296.647,199.310 293.754,198.778 292.791 C 198.476 292.246,198.266 291.671,198.310 291.514 C 198.354 291.357,198.141 291.325,197.836 291.442 C 197.293 291.650,196.636 290.996,196.588 290.200 C 196.575 289.980,196.316 289.855,196.013 289.923 C 195.265 290.090,188.736 283.545,188.990 282.882 C 189.100 282.594,189.018 282.465,188.806 282.596 C 187.417 283.455,180.360 270.412,178.421 263.400 C 176.280 255.661,179.795 256.405,145.344 256.402 C 119.197 256.400,117.234 256.352,116.490 255.700 C 115.224 254.589,103.532 234.834,103.843 234.330 C 104.007 234.066,103.946 233.986,103.698 234.139 C 103.170 234.466,98.236 226.589,98.600 226.000 C 98.743 225.769,98.621 225.630,98.330 225.690 C 97.528 225.856,97.428 223.322,98.190 222.159 C 98.546 221.615,99.034 221.297,99.279 221.449 C 99.549 221.615,99.611 221.541,99.438 221.261 C 98.717 220.095,101.969 220.000,142.926 219.987 C 175.074 219.977,184.737 219.863,185.200 219.487 C 185.530 219.219,186.594 217.920,187.565 216.600 C 190.479 212.638,193.643 209.179,194.097 209.460 C 194.359 209.622,194.405 209.532,194.218 209.229 C 194.018 208.905,195.621 207.018,198.856 203.770 C 203.239 199.369,205.042 197.837,204.162 199.262 C 203.984 199.550,204.052 199.615,204.345 199.434 C 204.602 199.275,204.723 198.999,204.613 198.821 C 204.301 198.316,208.347 194.720,208.867 195.041 C 209.132 195.205,209.215 195.147,209.063 194.903 C 208.739 194.378,214.933 188.736,215.666 188.889 C 215.960 188.950,216.158 188.783,216.106 188.518 C 216.009 188.020,220.264 184.142,220.763 184.274 C 221.517 184.473,220.915 180.337,220.065 179.488 L 219.178 178.600 143.489 178.400 C 84.437 178.244,67.821 178.093,67.895 177.714 C 67.948 177.447,67.761 177.317,67.482 177.424 C 67.170 177.544,65.161 174.999,62.287 170.841 C 57.695 164.200,57.129 163.262,58.062 163.838 C 58.350 164.016,58.415 163.948,58.234 163.655 C 58.075 163.398,57.796 163.279,57.614 163.391 C 57.120 163.697,42.705 142.478,43.039 141.936 C 43.204 141.670,43.148 141.585,42.908 141.733 C 42.390 142.053,38.258 136.153,38.606 135.590 C 38.745 135.365,38.621 135.230,38.330 135.290 C 38.037 135.351,37.825 135.089,37.855 134.704 C 37.885 134.322,37.769 134.096,37.597 134.202 C 37.117 134.498,32.313 127.265,32.639 126.737 C 32.810 126.459,32.748 126.385,32.482 126.550 C 31.915 126.900,27.861 120.949,28.244 120.329 C 28.413 120.056,28.345 119.987,28.074 120.155 C 27.803 120.322,27.547 120.067,27.432 119.516 C 27.273 118.753,26.377 80.613,26.395 75.343 C 26.400 73.554,29.588 69.298,30.499 69.861 C 30.746 70.014,30.806 69.934,30.644 69.671 C 30.484 69.412,31.357 68.138,32.682 66.697 C 33.957 65.310,36.685 62.337,38.744 60.091 C 40.803 57.845,42.676 56.123,42.906 56.265 C 43.152 56.418,43.204 56.330,43.032 56.052 C 42.658 55.447,50.402 46.811,51.121 47.031 C 51.407 47.119,51.529 47.008,51.391 46.785 C 51.084 46.289,57.891 38.790,58.538 38.913 C 58.792 38.961,58.945 38.746,58.879 38.437 C 58.725 37.722,61.998 34.352,62.528 34.679 C 62.749 34.816,62.798 34.720,62.639 34.462 C 62.280 33.883,66.343 29.517,66.913 29.870 C 67.143 30.012,67.203 29.929,67.049 29.679 C 66.686 29.092,68.419 27.122,69.077 27.374 C 69.359 27.483,69.548 27.353,69.495 27.086 C 69.421 26.706,91.872 26.578,172.330 26.499 L 275.260 26.398 276.430 27.568 L 277.600 28.738 277.600 75.389 C 277.600 115.508,277.682 122.198,278.184 123.169 C 278.505 123.790,278.700 124.366,278.618 124.449 C 278.457 124.610,280.081 124.858,281.400 124.874 C 282.781 124.890,283.951 124.644,283.784 124.374 C 283.578 124.040,287.846 119.953,288.504 119.853 C 289.295 119.733,290.030 119.172,289.827 118.843 C 289.529 118.362,296.267 111.871,296.754 112.171 C 297.037 112.346,297.097 112.198,296.926 111.751 C 296.727 111.232,296.819 111.122,297.301 111.307 C 297.653 111.442,298.157 111.293,298.420 110.976 C 298.683 110.659,298.756 110.400,298.583 110.400 C 298.410 110.400,299.468 109.158,300.934 107.639 L 303.600 104.878 303.600 54.272 C 303.600 26.438,303.488 3.374,303.352 3.018 C 302.619 1.110,307.313 1.216,205.510 0.807 C 153.089 0.596,99.220 0.304,85.800 0.156 L 61.400 -0.112 59.731 1.444 M192.500 0.294 C 193.545 0.376,195.255 0.376,196.300 0.294 C 197.345 0.212,196.490 0.144,194.400 0.144 C 192.310 0.144,191.455 0.212,192.500 0.294 M265.500 0.698 C 267.535 0.771,270.865 0.771,272.900 0.698 C 274.935 0.625,273.270 0.566,269.200 0.566 C 265.130 0.566,263.465 0.625,265.500 0.698 M284.912 0.695 C 285.964 0.777,287.584 0.776,288.512 0.692 C 289.440 0.608,288.580 0.541,286.600 0.542 C 284.620 0.543,283.860 0.612,284.912 0.695 M366.939 86.394 C 362.015 87.685,358.699 89.704,353.929 94.314 C 352.215 95.971,350.664 97.163,350.419 97.012 C 350.176 96.862,350.029 96.969,350.090 97.252 C 350.151 97.533,349.930 97.772,349.600 97.782 C 349.270 97.792,348.992 98.070,348.982 98.400 C 348.972 98.730,348.733 98.951,348.452 98.890 C 348.171 98.830,348.042 98.944,348.166 99.145 C 348.491 99.670,340.449 107.278,339.917 106.949 C 339.671 106.796,339.589 106.858,339.731 107.088 C 340.096 107.679,332.909 114.509,332.294 114.155 C 332.022 113.999,331.933 114.019,332.097 114.199 C 332.478 114.620,331.627 115.664,331.145 115.366 C 330.944 115.242,330.830 115.379,330.890 115.670 C 330.951 115.962,330.762 116.151,330.470 116.090 C 330.179 116.030,330.042 116.145,330.167 116.346 C 330.487 116.864,323.635 123.269,323.110 122.944 C 322.868 122.795,322.790 122.861,322.934 123.093 C 323.254 123.611,322.247 124.502,321.799 124.097 C 321.619 123.933,321.588 124.003,321.729 124.251 C 322.031 124.780,315.351 131.341,314.836 131.022 C 314.646 130.905,314.268 131.077,313.996 131.404 C 313.724 131.732,313.655 132.000,313.842 132.000 C 314.028 132.000,312.747 133.443,310.994 135.206 C 309.203 137.008,307.578 138.324,307.283 138.210 C 306.994 138.100,306.856 138.167,306.975 138.359 C 307.094 138.552,306.923 138.932,306.596 139.204 C 306.268 139.476,306.000 139.564,306.000 139.400 C 306.000 139.236,305.732 139.324,305.404 139.596 C 305.077 139.868,304.888 140.218,304.984 140.375 C 305.311 140.903,298.916 146.919,298.380 146.587 C 298.082 146.403,297.977 146.439,298.123 146.675 C 298.409 147.138,290.346 155.220,289.469 155.349 C 288.689 155.463,287.563 156.416,287.784 156.775 C 288.111 157.303,281.716 163.319,281.180 162.987 C 280.886 162.806,280.777 162.839,280.917 163.066 C 281.196 163.517,273.218 171.608,272.368 171.737 C 271.503 171.867,270.764 172.418,270.981 172.769 C 271.305 173.293,264.485 179.700,263.953 179.371 C 263.671 179.197,263.581 179.246,263.734 179.493 C 264.048 180.001,263.045 180.912,262.630 180.497 C 262.467 180.333,262.393 180.470,262.467 180.800 C 262.540 181.132,262.364 181.351,262.070 181.290 C 261.779 181.230,261.641 181.343,261.764 181.541 C 262.058 182.018,255.362 188.434,254.707 188.302 C 254.428 188.246,254.241 188.413,254.291 188.674 C 254.418 189.329,244.370 198.829,243.875 198.523 C 243.656 198.387,243.593 198.465,243.736 198.696 C 244.074 199.244,238.058 204.883,237.502 204.539 C 237.268 204.395,237.190 204.460,237.329 204.685 C 237.649 205.203,236.248 206.504,235.803 206.101 C 235.621 205.935,235.585 205.999,235.724 206.242 C 236.076 206.859,229.756 212.944,229.151 212.570 C 228.883 212.404,228.782 212.447,228.918 212.667 C 229.261 213.222,221.790 220.565,221.233 220.220 C 220.972 220.059,220.827 220.165,220.890 220.470 C 220.951 220.762,220.762 220.951,220.470 220.890 C 220.179 220.830,220.035 220.933,220.150 221.119 C 220.513 221.707,213.352 228.539,212.742 228.186 C 212.444 228.013,212.333 228.019,212.497 228.199 C 212.878 228.620,212.027 229.664,211.545 229.366 C 211.344 229.242,211.230 229.379,211.290 229.670 C 211.351 229.962,211.175 230.155,210.900 230.100 C 210.625 230.045,210.445 230.225,210.500 230.500 C 210.555 230.775,210.362 230.951,210.070 230.890 C 209.779 230.830,209.641 230.943,209.765 231.143 C 210.091 231.671,208.414 233.656,207.906 233.342 C 207.655 233.187,207.592 233.264,207.755 233.527 C 208.122 234.120,206.833 236.068,206.294 235.735 C 206.056 235.587,205.995 235.668,206.153 235.923 C 206.304 236.169,205.985 237.245,205.444 238.314 C 203.098 242.943,202.533 249.408,204.008 254.733 C 204.453 256.337,204.694 257.863,204.544 258.125 C 204.394 258.386,204.423 258.463,204.607 258.295 C 205.032 257.910,207.663 262.774,207.326 263.320 C 207.189 263.542,207.253 263.614,207.469 263.481 C 207.923 263.200,210.831 266.528,210.972 267.489 C 211.024 267.844,211.356 268.176,211.711 268.228 C 212.672 268.369,216.000 271.277,215.719 271.731 C 215.586 271.947,215.671 272.003,215.909 271.856 C 216.480 271.503,221.710 274.148,221.310 274.588 C 221.139 274.775,221.219 274.803,221.486 274.649 C 221.753 274.496,223.039 274.647,224.343 274.985 C 228.198 275.984,234.020 275.792,237.400 274.554 C 238.940 273.990,240.588 273.500,241.062 273.464 C 241.536 273.429,241.851 273.283,241.762 273.139 C 241.506 272.725,244.415 271.162,244.893 271.457 C 245.130 271.604,245.210 271.540,245.071 271.315 C 244.717 270.743,246.241 269.454,246.837 269.823 C 247.116 269.995,247.221 269.957,247.082 269.732 C 246.739 269.178,252.612 263.437,253.169 263.781 C 253.425 263.939,253.572 263.839,253.510 263.548 C 253.449 263.267,253.670 263.028,254.000 263.018 C 254.330 263.008,254.608 262.730,254.618 262.400 C 254.628 262.070,254.867 261.849,255.148 261.910 C 255.429 261.970,255.562 261.862,255.442 261.669 C 255.131 261.164,261.885 254.682,262.395 254.997 C 262.629 255.141,262.770 255.021,262.710 254.730 C 262.649 254.438,262.838 254.249,263.130 254.310 C 263.421 254.370,263.565 254.267,263.450 254.081 C 263.100 253.515,269.848 247.059,270.420 247.412 C 270.719 247.597,270.823 247.561,270.676 247.323 C 270.313 246.735,278.648 238.659,279.241 239.025 C 279.529 239.203,279.620 239.155,279.466 238.907 C 279.146 238.389,280.153 237.498,280.601 237.903 C 280.781 238.067,280.819 238.007,280.684 237.771 C 280.349 237.182,286.995 230.626,287.568 230.980 C 287.825 231.139,287.972 231.039,287.910 230.748 C 287.849 230.467,288.070 230.220,288.400 230.200 C 288.730 230.180,288.963 229.971,288.918 229.736 C 288.782 229.027,295.909 222.296,296.445 222.628 C 296.723 222.800,296.819 222.754,296.674 222.520 C 296.537 222.298,296.913 221.685,297.509 221.158 L 298.594 220.200 297.797 221.200 L 297.000 222.200 297.891 221.447 C 298.380 221.032,298.704 220.569,298.610 220.417 C 298.381 220.045,304.121 214.371,304.836 214.263 C 305.714 214.130,306.434 213.579,306.208 213.213 C 305.925 212.755,314.381 204.741,314.845 205.028 C 315.051 205.155,315.170 205.021,315.110 204.730 C 315.049 204.438,315.238 204.249,315.530 204.310 C 315.821 204.370,315.965 204.267,315.850 204.080 C 315.553 203.600,321.309 197.972,322.236 197.836 C 322.656 197.774,323.008 197.471,323.018 197.162 C 323.028 196.853,323.267 196.649,323.548 196.710 C 323.829 196.770,323.965 196.667,323.850 196.481 C 323.529 195.961,329.845 189.857,330.368 190.180 C 330.628 190.341,330.773 190.235,330.710 189.930 C 330.649 189.638,330.838 189.449,331.130 189.510 C 331.421 189.570,331.565 189.468,331.450 189.281 C 331.153 188.800,338.508 181.572,339.433 181.436 C 339.855 181.374,340.208 181.071,340.218 180.762 C 340.228 180.453,340.467 180.249,340.748 180.310 C 341.029 180.370,341.165 180.267,341.050 180.081 C 340.729 179.561,347.045 173.457,347.568 173.780 C 347.825 173.939,347.972 173.839,347.910 173.548 C 347.849 173.267,348.070 173.020,348.400 173.000 C 348.730 172.980,348.965 172.778,348.923 172.551 C 348.823 172.017,355.688 165.175,356.434 165.066 C 356.745 165.020,357.024 164.831,357.054 164.645 C 357.191 163.792,364.235 157.204,364.785 157.416 C 365.110 157.540,365.248 157.514,365.091 157.358 C 364.684 156.951,365.608 155.958,366.107 156.266 C 366.336 156.408,366.408 156.336,366.266 156.107 C 365.920 155.547,373.917 147.902,374.483 148.251 C 374.725 148.401,374.815 148.348,374.682 148.133 C 374.297 147.510,381.014 141.042,381.658 141.415 C 381.956 141.587,382.067 141.581,381.903 141.401 C 381.498 140.953,382.389 139.946,382.907 140.266 C 383.136 140.408,383.212 140.343,383.075 140.122 C 382.713 139.536,390.252 132.261,390.844 132.627 C 391.125 132.801,391.219 132.755,391.071 132.515 C 390.789 132.059,392.113 130.684,392.532 130.999 C 392.680 131.110,392.715 131.085,392.611 130.944 C 392.330 130.564,394.814 127.561,395.207 127.805 C 395.393 127.919,395.675 127.802,395.834 127.545 C 396.015 127.252,395.950 127.184,395.662 127.362 C 394.957 127.797,395.101 127.341,396.234 125.547 C 398.910 121.307,400.235 116.157,399.815 111.630 C 399.660 109.963,399.503 108.030,399.467 107.333 C 399.430 106.637,399.327 106.140,399.237 106.229 C 398.945 106.521,397.194 101.815,397.395 101.279 C 397.503 100.993,397.437 100.853,397.249 100.970 C 397.061 101.086,396.343 100.273,395.654 99.164 C 394.293 96.975,394.154 96.601,394.862 97.038 C 395.150 97.216,395.215 97.148,395.034 96.855 C 394.875 96.598,394.594 96.480,394.409 96.595 C 393.955 96.875,391.934 94.431,392.227 93.956 C 392.355 93.749,392.221 93.630,391.930 93.690 C 391.638 93.751,391.449 93.562,391.510 93.270 C 391.570 92.979,391.429 92.859,391.195 93.003 C 390.767 93.268,387.327 90.444,387.484 89.956 C 387.531 89.812,387.261 89.718,386.884 89.747 C 386.508 89.776,386.249 89.562,386.310 89.270 C 386.370 88.979,386.256 88.842,386.055 88.966 C 385.855 89.090,384.469 88.637,382.976 87.960 C 377.705 85.570,372.151 85.028,366.939 86.394 M74.200 100.276 C 72.241 100.542,69.119 101.622,67.294 102.665 C 66.356 103.202,65.384 103.513,65.133 103.358 C 64.880 103.202,64.785 103.252,64.920 103.470 C 65.170 103.875,61.265 107.992,60.667 107.954 C 60.483 107.943,60.213 108.067,60.067 108.231 C 59.920 108.394,60.048 108.384,60.352 108.208 C 60.986 107.841,60.971 107.887,59.488 110.706 C 57.120 115.209,56.428 121.643,57.766 126.714 C 58.131 128.097,58.305 129.430,58.153 129.676 C 57.999 129.925,58.055 130.013,58.280 129.874 C 58.781 129.565,59.709 131.500,59.343 132.092 C 59.192 132.336,59.262 132.409,59.504 132.259 C 59.739 132.114,60.296 132.581,60.741 133.298 C 61.186 134.014,62.274 135.304,63.158 136.165 C 64.043 137.026,64.686 137.860,64.588 138.020 C 64.489 138.179,64.632 138.293,64.904 138.274 C 65.177 138.254,66.586 138.818,68.035 139.526 C 73.350 142.125,68.616 141.986,152.000 141.986 C 234.876 141.986,230.589 142.105,235.765 139.668 C 245.539 135.067,249.660 122.293,244.865 111.454 C 244.393 110.387,244.108 109.348,244.233 109.147 C 244.358 108.945,244.311 108.828,244.130 108.887 C 243.948 108.945,242.900 108.027,241.800 106.847 C 239.266 104.128,237.115 102.650,233.704 101.284 L 231.000 100.200 153.200 100.156 C 110.410 100.133,74.860 100.186,74.200 100.276 M202.493 248.400 C 202.493 249.170,202.575 249.485,202.676 249.100 C 202.776 248.715,202.776 248.085,202.676 247.700 C 202.575 247.315,202.493 247.630,202.493 248.400 " stroke="none" fill="#fcfcfc" fill-rule="evenodd"></path><path id="path1" d="M58.887 1.500 C 58.055 2.325,56.390 4.168,55.187 5.596 C 53.984 7.024,52.806 8.374,52.568 8.596 C 52.331 8.818,51.161 10.165,49.968 11.590 C 48.776 13.014,47.145 14.904,46.344 15.790 C 45.543 16.675,44.376 18.030,43.751 18.800 C 43.125 19.570,42.502 20.290,42.367 20.400 C 42.232 20.510,40.186 22.850,37.821 25.600 C 35.455 28.350,32.651 31.590,31.588 32.800 C 27.910 36.990,27.549 37.407,26.278 38.951 C 25.575 39.805,24.708 40.795,24.350 41.151 C 23.993 41.508,22.938 42.700,22.005 43.800 C 21.073 44.900,19.450 46.790,18.399 48.000 C 17.348 49.210,15.003 51.910,13.188 54.000 C 11.372 56.090,9.417 58.341,8.843 59.002 C 8.270 59.663,6.030 62.228,3.866 64.701 C 1.703 67.174,-0.007 69.355,0.066 69.547 C 0.140 69.740,4.267 65.195,9.238 59.448 C 14.209 53.702,27.228 38.650,38.169 26.000 C 49.110 13.350,58.791 2.325,59.682 1.500 C 60.574 0.675,61.100 0.000,60.852 0.000 C 60.604 0.000,59.720 0.675,58.887 1.500 M126.400 0.391 C 157.226 0.717,241.028 0.895,240.767 0.634 C 240.675 0.543,208.650 0.385,169.600 0.283 C 127.258 0.173,109.821 0.217,126.400 0.391 M269.000 0.813 C 264.039 0.953,268.248 1.057,281.120 1.113 C 301.872 1.205,302.682 1.274,303.352 3.018 C 303.488 3.374,303.603 26.466,303.608 54.333 L 303.615 105.000 298.708 109.749 C 289.087 119.059,283.134 124.604,282.472 124.872 C 281.943 125.086,281.927 125.150,282.400 125.171 C 283.242 125.210,283.079 125.357,299.888 109.343 L 304.200 105.235 304.200 54.478 C 304.200 0.125,304.278 2.252,302.256 1.274 C 301.249 0.788,280.272 0.497,269.000 0.813 M68.325 27.700 C 67.568 28.415,63.362 32.960,58.979 37.800 C 54.595 42.640,50.914 46.690,50.797 46.800 C 50.681 46.910,48.711 49.070,46.419 51.600 C 44.127 54.130,40.693 57.910,38.788 60.000 C 36.883 62.090,33.316 66.019,30.862 68.732 L 26.400 73.663 26.400 79.808 C 26.400 84.036,26.545 86.042,26.864 86.239 C 27.211 86.454,27.267 85.041,27.087 80.593 C 26.789 73.227,26.028 74.784,34.412 65.600 C 36.320 63.510,38.493 61.080,39.241 60.200 C 39.988 59.320,41.050 58.145,41.600 57.590 C 42.572 56.608,45.421 53.513,49.166 49.372 C 50.175 48.256,51.730 46.546,52.623 45.572 C 53.515 44.597,55.295 42.630,56.578 41.200 C 57.861 39.770,60.562 36.800,62.580 34.600 C 64.597 32.400,66.989 29.790,67.895 28.800 L 69.543 27.000 172.360 27.000 L 275.178 27.000 276.089 27.911 L 277.000 28.822 277.105 75.961 L 277.210 123.101 278.259 124.150 C 278.837 124.728,279.540 125.200,279.822 125.200 C 280.104 125.200,280.664 125.295,281.067 125.411 C 281.470 125.527,281.075 125.281,280.189 124.865 C 277.440 123.574,277.600 126.633,277.600 75.350 L 277.600 28.738 276.431 27.569 L 275.262 26.400 172.481 26.400 L 69.701 26.400 68.325 27.700 M27.080 102.996 C 27.203 113.343,27.430 119.688,27.696 120.196 C 28.103 120.970,40.566 139.243,58.119 164.800 C 62.728 171.510,66.881 177.311,67.349 177.691 C 68.148 178.340,72.753 178.383,143.411 178.391 C 226.031 178.401,219.894 178.217,220.842 180.710 C 221.652 182.840,221.044 183.621,213.083 190.680 C 199.453 202.765,193.134 209.154,188.038 216.000 C 186.809 217.650,185.533 219.180,185.202 219.400 C 184.815 219.657,169.480 219.871,142.267 220.000 L 99.934 220.200 98.767 221.506 C 96.808 223.699,96.985 224.179,103.934 235.490 C 107.418 241.161,111.571 248.006,113.164 250.702 C 114.756 253.398,116.394 255.783,116.803 256.002 C 117.277 256.255,127.701 256.401,145.474 256.402 C 179.747 256.405,176.278 255.677,178.403 263.310 C 181.318 273.780,188.468 284.618,196.452 290.670 C 199.785 293.196,200.406 295.255,198.431 297.231 L 197.262 298.400 171.437 298.400 L 145.613 298.400 144.349 299.529 C 143.633 300.169,143.177 300.905,143.295 301.229 C 143.440 301.623,143.635 301.474,143.924 300.749 C 144.687 298.835,145.194 298.800,172.206 298.800 C 196.937 298.800,197.515 298.782,198.515 297.995 C 200.670 296.301,200.394 293.053,197.943 291.251 C 188.643 284.411,180.064 270.991,178.184 260.341 C 178.042 259.538,177.423 258.278,176.807 257.541 L 175.688 256.200 146.344 255.991 C 130.205 255.876,116.968 255.741,116.928 255.691 C 116.361 254.971,114.193 251.587,113.581 250.467 C 112.252 248.035,110.759 245.513,109.400 243.400 C 108.692 242.300,106.853 239.330,105.314 236.800 C 103.775 234.270,101.590 230.702,100.458 228.871 C 97.993 224.883,97.745 224.053,98.553 222.492 C 99.474 220.711,97.567 220.785,142.016 220.796 C 187.752 220.808,184.815 220.995,187.180 217.919 C 188.077 216.754,189.303 215.175,189.905 214.412 C 191.489 212.403,197.538 205.573,198.771 204.400 C 201.559 201.747,209.936 194.053,210.983 193.183 C 211.634 192.642,213.074 191.374,214.183 190.365 C 215.292 189.356,216.827 188.006,217.593 187.365 C 221.965 183.708,222.738 181.476,220.431 179.169 L 219.262 178.000 143.813 178.000 L 68.364 178.000 67.482 177.070 C 66.229 175.749,65.607 174.921,63.821 172.200 C 62.955 170.880,62.101 169.740,61.923 169.667 C 61.745 169.593,61.600 169.355,61.600 169.137 C 61.600 168.772,60.884 167.706,55.600 160.192 C 53.701 157.491,52.448 155.666,44.763 144.400 C 42.137 140.550,39.766 137.130,39.494 136.799 C 39.222 136.469,38.198 134.960,37.219 133.447 C 36.239 131.933,35.244 130.493,35.008 130.247 C 34.772 130.001,33.522 128.180,32.230 126.200 C 30.938 124.220,29.772 122.510,29.640 122.400 C 29.286 122.105,28.454 120.728,28.011 119.706 C 27.798 119.214,27.588 114.534,27.544 109.306 C 27.500 104.078,27.334 96.830,27.175 93.200 C 27.011 89.446,26.970 93.670,27.080 102.996 M71.441 100.442 C 69.924 100.875,68.186 101.583,67.579 102.015 C 66.973 102.447,66.271 102.800,66.019 102.800 C 65.126 102.800,60.185 108.274,59.139 110.422 C 58.274 112.198,56.800 116.137,56.800 116.671 C 56.800 117.529,57.559 116.425,57.743 115.300 C 58.433 111.082,62.803 105.179,66.972 102.836 C 72.087 99.962,64.380 100.200,152.200 100.200 L 231.000 100.200 233.704 101.284 C 237.178 102.676,239.373 104.202,241.939 107.010 C 243.073 108.250,244.000 109.113,244.000 108.928 C 244.000 107.799,238.808 103.247,235.970 101.889 C 230.869 99.447,236.785 99.606,151.841 99.631 C 75.854 99.654,74.141 99.672,71.441 100.442 M244.973 111.700 C 245.507 112.909,246.067 114.550,246.217 115.349 C 246.367 116.147,246.643 116.800,246.832 116.800 C 247.021 116.800,247.105 116.575,247.019 116.300 C 245.641 111.887,245.059 110.381,244.578 109.982 C 244.214 109.680,244.360 110.314,244.973 111.700 M56.579 119.432 C 56.425 120.660,56.468 122.415,56.674 123.332 C 56.998 124.774,57.051 124.472,57.070 121.100 C 57.094 116.650,56.976 116.250,56.579 119.432 M246.834 120.833 C 246.862 123.819,246.947 124.351,247.248 123.400 C 247.597 122.296,247.394 117.661,246.979 117.246 C 246.881 117.147,246.815 118.762,246.834 120.833 M57.112 125.421 C 56.835 125.698,57.555 128.214,58.537 130.400 C 61.045 135.981,66.843 140.510,73.200 141.853 C 75.981 142.440,228.208 142.651,229.685 142.070 C 230.062 141.921,195.729 141.848,153.388 141.906 C 68.147 142.023,73.371 142.175,67.770 139.418 C 63.166 137.152,59.383 132.543,58.009 127.525 C 57.655 126.229,57.251 125.282,57.112 125.421 M245.867 127.703 C 243.999 134.063,239.366 138.723,232.800 140.846 C 231.590 141.237,230.963 141.567,231.406 141.578 C 237.119 141.731,248.261 130.151,246.744 125.636 C 246.665 125.400,246.270 126.330,245.867 127.703 M297.314 257.697 C 296.481 258.410,294.180 260.543,292.200 262.436 C 290.220 264.329,286.539 267.840,284.020 270.239 C 281.501 272.637,278.936 275.135,278.320 275.789 L 277.200 276.978 277.200 331.720 L 277.200 386.462 276.031 387.631 L 274.862 388.800 237.004 388.800 C 209.089 388.800,198.920 388.678,198.282 388.337 C 197.110 387.710,196.834 387.388,194.993 384.503 C 194.117 383.130,193.265 382.005,193.100 382.003 C 192.935 382.002,192.800 381.821,192.800 381.603 C 192.800 381.384,190.966 378.549,188.724 375.303 C 182.795 366.717,175.744 356.165,174.731 354.362 C 174.248 353.503,173.706 352.800,173.526 352.800 C 173.347 352.800,173.200 352.603,173.200 352.362 C 173.200 352.121,172.210 350.487,171.000 348.730 C 169.790 346.973,168.800 345.457,168.800 345.361 C 168.800 345.264,167.653 343.434,166.251 341.293 C 161.414 333.905,149.764 314.534,145.386 306.600 C 143.982 304.054,143.200 302.915,143.200 303.414 C 143.200 304.898,160.794 334.033,172.782 352.400 C 178.833 361.671,182.753 367.506,193.400 383.093 C 195.380 385.991,197.413 388.551,197.919 388.781 C 198.538 389.064,211.292 389.200,237.050 389.200 L 275.262 389.200 276.431 388.031 L 277.600 386.862 277.600 332.404 C 277.600 293.489,277.726 277.698,278.041 277.074 C 278.284 276.593,279.049 275.689,279.741 275.064 C 280.434 274.439,282.897 272.099,285.215 269.864 C 287.534 267.629,291.346 263.955,293.686 261.701 C 299.154 256.435,300.844 255.805,302.806 258.299 C 303.592 259.297,303.600 260.118,303.600 336.293 L 303.600 413.279 302.358 414.440 C 300.808 415.887,301.364 415.957,303.000 414.521 L 304.200 413.466 304.200 336.100 L 304.200 258.734 302.894 257.567 C 301.082 255.949,299.306 255.990,297.314 257.697 M228.920 275.854 C 229.335 276.269,231.200 276.360,231.200 275.965 C 231.200 275.764,230.630 275.600,229.933 275.600 C 229.237 275.600,228.781 275.714,228.920 275.854 " stroke="none" fill="#bdbcbc" fill-rule="evenodd"></path><path id="path2" d="M93.300 0.294 C 94.345 0.376,96.055 0.376,97.100 0.294 C 98.145 0.212,97.290 0.144,95.200 0.144 C 93.110 0.144,92.255 0.212,93.300 0.294 M178.291 0.289 C 179.001 0.377,180.261 0.379,181.091 0.292 C 181.921 0.205,181.340 0.133,179.800 0.131 C 178.260 0.129,177.581 0.200,178.291 0.289 M185.300 0.294 C 186.345 0.376,188.055 0.376,189.100 0.294 C 190.145 0.212,189.290 0.144,187.200 0.144 C 185.110 0.144,184.255 0.212,185.300 0.294 M242.713 0.695 C 243.876 0.776,245.676 0.776,246.713 0.693 C 247.751 0.611,246.800 0.545,244.600 0.546 C 242.400 0.547,241.551 0.614,242.713 0.695 M256.100 0.694 C 257.145 0.776,258.855 0.776,259.900 0.694 C 260.945 0.612,260.090 0.544,258.000 0.544 C 255.910 0.544,255.055 0.612,256.100 0.694 M375.600 85.560 C 375.600 85.701,376.678 86.022,377.996 86.272 C 384.775 87.561,392.674 93.534,396.284 100.102 C 397.466 102.252,397.960 102.453,396.930 100.365 C 394.648 95.739,387.990 89.551,382.980 87.399 C 380.084 86.155,375.600 85.038,375.600 85.560 M364.200 86.800 C 363.908 87.273,364.299 87.273,365.400 86.800 C 366.171 86.469,366.169 86.455,365.324 86.428 C 364.842 86.413,364.336 86.580,364.200 86.800 M359.900 88.827 C 359.075 89.263,358.400 89.797,358.400 90.015 C 358.400 90.233,359.120 89.935,360.000 89.353 C 360.880 88.770,361.600 88.228,361.600 88.147 C 361.600 87.936,361.553 87.954,359.900 88.827 M355.847 91.853 C 354.772 92.828,353.962 93.693,354.047 93.774 C 354.131 93.855,355.079 93.123,356.153 92.147 C 357.228 91.172,358.038 90.307,357.953 90.226 C 357.869 90.145,356.921 90.877,355.847 91.853 M352.200 95.313 C 351.760 95.770,349.060 98.381,346.200 101.115 C 343.340 103.849,341.270 105.944,341.600 105.770 C 341.930 105.596,344.000 103.705,346.200 101.566 C 348.400 99.428,351.010 96.946,352.000 96.050 C 352.990 95.154,353.620 94.435,353.400 94.451 C 353.180 94.468,352.640 94.855,352.200 95.313 M337.318 109.500 C 333.638 113.084,327.630 118.825,322.816 123.356 C 320.972 125.092,319.662 126.442,319.905 126.356 C 320.331 126.206,338.608 108.959,340.162 107.242 C 341.883 105.340,340.294 106.602,337.318 109.500 M395.965 126.100 C 394.247 128.766,394.000 129.401,395.385 127.600 C 396.484 126.169,397.741 124.000,397.470 124.000 C 397.387 124.000,396.710 124.945,395.965 126.100 M317.000 128.898 C 315.140 130.757,315.112 130.813,316.600 129.693 C 318.389 128.346,319.916 126.774,319.362 126.849 C 319.163 126.876,318.100 127.798,317.000 128.898 M390.851 131.900 C 389.229 133.495,388.064 134.800,388.262 134.800 C 388.686 134.800,394.239 129.274,393.978 129.111 C 393.880 129.050,392.473 130.305,390.851 131.900 M311.776 133.902 C 310.223 135.386,307.362 138.085,305.418 139.900 C 303.473 141.715,302.044 143.196,302.241 143.191 C 302.621 143.182,315.142 131.246,314.800 131.219 C 314.690 131.210,313.329 132.417,311.776 133.902 M386.771 135.900 C 386.437 136.285,384.462 138.196,382.382 140.148 C 380.302 142.099,378.870 143.547,379.200 143.366 C 380.465 142.672,388.307 135.200,387.770 135.200 C 387.555 135.200,387.105 135.515,386.771 135.900 M299.186 145.875 C 297.510 147.620,297.373 147.839,298.600 146.814 C 300.909 144.885,302.164 143.600,301.741 143.600 C 301.538 143.600,300.389 144.624,299.186 145.875 M373.200 148.848 C 370.890 151.059,367.582 154.210,365.850 155.850 C 364.117 157.491,362.768 158.902,362.853 158.986 C 362.937 159.070,364.895 157.340,367.203 155.141 C 374.117 148.556,377.917 144.799,377.651 144.814 C 377.513 144.822,375.510 146.637,373.200 148.848 M294.852 149.914 C 293.891 150.951,291.204 153.561,288.881 155.712 C 286.559 157.864,284.384 160.024,284.048 160.512 C 283.713 161.001,286.445 158.539,290.119 155.043 C 295.713 149.721,297.401 147.917,296.700 148.014 C 296.645 148.021,295.814 148.876,294.852 149.914 M359.588 161.877 C 356.738 164.826,357.438 164.527,360.485 161.495 C 362.183 159.806,362.659 159.200,362.288 159.200 C 362.227 159.200,361.012 160.405,359.588 161.877 M279.197 164.862 C 277.109 166.843,275.604 168.404,275.854 168.332 C 276.437 168.163,283.339 161.606,283.142 161.409 C 283.061 161.327,281.285 162.881,279.197 164.862 M351.060 169.900 C 348.195 172.705,345.602 175.225,345.297 175.500 C 344.992 175.775,344.891 175.995,345.071 175.990 C 345.525 175.976,357.061 164.800,356.622 164.800 C 356.428 164.800,353.925 167.095,351.060 169.900 M270.700 172.973 C 268.775 174.823,267.200 176.462,267.200 176.615 C 267.200 176.768,268.325 175.817,269.700 174.500 C 271.075 173.183,272.830 171.547,273.600 170.865 C 274.370 170.182,274.820 169.620,274.600 169.617 C 274.380 169.613,272.625 171.123,270.700 172.973 M340.657 179.839 C 338.709 181.714,337.180 183.313,337.260 183.394 C 337.340 183.474,339.078 181.933,341.121 179.970 C 343.165 178.006,344.693 176.407,344.518 176.415 C 344.343 176.424,342.606 177.964,340.657 179.839 M262.300 180.946 C 260.155 182.988,258.400 184.806,258.400 184.984 C 258.400 185.162,259.795 183.945,261.500 182.280 C 263.205 180.615,265.140 178.791,265.800 178.227 C 266.460 177.663,266.820 177.208,266.600 177.216 C 266.380 177.225,264.445 178.903,262.300 180.946 M335.566 184.729 C 335.002 185.318,333.332 186.947,331.853 188.350 C 330.375 189.752,329.221 190.955,329.289 191.022 C 329.356 191.090,331.119 189.555,333.206 187.611 C 335.293 185.667,336.908 183.982,336.795 183.867 C 336.683 183.752,336.130 184.140,335.566 184.729 M254.253 188.635 C 252.523 190.288,251.173 191.703,251.253 191.780 C 251.334 191.858,252.896 190.498,254.724 188.760 C 256.552 187.022,257.902 185.607,257.724 185.615 C 257.546 185.623,255.984 186.982,254.253 188.635 M247.687 194.922 C 245.218 197.115,241.600 200.805,241.600 201.130 C 241.600 201.267,242.815 200.192,244.300 198.742 C 245.785 197.292,247.713 195.452,248.583 194.653 C 249.454 193.854,250.045 193.200,249.897 193.200 C 249.748 193.200,248.754 193.975,247.687 194.922 M323.679 196.087 C 314.905 204.315,305.326 213.663,306.592 212.763 C 307.028 212.453,308.306 211.300,309.432 210.200 C 312.117 207.580,323.992 196.282,325.882 194.550 C 326.693 193.808,327.222 193.200,327.057 193.200 C 326.893 193.200,325.373 194.499,323.679 196.087 M236.305 205.804 C 234.602 207.452,233.347 208.800,233.515 208.800 C 233.683 208.800,235.161 207.450,236.800 205.800 C 240.653 201.921,240.314 201.924,236.305 205.804 M230.800 211.123 C 228.043 213.524,220.222 221.255,221.663 220.155 C 222.913 219.200,233.425 209.198,233.172 209.204 C 233.078 209.206,232.010 210.069,230.800 211.123 M300.650 218.003 C 298.172 220.424,295.798 222.669,295.373 222.990 C 294.948 223.312,294.780 223.575,295.000 223.575 C 295.220 223.575,297.740 221.333,300.600 218.592 C 303.460 215.852,305.655 213.607,305.477 213.605 C 305.300 213.602,303.127 215.581,300.650 218.003 M216.545 224.523 C 214.755 226.325,212.133 228.935,210.718 230.323 C 209.303 231.710,207.835 233.420,207.455 234.123 C 206.798 235.339,206.798 235.352,207.460 234.400 C 207.842 233.850,210.955 230.661,214.378 227.313 C 217.800 223.965,220.420 221.230,220.200 221.235 C 219.980 221.241,218.335 222.720,216.545 224.523 M288.095 229.919 C 285.617 232.274,283.592 234.350,283.595 234.533 C 283.598 234.717,284.725 233.774,286.100 232.439 C 287.475 231.103,289.680 229.020,291.000 227.809 C 292.320 226.597,293.220 225.614,293.000 225.622 C 292.780 225.631,290.573 227.565,288.095 229.919 M280.486 237.260 C 279.103 238.605,278.027 239.761,278.096 239.829 C 278.249 239.983,283.200 235.313,283.200 235.015 C 283.200 234.642,283.055 234.762,280.486 237.260 M205.596 236.900 C 204.951 237.957,204.439 239.394,204.931 238.767 C 205.526 238.006,206.815 235.600,206.627 235.600 C 206.496 235.600,206.032 236.185,205.596 236.900 M204.073 240.287 C 203.391 242.030,202.727 244.860,202.947 245.081 C 203.057 245.191,203.348 244.498,203.593 243.540 C 203.838 242.583,204.211 241.276,204.421 240.635 C 204.918 239.121,204.638 238.841,204.073 240.287 M270.632 246.614 C 268.450 248.696,266.796 250.400,266.956 250.400 C 267.347 250.400,273.212 244.918,274.349 243.489 C 275.422 242.142,274.550 242.875,270.632 246.614 M202.920 248.400 C 202.920 249.610,202.995 250.105,203.087 249.500 C 203.178 248.895,203.178 247.905,203.087 247.300 C 202.995 246.695,202.920 247.190,202.920 248.400 M263.075 253.877 C 261.274 255.570,259.710 257.035,259.600 257.132 C 259.490 257.230,259.599 257.240,259.842 257.155 C 260.436 256.947,267.013 250.800,266.641 250.800 C 266.481 250.800,264.876 252.185,263.075 253.877 M203.828 256.000 C 203.972 256.550,204.250 257.171,204.445 257.380 C 205.016 257.991,204.841 257.114,204.169 256.000 L 203.567 255.000 203.828 256.000 M254.614 261.877 C 252.202 264.213,250.420 266.051,250.654 265.962 C 251.773 265.536,259.905 257.508,259.109 257.615 C 259.049 257.623,257.026 259.541,254.614 261.877 M204.812 258.365 C 204.787 259.550,210.217 267.516,210.712 267.022 C 210.814 266.919,210.181 266.020,209.304 265.024 C 208.427 264.027,207.060 261.995,206.267 260.506 C 205.473 259.018,204.818 258.054,204.812 258.365 M248.394 267.806 C 247.651 268.573,247.157 269.200,247.297 269.200 C 247.734 269.200,250.166 266.832,249.950 266.617 C 249.837 266.504,249.137 267.039,248.394 267.806 M213.169 269.579 C 215.372 271.682,221.846 275.220,223.418 275.180 C 223.848 275.170,223.120 274.743,221.800 274.232 C 219.053 273.168,214.781 270.741,214.000 269.800 C 213.709 269.449,212.915 268.791,212.236 268.336 C 211.526 267.861,211.924 268.391,213.169 269.579 M244.000 271.418 C 241.481 273.126,240.839 273.729,242.400 272.923 C 243.910 272.143,246.272 270.378,245.731 270.434 C 245.549 270.453,244.770 270.896,244.000 271.418 M236.600 274.834 C 232.891 276.125,233.272 276.375,237.157 275.201 C 239.871 274.380,241.611 273.557,240.400 273.666 C 240.070 273.696,238.360 274.222,236.600 274.834 " stroke="none" fill="#d4d4d4" fill-rule="evenodd"></path><path id="path3" d="M249.911 0.693 C 250.851 0.778,252.291 0.777,253.111 0.691 C 253.930 0.605,253.160 0.536,251.400 0.537 C 249.640 0.539,248.970 0.609,249.911 0.693 " stroke="none" fill="#dcdcdc" fill-rule="evenodd"></path><path id="path4" d="" stroke="none" fill="#ececec" fill-rule="evenodd"></path></g></svg>