<svg xmlns="http://www.w3.org/2000/svg" width="30" height="30" viewBox="0 0 30 30"><defs><clipPath id="a"><path fill="#00ccc2" d="M1120 4736a15 15 0 1 1-.01 30.01 15 15 0 0 1 .01-30.01z"/></clipPath><clipPath id="b"><path fill="#00ccc2" d="M1120 4741a6 6 0 1 1-.01 12.01 6 6 0 0 1 .01-12.01z"/></clipPath></defs><path fill="none" stroke="#99b6e4" stroke-miterlimit="50" stroke-width="2" d="M1120 4736a15 15 0 1 1-.01 30.01 15 15 0 0 1 .01-30.01z" clip-path="url(&quot;#a&quot;)" transform="translate(-1105 -4736)"/><path fill="none" stroke="#99b6e4" stroke-miterlimit="50" stroke-width="2" d="M1120 4741a6 6 0 1 1-.01 12.01 6 6 0 0 1 .01-12.01z" clip-path="url(&quot;#b&quot;)" transform="translate(-1105 -4736)"/><path fill="none" stroke="#99b6e4" stroke-miterlimit="50" d="M5.21 24.98a11 11 0 0 1 19.6.04"/></svg>
