<?xml version="1.0" encoding="utf-8"?>
<!-- Generator: Adobe Illustrator 16.0.0, SVG Export Plug-In . SVG Version: 6.00 Build 0)  -->
<!DOCTYPE svg PUBLIC "-//W3C//DTD SVG 1.1//EN" "http://www.w3.org/Graphics/SVG/1.1/DTD/svg11.dtd">
<svg version="1.1" id="icon_new_payments" xmlns="http://www.w3.org/2000/svg" xmlns:xlink="http://www.w3.org/1999/xlink" x="0px"
	 y="0px" width="37px" height="28px" viewBox="-8.5 -0.5 37 28" enable-background="new -8.5 -0.5 37 28" xml:space="preserve">
<g>
	<g>
		<g>
			<g>
				<path fill="#99B6E4" d="M19.287,8.783L19.287,8.783H-7.346c-0.252,0-0.456,0.204-0.456,0.456c0,0,0,0.001,0,0.001v12.783
					c0,0.252,0.203,0.457,0.455,0.457h0.001H8.89c0.252,0,0.456-0.204,0.456-0.457c0-0.251-0.204-0.456-0.456-0.456H-6.889V9.697
					H18.83v3.551c-0.001,0.251,0.204,0.456,0.455,0.456h0.001c0.252,0,0.456-0.204,0.456-0.455c0,0,0-0.001,0-0.001V9.24
					C19.742,8.988,19.539,8.784,19.287,8.783z"/>
			</g>
		</g>
		<g>
			<g>
				<path fill="#99B6E4" d="M16.19,7.467L-5.114,2.674c-0.119-0.026-0.243-0.005-0.346,0.06C-5.562,2.798-5.634,2.901-5.661,3.02
					l-1.065,4.793c-0.055,0.246,0.102,0.49,0.348,0.545c0.245,0.055,0.49-0.101,0.545-0.347l0.965-4.347L15.99,8.358
					c0.033,0.008,0.067,0.012,0.101,0.011c0.252,0,0.456-0.206,0.455-0.458C16.546,7.699,16.398,7.514,16.19,7.467z"/>
			</g>
		</g>
		<g>
			<g>
				<path fill="#99B6E4" d="M12.265,5.362L-0.519,0.035c-0.223-0.092-0.479,0.003-0.586,0.218L-2.17,2.384
					c-0.12,0.223-0.038,0.5,0.186,0.621c0.223,0.12,0.5,0.038,0.62-0.185c0.005-0.009,0.01-0.018,0.014-0.026v0.001l0.874-1.75
					l12.388,5.162c0.234,0.097,0.503-0.013,0.6-0.246C12.608,5.727,12.498,5.459,12.265,5.362z"/>
			</g>
		</g>
		<g>
			<g>
				<path fill="#99B6E4" d="M13.927,10.914H9.699c-0.253,0-0.457,0.204-0.457,0.456c0,0.252,0.204,0.457,0.457,0.457h4.228
					c0.251,0,0.456-0.204,0.456-0.457C14.383,11.118,14.178,10.914,13.927,10.914z"/>
			</g>
		</g>
		<g>
			<g>
				<path fill="#99B6E4" d="M5.438,10.944c-2.588,0-4.688,2.098-4.688,4.688c0.003,2.587,2.101,4.684,4.688,4.688
					c2.589,0,4.688-2.1,4.688-4.688C10.125,13.042,8.026,10.944,5.438,10.944z M5.438,19.466c-2.118,0-3.835-1.717-3.835-3.834
					c0.002-2.118,1.718-3.833,3.835-3.835c2.118,0,3.835,1.717,3.835,3.835C9.272,17.749,7.556,19.466,5.438,19.466z"/>
			</g>
		</g>
		<g>
			<g>
				<path fill="#99B6E4" d="M1.177,19.436H-2.85l-1.908-2.088v-3.462l2.107-2.059h3.827c0.252,0,0.456-0.204,0.456-0.457
					c0-0.252-0.204-0.456-0.456-0.456h-4.013c-0.119,0-0.233,0.046-0.319,0.129l-2.379,2.321c-0.089,0.104-0.138,0.236-0.138,0.373
					v3.789c0,0.113,0.043,0.223,0.119,0.308l2.164,2.367c0.086,0.095,0.208,0.148,0.337,0.148h4.229
					c0.252,0,0.456-0.204,0.456-0.457C1.633,19.641,1.429,19.436,1.177,19.436z"/>
			</g>
		</g>
		<circle fill="#99B6E4" cx="5.438" cy="15.632" r="2.931"/>
	</g>
	<g>
		<path fill="#99B6E4" d="M20.909,14.883c0.804,0.504,1.367,1.356,1.47,2.347c0.328,0.152,0.692,0.241,1.077,0.241
			c1.408,0,2.549-1.142,2.549-2.549c0-1.409-1.141-2.55-2.549-2.55C22.061,12.372,20.931,13.494,20.909,14.883z M19.238,20.103
			c1.408,0,2.55-1.142,2.55-2.549s-1.142-2.55-2.55-2.55c-1.407,0-2.549,1.142-2.549,2.55
			C16.689,18.961,17.831,20.103,19.238,20.103z M20.319,20.276h-2.162c-1.8,0-3.264,1.465-3.264,3.264v2.646l0.007,0.042
			l0.182,0.057C16.8,26.82,18.292,27,19.521,27c2.398,0,3.789-0.685,3.875-0.729l0.17-0.086h0.019V23.54
			C23.584,21.741,22.12,20.276,20.319,20.276z M24.538,17.645h-2.146c-0.023,0.859-0.391,1.633-0.97,2.188
			c1.6,0.476,2.771,1.959,2.771,3.712v0.815c2.119-0.078,3.341-0.679,3.421-0.719l0.17-0.087h0.019v-2.646
			C27.802,19.109,26.338,17.645,24.538,17.645z M14.767,17.471c0.498,0,0.962-0.146,1.354-0.394
			c0.126-0.815,0.562-1.527,1.187-2.012c0.002-0.049,0.006-0.096,0.006-0.144c0-1.408-1.141-2.55-2.547-2.55
			c-1.409,0-2.55,1.141-2.55,2.55C12.217,16.33,13.357,17.471,14.767,17.471z M17.056,19.833c-0.577-0.553-0.942-1.322-0.969-2.176
			c-0.08-0.007-0.158-0.013-0.24-0.013h-2.162c-1.801,0-3.265,1.465-3.265,3.265v2.646l0.007,0.041l0.182,0.057
			c1.378,0.431,2.608,0.629,3.676,0.69v-0.799C14.284,21.792,15.455,20.309,17.056,19.833z"/>
	</g>
</g>
</svg>
