<?xml version="1.0" encoding="utf-8"?>
<!-- Generator: Adobe Illustrator 16.0.0, SVG Export Plug-In . SVG Version: 6.00 Build 0)  -->
<!DOCTYPE svg PUBLIC "-//W3C//DTD SVG 1.1//EN" "http://www.w3.org/Graphics/SVG/1.1/DTD/svg11.dtd">
<svg version="1.1" id="Layer_1" xmlns="http://www.w3.org/2000/svg" xmlns:xlink="http://www.w3.org/1999/xlink" x="0px" y="0px"
	 width="28px" height="32px" viewBox="0 0 28 32" enable-background="new 0 0 28 32" xml:space="preserve">
<g>
	<g transform="translate(-3604 -987)">
		<g>
			<g>
				<defs>
					<path id="SVGID_1_" d="M3627,992.141V991c0-1.657-1.344-3-3-3h-12c-1.657,0-3,1.343-3,3v7
						C3609,999.74,3627,993.38,3627,992.141z M3609,1011.02v3.98c0,1.656,1.343,3,3,3l0,0h12c1.656,0,3-1.344,3-3l0,0v-10
						C3627,1002.67,3609,1008.939,3609,1011.02z"/>
				</defs>
				<clipPath id="SVGID_2_">
					<use xlink:href="#SVGID_1_"  overflow="visible"/>
				</clipPath>
				<g clip-path="url(#SVGID_2_)">
					<path id="ktswa" fill="#FFFFFF" fill-opacity="0" stroke="#99B6E4" stroke-width="2" stroke-miterlimit="50" d="M3627,992.141
						V991c0-1.657-1.344-3-3-3h-12c-1.657,0-3,1.343-3,3v7C3609,999.74,3627,993.38,3627,992.141z M3609,1011.02v3.98
						c0,1.656,1.343,3,3,3l0,0h12c1.656,0,3-1.344,3-3l0,0v-10C3627,1002.67,3609,1008.939,3609,1011.02z"/>
				</g>
			</g>
		</g>
	</g>
	<g transform="translate(-3604 -987)">
		<g>
			<g>
				<defs>
					<rect id="SVGID_3_" x="3610" y="1011" width="16" height="1"/>
				</defs>
				<clipPath id="SVGID_4_">
					<use xlink:href="#SVGID_3_"  overflow="visible"/>
				</clipPath>
				<g clip-path="url(#SVGID_4_)">
					<path id="ktswb" fill="#FFFFFF" fill-opacity="0" stroke="#99B6E4" stroke-width="2" stroke-miterlimit="50" d="M3610,1012v-1
						h16v1H3610z"/>
				</g>
			</g>
		</g>
	</g>
	<g transform="translate(-3604 -987)">
		<g>
			<g>
				<defs>
					<rect id="SVGID_5_" x="3610" y="991" width="16" height="1"/>
				</defs>
				<clipPath id="SVGID_6_">
					<use xlink:href="#SVGID_5_"  overflow="visible"/>
				</clipPath>
				<g clip-path="url(#SVGID_6_)">
					<path id="ktswc" fill="#FFFFFF" fill-opacity="0" stroke="#99B6E4" stroke-width="2" stroke-miterlimit="50" d="M3626,991v1
						h-16v-1H3626z"/>
				</g>
			</g>
		</g>
	</g>
	<g transform="translate(-3604 -987)">
		<g>
			<g>
				<defs>
					<circle id="SVGID_7_" cx="3618" cy="1015" r="1"/>
				</defs>
				<clipPath id="SVGID_8_">
					<use xlink:href="#SVGID_7_"  overflow="visible"/>
				</clipPath>
				<g clip-path="url(#SVGID_8_)">
					<path id="ktswd" fill="#FFFFFF" fill-opacity="0" stroke="#99B6E4" stroke-width="2" stroke-miterlimit="50" d="M3618,1014
						c0.553,0,1,0.447,1,1s-0.447,1-1,1c-0.552,0-1-0.447-1-1S3617.448,1014,3618,1014z"/>
				</g>
			</g>
		</g>
	</g>
	<g>
		<g transform="translate(-3604 -987)">
			<g>
				<path id="ktswe" fill="#FFFFFF" fill-opacity="0" stroke="#99B6E4" stroke-miterlimit="50" d="M3629.01,999h-14"/>
			</g>
		</g>
		<g transform="translate(-3604 -987)">
			<g>
				<g>
					<defs>
						<polyline id="SVGID_9_" points="3626.01,1002.845 3629.59,998.995 3626.02,995.155 						"/>
					</defs>
					<clipPath id="SVGID_10_">
						<use xlink:href="#SVGID_9_"  overflow="visible"/>
					</clipPath>
					<g clip-path="url(#SVGID_10_)">
						<path id="ktswf" fill="#FFFFFF" fill-opacity="0" stroke="#99B6E4" stroke-width="2" stroke-miterlimit="50" d="
							M3626.01,1002.845l3.58-3.85l-3.57-3.841"/>
					</g>
				</g>
			</g>
		</g>
		<g transform="translate(-3604 -987)">
			<g>
				<path id="ktswg" fill="#FFFFFF" fill-opacity="0" stroke="#99B6E4" stroke-miterlimit="50" d="M3607.01,1004.01h16"/>
			</g>
		</g>
		<g transform="translate(-3604 -987)">
			<g>
				<g>
					<defs>
						<polyline id="SVGID_11_" points="3610.01,1000.165 3606.41,1004.005 3610.01,1007.854 						"/>
					</defs>
					<clipPath id="SVGID_12_">
						<use xlink:href="#SVGID_11_"  overflow="visible"/>
					</clipPath>
					<g clip-path="url(#SVGID_12_)">
						<path id="ktswh" fill="#FFFFFF" fill-opacity="0" stroke="#99B6E4" stroke-width="2" stroke-miterlimit="50" d="
							M3610.01,1000.165l-3.6,3.84l3.6,3.851"/>
					</g>
				</g>
			</g>
		</g>
	</g>
</g>
</svg>
