<?xml version="1.0" encoding="utf-8"?>
<!-- Generator: Adobe Illustrator 16.0.0, SVG Export Plug-In . SVG Version: 6.00 Build 0)  -->
<!DOCTYPE svg PUBLIC "-//W3C//DTD SVG 1.1//EN" "http://www.w3.org/Graphics/SVG/1.1/DTD/svg11.dtd">
<svg version="1.1" id="Layer_1" xmlns="http://www.w3.org/2000/svg" xmlns:xlink="http://www.w3.org/1999/xlink" x="0px" y="0px"
	 width="27px" height="33px" viewBox="0 0 27 33" enable-background="new 0 0 27 33" xml:space="preserve">
<g transform="translate(-1391 -446)">
	<g>
		<defs>
			<path id="SVGID_1_" d="M1410,461.22v-2.11v-5.2l-5-4.91h-10.15c-1.02,0-1.85,0.8-1.85,1.78v19.441c0,0.979,0.83,1.779,1.85,1.779
				h8.29"/>
		</defs>
		<clipPath id="SVGID_2_">
			<use xlink:href="#SVGID_1_"  overflow="visible"/>
		</clipPath>
		<g clip-path="url(#SVGID_2_)">
			<path id="a" fill="#FFFFFF" fill-opacity="0" stroke="#99B6E4" stroke-width="1.5" stroke-miterlimit="50" d="M1410,461.22v-2.11
				v-5.2l-5-4.91h-10.15c-1.02,0-1.85,0.8-1.85,1.78v19.441c0,0.979,0.83,1.779,1.85,1.779h8.29"/>
		</g>
	</g>
</g>
<g transform="translate(-1391 -446)">
	<g>
		<defs>
			<line id="SVGID_3_" x1="1397" y1="460" x2="1406" y2="460"/>
		</defs>
		<clipPath id="SVGID_4_">
			<use xlink:href="#SVGID_3_"  overflow="visible"/>
		</clipPath>
		<g clip-path="url(#SVGID_4_)">
			<path id="b" fill="#FFFFFF" fill-opacity="0" stroke="#C6C3D2" stroke-width="1.5" stroke-miterlimit="50" d="M1397,460h9"/>
		</g>
	</g>
</g>
<g transform="translate(-1391 -446)">
	<g>
		<defs>
			<line id="SVGID_5_" x1="1402" y1="456" x2="1402" y2="465"/>
		</defs>
		<clipPath id="SVGID_6_">
			<use xlink:href="#SVGID_5_"  overflow="visible"/>
		</clipPath>
		<g clip-path="url(#SVGID_6_)">
			<path id="c" fill="#FFFFFF" fill-opacity="0" stroke="#C6C3D2" stroke-width="1.5" stroke-miterlimit="50" d="M1402,456v9"/>
		</g>
	</g>
</g>
<g transform="translate(-1391 -446)">
	<g>
		<defs>
			<polyline id="SVGID_7_" points="1405,449 1405,454 1410,454 			"/>
		</defs>
		<clipPath id="SVGID_8_">
			<use xlink:href="#SVGID_7_"  overflow="visible"/>
		</clipPath>
		<g clip-path="url(#SVGID_8_)">
			<path id="d" fill="#FFFFFF" fill-opacity="0" stroke="#99B6E4" stroke-width="1.5" stroke-miterlimit="50" d="M1405,449v5h5"/>
		</g>
	</g>
</g>
<g transform="translate(-1391 -446)">
	<g>
		<defs>
			<path id="SVGID_9_" d="M1417,469v7c0,0.95-1.061,2-2,2h-10c-0.94,0-2-1.05-2-2v-7c0-0.95,1.06-2,2-2c0-3.85,1.17-6,5-6
				s5,2.15,5,6C1415.939,467,1417,468.05,1417,469z M1411,472.26c0-1.449-0.67-1.24-1-1.24s-1-0.209-1,1.24v1.5
				c0,0.561,0.77,1.24,1,1.24c0.189,0,1-0.87,1-1.25V472.26z M1412,467c0-2.189,0.17-3-2-3s-2,0.811-2,3H1412z"/>
		</defs>
		<clipPath id="SVGID_10_">
			<use xlink:href="#SVGID_9_"  overflow="visible"/>
		</clipPath>
		<g clip-path="url(#SVGID_10_)">
			<path id="e" fill="#FFFFFF" fill-opacity="0" stroke="#99B6E4" stroke-width="1.5" stroke-miterlimit="50" d="M1417,469v7
				c0,0.95-1.061,2-2,2h-10c-0.94,0-2-1.05-2-2v-7c0-0.95,1.06-2,2-2c0-3.85,1.17-6,5-6s5,2.15,5,6
				C1415.939,467,1417,468.05,1417,469z M1411,472.26c0-1.449-0.67-1.24-1-1.24s-1-0.209-1,1.24v1.5c0,0.561,0.77,1.24,1,1.24
				c0.189,0,1-0.87,1-1.25V472.26z M1412,467c0-2.189,0.17-3-2-3s-2,0.811-2,3H1412z"/>
		</g>
	</g>
</g>
</svg>
