<svg xmlns="http://www.w3.org/2000/svg" width="31" height="31" viewBox="0 0 31 31"><defs><clipPath id="a"><path fill="#fff" d="M1133.86 4838.18l-1.78-.77c-.43-.16-.77-.5-.98-.93v-.08a1.98 1.98 0 0 1 0-1.4l.72-1.79c.38-.59.26-1.35-.21-1.82l-2-2a1.48 1.48 0 0 0-1.78-.21l-1.82.72a1.86 1.86 0 0 1-2.42-1.02l-.77-1.74a1.4 1.4 0 0 0-1.4-1.14h-2.84a1.4 1.4 0 0 0-1.4 1.1l-.77 1.78a1.92 1.92 0 0 1-2.42 1.02l-1.78-.72a1.42 1.42 0 0 0-1.82.21l-2 2a1.47 1.47 0 0 0-.21 1.78l.72 1.83c.38.97-.09 2.03-1.02 2.41l-1.74.77c-.68.13-1.15.72-1.15 1.4v2.84c0 .68.47 1.28 1.11 1.4l1.78.77a1.93 1.93 0 0 1 1.02 2.42l-.72 1.78c-.38.6-.3 1.32.21 1.83l2 1.99c.46.47 1.23.55 1.78.21l1.82-.72c.98-.38 2.04.09 2.42 1.02l.77 1.74a1.4 1.4 0 0 0 1.4 1.15h2.84c.68 0 1.27-.47 1.4-1.11l.77-1.78a1.93 1.93 0 0 1 2.42-1.02l1.78.72c.55.38 1.31.3 1.82-.21l2-1.99c.47-.47.55-1.23.21-1.79l-.72-1.82a1.86 1.86 0 0 1 1.02-2.42l1.74-.77a1.4 1.4 0 0 0 1.14-1.4v-2.84a1.4 1.4 0 0 0-1.14-1.4z"/></clipPath><clipPath id="b"><path fill="#fff" d="M1119.99 4833.99c-3.84 0-7 3.16-7 7.01 0 3.84 3.16 7 7 7a7.04 7.04 0 0 0 7.01-7 7.04 7.04 0 0 0-7.01-7.01z"/></clipPath></defs><path fill="none" stroke="#99b6e4" stroke-miterlimit="50" stroke-width="2" d="M1133.86 4838.18l-1.78-.77c-.43-.16-.77-.5-.98-.93v-.08a1.98 1.98 0 0 1 0-1.4l.72-1.79c.38-.59.26-1.35-.21-1.82l-2-2a1.48 1.48 0 0 0-1.78-.21l-1.82.72a1.86 1.86 0 0 1-2.42-1.02l-.77-1.74a1.4 1.4 0 0 0-1.4-1.14h-2.84a1.4 1.4 0 0 0-1.4 1.1l-.77 1.78a1.92 1.92 0 0 1-2.42 1.02l-1.78-.72a1.42 1.42 0 0 0-1.82.21l-2 2a1.47 1.47 0 0 0-.21 1.78l.72 1.83c.38.97-.09 2.03-1.02 2.41l-1.74.77c-.68.13-1.15.72-1.15 1.4v2.84c0 .68.47 1.28 1.11 1.4l1.78.77a1.93 1.93 0 0 1 1.02 2.42l-.72 1.78c-.38.6-.3 1.32.21 1.83l2 1.99c.46.47 1.23.55 1.78.21l1.82-.72c.98-.38 2.04.09 2.42 1.02l.77 1.74a1.4 1.4 0 0 0 1.4 1.15h2.84c.68 0 1.27-.47 1.4-1.11l.77-1.78a1.93 1.93 0 0 1 2.42-1.02l1.78.72c.55.38 1.31.3 1.82-.21l2-1.99c.47-.47.55-1.23.21-1.79l-.72-1.82a1.86 1.86 0 0 1 1.02-2.42l1.74-.77a1.4 1.4 0 0 0 1.14-1.4v-2.84a1.4 1.4 0 0 0-1.14-1.4z" clip-path="url(&quot;#a&quot;)" transform="translate(-1104 -4826)"/><path fill="none" stroke="#99b6e4" stroke-miterlimit="50" stroke-width="2" d="M1119.99 4833.99c-3.84 0-7 3.16-7 7.01 0 3.84 3.16 7 7 7a7.04 7.04 0 0 0 7.01-7 7.04 7.04 0 0 0-7.01-7.01z" clip-path="url(&quot;#b&quot;)" transform="translate(-1104 -4826)"/></svg>
