<svg id="svg" version="1.1" width="35" height="35" viewBox="0 0 400 400" xmlns="http://www.w3.org/2000/svg" xmlns:xlink="http://www.w3.org/1999/xlink" ><g id="svgg"><path id="path0" d="M178.000 25.069 C 178.000 27.323,177.069 28.123,175.303 27.385 C 174.273 26.955,172.220 26.800,167.551 26.800 L 161.200 26.800 161.200 28.400 L 161.200 30.000 156.400 30.000 L 151.600 30.000 151.600 31.600 L 151.600 33.200 148.600 33.200 L 145.600 33.200 145.600 34.583 L 145.600 35.966 142.500 36.083 L 139.400 36.200 139.277 37.677 C 139.162 39.065,139.065 39.162,137.677 39.277 C 136.285 39.393,136.193 39.486,136.076 40.900 L 135.952 42.400 132.976 42.400 L 130.000 42.400 130.000 44.000 L 130.000 45.600 128.400 45.600 L 126.800 45.600 126.800 47.200 L 126.800 48.800 125.200 48.800 C 123.643 48.800,123.600 48.837,123.600 50.176 C 123.600 51.477,123.519 51.558,122.100 51.676 L 120.600 51.800 120.484 54.877 L 120.367 57.954 118.884 58.077 C 117.484 58.193,117.393 58.285,117.276 59.700 C 117.158 61.119,117.077 61.200,115.776 61.200 L 114.400 61.200 114.400 65.800 L 114.400 70.400 112.800 70.400 L 111.200 70.400 111.200 102.400 L 111.200 134.400 112.938 134.400 C 114.168 134.400,114.888 134.634,115.400 135.200 C 116.506 136.422,115.297 137.600,112.938 137.600 C 111.479 137.600,111.200 137.726,111.200 138.383 C 111.200 139.083,110.871 139.179,108.100 139.283 L 105.000 139.400 104.876 140.900 C 104.755 142.358,104.708 142.400,103.176 142.400 L 101.600 142.400 101.600 145.379 C 101.600 148.003,101.719 148.488,102.600 149.438 C 104.529 151.520,103.464 153.600,100.469 153.600 L 98.800 153.600 98.800 157.200 L 98.800 160.800 100.200 160.800 L 101.600 160.800 101.600 168.600 L 101.600 176.400 103.200 176.400 L 104.800 176.400 104.800 179.600 L 104.800 182.800 106.383 182.800 L 107.966 182.800 108.083 185.900 L 108.200 189.000 109.700 189.124 C 111.119 189.242,111.200 189.323,111.200 190.624 C 111.200 191.963,111.243 192.000,112.800 192.000 L 114.400 192.000 114.400 193.600 L 114.400 195.200 118.983 195.200 L 123.566 195.200 123.683 198.300 L 123.800 201.400 125.300 201.524 L 126.800 201.648 126.800 204.824 L 126.800 208.000 128.400 208.000 L 130.000 208.000 130.000 211.000 L 130.000 214.000 131.600 214.000 L 133.200 214.000 133.200 217.200 L 133.200 220.400 134.600 220.400 L 136.000 220.400 136.000 223.400 L 136.000 226.400 137.600 226.400 L 139.200 226.400 139.200 229.600 L 139.200 232.800 140.800 232.800 L 142.400 232.800 142.400 236.000 L 142.400 239.200 144.000 239.200 C 145.562 239.200,145.600 239.233,145.600 240.600 C 145.600 241.967,145.638 242.000,147.200 242.000 L 148.800 242.000 148.800 243.600 C 148.800 245.162,148.833 245.200,150.200 245.200 C 151.567 245.200,151.600 245.238,151.600 246.800 C 151.600 248.396,151.604 248.400,153.176 248.400 C 154.708 248.400,154.755 248.442,154.876 249.900 L 155.000 251.400 158.100 251.517 L 161.200 251.634 161.200 253.217 L 161.200 254.800 164.176 254.800 L 167.152 254.800 167.276 256.300 L 167.400 257.800 172.100 257.913 L 176.800 258.025 176.800 259.413 L 176.800 260.800 198.600 260.800 L 220.400 260.800 220.400 259.400 L 220.400 258.000 225.000 258.000 L 229.600 258.000 229.600 256.417 L 229.600 254.834 232.700 254.717 L 235.800 254.600 235.923 253.123 C 236.038 251.735,236.135 251.638,237.523 251.523 C 238.915 251.407,239.007 251.314,239.124 249.900 C 239.242 248.481,239.323 248.400,240.624 248.400 C 241.963 248.400,242.000 248.357,242.000 246.800 L 242.000 245.200 243.600 245.200 L 245.200 245.200 245.200 243.600 L 245.200 242.000 246.800 242.000 C 248.357 242.000,248.400 241.963,248.400 240.624 C 248.400 239.323,248.481 239.242,249.900 239.124 C 251.314 239.007,251.407 238.915,251.523 237.523 C 251.638 236.135,251.735 236.038,253.123 235.923 C 254.515 235.807,254.607 235.714,254.724 234.300 C 254.845 232.842,254.892 232.800,256.424 232.800 L 258.000 232.800 258.000 229.600 L 258.000 226.400 259.400 226.400 L 260.800 226.400 260.800 223.400 L 260.800 220.400 262.400 220.400 L 264.000 220.400 264.000 217.200 L 264.000 214.000 265.600 214.000 L 267.200 214.000 267.200 211.024 L 267.200 208.048 268.700 207.924 L 270.200 207.800 270.318 204.879 C 270.424 202.242,270.337 201.841,269.418 200.748 C 267.446 198.404,268.585 196.400,271.889 196.400 C 273.143 196.400,273.600 196.240,273.600 195.800 C 273.600 195.301,274.378 195.200,278.200 195.200 L 282.800 195.200 282.800 193.600 L 282.800 192.000 284.400 192.000 C 285.957 192.000,286.000 191.963,286.000 190.624 C 286.000 189.323,286.081 189.242,287.500 189.124 C 289.372 188.969,289.733 187.309,288.456 184.728 C 287.290 182.371,287.855 181.596,290.799 181.512 L 292.000 181.478 292.000 178.939 L 292.000 176.400 293.600 176.400 L 295.200 176.400 295.200 170.249 C 295.200 165.481,295.075 163.994,294.643 163.636 C 292.263 161.661,293.462 158.800,296.670 158.800 L 298.400 158.800 298.400 153.800 L 298.400 148.800 296.800 148.800 L 295.200 148.800 295.200 145.600 L 295.200 142.400 293.600 142.400 L 292.000 142.400 292.000 140.800 L 292.000 139.200 289.000 139.200 L 286.000 139.200 285.994 137.700 C 285.991 136.875,285.946 122.160,285.894 105.000 L 285.800 73.800 284.300 73.676 L 282.800 73.552 282.800 70.376 L 282.800 67.200 281.200 67.200 L 279.600 67.200 279.600 64.200 L 279.600 61.200 278.000 61.200 L 276.400 61.200 276.400 59.600 C 276.400 58.043,276.363 58.000,275.024 58.000 C 273.723 58.000,273.642 57.919,273.524 56.500 C 273.407 55.086,273.315 54.993,271.923 54.877 C 270.535 54.762,270.438 54.665,270.323 53.277 C 270.207 51.885,270.114 51.793,268.700 51.676 C 267.281 51.558,267.200 51.477,267.200 50.176 L 267.200 48.800 264.049 48.800 C 261.834 48.800,260.760 48.967,260.433 49.361 C 258.778 51.354,256.000 50.119,256.000 47.391 L 256.000 45.600 253.800 45.600 L 251.600 45.600 251.600 44.000 L 251.600 42.400 250.000 42.400 L 248.400 42.400 248.400 40.800 L 248.400 39.200 246.800 39.200 L 245.200 39.200 245.200 37.600 L 245.200 36.000 242.200 36.000 L 239.200 36.000 239.200 34.600 L 239.200 33.200 236.000 33.200 L 232.800 33.200 232.800 31.600 L 232.800 30.000 229.600 30.000 L 226.400 30.000 226.400 28.400 L 226.400 26.800 220.200 26.800 L 214.000 26.800 214.000 25.200 L 214.000 23.600 196.000 23.600 L 178.000 23.600 178.000 25.069 M130.000 265.790 L 130.000 267.180 123.700 267.290 L 117.400 267.400 117.276 268.890 L 117.153 270.379 111.076 270.490 L 105.000 270.600 104.876 272.100 L 104.752 273.600 98.576 273.600 L 92.400 273.600 92.400 275.200 L 92.400 276.800 86.200 276.800 L 80.000 276.800 80.000 278.400 L 80.000 280.000 73.600 280.000 L 67.200 280.000 67.200 281.600 L 67.200 283.200 61.000 283.200 L 54.800 283.200 54.800 284.557 C 54.800 285.395,54.570 286.003,54.200 286.145 C 53.793 286.301,53.600 286.938,53.600 288.125 C 53.600 290.348,52.732 291.200,50.469 291.200 C 49.252 291.200,48.800 291.363,48.800 291.800 C 48.800 292.233,48.356 292.400,47.200 292.400 L 45.600 292.400 45.600 294.000 L 45.600 295.600 44.000 295.600 L 42.400 295.600 42.400 300.176 L 42.400 304.752 40.900 304.876 L 39.400 305.000 39.287 309.700 L 39.175 314.400 37.587 314.400 L 36.000 314.400 36.000 323.582 L 36.000 332.764 37.000 333.764 C 38.990 335.753,37.859 338.000,34.869 338.000 L 33.200 338.000 33.200 355.800 L 33.200 373.601 195.500 373.500 L 357.800 373.400 357.800 355.600 L 357.800 337.800 356.143 337.679 C 353.528 337.488,352.888 336.497,353.955 334.293 C 354.739 332.674,354.800 331.890,354.800 323.474 L 354.800 314.400 353.213 314.400 L 351.625 314.400 351.513 309.700 L 351.400 305.000 349.900 304.876 L 348.400 304.752 348.400 300.176 L 348.400 295.600 346.800 295.600 L 345.200 295.600 345.200 294.000 L 345.200 292.400 343.600 292.400 C 342.444 292.400,342.000 292.233,342.000 291.800 C 342.000 291.367,341.556 291.200,340.400 291.200 C 338.192 291.200,337.200 290.146,337.200 287.800 C 337.200 286.467,337.044 286.000,336.600 286.000 C 336.181 286.000,336.000 285.578,336.000 284.600 L 336.000 283.200 329.800 283.200 L 323.600 283.200 323.600 281.600 L 323.600 280.000 317.200 280.000 L 310.800 280.000 310.800 278.400 L 310.800 276.800 304.600 276.800 L 298.400 276.800 298.400 275.200 L 298.400 273.600 292.224 273.600 L 286.048 273.600 285.924 272.100 L 285.800 270.600 279.724 270.490 L 273.647 270.379 273.524 268.890 L 273.400 267.400 267.100 267.290 L 260.800 267.180 260.800 265.790 L 260.800 264.400 253.200 264.400 L 245.600 264.400 245.600 269.000 L 245.600 273.600 244.000 273.600 L 242.400 273.600 242.400 279.776 L 242.400 285.952 240.900 286.076 L 239.400 286.200 239.290 292.500 L 239.180 298.800 237.590 298.800 L 236.000 298.800 236.000 303.400 L 236.000 308.000 234.600 308.000 L 233.200 308.000 233.200 312.600 L 233.200 317.200 231.600 317.200 L 230.000 317.200 230.000 322.000 L 230.000 326.800 228.400 326.800 L 226.800 326.800 226.800 330.000 L 226.800 333.200 225.200 333.200 L 223.600 333.200 223.600 336.176 L 223.600 339.152 222.100 339.276 L 220.600 339.400 220.483 342.500 L 220.366 345.600 218.783 345.600 C 217.203 345.600,217.200 345.603,217.200 347.200 C 217.200 348.762,217.167 348.800,215.800 348.800 C 214.467 348.800,214.400 348.867,214.400 350.200 L 214.400 351.600 211.200 351.600 L 208.000 351.600 208.000 340.200 L 208.000 328.800 206.029 328.800 C 202.744 328.800,201.594 326.473,203.838 324.365 L 204.800 323.461 204.800 312.554 L 204.800 301.648 206.300 301.524 C 207.719 301.407,207.807 301.319,207.924 299.900 C 208.042 298.481,208.123 298.400,209.424 298.400 L 210.800 298.400 210.800 290.800 L 210.800 283.200 209.400 283.200 C 208.033 283.200,208.000 283.162,208.000 281.600 L 208.000 280.000 206.400 280.000 L 204.800 280.000 204.800 278.400 L 204.800 276.800 195.400 276.800 L 186.000 276.800 186.000 278.400 C 186.000 279.962,185.967 280.000,184.600 280.000 C 183.233 280.000,183.200 280.038,183.200 281.600 L 183.200 283.200 181.600 283.200 L 180.000 283.200 180.000 290.800 L 180.000 298.400 181.600 298.400 L 183.200 298.400 183.200 300.000 C 183.200 301.562,183.233 301.600,184.600 301.600 L 186.000 301.600 186.000 312.600 L 186.000 323.600 184.591 323.600 L 183.183 323.600 183.209 339.249 C 183.239 356.746,183.412 355.374,181.227 355.005 C 179.648 354.738,179.600 354.683,179.600 353.165 C 179.600 351.606,179.594 351.600,178.000 351.600 C 176.438 351.600,176.400 351.567,176.400 350.200 C 176.400 348.867,176.333 348.800,175.000 348.800 C 173.633 348.800,173.600 348.762,173.600 347.200 C 173.600 345.603,173.597 345.600,172.017 345.600 L 170.434 345.600 170.317 342.500 L 170.200 339.400 168.700 339.276 L 167.200 339.152 167.200 336.176 L 167.200 333.200 165.600 333.200 L 164.000 333.200 164.000 328.400 L 164.000 323.600 162.400 323.600 L 160.800 323.600 160.800 319.000 L 160.800 314.400 159.413 314.400 L 158.025 314.400 157.913 309.700 L 157.800 305.000 156.300 304.876 L 154.800 304.752 154.800 298.576 L 154.800 292.400 153.200 292.400 L 151.600 292.400 151.600 287.800 L 151.600 283.200 150.000 283.200 L 148.400 283.200 148.400 276.800 L 148.400 270.400 146.800 270.400 L 145.200 270.400 145.200 267.400 L 145.200 264.400 137.600 264.400 L 130.000 264.400 130.000 265.790 " stroke="none" fill="#fcfcfc" fill-rule="evenodd"></path><path id="path1" d="M174.080 24.080 C 172.875 25.285,173.499 26.800,175.200 26.800 C 176.080 26.800,176.820 26.665,176.845 26.500 C 177.270 23.681,175.782 22.378,174.080 24.080 M257.200 47.151 C 257.200 49.084,257.792 49.593,259.500 49.130 C 260.689 48.807,260.800 48.642,260.800 47.189 L 260.800 45.600 259.000 45.600 L 257.200 45.600 257.200 47.151 M111.200 136.000 C 111.200 136.748,111.397 136.832,112.900 136.723 C 114.090 136.637,114.600 136.420,114.600 136.000 C 114.600 135.580,114.090 135.363,112.900 135.277 C 111.397 135.168,111.200 135.252,111.200 136.000 M98.800 150.727 L 98.800 152.654 100.495 152.427 C 102.358 152.178,102.692 151.619,102.026 149.868 C 101.692 148.989,101.370 148.800,100.210 148.800 L 98.800 148.800 98.800 150.727 M294.861 160.527 C 293.821 161.780,295.072 164.000,296.819 164.000 L 298.400 164.000 298.400 162.000 L 298.400 160.000 296.849 160.000 C 295.996 160.000,295.101 160.237,294.861 160.527 M288.984 182.826 C 288.226 184.052,289.219 186.050,290.523 185.924 C 292.618 185.721,292.735 182.400,290.647 182.400 C 289.877 182.400,289.129 182.592,288.984 182.826 M269.736 198.222 C 269.120 199.829,270.148 201.400,271.815 201.400 L 273.400 201.400 273.522 199.500 L 273.644 197.600 271.809 197.600 C 270.518 197.600,269.904 197.784,269.736 198.222 M48.800 288.127 L 48.800 290.254 50.500 290.027 C 52.190 289.801,52.201 289.789,52.418 287.900 L 52.637 286.000 50.718 286.000 L 48.800 286.000 48.800 288.127 M338.382 287.900 L 338.600 289.800 340.300 289.923 L 342.000 290.046 342.000 288.023 L 342.000 286.000 340.082 286.000 L 338.163 286.000 338.382 287.900 M204.606 323.991 C 203.179 326.299,203.705 327.428,206.318 327.667 L 208.036 327.825 207.918 325.812 C 207.799 323.784,205.511 322.526,204.606 323.991 M33.200 335.111 L 33.200 337.021 34.803 336.868 C 37.674 336.594,37.655 333.200,34.782 333.200 L 33.200 333.200 33.200 335.111 M354.651 333.812 C 353.940 335.663,354.325 336.313,356.218 336.464 L 358.037 336.609 357.918 335.004 C 357.786 333.207,355.239 332.278,354.651 333.812 M181.117 352.500 C 179.600 353.693,179.819 354.800,181.573 354.800 C 183.166 354.800,183.200 354.771,183.200 353.400 C 183.200 351.880,182.364 351.519,181.117 352.500 " stroke="none" fill="#444444" fill-rule="evenodd"></path><path id="path2" d="" stroke="none" fill="#cc100a0" fill-rule="evenodd"></path><path id="path3" d="" stroke="none" fill="#cc100a0" fill-rule="evenodd"></path><path id="path4" d="" stroke="none" fill="#cc100a0" fill-rule="evenodd"></path></g></svg>