<svg id="Layer_1" data-name="Layer 1" xmlns="http://www.w3.org/2000/svg" viewBox="0 0 26 28"><defs><style>.cls-1{fill:#9ab5de;}</style></defs><title>MB</title><path class="cls-1" d="M7.36,23H6v1.3a.47.47,0,1,1-.95,0V23H3.79a.45.45,0,1,1,0-.91H5.1V20.74a.47.47,0,1,1,.95,0v1.31H7.36a.45.45,0,1,1,0,.91Z"/><path class="cls-1" d="M22,4A11.79,11.79,0,0,0,2.65,16.53a6.6,6.6,0,0,1,1-.4A10.69,10.69,0,1,1,24.35,12.3a10.77,10.77,0,0,1-3.2,7.62l-.39.39-.17-.53a7.31,7.31,0,0,0-3.86-4.35l-.52-.24.46-.34a5,5,0,1,0-6,0l.46.34-.52.24a7.28,7.28,0,0,0-1.82,1.21l0,0a6.65,6.65,0,0,1,.95.63,6.2,6.2,0,0,1,10.05,3.56l0,.22-.19.13a10.61,10.61,0,0,1-7.39,1.7A6.64,6.64,0,0,1,12.05,24a12,12,0,0,0,1.6.11A11.79,11.79,0,0,0,22,4ZM9.7,10.8a4,4,0,1,1,4,4A4,4,0,0,1,9.7,10.8Z"/><path class="cls-1" d="M5.57,27.81a5.3,5.3,0,1,1,5.3-5.3A5.31,5.31,0,0,1,5.57,27.81Zm0-9.51A4.21,4.21,0,1,0,9.78,22.5,4.22,4.22,0,0,0,5.57,18.29Z"/></svg>