<?xml version="1.0" encoding="utf-8"?>
<!-- Generator: Adobe Illustrator 16.0.0, SVG Export Plug-In . SVG Version: 6.00 Build 0)  -->
<!DOCTYPE svg PUBLIC "-//W3C//DTD SVG 1.1//EN" "http://www.w3.org/Graphics/SVG/1.1/DTD/svg11.dtd">
<svg version="1.1" id="Layer_1" xmlns="http://www.w3.org/2000/svg" xmlns:xlink="http://www.w3.org/1999/xlink" x="0px" y="0px"
	 width="27px" height="29px" viewBox="0 0 27 29" enable-background="new 0 0 27 29" xml:space="preserve">
<g transform="translate(-651 -510)">
	<g>
		<path id="a" fill="#FFFFFF" d="M675.993,514.5v22c0.13,0.85-0.76,1-1,1h-21c-0.24,0-0.95-0.3-1-1v-22c0-0.85,0.76-1,1-1h2v-1
			c-0.28-0.27,0.76-1,1-1h2c0.24,0,1,0.77,1,1v1h9v-1c0-0.23-0.01-1,1-1h2c1,0,1,0.77,1,1v1h2
			C676.063,513.5,675.993,514.27,675.993,514.5z M669.993,514.5h2v-2h-2V514.5z M658.994,512.5h-2v2h2V512.5z M653.994,518.5h21v-4
			h-2c0,0.23-0.04,0.96-1,1h-2c-1.01,0-1-0.63-1-1h-9c0,0.23-0.76,1-1,1h-2c-0.24,0-1-0.77-1-1h-2V518.5z M674.993,536.5v-17h-21v17
			H674.993z M672.993,521.5v13h-17v-13H672.993z M664.994,525.5h3v-3h-3V525.5z M667.993,526.5h-3v3h3V526.5z M660.994,529.5h3v-3
			h-3V529.5z M660.994,525.5h3v-3h-3V525.5z M656.994,525.5h3v-3h-3V525.5z M656.994,529.5h3v-3h-3V529.5z M659.994,530.5h-3v3h3
			V530.5z M663.994,530.5h-3v3h3V530.5z M667.993,530.5h-3v3h3V530.5z M671.993,530.5h-3v3h3V530.5z M671.993,526.5h-3v3h3V526.5z
			 M668.993,522.5v3h3v-3H668.993z"/>
	</g>
	<g>
		<defs>
			<path id="SVGID_1_" d="M675.993,514.5v22c0.13,0.85-0.76,1-1,1h-21c-0.24,0-0.95-0.3-1-1v-22c0-0.85,0.76-1,1-1h2v-1
				c-0.28-0.27,0.76-1,1-1h2c0.24,0,1,0.77,1,1v1h9v-1c0-0.23-0.01-1,1-1h2c1,0,1,0.77,1,1v1h2
				C676.063,513.5,675.993,514.27,675.993,514.5z M669.993,514.5h2v-2h-2V514.5z M658.994,512.5h-2v2h2V512.5z M653.994,518.5h21v-4
				h-2c0,0.23-0.04,0.96-1,1h-2c-1.01,0-1-0.63-1-1h-9c0,0.23-0.76,1-1,1h-2c-0.24,0-1-0.77-1-1h-2V518.5z M674.993,536.5v-17h-21
				v17H674.993z M672.993,521.5v13h-17v-13H672.993z M664.994,525.5h3v-3h-3V525.5z M667.993,526.5h-3v3h3V526.5z M660.994,529.5h3
				v-3h-3V529.5z M660.994,525.5h3v-3h-3V525.5z M656.994,525.5h3v-3h-3V525.5z M656.994,529.5h3v-3h-3V529.5z M659.994,530.5h-3v3
				h3V530.5z M663.994,530.5h-3v3h3V530.5z M667.993,530.5h-3v3h3V530.5z M671.993,530.5h-3v3h3V530.5z M671.993,526.5h-3v3h3V526.5
				z M668.993,522.5v3h3v-3H668.993z"/>
		</defs>
		<clipPath id="SVGID_2_">
			<use xlink:href="#SVGID_1_"  overflow="visible"/>
		</clipPath>
		<g clip-path="url(#SVGID_2_)">
			<path id="a_1_" fill="#FFFFFF" fill-opacity="0" stroke="#99B6E4" stroke-width="1.5" stroke-miterlimit="50" d="M675.993,514.5
				v22c0.13,0.85-0.76,1-1,1h-21c-0.24,0-0.95-0.3-1-1v-22c0-0.85,0.76-1,1-1h2v-1c-0.28-0.27,0.76-1,1-1h2c0.24,0,1,0.77,1,1v1h9
				v-1c0-0.23-0.01-1,1-1h2c1,0,1,0.77,1,1v1h2C676.063,513.5,675.993,514.27,675.993,514.5z M669.993,514.5h2v-2h-2V514.5z
				 M658.994,512.5h-2v2h2V512.5z M653.994,518.5h21v-4h-2c0,0.23-0.04,0.96-1,1h-2c-1.01,0-1-0.63-1-1h-9c0,0.23-0.76,1-1,1h-2
				c-0.24,0-1-0.77-1-1h-2V518.5z M674.993,536.5v-17h-21v17H674.993z M672.993,521.5v13h-17v-13H672.993z M664.994,525.5h3v-3h-3
				V525.5z M667.993,526.5h-3v3h3V526.5z M660.994,529.5h3v-3h-3V529.5z M660.994,525.5h3v-3h-3V525.5z M656.994,525.5h3v-3h-3
				V525.5z M656.994,529.5h3v-3h-3V529.5z M659.994,530.5h-3v3h3V530.5z M663.994,530.5h-3v3h3V530.5z M667.993,530.5h-3v3h3V530.5z
				 M671.993,530.5h-3v3h3V530.5z M671.993,526.5h-3v3h3V526.5z M668.993,522.5v3h3v-3H668.993z"/>
		</g>
	</g>
</g>
</svg>
