<?xml version="1.0" encoding="utf-8"?>
<!-- Generator: Adobe Illustrator 16.0.0, SVG Export Plug-In . SVG Version: 6.00 Build 0)  -->
<!DOCTYPE svg PUBLIC "-//W3C//DTD SVG 1.1//EN" "http://www.w3.org/Graphics/SVG/1.1/DTD/svg11.dtd">
<svg version="1.1" id="Layer_1" xmlns="http://www.w3.org/2000/svg" xmlns:xlink="http://www.w3.org/1999/xlink" x="0px" y="0px"
	 width="24px" height="19px" viewBox="0 0 24 19" enable-background="new 0 0 24 19" xml:space="preserve">
<path fill="#99B6E4" d="M22,19H2c-1.065-0.09-1.91-0.935-2-2C0.02,15,0,6,0,6h1v11c0.154,0.475,0.526,0.846,1,1h20
	c0.475-0.154,0.846-0.525,1-1L22.949,5.91h1.011L24,17C23.838,18.03,23.031,18.839,22,19z M5.51,2.99
	C5.25,3.006,5.027,2.81,5.01,2.55V0.44C5.031,0.183,5.252-0.012,5.51,0c0.259-0.016,0.482,0.181,0.5,0.44v2.11
	C5.997,2.807,5.777,3.004,5.52,2.991C5.517,2.99,5.513,2.99,5.51,2.99z M18.5,2.99c-0.256,0.019-0.48-0.174-0.5-0.43
	c0-0.003,0-0.007,0-0.01V0.44c0-0.276,0.225-0.5,0.5-0.5S19,0.164,19,0.44v2.11c-0.014,0.257-0.232,0.455-0.49,0.441
	C18.506,2.99,18.504,2.99,18.5,2.99z M16,1H8C7,1.03,7,0,8,0h8C17,0,17,0.98,16,1z M24,6H0V1c0.015-0.546,0.454-0.985,1-1h2
	c0.86,0,0.86,1,0,1H2C1.476,0.972,1.028,1.373,1,1.897C0.998,1.932,0.998,1.966,1,2v3h22l-0.051-2.82
	c0.111-0.529-0.227-1.048-0.756-1.159C22.129,1.008,22.064,1,22,1h-1c-0.859,0.01-1-1,0-1h2c0.549-0.004,0.996,0.438,1,0.986
	C24,0.991,24,0.995,24,1V6z M7,13H5v2h2V13z M7,9H5v2h2V9z M9,15h2v-2H9V15z M9,11h2V9H9V11z M17,15h2v-2h-2V15z M17,11h2V9h-2V11z
	 M13,15h2v-2h-2V15z M13,11h2V9h-2V11z"/>
</svg>
