<?xml version="1.0" encoding="utf-8"?>
<!-- Generator: Adobe Illustrator 16.0.0, SVG Export Plug-In . SVG Version: 6.00 Build 0)  -->
<!DOCTYPE svg PUBLIC "-//W3C//DTD SVG 1.1//EN" "http://www.w3.org/Graphics/SVG/1.1/DTD/svg11.dtd">
<svg version="1.1" id="Layer_1" xmlns="http://www.w3.org/2000/svg" xmlns:xlink="http://www.w3.org/1999/xlink" x="0px" y="0px"
	 width="46px" height="36px" viewBox="0 0 46 36" enable-background="new 0 0 46 36" xml:space="preserve">
<g transform="translate(-1120 -1295)">
	<g>
		<defs>
			<path id="SVGID_1_" d="M1157.154,1327.154h-28.309v-19.462h-4.423c-1.465,0-2.654-1.188-2.654-2.654v-3.538
				c0-1.469,1.186-2.654,2.654-2.654h37.153c1.469,0,2.654,1.186,2.654,2.654v3.538c0,1.469-1.186,2.654-2.654,2.654h-4.422
				V1327.154z"/>
		</defs>
		<clipPath id="SVGID_2_">
			<use xlink:href="#SVGID_1_"  overflow="visible"/>
		</clipPath>
		<g clip-path="url(#SVGID_2_)">
			<path id="f" fill="#C2F6FF" fill-opacity="0" stroke="#9AB6E0" stroke-miterlimit="50" d="M1157.154,1327.154h-28.309v-19.462
				h-4.423c-1.465,0-2.654-1.188-2.654-2.654v-3.538c0-1.469,1.186-2.654,2.654-2.654h37.153c1.469,0,2.654,1.186,2.654,2.654v3.538
				c0,1.469-1.186,2.654-2.654,2.654h-4.422V1327.154z"/>
		</g>
	</g>
</g>
<g transform="translate(-1120 -1295)">
	<g>
		<defs>
			<polyline id="SVGID_3_" points="1157.154,1302.385 1157.154,1327.154 1128.846,1327.154 1128.846,1302.385 			"/>
		</defs>
		<clipPath id="SVGID_4_">
			<use xlink:href="#SVGID_3_"  overflow="visible"/>
		</clipPath>
		<g clip-path="url(#SVGID_4_)">
			<path id="b" fill="#C2F6FF" fill-opacity="0" stroke="#9AB6E0" stroke-miterlimit="50" d="M1157.154,1302.385v24.77h-28.309
				v-24.77"/>
		</g>
	</g>
</g>
<g transform="translate(-1120 -1295)">
	<g>
		<defs>
			<path id="SVGID_5_" d="M1134.154,1302.385v15.923c1.954,0,3.539,1.584,3.539,3.538h10.615c0-1.945,1.593-3.538,3.538-3.538
				v-15.923"/>
		</defs>
		<clipPath id="SVGID_6_">
			<use xlink:href="#SVGID_5_"  overflow="visible"/>
		</clipPath>
		<g clip-path="url(#SVGID_6_)">
			<path id="c" fill="#C2F6FF" fill-opacity="0" stroke="#9AB6E0" stroke-miterlimit="50" d="M1134.154,1302.385v15.923
				c1.954,0,3.539,1.584,3.539,3.538h10.615c0-1.945,1.593-3.538,3.538-3.538v-15.923"/>
		</g>
	</g>
</g>
<g transform="translate(-1120 -1295)">
	<g>
		<defs>
			<path id="SVGID_7_" d="M1134.507,1302.385c0.973,3.043,4.406,5.308,8.493,5.308s7.52-2.265,8.492-5.308"/>
		</defs>
		<clipPath id="SVGID_8_">
			<use xlink:href="#SVGID_7_"  overflow="visible"/>
		</clipPath>
		<g clip-path="url(#SVGID_8_)">
			<path id="d" fill="#C2F6FF" fill-opacity="0" stroke="#9AB6E0" stroke-miterlimit="50" d="M1134.507,1302.385
				c0.973,3.043,4.406,5.308,8.493,5.308s7.52-2.265,8.492-5.308"/>
		</g>
	</g>
</g>
<g transform="translate(-1120 -1295)">
	<g>
		<defs>
			<circle id="SVGID_9_" cx="1143" cy="1313.885" r="1.77"/>
		</defs>
		<clipPath id="SVGID_10_">
			<use xlink:href="#SVGID_9_"  overflow="visible"/>
		</clipPath>
		<g clip-path="url(#SVGID_10_)">
			<path id="e" fill="#C2F6FF" fill-opacity="0" stroke="#9AB6E0" stroke-miterlimit="50" d="M1144.77,1313.885
				c0,0.977-0.793,1.77-1.77,1.77c-0.977,0-1.77-0.793-1.77-1.77c0-0.978,0.792-1.77,1.77-1.77
				C1143.977,1312.115,1144.77,1312.907,1144.77,1313.885z"/>
		</g>
	</g>
</g>
</svg>
