<svg xmlns="http://www.w3.org/2000/svg" width="82.5" height="90" viewBox="0 0 82.5 90"><defs><clipPath id="a"><path fill="#fff" d="M210 1248v-12h18v12zm-27-24v-12h45v12z"/></clipPath></defs><path fill="none" stroke="#c2f6ff" stroke-miterlimit="50" stroke-width="6" d="M210 1248v-12h18v12zm-27-24v-12h45v12z" clip-path="url(&quot;#a&quot;)" transform="translate(-155.25 -1201.5)"/><path fill="none" stroke="#c2f6ff" stroke-miterlimit="50" stroke-width="3" d="M27.8 70.5h44.93M27.8 58.5h44.93M27.8 46.5h17.98M27.8 34.5h17.98M9.75 88.5h59.98a12 12 0 0 0 12-12v-72a3 3 0 0 0-3-3H21.74a3 3 0 0 0-3 3v75c0 4.95-4.04 9-9 9-4.94 0-8.99-4.05-8.99-9V29.9h7.5"/></svg>