<?xml version="1.0" encoding="utf-8"?>
<!-- Generator: Adobe Illustrator 16.0.0, SVG Export Plug-In . SVG Version: 6.00 Build 0)  -->
<!DOCTYPE svg PUBLIC "-//W3C//DTD SVG 1.1//EN" "http://www.w3.org/Graphics/SVG/1.1/DTD/svg11.dtd">
<svg version="1.1" id="Layer_1" xmlns="http://www.w3.org/2000/svg" xmlns:xlink="http://www.w3.org/1999/xlink" x="0px" y="0px"
	 width="28px" height="30px" viewBox="-0.25 0 28 30" enable-background="new -0.25 0 28 30" xml:space="preserve">
<g opacity="0.85">
	<g>
		<defs>
			<path id="SVGID_1_" d="M18.25,15.5v-4h6v4H18.25z M9.25,7.5V3.501h15V7.5H9.25z"/>
		</defs>
		<clipPath id="SVGID_2_">
			<use xlink:href="#SVGID_1_"  overflow="visible"/>
		</clipPath>
		<path clip-path="url(#SVGID_2_)" fill="none" stroke="#99B6E4" stroke-width="2" stroke-miterlimit="50" d="M18.25,15.5v-4h6v4
			H18.25z M9.25,7.5V3.501h15V7.5H9.25z"/>
	</g>
	<path fill="none" stroke="#99B6E4" stroke-miterlimit="50" d="M9.26,23.501h14.98 M9.26,19.5h14.98 M9.26,15.5h6 M9.26,11.5h6
		 M3.25,29.5h20c2.209,0,4-1.792,4-4v-24c0-0.551-0.447-1-1-1h-19c-0.552,0-1,0.449-1,1v25C6.25,28.156,4.907,29.5,3.25,29.5
		c-1.657,0-3.001-1.344-3.001-3V9.96h2.5"/>
</g>
</svg>
