<?xml version="1.0" encoding="utf-8"?>
<!-- Generator: Adobe Illustrator 16.0.0, SVG Export Plug-In . SVG Version: 6.00 Build 0)  -->
<!DOCTYPE svg PUBLIC "-//W3C//DTD SVG 1.1//EN" "http://www.w3.org/Graphics/SVG/1.1/DTD/svg11.dtd">
<svg version="1.1" id="Layer_1" xmlns="http://www.w3.org/2000/svg" xmlns:xlink="http://www.w3.org/1999/xlink" x="0px" y="0px"
	 width="21px" height="17px" viewBox="0 0 21 17" enable-background="new 0 0 21 17" xml:space="preserve">
<path fill="none" stroke="#99B6E4" stroke-miterlimit="50" d="M13.99,12.92c-0.26,0.13-0.561,0.21-0.87,0.21
	c-1,0-1.8-0.78-1.8-1.739c0-0.961,0.8-1.73,1.8-1.73c0.351,0,0.67,0.09,0.95,0.26c0.05,0.03,0.08,0.13,0.1,0.29
	c0.32-0.34,0.79-0.55,1.311-0.55c1,0,1.799,0.77,1.799,1.73c0,0.959-0.799,1.739-1.799,1.739c-0.59,0-1.101-0.271-1.44-0.7
	L13.99,12.92z M1,5.61h19"/>
<g>
	<defs>
		<path id="SVGID_1_" d="M2.93,16.01C1.87,16.01,1,15.05,1,13.88V3.12c0-1.18,0.87-2.13,1.93-2.13l15.15-0.01
			c1.061,0,1.93,0.96,1.93,2.14v10.76c0,1.17-0.869,2.129-1.93,2.129H2.93z"/>
	</defs>
	<clipPath id="SVGID_2_">
		<use xlink:href="#SVGID_1_"  overflow="visible"/>
	</clipPath>
	<path clip-path="url(#SVGID_2_)" fill="none" stroke="#99B6E4" stroke-miterlimit="50" d="M2.93,16.01C1.87,16.01,1,15.05,1,13.88
		V3.12c0-1.18,0.87-2.13,1.93-2.13l15.15-0.01c1.061,0,1.93,0.96,1.93,2.14v10.76c0,1.17-0.869,2.129-1.93,2.129H2.93z"/>
</g>
</svg>
