<svg xmlns="http://www.w3.org/2000/svg" width="55" height="60" viewBox="0 0 55 60"><defs><clipPath id="a"><path fill="#fff" d="M140 832v-8h12v8zm-18-16v-8h30v8z"/></clipPath></defs><path fill="none" stroke="#c2f6ff" stroke-miterlimit="50" stroke-width="4" d="M140 832v-8h12v8zm-18-16v-8h30v8z" clip-path="url(&quot;#a&quot;)" transform="translate(-103.5 -801)"/><path fill="none" stroke="#c2f6ff" stroke-miterlimit="50" stroke-width="2" d="M18.53 47h29.96M18.53 39h29.96M18.53 31h12M18.53 23h12M6.5 59h39.99a8 8 0 0 0 8-8V3a2 2 0 0 0-2-2h-38a2 2 0 0 0-2 2v50c0 3.3-2.7 6-6 6S.5 56.3.5 53V19.93h5"/></svg>