<?xml version="1.0" encoding="utf-8"?>
<!-- Generator: Adobe Illustrator 16.0.0, SVG Export Plug-In . SVG Version: 6.00 Build 0)  -->
<!DOCTYPE svg PUBLIC "-//W3C//DTD SVG 1.1//EN" "http://www.w3.org/Graphics/SVG/1.1/DTD/svg11.dtd">
<svg version="1.1" id="Layer_1" xmlns="http://www.w3.org/2000/svg" xmlns:xlink="http://www.w3.org/1999/xlink" x="0px" y="0px"
	 width="41px" height="27px" viewBox="0 0 41 27" enable-background="new 0 0 41 27" xml:space="preserve">
<g>
	<path fill="#004F9F" d="M0,6.94v13.121c0,1.21,0.98,2.187,2.193,2.187h15.378v-1.457H5.857c-0.81,0-1.466-0.652-1.466-1.459V7.668
		c0-0.807,0.656-1.462,1.466-1.462h11.714V4.752H2.193C0.98,4.752,0,5.729,0,6.94"/>
	<path fill="#004F9F" d="M36.605,17.519c0,1.685-1.279,3.084-2.927,3.259l-0.396-0.041l-0.05-0.013l-0.311-0.145l-0.024-0.013
		L32.8,20.499l-0.227-0.212l-0.042-0.039l-0.132-0.2l-0.014-0.026l-0.008-0.017l-0.011-0.023l-0.009-0.021l-0.019-0.024
		l-0.021-0.044l-0.008-0.024l-0.014-0.044l-0.014-0.041l-0.021-0.063l-0.005-0.014v-0.02l-0.006-0.013v-0.009l-0.006-0.011
		l-0.002-0.012v-0.01v-0.013l-0.003-0.008l-0.009-0.017V19.59l-0.003-0.008v-0.017v-0.009v-0.011l-0.005-0.011l-0.014-0.206v-1.454
		V17.54v-0.397v-1.456v-0.338v-0.927v-1.86v-0.907v-1.057V9.856V7.668V7.646c0.014-0.795,0.664-1.435,1.468-1.439l0.135,0.016
		l0.339,0.074c1.418,0.37,2.458,1.651,2.458,3.175c0,1.691-1.284,3.082-2.932,3.258v1.528
		C35.326,14.438,36.605,15.826,36.605,17.519 M27.818,19.332c0,0.807-0.655,1.459-1.465,1.459c-0.804,0-1.462-0.652-1.462-1.459
		V7.668c0-0.807,0.658-1.462,1.462-1.462c0.81,0,1.465,0.655,1.465,1.462V19.332z M37.831,13.041
		c1.236-0.614,2.146-1.799,2.378-3.206c0.036-0.217,0.053-0.453,0.058-0.711V9.116V9.105c-0.008-1.525-0.693-2.655-1.626-3.377
		c-0.744-0.601-1.684-0.966-2.719-0.974l-0.085-0.003h-2.158H32.74h-0.529h-5.857h-7.319v1.454c0.81,0,1.468,0.655,1.468,1.462
		v11.664c0,0.807-0.658,1.459-1.468,1.459v1.457h7.319h4.394h0.561h2.371h2.56h0.032C38.876,22.229,41,20.117,41,17.511
		C41,15.447,39.672,13.694,37.831,13.041"/>
	<path fill="#EF7D00" d="M6.591,13.506c0-3.227,2.622-5.835,5.854-5.835c3.234,0,5.855,2.608,5.855,5.835
		c0,3.216-2.621,5.831-5.855,5.831C9.213,19.337,6.591,16.722,6.591,13.506 M12.993,10.825c0.916-0.104,1.754-0.469,2.434-1.021
		c-0.68-0.543-1.519-0.908-2.434-1.013V10.825z M9.462,9.805c0.683,0.552,1.522,0.916,2.435,1.021V8.792
		C10.985,8.896,10.146,9.262,9.462,9.805 M11.897,11.925c-1.217-0.112-2.324-0.598-3.208-1.333c-0.522,0.67-0.869,1.476-0.974,2.362
		h4.183V11.925z M16.201,10.592c-0.881,0.735-1.99,1.221-3.208,1.333v1.029h4.178C17.074,12.067,16.722,11.262,16.201,10.592
		 M11.897,16.181c-0.913,0.101-1.755,0.463-2.435,1.014c0.68,0.546,1.522,0.909,2.435,1.016V16.181z M15.431,17.194
		c-0.681-0.551-1.519-0.913-2.438-1.014v2.029C13.912,18.104,14.75,17.74,15.431,17.194 M12.993,15.074
		c1.222,0.115,2.326,0.598,3.208,1.336c0.525-0.669,0.874-1.478,0.97-2.365h-4.178V15.074z M8.689,16.41
		c0.885-0.738,1.992-1.221,3.208-1.336v-1.029H7.715C7.82,14.933,8.167,15.741,8.689,16.41"/>
</g>
</svg>
