<?xml version="1.0" encoding="utf-8"?>
<!-- Generator: Adobe Illustrator 16.0.0, SVG Export Plug-In . SVG Version: 6.00 Build 0)  -->
<!DOCTYPE svg PUBLIC "-//W3C//DTD SVG 1.1//EN" "http://www.w3.org/Graphics/SVG/1.1/DTD/svg11.dtd">
<svg version="1.1" id="Layer_1" xmlns="http://www.w3.org/2000/svg" xmlns:xlink="http://www.w3.org/1999/xlink" x="0px" y="0px"
	 width="14px" height="16px" viewBox="0 0 14 16" enable-background="new 0 0 14 16" xml:space="preserve">
<path fill="#fff" d="M3,8V7h2v1H3z M3,12v-1h2v1H3z M3,10V9h2v1H3z M6,8V7h2v1H6z M6,12v-1h2v1H6z M6,10V9h2v1H6z M9,8V7h2v1H9z
	 M9,12v-1h2v1H9z M9,10V9h2v1H9z M3,4V0h1v4H3z M10,4V0h1v4H10z M12.141,2H14v13H0V2h1.86v1.04H0.98v10.93h12.04V3.04h-0.879V2z
	 M5,3V2h4v1H5z"/>
</svg>
