<svg xmlns="http://www.w3.org/2000/svg" width="22" height="17" viewBox="0 0 22 17">
  <path fill="#fff" d="M4080.19,1298.93h-17.01v-0.97h17.01v0.97Zm-3.98,3.22H4063.4v-1.01h14.32Zm8.07,9.84-2.84-2.84,0.71-.71,2.84,2.84Zm-18.9-3.23a2.207,2.207,0,0,1-2.37-2.02l0.18-9.5a2.211,2.211,0,0,1,2.19-2.23h13.63a2.211,2.211,0,0,1,2.19,2.23l0.06,4.41-1.06-.27v-4.14a1.206,1.206,0,0,0-1.19-1.22h-13.63a1.206,1.206,0,0,0-1.19,1.22l-0.18,9.5a1.206,1.206,0,0,0,1.21,1.2Zm10.83,0.19h-10.99v-1.01h10.53Zm2.71,1.25a4.78,4.78,0,1,1,4.8-4.78A4.788,4.788,0,0,1,4078.92,1310.2Zm0-8.55a3.775,3.775,0,1,0,3.79,3.77A3.781,3.781,0,0,0,4078.92,1301.65Z" transform="translate(-4063 -1295)"/>
</svg>
