<svg id="Layer_1" data-name="Layer 1" xmlns="http://www.w3.org/2000/svg" viewBox="0 0 26 28"><defs><style>.cls-1{fill:#9ab5de;}</style></defs><title>MB</title><path class="cls-1" d="M24.32,13.31a.65.65,0,0,0,.65-.65V7.12A3.57,3.57,0,0,0,21.4,3.55H19.81V2.26a.65.65,0,1,0-1.3,0V3.55H13.44V2.26a.65.65,0,1,0-1.3,0V3.55h-5V2.26a.65.65,0,1,0-1.3,0V3.55H4.29A3.57,3.57,0,0,0,.72,7.12V22.29a3.57,3.57,0,0,0,3.57,3.57h7.44a.65.65,0,1,0,0-1.3H4.29A2.27,2.27,0,0,1,2,22.29V7.12A2.27,2.27,0,0,1,4.29,4.85H5.83v1.3a.65.65,0,1,0,1.3,0V4.85h5v1.3a.65.65,0,1,0,1.3,0V4.85h5.07v1.3a.65.65,0,0,0,1.3,0V4.85H21.4a2.27,2.27,0,0,1,2.27,2.27v5.54A.65.65,0,0,0,24.32,13.31Z"/><path class="cls-1" d="M19.41,14.73A5.56,5.56,0,1,0,25,20.29,5.57,5.57,0,0,0,19.41,14.73Zm0,9.82a4.26,4.26,0,1,1,4.26-4.26A4.27,4.27,0,0,1,19.41,24.55Z"/><path class="cls-1" d="M19.41,17.65a.65.65,0,0,0-.65.65v2a.65.65,0,0,0,.65.65h1.41a.65.65,0,1,0,0-1.3h-.76V18.3A.65.65,0,0,0,19.41,17.65Z"/><circle class="cls-1" cx="19.16" cy="11.49" r="0.93"/><circle class="cls-1" cx="14.93" cy="11.49" r="0.93"/><circle class="cls-1" cx="10.7" cy="15.72" r="0.93"/><circle class="cls-1" cx="6.47" cy="11.49" r="0.93"/><circle class="cls-1" cx="6.47" cy="15.72" r="0.93"/><circle class="cls-1" cx="6.47" cy="19.95" r="0.93"/><circle class="cls-1" cx="10.7" cy="19.95" r="0.93"/><circle class="cls-1" cx="10.7" cy="11.49" r="0.93"/></svg>