<?xml version="1.0" encoding="utf-8"?>
<!-- Generator: Adobe Illustrator 16.0.0, SVG Export Plug-In . SVG Version: 6.00 Build 0)  -->
<!DOCTYPE svg PUBLIC "-//W3C//DTD SVG 1.1//EN" "http://www.w3.org/Graphics/SVG/1.1/DTD/svg11.dtd">
<svg version="1.1" id="icon_new_payments" xmlns="http://www.w3.org/2000/svg" xmlns:xlink="http://www.w3.org/1999/xlink" x="0px"
	 y="0px" width="25px" height="28px" viewBox="-2.5 -0.5 25 28" enable-background="new -2.5 -0.5 25 28" xml:space="preserve">
<g>
	<path fill="#99B6E4" d="M0.594,16.238V26.5h16.745V16.238H0.594z M12.078,19.573H5.803c-0.382,0-0.692-0.439-0.692-0.98
		c0-0.54,0.31-0.979,0.692-0.979h6.275c0.381,0,0.691,0.439,0.691,0.979C12.77,19.134,12.459,19.573,12.078,19.573z"/>
	<path fill="#99B6E4" d="M9.073,12.778c-0.389-0.136-0.551-0.219-0.551-0.382c0-0.291,0.3-0.367,0.459-0.367
		c0.305,0,0.367,0.124,0.367,0.309v0.015c0,0.133,0.108,0.241,0.241,0.241h0.062c0.133,0,0.241-0.108,0.241-0.241l0.001-0.419
		c0-0.068-0.029-0.132-0.079-0.178c-0.151-0.139-0.348-0.216-0.598-0.234v-0.275c0-0.133-0.108-0.241-0.241-0.241H8.917
		c-0.133,0-0.241,0.108-0.241,0.241v0.294c-0.364,0.101-0.71,0.433-0.71,0.875c0,0.527,0.465,0.687,0.875,0.827
		c0.426,0.146,0.603,0.24,0.603,0.449c0,0.301-0.312,0.382-0.497,0.382c-0.187,0-0.418-0.054-0.48-0.142
		c-0.027-0.039-0.045-0.115-0.055-0.226c-0.01-0.125-0.114-0.222-0.24-0.222H8.123c-0.065,0-0.126,0.026-0.172,0.072
		s-0.071,0.107-0.07,0.172l0.004,0.475c0.001,0.107,0.073,0.201,0.176,0.23c0.011,0.004,0.024,0.006,0.039,0.01l0.012,0.002
		c0.215,0.061,0.41,0.112,0.565,0.133v0.398c0,0.135,0.108,0.242,0.241,0.242h0.059c0.134,0,0.241-0.107,0.241-0.242v-0.408
		C9.619,14.482,10,14.149,10,13.681C10,13.103,9.486,12.922,9.073,12.778L9.073,12.778z M9.073,12.778"/>
	<path fill="none" stroke="#99B6E4" stroke-width="1.002" stroke-miterlimit="10" d="M21.547,4.978V0.5
		c-1.268,0.556-3.65,1.35-4.76,1.413s-6.321-0.756-7.733-0.402c-1.136,0.285-7.376,4.98-9.238,6.276
		c-2.971,2.067-0.341,2.398,0.906,1.92c1.255-0.481,5.302-2.742,5.302-2.742C6.011,7.423,6.08,8.071,6.49,8.771
		c0,0,0.463,0.649,1.018,1.285c-1.197,0.546-2.032,1.754-2.032,3.154c0,1.189,0.602,2.24,1.518,2.864H1.005
		c-0.332,0-0.601,0.27-0.601,0.601v9.225c0,0.332,0.269,0.601,0.601,0.601h15.87c0.332,0,0.602-0.269,0.602-0.601v-9.225
		c0-0.331-0.27-0.601-0.602-0.601h-5.988c0.915-0.624,1.518-1.675,1.518-2.864c0-0.869-0.322-1.664-0.853-2.273
		c-0.007-0.005-0.012-0.011-0.018-0.017c0.865-0.431,1.775-1.205,3.978-2.105C19.222,7.298,20.479,5.575,21.547,4.978L21.547,4.978z
		 M11.326,8.49c-0.695,0.491-1.169,0.97-1.446,1.386C9.724,9.832,9.564,9.799,9.4,9.777C9.256,9.312,9.01,8.702,8.634,7.894
		c0,0-0.172-0.405-0.115-0.89c0.142-0.542,0.631-1.122,2.012-1.3c2.325-0.3,2.655,0.875,1.604,2.1
		C11.911,8.037,11.641,8.269,11.326,8.49L11.326,8.49z M12.505,17.59c0.434,0,0.786,0.444,0.786,0.991s-0.353,0.992-0.786,0.992
		h-7.13c-0.434,0-0.786-0.445-0.786-0.992s0.353-0.991,0.786-0.991H12.505z M8.94,15.762c-1.407,0-2.552-1.145-2.552-2.552
		s1.146-2.552,2.552-2.552c0.208,0,0.409,0.025,0.603,0.072c0,0.405,0.314,0.635,0.834,0.584c0.08-0.008,0.157-0.019,0.232-0.033
		c0.541,0.468,0.884,1.159,0.884,1.928C11.492,14.617,10.347,15.762,8.94,15.762L8.94,15.762z M8.94,15.762"/>
	<path fill="#99B6E4" d="M10.5,11.194l0.905-0.379c0,0,1.239,1.293,0.955,2.95s-1.473,2.309-1.473,2.309s-0.503,0.305-2.033,0.305
		s-2.149-0.523-2.149-0.523S5.31,14.893,5.489,12.91c0.178-1.982,2.116-2.963,2.116-2.963s0.137,0.254,0.488,0.441
		c0.35,0.187,0.936,0.272,0.936,0.272s-2.377,0.071-2.63,2.323c-0.253,2.252,2.132,2.951,2.838,2.762s2.365-0.497,2.214-2.988
		C11.415,12.165,10.5,11.194,10.5,11.194z"/>
	<path fill="#99B6E4" stroke="#99B6E4" stroke-width="0.3735" stroke-miterlimit="10" d="M9.227,9.796c0,0,0.059,0.233,0,0.49
		s-0.149,0.376-0.149,0.376l0.627,0.126c0,0,0.001-0.281,0.106-0.433S10,9.959,10,9.959L9.227,9.796z"/>
</g>
</svg>
