<svg xmlns="http://www.w3.org/2000/svg" width="44" height="45" viewBox="0 0 44 45"><defs><clipPath id="a"><path fill="#fff" d="M6438.56 1438.81v-13c0-1.32.76-1.81-.56-1.81s-2.24.5-2.24 1.82v14.01c0 .66.28 1.28.74 1.73l8.1 7.64a2.38 2.38 0 0 0 3.38-.07c.92-.95-1.02-2.21-1.98-3.13z"/></clipPath><clipPath id="b"><path fill="#fff" d="M6440 1416c-12.14 0-22 9.87-22 22s9.86 22 22 22 22-9.87 22-22-9.86-22-22-22z"/></clipPath></defs><path fill="none" stroke="#fff" stroke-miterlimit="50" stroke-width="4" d="M6438.56 1438.81v-13c0-1.32.76-1.81-.56-1.81s-2.24.5-2.24 1.82v14.01c0 .66.28 1.28.74 1.73l8.1 7.64a2.38 2.38 0 0 0 3.38-.07c.92-.95-1.02-2.21-1.98-3.13z" clip-path="url(&quot;#a&quot;)" transform="translate(-6418 -1416)"/><path fill="none" stroke="#fff" stroke-miterlimit="50" stroke-width="4" d="M6440 1416c-12.14 0-22 9.87-22 22s9.86 22 22 22 22-9.87 22-22-9.86-22-22-22z" clip-path="url(&quot;#b&quot;)" transform="translate(-6418 -1416)"/></svg>