<svg xmlns="http://www.w3.org/2000/svg" width="66" height="67" viewBox="0 0 66 67"><defs><clipPath id="a"><path fill="#fff" d="M9657.84 2158.22v-19.5c0-1.98 1.14-2.72-.84-2.72s-3.36.74-3.36 2.73v21.02c0 .98.42 1.91 1.11 2.59l12.15 11.46a3.57 3.57 0 0 0 5.07-.1c1.38-1.43-1.53-3.32-2.97-4.7z"/></clipPath><clipPath id="b"><path fill="#fff" d="M9660 2124c-18.21 0-33 14.8-33 33s14.79 33 33 33 33-14.8 33-33-14.79-33-33-33z"/></clipPath></defs><path fill="none" stroke="#fff" stroke-miterlimit="50" stroke-width="6" d="M9657.84 2158.22v-19.5c0-1.98 1.14-2.72-.84-2.72s-3.36.74-3.36 2.73v21.02c0 .98.42 1.91 1.11 2.59l12.15 11.46a3.57 3.57 0 0 0 5.07-.1c1.38-1.43-1.53-3.32-2.97-4.7z" clip-path="url(&quot;#a&quot;)" transform="translate(-9627 -2124)"/><path fill="none" stroke="#fff" stroke-miterlimit="50" stroke-width="6" d="M9660 2124c-18.21 0-33 14.8-33 33s14.79 33 33 33 33-14.8 33-33-14.79-33-33-33z" clip-path="url(&quot;#b&quot;)" transform="translate(-9627 -2124)"/></svg>