<svg xmlns="http://www.w3.org/2000/svg" width="22" height="23" viewBox="0 0 22 23"><defs><clipPath id="a"><path fill="#fff" d="M3219.28 719.4v-6.5c0-.65.38-.9-.28-.9s-1.12.25-1.12.9v7.02c0 .32.14.63.37.86l4.05 3.82a1.19 1.19 0 0 0 1.69-.03c.46-.48-.51-1.11-.99-1.57z"/></clipPath><clipPath id="b"><path fill="#fff" d="M3220 708a11.01 11.01 0 0 0 0 22 11.01 11.01 0 0 0 0-22z"/></clipPath></defs><path fill="none" stroke="#fff" stroke-miterlimit="50" stroke-width="2" d="M3219.28 719.4v-6.5c0-.65.38-.9-.28-.9s-1.12.25-1.12.9v7.02c0 .32.14.63.37.86l4.05 3.82a1.19 1.19 0 0 0 1.69-.03c.46-.48-.51-1.11-.99-1.57z" clip-path="url(&quot;#a&quot;)" transform="translate(-3209 -708)"/><path fill="none" stroke="#fff" stroke-miterlimit="50" stroke-width="2" d="M3220 708a11.01 11.01 0 0 0 0 22 11.01 11.01 0 0 0 0-22z" clip-path="url(&quot;#b&quot;)" transform="translate(-3209 -708)"/></svg>