<svg xmlns="http://www.w3.org/2000/svg" width="33" height="33" viewBox="0 0 33 33"><defs><clipPath id="a"><path fill="#fff" d="M1247.5 4676a16.5 16.5 0 1 1 0 33 16.5 16.5 0 0 1 0-33z"/></clipPath><clipPath id="b"><path fill="#fff" d="M1241.99 4687.83l.84-.84 4.67 4.67 4.67-4.67.84.84-4.67 4.67 4.67 4.67-.84.84-4.67-4.67-4.67 4.67-.84-.84 4.67-4.67z"/></clipPath></defs><path fill="none" stroke="#fff" stroke-miterlimit="50" stroke-width="2" d="M1247.5 4676a16.5 16.5 0 1 1 0 33 16.5 16.5 0 0 1 0-33z" clip-path="url(&quot;#a&quot;)" transform="translate(-1231 -4676)"/><path fill="none" stroke="#fff" stroke-miterlimit="50" stroke-width="2" d="M1241.99 4687.83l.84-.84 4.67 4.67 4.67-4.67.84.84-4.67 4.67 4.67 4.67-.84.84-4.67-4.67-4.67 4.67-.84-.84 4.67-4.67z" clip-path="url(&quot;#b&quot;)" transform="translate(-1231 -4676)"/></svg>