<svg xmlns="http://www.w3.org/2000/svg" width="25" height="26" viewBox="0 0 25 26">
  <path fill="#fff" d="M3246,1163h-24l12-7Zm-20.15-1.06h15.95L3234,1157ZM3234,1165v8m0,0h-1v-8l1.07-.04Zm-6.57-8.04v7.89M3228,1173h-1v-8h1v8Zm12-4h-1v-4h1v4Zm-5,7h-10v-1h10v1Zm5.54,5.99a6.612,6.612,0,1,1,6.47-6.61A6.542,6.542,0,0,1,3240.54,1181.99Zm0-12.32a5.711,5.711,0,1,0,5.59,5.71A5.65,5.65,0,0,0,3240.54,1169.67Zm0.47,5.8,1.88-1.9-0.5-.5-1.88,1.9-1.96-1.98-0.53.54,1.96,1.98-1.89,1.9,0.5,0.5,1.89-1.9,1.97,1.99,0.53-.53Z" transform="translate(-3222 -1156)"/>
</svg>
