<?xml version="1.0" encoding="utf-8"?>
<!-- Generator: Adobe Illustrator 16.0.0, SVG Export Plug-In . SVG Version: 6.00 Build 0)  -->
<!DOCTYPE svg PUBLIC "-//W3C//DTD SVG 1.1//EN" "http://www.w3.org/Graphics/SVG/1.1/DTD/svg11.dtd">
<svg version="1.1" id="Layer_1" xmlns="http://www.w3.org/2000/svg" xmlns:xlink="http://www.w3.org/1999/xlink" x="0px" y="0px"
	 width="31px" height="31px" viewBox="0 0 31 31" enable-background="new 0 0 31 31" xml:space="preserve">
<g opacity="0.85">
	<defs>
		<path id="SVGID_1_" opacity="0.85" d="M23.553,30.597c-0.15,0-0.302,0-0.462-0.02c-1.863-0.121-3.726-0.663-6.041-1.772
			c-4.097-2.002-7.671-4.801-10.62-8.313c-2.195-2.541-3.932-5.441-5.134-8.575C0.639,10.319,0.34,8.598,0.42,6.874
			c0.054-1.205,0.581-2.338,1.469-3.152l2.316-2.305c1.349-1.35,3.201-1.359,4.6-0.01c0.433,0.401,0.856,0.835,1.269,1.248
			l0.624,0.634l1.823,1.821c1.399,1.46,1.399,3.262,0.01,4.701l-1.177,1.167l-0.997,0.967c0.402,0.895,0.977,1.782,1.863,2.869
			c1.573,1.997,3.472,3.72,5.617,5.092l0.039,0.021c0.253,0.182,0.555,0.332,0.877,0.494l0.262,0.129l2.164-2.163
			c0.602-0.638,1.438-1.007,2.313-1.018c0.846,0,1.643,0.354,2.317,1.018l3.734,3.745c1.399,1.397,1.399,3.271,0,4.67l-0.736,0.725
			c-0.481,0.474-0.945,0.926-1.387,1.399C26.445,30.033,25.026,30.646,23.553,30.597z"/>
	</defs>
	<clipPath id="SVGID_2_">
		<use xlink:href="#SVGID_1_"  overflow="visible"/>
	</clipPath>
	<path clip-path="url(#SVGID_2_)" fill="none" stroke="#99B6E4" stroke-width="2.0132" stroke-miterlimit="50" d="M23.553,30.597
		c-0.15,0-0.302,0-0.462-0.02c-1.863-0.121-3.726-0.663-6.041-1.772c-4.097-2.002-7.671-4.801-10.62-8.313
		c-2.195-2.541-3.932-5.441-5.134-8.575C0.639,10.319,0.34,8.598,0.42,6.874c0.054-1.205,0.581-2.338,1.469-3.152l2.316-2.305
		c1.349-1.35,3.201-1.359,4.6-0.01c0.433,0.401,0.856,0.835,1.269,1.248l0.624,0.634l1.823,1.821c1.399,1.46,1.399,3.262,0.01,4.701
		l-1.177,1.167l-0.997,0.967c0.402,0.895,0.977,1.782,1.863,2.869c1.573,1.997,3.472,3.72,5.617,5.092l0.039,0.021
		c0.253,0.182,0.555,0.332,0.877,0.494l0.262,0.129l2.164-2.163c0.602-0.638,1.438-1.007,2.313-1.018
		c0.846,0,1.643,0.354,2.317,1.018l3.734,3.745c1.399,1.397,1.399,3.271,0,4.67l-0.736,0.725c-0.481,0.474-0.945,0.926-1.387,1.399
		C26.445,30.033,25.026,30.646,23.553,30.597z"/>
</g>
</svg>
