<svg xmlns="http://www.w3.org/2000/svg" width="91" height="91" viewBox="0 0 91 91"><defs><clipPath id="a"><path fill="#fff" d="M782.99 1290c-.46 0-.9-.02-1.38-.05-5.53-.38-11.08-2-17.99-5.29a96.38 96.38 0 0 1-31.65-24.78c-7.05-8.42-12.19-17.02-15.3-25.57-1.55-4.26-3.07-9.38-2.6-15.03a13.54 13.54 0 0 1 4.38-9.37l6.88-6.88c4.02-4.03 9.54-4.05 13.73-.04 1.29 1.2 2.55 2.49 3.77 3.73.6.63 1.22 1.25 1.85 1.88l5.44 5.45c4.17 4.35 4.17 9.7.04 14-1.2 1.2-2.37 2.34-3.53 3.47-.99.95-1.97 1.9-2.96 2.89 1.18 2.65 2.91 5.32 5.54 8.54 5.5 6.69 10.82 11.51 16.74 15.18l.13.08c.74.52 1.65.98 2.61 1.46l.79.4 6.45-6.45a9.66 9.66 0 0 1 6.88-3.04c2.52 0 4.9 1.05 6.89 3.04l11.15 11.15c4.16 4.16 4.16 9.76 0 13.92-.73.73-1.46 1.45-2.2 2.16-1.44 1.42-2.81 2.76-4.13 4.17-2.88 3.29-6.77 4.98-11.54 4.98z"/></clipPath></defs><path fill="none" stroke="#c2f6ff" stroke-miterlimit="50" stroke-width="6" d="M782.99 1290c-.46 0-.9-.02-1.38-.05-5.53-.38-11.08-2-17.99-5.29a96.38 96.38 0 0 1-31.65-24.78c-7.05-8.42-12.19-17.02-15.3-25.57-1.55-4.26-3.07-9.38-2.6-15.03a13.54 13.54 0 0 1 4.38-9.37l6.88-6.88c4.02-4.03 9.54-4.05 13.73-.04 1.29 1.2 2.55 2.49 3.77 3.73.6.63 1.22 1.25 1.85 1.88l5.44 5.45c4.17 4.35 4.17 9.7.04 14-1.2 1.2-2.37 2.34-3.53 3.47-.99.95-1.97 1.9-2.96 2.89 1.18 2.65 2.91 5.32 5.54 8.54 5.5 6.69 10.82 11.51 16.74 15.18l.13.08c.74.52 1.65.98 2.61 1.46l.79.4 6.45-6.45a9.66 9.66 0 0 1 6.88-3.04c2.52 0 4.9 1.05 6.89 3.04l11.15 11.15c4.16 4.16 4.16 9.76 0 13.92-.73.73-1.46 1.45-2.2 2.16-1.44 1.42-2.81 2.76-4.13 4.17-2.88 3.29-6.77 4.98-11.54 4.98z" clip-path="url(&quot;#a&quot;)" transform="translate(-713 -1199)"/></svg>