<svg xmlns="http://www.w3.org/2000/svg" width="61" height="61" viewBox="0 0 61 61"><defs><clipPath id="a"><path fill="#fff" d="M521.99 860l-.91-.03c-3.7-.26-7.4-1.34-12-3.53a64.26 64.26 0 0 1-21.1-16.52c-4.7-5.62-8.13-11.35-10.2-17.05-1.03-2.84-2.05-6.25-1.74-10.02a9.03 9.03 0 0 1 2.93-6.25l4.58-4.58c2.69-2.69 6.37-2.7 9.16-.03.85.8 1.7 1.66 2.5 2.49l1.24 1.26 3.63 3.62c2.78 2.9 2.78 6.47.03 9.34-.8.8-1.58 1.56-2.36 2.31l-1.97 1.93a25.14 25.14 0 0 0 3.7 5.69c3.66 4.46 7.21 7.68 11.15 10.12l.09.06c.5.34 1.1.65 1.74.97l.53.26 4.3-4.3a6.44 6.44 0 0 1 4.58-2.02c1.68 0 3.27.7 4.6 2.03l7.43 7.43c2.78 2.78 2.78 6.5 0 9.28a163 163 0 0 1-1.46 1.44c-.97.95-1.88 1.84-2.76 2.78A9.79 9.79 0 0 1 522 860z"/></clipPath></defs><path fill="none" stroke="#c2f6ff" stroke-miterlimit="50" stroke-width="4" d="M521.99 860l-.91-.03c-3.7-.26-7.4-1.34-12-3.53a64.26 64.26 0 0 1-21.1-16.52c-4.7-5.62-8.13-11.35-10.2-17.05-1.03-2.84-2.05-6.25-1.74-10.02a9.03 9.03 0 0 1 2.93-6.25l4.58-4.58c2.69-2.69 6.37-2.7 9.16-.03.85.8 1.7 1.66 2.5 2.49l1.24 1.26 3.63 3.62c2.78 2.9 2.78 6.47.03 9.34-.8.8-1.58 1.56-2.36 2.31l-1.97 1.93a25.14 25.14 0 0 0 3.7 5.69c3.66 4.46 7.21 7.68 11.15 10.12l.09.06c.5.34 1.1.65 1.74.97l.53.26 4.3-4.3a6.44 6.44 0 0 1 4.58-2.02c1.68 0 3.27.7 4.6 2.03l7.43 7.43c2.78 2.78 2.78 6.5 0 9.28a163 163 0 0 1-1.46 1.44c-.97.95-1.88 1.84-2.76 2.78A9.79 9.79 0 0 1 522 860z" clip-path="url(&quot;#a&quot;)" transform="translate(-475 -799)"/></svg>