<?xml version="1.0" encoding="utf-8"?>
<!-- Generator: Adobe Illustrator 16.0.0, SVG Export Plug-In . SVG Version: 6.00 Build 0)  -->
<!DOCTYPE svg PUBLIC "-//W3C//DTD SVG 1.1//EN" "http://www.w3.org/Graphics/SVG/1.1/DTD/svg11.dtd">
<svg version="1.1" id="Layer_1" xmlns="http://www.w3.org/2000/svg" xmlns:xlink="http://www.w3.org/1999/xlink" x="0px" y="0px"
	 width="30px" height="29px" viewBox="0 0 30 29" enable-background="new 0 0 30 29" xml:space="preserve">
<g>
	<defs>
		<path id="SVGID_1_" d="M14.97,0c8.04,0,14.55,6.46,14.55,14.43s-6.51,14.43-14.55,14.43c-8.002,0.033-14.517-6.427-14.55-14.43v0
			C0.42,6.46,6.94,0,14.97,0z"/>
	</defs>
	<clipPath id="SVGID_2_">
		<use xlink:href="#SVGID_1_"  overflow="visible"/>
	</clipPath>
	<path clip-path="url(#SVGID_2_)" fill="none" stroke="#99B6E4" stroke-width="2" stroke-miterlimit="50" d="M14.97,0
		c8.04,0,14.55,6.46,14.55,14.43s-6.51,14.43-14.55,14.43c-8.002,0.033-14.517-6.427-14.55-14.43v0C0.42,6.46,6.94,0,14.97,0z"/>
</g>
<path fill="none" stroke="#99B6E4" stroke-miterlimit="50" d="M20.43,18.721c-1.338,1.398-3.193,2.188-5.13,2.18
	c-3.78,0-6.85-2.9-6.85-6.47c0-3.57,3.07-6.47,6.85-6.47c2.08,0,3.95,0.88,5.21,2.27"/>
</svg>
