<?xml version="1.0" encoding="utf-8"?>
<!-- Generator: Adobe Illustrator 16.0.0, SVG Export Plug-In . SVG Version: 6.00 Build 0)  -->
<!DOCTYPE svg PUBLIC "-//W3C//DTD SVG 1.1//EN" "http://www.w3.org/Graphics/SVG/1.1/DTD/svg11.dtd">
<svg version="1.1" id="Layer_1" xmlns="http://www.w3.org/2000/svg" xmlns:xlink="http://www.w3.org/1999/xlink" x="0px" y="0px"
	 width="41px" height="38px" viewBox="0 0 41 38" enable-background="new 0 0 41 38" xml:space="preserve">
<g opacity="0.85">
	<g>
		<path fill="#99B6E4" d="M9.296,13.931C4.173,13.931,0,18.25,0,23.552c0,5.3,4.173,9.618,9.296,9.618s9.295-4.318,9.295-9.618
			C18.591,18.25,14.419,13.931,9.296,13.931L9.296,13.931z M9.296,32.126c-4.572,0-8.286-3.849-8.286-8.574
			c0-4.727,3.714-8.576,8.286-8.576s8.287,3.849,8.287,8.576C17.583,28.277,13.868,32.126,9.296,32.126L9.296,32.126z M9.296,32.126
			"/>
		<path fill="#99B6E4" d="M8.287,20.308c0.453-0.313,1.004-0.469,1.608-0.469s1.106,0.106,1.507,0.312
			c0.398,0.207,0.852,0.519,1.306,1.039l1.106-1.458c-0.956-1.196-2.208-1.821-3.87-1.821c-1.106,0-2.111,0.364-2.964,1.039
			c-0.853,0.677-1.457,1.61-1.809,2.754H3.563v1.303h1.355v0.569c0,0.257,0,0.519,0.049,0.781H3.559v1.353h1.658
			c0.351,1.038,0.955,1.922,1.759,2.548c0.853,0.624,1.809,0.933,2.861,0.933c1.555,0,2.812-0.571,3.768-1.822l-1.106-1.352
			c-0.453,0.471-0.854,0.832-1.258,1.039c-0.351,0.207-0.852,0.312-1.408,0.312c-1.106,0-1.96-0.569-2.511-1.663h3.568v-1.353H6.922
			c-0.049-0.207-0.049-0.469-0.049-0.727v-0.569h4.017v-1.353H7.224C7.434,21.085,7.784,20.621,8.287,20.308L8.287,20.308z
			 M8.287,20.308"/>
	</g>
	<g>
		<g>
			<path fill="#99B6E4" d="M31.706,3.555c-5.124,0-9.296,4.318-9.296,9.619s4.172,9.619,9.296,9.619
				c5.122,0,9.294-4.318,9.294-9.619S36.828,3.555,31.706,3.555L31.706,3.555z M31.706,21.749c-4.571,0-8.287-3.851-8.287-8.575
				c0-4.727,3.716-8.574,8.287-8.574c4.572,0,8.286,3.848,8.286,8.574C39.992,17.898,36.278,21.749,31.706,21.749L31.706,21.749z
				 M31.706,21.749"/>
		</g>
		<path fill="#99B6E4" d="M34.225,16.754c-0.385,0.484-0.881,0.809-1.466,0.972c-0.255,0.074-0.367,0.209-0.355,0.484
			c0.013,0.27,0,0.538,0,0.807c0,0.238-0.118,0.367-0.349,0.373c-0.147,0.009-0.295,0.009-0.443,0.009c-0.129,0-0.26,0-0.391-0.009
			c-0.241-0.006-0.359-0.147-0.359-0.397c0-0.196-0.007-0.394-0.007-0.587c-0.005-0.436-0.017-0.454-0.419-0.514
			c-0.515-0.086-1.023-0.208-1.49-0.441c-0.372-0.183-0.408-0.281-0.302-0.683c0.078-0.301,0.16-0.601,0.248-0.894
			c0.065-0.221,0.125-0.312,0.237-0.312c0.064,0,0.147,0.03,0.26,0.091c0.521,0.283,1.075,0.44,1.656,0.514
			c0.1,0.012,0.193,0.02,0.295,0.02c0.271,0,0.538-0.052,0.793-0.167c0.644-0.294,0.744-1.07,0.199-1.535
			c-0.183-0.161-0.395-0.276-0.613-0.372c-0.568-0.259-1.159-0.454-1.691-0.792c-0.869-0.537-1.417-1.278-1.354-2.368
			c0.072-1.235,0.751-2.006,1.846-2.415c0.449-0.172,0.455-0.165,0.455-0.655V7.39c0.012-0.367,0.071-0.434,0.426-0.441h0.414
			c0.674,0,0.674,0.029,0.674,0.783c0,0.55,0,0.557,0.53,0.643c0.409,0.067,0.8,0.188,1.171,0.361
			c0.207,0.091,0.285,0.244,0.227,0.47c-0.097,0.336-0.184,0.679-0.29,1.008C34.058,10.416,34,10.51,33.882,10.51
			c-0.064,0-0.142-0.032-0.249-0.082c-0.52-0.262-1.062-0.384-1.636-0.384c-0.071,0-0.15,0-0.227,0.005
			c-0.171,0.012-0.337,0.032-0.495,0.105c-0.562,0.257-0.656,0.9-0.179,1.296c0.243,0.202,0.521,0.349,0.811,0.47
			c0.496,0.214,0.999,0.416,1.473,0.692C34.882,13.463,35.288,15.421,34.225,16.754L34.225,16.754z"/>
	</g>
	<path fill="#99B6E4" d="M4.232,9.004l1.122,2.233c0.073,0.142,0.18,0.263,0.31,0.347c0.064,0.042,0.134,0.076,0.208,0.101
		c0.224,0.074,0.465,0.051,0.673-0.061l2.157-1.162c0.432-0.234,0.601-0.785,0.375-1.232C8.854,8.785,8.32,8.61,7.887,8.844
		L7.658,8.967c1.145-2.85,3.294-5.07,6.052-6.253c2.762-1.184,5.804-1.184,8.566,0c0.45,0.193,0.966-0.026,1.152-0.492
		c0.187-0.467-0.026-1-0.478-1.193c-3.197-1.371-6.72-1.371-9.916,0C9.836,2.399,7.346,4.978,6.021,8.285
		C5.997,8.346,5.976,8.408,5.952,8.47L5.797,8.162C5.573,7.715,5.04,7.54,4.607,7.773C4.177,8.007,4.007,8.557,4.232,9.004z"/>
	<path fill="#99B6E4" d="M34.721,28.996l-1.122-2.233c-0.074-0.144-0.18-0.263-0.31-0.348c-0.064-0.042-0.135-0.075-0.208-0.101
		c-0.224-0.074-0.466-0.051-0.673,0.061l-2.157,1.162c-0.432,0.234-0.601,0.785-0.375,1.231c0.224,0.447,0.757,0.622,1.19,0.389
		l0.229-0.124c-1.146,2.85-3.294,5.07-6.052,6.254c-2.762,1.183-5.804,1.183-8.566,0c-0.45-0.193-0.966,0.025-1.152,0.492
		s0.026,1,0.478,1.193c3.197,1.37,6.72,1.37,9.916,0c3.199-1.372,5.689-3.949,7.014-7.257c0.024-0.062,0.046-0.123,0.069-0.185
		l0.155,0.308c0.224,0.446,0.757,0.622,1.189,0.388C34.776,29.993,34.945,29.444,34.721,28.996z"/>
</g>
</svg>
