<svg xmlns="http://www.w3.org/2000/svg" xmlns:xlink="http://www.w3.org/1999/xlink" width="37" height="33" viewBox="0 0 37 33"><defs><path id="d00ea" d="M3254.44 203h-32.88c-.31 0-.57-.2-.57-.43v-2.15c0-.23.26-.43.57-.43h32.88c.31 0 .57.2.57.43v2.15c0 .24-.26.43-.57.43z"/><path id="d00eb" d="M3228.4 200.98h-5.8c-.32 0-.59-.28-.59-.62v-1.04c0-.8.85-1.25 2-1.44v-9.72c-1.15-.2-2-1.7-2-2.48v-1.04c0-.35.27-.63.59-.63h5.8c.33 0 .6.28.6.63v1.04c0 .79-.69 2.28-2 2.48v9.72c1.31.19 2 .65 2 1.44v1.04c0 .34-.27.62-.6.62z"/><path id="d00ec" d="M3236.4 200.98h-5.8c-.32 0-.59-.28-.59-.62v-1.04c0-.8.85-1.25 2-1.44v-9.72c-1.15-.2-2-1.7-2-2.48v-1.04c0-.35.27-.63.59-.63h5.8c.33 0 .6.28.6.63v1.04c0 .79-.69 2.28-2 2.48v9.72c1.31.19 2 .65 2 1.44v1.04c0 .34-.27.62-.6.62z"/><path id="d00ed" d="M3244.4 200.98h-5.8c-.32 0-.59-.28-.59-.62v-1.04c0-.8.85-1.25 2-1.44v-9.72c-1.15-.2-2-1.7-2-2.48v-1.04c0-.35.27-.63.59-.63h5.8c.33 0 .6.28.6.63v1.04c0 .79-.69 2.28-2 2.48v9.72c1.31.19 2 .65 2 1.44v1.04c0 .34-.27.62-.6.62z"/><path id="d00ee" d="M3252.4 200.98h-5.8c-.32 0-.59-.28-.59-.62v-1.04c0-.8.85-1.25 2-1.44v-9.72c-1.15-.2-2-1.7-2-2.48v-1.04c0-.35.27-.63.6-.63h5.8c.32 0 .58.28.58.63v1.04c0 .79-.68 2.28-1.99 2.48v9.72c1.31.19 2 .65 2 1.44v1.04c0 .34-.27.62-.6.62z"/><path id="d00ef" d="M3254.44 185h-32.88c-.31 0-.57-.19-.57-.42v-2.15c0-.24.26-.43.57-.43h32.88c.31 0 .57.2.57.43v2.15c0 .23-.26.43-.57.43z"/><path id="d00eg" d="M3237.5 180a2.5 2.5 0 0 1-2.51-2.5 2.5 2.5 0 0 1 5.02 0 2.5 2.5 0 0 1-2.51 2.5z"/><path id="d00eh" d="M3254.68 183h-34.4c-.58 0-1.07-.37-1.24-.9-.16-.55.06-1.11.55-1.42l17.08-10.45a1.57 1.57 0 0 1 1.63 0l17.07 10.43c.5.3.72.87.56 1.42-.16.54-.66.91-1.25.91z"/><clipPath id="d00ei"><use fill="#fff" xlink:href="#d00ea"/></clipPath><clipPath id="d00ej"><use fill="#fff" xlink:href="#d00eb"/></clipPath><clipPath id="d00ek"><use fill="#fff" xlink:href="#d00ec"/></clipPath><clipPath id="d00el"><use fill="#fff" xlink:href="#d00ed"/></clipPath><clipPath id="d00em"><use fill="#fff" xlink:href="#d00ee"/></clipPath><clipPath id="d00en"><use fill="#fff" xlink:href="#d00ef"/></clipPath><clipPath id="d00eo"><use fill="#fff" xlink:href="#d00eg"/></clipPath><clipPath id="d00ep"><use fill="#fff" xlink:href="#d00eh"/></clipPath></defs><g><g transform="translate(-3219 -170)"><g><use fill="#fff" fill-opacity="0" stroke="#c2f6ff" stroke-miterlimit="50" stroke-width="2" clip-path="url(&quot;#d00ei&quot;)" xlink:href="#d00ea"/></g><g><use fill="#fff" fill-opacity="0" stroke="#c2f6ff" stroke-miterlimit="50" stroke-width="2" clip-path="url(&quot;#d00ej&quot;)" xlink:href="#d00eb"/></g><g><use fill="#fff" fill-opacity="0" stroke="#c2f6ff" stroke-miterlimit="50" stroke-width="2" clip-path="url(&quot;#d00ek&quot;)" xlink:href="#d00ec"/></g><g><use fill="#fff" fill-opacity="0" stroke="#c2f6ff" stroke-miterlimit="50" stroke-width="2" clip-path="url(&quot;#d00el&quot;)" xlink:href="#d00ed"/></g><g><use fill="#fff" fill-opacity="0" stroke="#c2f6ff" stroke-miterlimit="50" stroke-width="2" clip-path="url(&quot;#d00em&quot;)" xlink:href="#d00ee"/></g><g><use fill="#fff" fill-opacity="0" stroke="#c2f6ff" stroke-miterlimit="50" stroke-width="2" clip-path="url(&quot;#d00en&quot;)" xlink:href="#d00ef"/></g><g><use fill="#fff" fill-opacity="0" stroke="#c2f6ff" stroke-miterlimit="50" stroke-width="2" clip-path="url(&quot;#d00eo&quot;)" xlink:href="#d00eg"/></g><g><use fill="#fff" fill-opacity="0" stroke="#c2f6ff" stroke-miterlimit="50" stroke-width="2" clip-path="url(&quot;#d00ep&quot;)" xlink:href="#d00eh"/></g></g></g></svg>