<?xml version="1.0" encoding="utf-8"?>
<!-- Generator: Adobe Illustrator 16.0.0, SVG Export Plug-In . SVG Version: 6.00 Build 0)  -->
<!DOCTYPE svg PUBLIC "-//W3C//DTD SVG 1.1//EN" "http://www.w3.org/Graphics/SVG/1.1/DTD/svg11.dtd">
<svg version="1.1" id="Layer_1" xmlns="http://www.w3.org/2000/svg" xmlns:xlink="http://www.w3.org/1999/xlink" x="0px" y="0px"
	 width="39px" height="30px" viewBox="-10.5 -3 39 30" enable-background="new -10.5 -3 39 30" xml:space="preserve">
<g>
	<path fill-rule="evenodd" clip-rule="evenodd" fill="#FFFFFF" d="M-9.916,17.041c0.007-0.25,0.146-0.369,0.329-0.325
		c0.032,0.008,0.083,0.053,0.079,0.07c-0.008,0.036-0.044,0.089-0.074,0.093c-0.092,0.013-0.158,0.027-0.166,0.143
		c-0.003,0.044-0.062,0.084-0.097,0.125C-9.875,17.1-9.907,17.053-9.916,17.041z"/>
	<path fill-rule="evenodd" clip-rule="evenodd" fill="#FFFFFF" d="M14.967,17.016c-0.104-0.118-0.206-0.237-0.309-0.356
		c0.024-0.021,0.049-0.043,0.073-0.065c0.104,0.118,0.209,0.235,0.314,0.353C15.02,16.97,14.993,16.993,14.967,17.016z"/>
	<path fill-rule="evenodd" clip-rule="evenodd" fill="#ffffff" d="M12.107,14.043c-0.593-0.423-1.26-0.512-1.966-0.416
		c-0.063,0.009-0.154-0.018-0.2-0.062c-0.248-0.232-0.488-0.475-0.729-0.716c-0.061-0.061-0.07-0.113-0.037-0.216
		c0.131-0.42,0.275-0.844,0.33-1.278c0.089-0.694-0.041-1.373-0.324-2.014C9.125,9.216,9.166,9.158,9.24,9.084
		c0.201-0.201,0.414-0.393,0.602-0.605c0.127-0.144,0.262-0.182,0.441-0.147c0.403,0.078,0.799,0.035,1.185-0.1
		c0.974-0.34,1.542-1.041,1.708-2.038c0.118-0.711-0.066-1.378-0.522-1.952c-0.661-0.832-1.735-1.167-2.734-0.859
		c-0.813,0.25-1.376,0.795-1.671,1.595C8.094,5.4,8.072,5.845,8.154,6.287c0.021,0.117,0.008,0.191-0.072,0.27
		C7.84,6.793,7.596,7.03,7.361,7.274C7.295,7.343,7.248,7.346,7.16,7.316C6.846,7.21,6.531,7.095,6.207,7.027
		c-0.816-0.17-1.605-0.054-2.363,0.284C3.76,7.349,3.711,7.348,3.643,7.277C3.408,7.032,3.168,6.79,2.921,6.557
		C2.836,6.476,2.817,6.398,2.837,6.288c0.098-0.545,0.041-1.07-0.202-1.574C1.998,3.39,0.375,2.874-0.914,3.605
		c-1.339,0.76-1.7,2.51-0.78,3.747C-1.287,7.9-0.738,8.249-0.049,8.325c0.294,0.033,0.596-0.006,0.893,0.001
		c0.08,0.002,0.177,0.033,0.233,0.086c0.229,0.211,0.438,0.444,0.666,0.654c0.113,0.104,0.118,0.188,0.063,0.326
		c-0.104,0.266-0.213,0.537-0.261,0.815c-0.142,0.831-0.071,1.644,0.275,2.425c0.024,0.056,0.005,0.167-0.038,0.213
		c-0.23,0.248-0.473,0.486-0.717,0.722c-0.042,0.041-0.112,0.072-0.169,0.072c-0.131-0.001-0.262-0.029-0.393-0.038
		c-0.562-0.04-1.079,0.095-1.551,0.398c-1.091,0.703-1.453,2.12-0.891,3.269c0.547,1.115,1.859,1.698,3.069,1.292
		c1.25-0.419,1.94-1.622,1.708-2.907c-0.013-0.07,0.026-0.174,0.077-0.229c0.225-0.244,0.461-0.477,0.694-0.714
		c0.078-0.079,0.152-0.118,0.266-0.048c0.094,0.06,0.205,0.097,0.312,0.131c1.008,0.323,2,0.287,2.973-0.145
		c0.047-0.021,0.137-0.014,0.172,0.02c0.264,0.252,0.521,0.511,0.773,0.774c0.039,0.04,0.061,0.115,0.057,0.172
		C8.15,15.786,8.121,15.957,8.1,16.128c0,0.451,0.121,0.865,0.336,1.254c0.631,1.141,2.084,1.652,3.297,1.059
		c0.979-0.479,1.48-1.289,1.46-2.39C13.177,15.201,12.795,14.533,12.107,14.043z M8.865,6.937C9.041,6.768,9.102,6.595,9.02,6.344
		c-0.373-1.135,0.512-2.25,1.619-2.239c0.775,0.007,1.416,0.449,1.66,1.203c0.3,0.923-0.252,1.917-1.175,2.169
		c-0.362,0.099-0.708,0.075-1.058-0.033C9.891,7.39,9.739,7.42,9.606,7.554C9.33,7.831,9.049,8.102,8.775,8.382
		c-0.08,0.082-0.131,0.08-0.205,0C8.393,8.19,8.207,8.005,7.996,7.787C8.283,7.504,8.572,7.218,8.865,6.937z M1.516,7.667
		c-0.21-0.244-0.44-0.28-0.735-0.193c-0.66,0.192-1.24,0.009-1.696-0.482c-0.438-0.473-0.588-1.041-0.382-1.676
		c0.218-0.671,0.684-1.081,1.364-1.19C0.789,4.01,1.39,4.277,1.792,4.897c0.282,0.434,0.368,0.914,0.192,1.422
		c-0.08,0.23-0.059,0.437,0.144,0.616c0.306,0.27,0.594,0.559,0.899,0.848C2.793,8.017,2.595,8.213,2.399,8.41
		C2.313,8.497,2.261,8.424,2.208,8.37C1.975,8.138,1.73,7.916,1.516,7.667z M2.348,14.807c-0.008,0.009-0.02,0.014-0.028,0.021
		c-0.31,0.256-0.421,0.527-0.306,0.963c0.239,0.902-0.362,1.826-1.28,2.021c-0.634,0.136-1.221-0.017-1.662-0.521
		c-0.42-0.479-0.559-1.028-0.371-1.663c0.23-0.774,1.016-1.302,1.85-1.204c0.118,0.014,0.235,0.045,0.349,0.08
		c0.21,0.064,0.383,0.023,0.537-0.138c0.257-0.268,0.524-0.525,0.784-0.79c0.078-0.078,0.127-0.097,0.209,0.008
		c0.16,0.205,0.341,0.395,0.528,0.607C2.78,14.371,2.564,14.589,2.348,14.807z M5.496,14.17c-1.74,0.033-3.204-1.42-3.203-3.191
		c0.001-1.776,1.462-3.209,3.22-3.202c1.703,0.007,3.195,1.389,3.188,3.2C8.691,12.752,7.281,14.192,5.496,14.17z M11.029,17.812
		c-0.955,0.206-1.74-0.306-2.029-1.195c-0.109-0.336-0.104-0.688,0.023-1.021c0.084-0.225,0.025-0.391-0.135-0.547
		c-0.268-0.265-0.533-0.531-0.799-0.799c-0.031-0.032-0.059-0.07-0.08-0.098c0.201-0.208,0.395-0.403,0.582-0.602
		c0.072-0.076,0.117-0.04,0.176,0.02c0.266,0.271,0.539,0.533,0.803,0.806c0.151,0.156,0.319,0.188,0.521,0.128
		c0.718-0.21,1.353-0.068,1.854,0.496C12.812,15.977,12.331,17.532,11.029,17.812z"/>
	<path fill-rule="evenodd" clip-rule="evenodd" fill="#ffffff" d="M19.929,22.549c0.085,0.08,0.128,0.121,0.172,0.162
		c-0.085,0.085-0.171,0.17-0.256,0.254c-0.037-0.046-0.114-0.11-0.104-0.136C19.781,22.738,19.851,22.66,19.929,22.549z"/>
	<path fill-rule="evenodd" clip-rule="evenodd" fill="#ffffff" d="M15.356,16.502c-0.063,0.057-0.132,0.13-0.215,0.178
		c-0.015,0.009-0.119-0.085-0.136-0.145c-0.053-0.188,0.174-0.091,0.222-0.212C15.267,16.377,15.3,16.424,15.356,16.502z"/>
	<path fill-rule="evenodd" clip-rule="evenodd" fill="#ffffff" d="M5.518,9.04c-1.096-0.012-1.955,0.856-1.957,1.943
		c-0.002,1.088,0.906,1.96,1.949,1.929c1.035,0.011,1.932-0.804,1.932-1.93C7.443,9.872,6.592,9.051,5.518,9.04z M5.508,12.103
		c-0.613,0.003-1.127-0.512-1.125-1.129C4.385,10.363,4.891,9.856,5.5,9.856c0.607,0,1.111,0.506,1.111,1.118
		C6.613,11.587,6.111,12.099,5.508,12.103z"/>
	<path fill-rule="evenodd" clip-rule="evenodd" fill="#ffffff" d="M17.646,24.593c-0.444-0.373-0.335-0.412-0.335-0.412
		l-0.391-0.111l-0.239,0.121l-0.141,0.211l-0.239,0.711c0.024,0,0.734,0,0.734,0s0.114,0.092,0.114,0.139s-0.065,0.113-0.084,0.148
		s-0.154,0.109-0.154,0.109l-0.153,0.365c0,0,0.274,0.221,0.331,0.221c0.056,0,0.365-0.139,0.365-0.139l0.192-0.203l0.159-0.104
		c0,0,0.268-0.123,0.272-0.137c0.004-0.014,0.242-0.463,0.242-0.463S18.09,24.968,17.646,24.593z"/>
	<path fill-rule="evenodd" clip-rule="evenodd" fill="#ffffff" d="M27.909,21.889c-0.003-0.356-0.167-0.654-0.388-0.922
		c-0.431-0.521-1.012-0.823-1.626-1.058c-0.179-0.067-0.22-0.146-0.22-0.319c0.005-2.562-0.007-5.124,0.01-7.686
		c0.004-0.714-0.298-1.236-0.839-1.651c-0.764-0.584-1.657-0.869-2.582-1.034c-0.646-0.115-1.309-0.134-1.965-0.188
		C20.05,9.01,20.049,9.02,20.049,8.76c0-1.731,0-3.462-0.001-5.193c0,0,0,0,0-0.001V1.661c0-0.003,0-0.006,0-0.009
		c0.002-0.907,0.006-1.814-0.005-2.721c-0.012-1.047-0.885-1.769-1.79-1.768C12.919-2.833,7.585-2.835,2.251-2.832
		c-0.006,0-0.012,0.001-0.017,0.002h-0.45c-0.023-0.008-0.05-0.016-0.078-0.025C1.71-2.846,1.714-2.839,1.718-2.83H1.212
		c-0.003,0-0.005,0-0.008,0c-2.542-0.005-5.085-0.006-7.627-0.003c-0.357,0-0.682,0.122-0.969,0.331
		c-0.514,0.375-0.754,0.899-0.761,1.524C-8.163,0-8.159,0.979-8.151,1.957c0.001,0.169-0.042,0.244-0.215,0.298
		c-1.082,0.335-1.718,1.328-1.51,2.495c0.149,0.841,0.679,1.418,1.509,1.674c0.176,0.054,0.215,0.13,0.215,0.298
		c-0.005,2.844-0.003,5.688-0.003,8.532c0,0.042,0.013,0.091-0.003,0.125c-0.027,0.055-0.064,0.121-0.114,0.146
		c-0.198,0.095-0.417,0.153-0.603,0.265c-1.057,0.633-1.316,1.975-0.739,2.959c0.328,0.561,0.825,0.89,1.46,1.05
		c0,0.075,0,0.146,0,0.217c0,1.17-0.013,2.341,0.005,3.51c0.011,0.73,0.354,1.287,1.002,1.637c0.074,0.039,0.197,0.031,0.281,0
		c0.114-0.041,0.163-0.037,0.22,0.082c0.047,0.1,0.064,0.236,0.216,0.264c0.226,0.043,0.32,0.215,0.225,0.428
		c-0.044,0.1-0.028,0.158,0.04,0.236c0.312,0.363,0.7,0.59,1.172,0.66c0.935,0.141,1.792-0.365,2.106-1.258
		c0.064-0.182,0.133-0.236,0.321-0.236c5.682,0.006,11.364,0.004,17.045,0.004c0.077,0,0.154,0,0.224,0
		c0.045,0.115,0.081,0.209,0.119,0.303c0.277,0.684,0.788,1.088,1.51,1.189c0.715,0.1,1.323-0.139,1.772-0.711
		c0.123-0.154,0.188-0.184,0.378-0.092c1.062,0.508,2.203,0.707,3.368,0.762c1.221,0.059,2.427-0.053,3.603-0.416
		c0.632-0.197,1.231-0.453,1.741-0.881c0.394-0.33,0.705-0.725,0.715-1.268C27.921,23.449,27.914,22.669,27.909,21.889z
		 M-8.168,5.601c-0.455-0.068-0.905-0.649-0.926-1.186c-0.023-0.617,0.387-1.22,0.926-1.343C-8.168,3.917-8.168,4.758-8.168,5.601z
		 M-8.168,18.936c-0.441-0.18-0.733-0.466-0.863-0.908c-0.01-0.033-0.002-0.076-0.019-0.104c-0.211-0.349,0.032-0.638,0.141-0.931
		c0.111-0.3,0.433-0.532,0.742-0.616C-8.168,17.23-8.168,18.07-8.168,18.936z M25.637,20.875c0.027-0.092,0.049-0.173,0.165-0.118
		c0.432,0.202,0.861,0.411,1.141,0.822c0.233,0.344,0.211,0.625-0.061,0.944c-0.281,0.332-0.647,0.545-1.038,0.713
		c-0.729,0.313-1.492,0.509-2.285,0.552c-0.651,0.035-1.308,0.078-1.956,0.037c-0.538-0.031-1.071-0.156-1.606-0.25
		c-0.169-0.033-0.327-0.066-0.426-0.09c-0.065-0.018-0.136-0.036-0.205-0.056c0.007-0.006,0.013-0.012,0.02-0.017
		c-0.143-0.065-0.256-0.116-0.369-0.168c0.003-0.013,0.007-0.024,0.011-0.036c0.055,0.004,0.109,0.009,0.176,0.014l0.001-0.002
		c0.081,0.004,0.206,0.011,0.358,0.019c0.008,0.002,0.017,0.002,0.025,0.001c0.114,0.007,0.242,0.014,0.379,0.021
		c0.013,0.006,0.024,0.012,0.038,0.019c-0.001-0.006-0.001-0.011-0.003-0.017c0.101,0.005,0.204,0.011,0.311,0.016
		c0.272,0.015,0.715-0.032,1.131-0.091c0.334-0.041,0.665-0.094,0.992-0.16c0.051-0.01,0.08-0.016,0.08-0.016l0.001-0.002
		c0.545-0.117,1.078-0.28,1.59-0.529c0.552-0.27,1.059-0.601,1.365-1.159C25.546,21.184,25.591,21.026,25.637,20.875z
		 M25.057,20.219c0.003-0.017,0.005,0.002-0.001,0.004c-0.179,0.089-0.195,0.245-0.213,0.425c-0.033,0.343-0.276,0.565-0.533,0.753
		c-0.477,0.347-1.013,0.562-1.578,0.709c-0.082,0.022-0.166,0.042-0.25,0.061c-0.074,0.018-0.147,0.032-0.216,0.062
		c-0.14,0.029-0.301,0.06-0.482,0.087c-0.122,0.013-0.239,0.025-0.355,0.038c-0.146,0.016-0.295,0.031-0.451,0.049
		c-0.216,0.014-0.413,0.02-0.59,0.021c-0.117-0.007-0.234-0.013-0.352-0.018c-0.459-0.018-0.919-0.031-1.374-0.086
		c-0.874-0.105-1.722-0.33-2.478-0.811c-0.159-0.102-0.31-0.225-0.44-0.361c-0.178-0.185-0.291-0.404-0.267-0.679
		c0.015-0.17,0.003-0.342,0.003-0.528c0.256,0.144,0.482,0.281,0.72,0.401c0.54,0.273,1.116,0.443,1.708,0.567
		c1.076,0.225,2.161,0.27,3.254,0.176l0.144-0.005c0.07-0.001,0.142-0.003,0.21-0.016c0.164-0.014,0.402-0.039,0.638-0.081
		c0.016-0.003,0.031-0.005,0.047-0.009c0.095-0.018,0.188-0.038,0.274-0.062c0.103-0.027,0.234-0.068,0.381-0.115
		c0.015-0.005,0.033-0.012,0.05-0.018c0.126,0.017,0.253-0.066,0.387-0.104c-0.006-0.013-0.011-0.025-0.016-0.039
		c0.068-0.027,0.139-0.058,0.212-0.088c0.028,0.02,0.09,0.027,0.123,0.016c0.178-0.065,0.35-0.142,0.562-0.23
		c-0.018-0.022-0.034-0.043-0.052-0.065c0.207-0.094,0.389-0.179,0.51-0.235c0.035-0.008,0.073-0.021,0.117-0.045
		c0.02-0.011,0.036-0.026,0.038-0.028C24.878,20.051,24.961,20.129,25.057,20.219z M15.476,15.396
		c0.206,0.121,0.386,0.228,0.566,0.334c0.113,0.066,0.923,0.405,1.164,0.474c1.281,0.361,2.587,0.454,3.913,0.354
		c0.677-0.051,1.342-0.164,1.99-0.353c0.548-0.158,1.079-0.37,1.554-0.701c0.047-0.033,0.099-0.058,0.178-0.104
		c0.023,0.441,0.089,0.854-0.242,1.201c-0.372,0.391-0.838,0.624-1.333,0.802c-1.065,0.385-2.175,0.51-3.3,0.491
		c-1.003-0.017-1.994-0.146-2.936-0.506c-0.407-0.155-0.784-0.39-1.146-0.573c-0.058-0.037-0.127-0.191-0.244-0.321
		C15.386,16.162,15.508,15.788,15.476,15.396z M24.052,19.351l-0.676,0.322l-0.003,0.001c-0.517,0.144-1.026,0.32-1.552,0.41
		c-0.984,0.168-1.977,0.184-2.972,0.047c-0.655-0.089-1.297-0.215-1.91-0.456c-0.483-0.19-0.949-0.417-1.279-0.846
		c-0.12-0.157-0.193-0.325-0.183-0.528c0.009-0.185,0.002-0.37,0.002-0.587c0.151,0.091,0.28,0.169,0.41,0.246
		c0.714,0.423,1.497,0.642,2.305,0.79c0.842,0.156,1.69,0.202,2.542,0.16c0.808-0.039,1.606-0.155,2.385-0.39
		c0.6-0.181,1.173-0.421,1.702-0.806C24.921,18.449,24.887,18.838,24.052,19.351z M24.612,14.371
		c-0.334,0.365-0.755,0.605-1.212,0.759c-0.501,0.169-1.016,0.31-1.535,0.407c-0.798,0.149-1.606,0.184-2.418,0.12
		c-0.676-0.052-1.343-0.147-1.993-0.342c-0.533-0.159-1.046-0.365-1.488-0.713c-0.315-0.247-0.537-0.541-0.489-0.975
		c0.016-0.14,0.003-0.282,0.003-0.445c0.225,0.13,0.42,0.251,0.623,0.358c0.66,0.349,1.372,0.541,2.104,0.674
		c0.823,0.15,1.654,0.202,2.488,0.16c1.177-0.059,2.327-0.258,3.405-0.762c0.246-0.114,0.474-0.27,0.709-0.406
		C24.958,13.469,24.851,14.109,24.612,14.371z M14.657,17.161c0,0.211-0.007,0.833-0.004,0.916c0.033,1.044-0.083,2.094,0.089,3.159
		c-0.077,0-0.165,0-0.254,0c-4.913,0-9.827,0.001-14.741,0c-0.143,0-1.483,0.01-2.087,0.014c-0.032-0.008-0.064-0.014-0.099-0.014
		h-0.243c-0.003,0-0.007,0.001-0.01,0.001c-0.345-0.001-0.689,0-1.034-0.001c-0.295,0-0.295,0-0.295-0.289
		c0-2.579-0.001-5.159,0-7.739v-0.001v-0.722c0.004-0.026,0.006-0.054,0.002-0.086c-0.001-0.008-0.001-0.017-0.002-0.025v-0.076
		c0-0.021-0.002-0.041-0.007-0.06c0-0.09,0.006-0.18,0.006-0.27c0-3.054,0-6.108,0-9.162c0-0.444,0.007-0.888-0.003-1.332
		c-0.004-0.163,0.056-0.215,0.209-0.201c0.113,0.011,0.228,0.008,0.341,0.014c0.038,0.002,0.072,0.001,0.1-0.007h0.418
		C-2.938,1.283-2.919,1.286-2.9,1.286c0.348-0.001,0.696-0.011,1.043-0.011C1.6,1.278,5.056,1.284,8.511,1.283
		c0.007,0,0.014-0.002,0.021-0.002h0.737c0.013,0.002,0.025,0.003,0.037,0.004c0.222,0.003,0.443-0.009,0.665-0.009
		c1.908-0.001,3.816,0.001,5.724-0.004c0.18,0,0.231,0.045,0.23,0.23c-0.007,2.664-0.01,5.328,0.003,7.992
		c0.002,0.322-0.035,0.57-0.365,0.696c-0.048,0.018-0.085,0.064-0.126,0.099c-0.452,0.367-0.779,0.81-0.781,1.419
		C14.649,13.524,14.649,15.343,14.657,17.161z M20.009,9.843c1.168,0.001,2.162,0.127,3.123,0.449
		c0.542,0.182,1.062,0.417,1.464,0.851c0.337,0.364,0.344,0.741,0.011,1.114c-0.307,0.341-0.7,0.552-1.116,0.722
		c-1.103,0.453-2.263,0.587-3.442,0.58c-0.895-0.005-1.779-0.109-2.638-0.373c-0.548-0.168-1.079-0.381-1.518-0.767
		c-0.111-0.098-0.219-0.209-0.296-0.334c-0.204-0.329-0.152-0.633,0.147-0.956c0.328-0.354,0.747-0.568,1.188-0.738
		C17.971,9.989,19.058,9.853,20.009,9.843z M-4.673,26.04c-0.411,0.01-0.937-0.305-1-0.684c0.046-0.01,1.369-0.02,1.938-0.02
		C-3.736,25.683-4.259,26.032-4.673,26.04z M-4.459,24.53c-0.053,0-0.101,0.004-0.145,0.016c-0.411,0-0.821,0-1.232,0
		c-0.054-0.012-0.113-0.014-0.179-0.01c-0.801,0.062-1.312-0.34-1.308-1.242c0.022-5.916,0.012-11.832,0.012-17.748
		c0-2.172-0.001-4.344,0.003-6.516c0-0.146,0.013-0.306,0.069-0.438c0.189-0.438,0.548-0.619,1.015-0.619
		C1.887-2.025,9.999-2.022,18.11-2.03c0.608,0,1.135,0.413,1.12,1.117c-0.019,0.853-0.011,1.706-0.007,2.559
		c-0.001,0.005-0.002,0.01-0.002,0.016v1.252c-0.018,0.35,0,0.907,0,1.019c0.004,1.632,0.003,3.264,0.003,4.896
		c0,0.245-0.005,0.229-0.248,0.267c-0.519,0.08-1.035,0.174-1.55,0.275c-0.218,0.043-0.429,0.118-0.664,0.184
		c0-0.108,0-0.179,0-0.25c0-2.754,0-5.508,0-8.262c0-0.447-0.14-0.586-0.59-0.586c-6.581,0-13.163,0-19.745,0
		c-0.282,0-0.564-0.004-0.846,0.003c-0.079,0.002-0.164,0.029-0.234,0.067c-0.205,0.111-0.189,0.312-0.189,0.505
		c0,6.582,0,13.164,0,19.746c0,0.275,0.006,0.552,0,0.828c-0.007,0.297,0.222,0.459,0.46,0.45c0.278-0.009,0.986-0.015,1.601-0.019
		c0.032,0.008,0.065,0.014,0.1,0.014h0.01c0.066,0,0.132,0,0.198,0c0.011,0,0.023,0,0.034,0c2.473,0,6.258,0,8.719,0
		c3.018,0,6.035,0,9.054,0.003c0.085,0,0.177,0.021,0.253,0.058c0.395,0.192,0.782,0.398,1.178,0.589
		c0.096,0.047,0.132,0.095,0.13,0.201c-0.006,0.396-0.005,0.791,0,1.188c0.001,0.141,0.022,0.281,0.036,0.443
		c-0.103,0-0.181,0-0.258,0C9.629,24.532,2.585,24.534-4.459,24.53z M17.795,26.007c-0.048,0.072-0.153,0.109-0.238,0.152
		c-0.119,0.057-0.182,0.012-0.185-0.129c0.096-0.055,0.19-0.088,0.258-0.152c0.046-0.043,0.054-0.127,0.079-0.191
		c-0.071-0.01-0.147-0.043-0.21-0.025c-0.077,0.021-0.145,0.082-0.211,0.131c-0.56,0.418-1.292,0.279-1.639-0.311
		c-0.018-0.031-0.027-0.066-0.049-0.125c0.099-0.004,0.185-0.014,0.271-0.014c0.312-0.002,0.623,0.004,0.936-0.006
		c0.063-0.002,0.129-0.053,0.187-0.094c0.082-0.059,0.15-0.137,0.235-0.188c0.114-0.068,0.193-0.035,0.207,0.117
		c-0.068,0.039-0.138,0.078-0.232,0.131c0.165,0.045,0.309,0.061,0.428,0.121c0.107,0.057,0.236,0.148,0.268,0.25
		C17.929,25.769,17.859,25.911,17.795,26.007z M26.771,24.763c-0.367,0.359-0.821,0.572-1.294,0.74
		c-1.015,0.363-2.071,0.48-3.141,0.477c-0.913-0.006-1.816-0.109-2.692-0.377c-0.295-0.09-0.58-0.215-0.871-0.326
		c-0.141,0.156-0.146,0.152-0.283-0.012c-0.127-0.15-0.261-0.297-0.392-0.445c-0.081-0.092-0.165-0.076-0.251-0.006
		c-0.094,0.078-0.062,0.152,0.003,0.232c0.135,0.168,0.269,0.338,0.396,0.512c0.019,0.027-0.002,0.082-0.004,0.123
		c-0.046-0.004-0.114,0.012-0.134-0.014c-0.298-0.367-0.589-0.738-0.897-1.131c0.271-0.164,0.271,0.166,0.427,0.191
		c0.064-0.055,0.136-0.115,0.219-0.186c-0.205-0.322-0.087-0.68-0.131-1.059c0.216,0.127,0.395,0.246,0.584,0.338h0.001
		c0,0,0.027,0.016,0.073,0.039c0.069,0.043,0.139,0.102,0.221,0.111c0.253,0.127,0.614,0.297,0.854,0.365
		c0.095,0.027,0.261,0.037,0.46,0.035c-0.002,0.012-0.004,0.021-0.007,0.033c1.218,0.295,2.454,0.352,3.692,0.223
		c1.207-0.125,2.38-0.398,3.406-1.102c0.014-0.01,0.031-0.016,0.047-0.023C27.226,23.849,27.087,24.454,26.771,24.763z"/>
</g>
</svg>
