 <!--<?xml version="1.0" encoding="iso-8859-1"?>-->

 <svg version="1.1" id="Capa_1" xmlns="http://www.w3.org/2000/svg"
	 viewBox="0 0 53.61 53.61" xml:space="preserve">
<path fill="none" stroke="#ccc" stroke-width="2" stroke-miterlimit="10" stroke-linecap="round" d="M31.406,18.422L14.037,35.792
	c-1.82,1.82-1.82,4.797,0,6.617l0,0c1.82,1.82,4.797,1.82,6.617,0l25.64-25.64c3.412-3.412,2.998-8.581-0.414-11.993l0,0
	c-3.412-3.412-8.581-3.825-11.993-0.414L6.593,31.656c-4.549,4.549-4.549,11.993,0,16.542l0,0c4.549,4.549,11.993,4.549,16.542,0
	l27.295-27.295"/>

    <path transform="translate(-1187 -1185)" fill="#fd6969" fill-opacity="1" stroke="#fd6969" stroke-miterlimit="50" stroke-width="3"
          d="M1219.4 1215.8l1.4-1.4 9.2 9.19 9.2-9.2 1.4 1.42-9.19 9.19 9.2 9.2-1.42 1.4-9.19-9.19-9.2 9.2-1.4-1.42 9.19-9.19z"/>

</svg>
