<?xml version="1.0" encoding="utf-8"?>
<!-- Generator: Adobe Illustrator 16.0.0, SVG Export Plug-In . SVG Version: 6.00 Build 0)  -->
<!DOCTYPE svg PUBLIC "-//W3C//DTD SVG 1.1//EN" "http://www.w3.org/Graphics/SVG/1.1/DTD/svg11.dtd">
<svg version="1.1" id="Layer_1" xmlns="http://www.w3.org/2000/svg" xmlns:xlink="http://www.w3.org/1999/xlink" x="0px" y="0px"
	 width="27px" height="28px" viewBox="0 0 27 28" enable-background="new 0 0 27 28" xml:space="preserve">
<desc>Generated with Avocode.</desc>
<g>
	<g transform="translate(-1211 -1403)">
		<g>
			<defs>
				<circle id="SVGID_1_" cx="1224.5" cy="1417" r="12"/>
			</defs>
			<clipPath id="SVGID_2_">
				<use xlink:href="#SVGID_1_"  overflow="visible"/>
			</clipPath>
			<g clip-path="url(#SVGID_2_)">
				<path id="a" fill="#FFFFFF" fill-opacity="0" stroke="#99B6E4" stroke-width="2" stroke-miterlimit="50" d="M1224.5,1405
					c6.627,0,12,5.373,12,12c0,6.627-5.373,12-12,12c-6.627,0-12-5.373-12-12C1212.5,1410.373,1217.873,1405,1224.5,1405z"/>
			</g>
		</g>
	</g>
	<g transform="translate(-1211 -1403)">
		<g>
			<path id="c" fill="#99B6E4" d="M1223.78,1413.85h1.451v10.14h-1.451V1413.85z M1224.52,1410.01c0.29,0,0.531,0.1,0.71,0.271
				c0.199,0.17,0.289,0.39,0.289,0.64c0,0.26-0.1,0.48-0.299,0.66c-0.189,0.178-0.441,0.274-0.701,0.27c-0.3,0-0.53-0.09-0.73-0.27
				c-0.192-0.165-0.302-0.406-0.3-0.66c0-0.25,0.1-0.47,0.3-0.64C1223.99,1410.1,1224.23,1410.01,1224.52,1410.01z"/>
		</g>
	</g>
</g>
</svg>
