<svg id="Layer_1" data-name="Layer 1" xmlns="http://www.w3.org/2000/svg" viewBox="0 0 26 28"><defs><style>.cls-1{fill:#9ab5de;}</style></defs><title>MB</title><path class="cls-1" d="M24,5.83H2.27A1.57,1.57,0,0,0,.7,7.4V22.2a1.57,1.57,0,0,0,1.57,1.57H24a1.57,1.57,0,0,0,1.57-1.57V7.4A1.57,1.57,0,0,0,24,5.83Zm.55,16.37a.55.55,0,0,1-.55.55H2.27a.55.55,0,0,1-.55-.55V14.79H24.52Zm0-8.44H1.73V10.56H24.52Zm0-4.23H1.73V7.4a.55.55,0,0,1,.55-.55H24a.55.55,0,0,1,.55.55Z"/><path class="cls-1" d="M19.11,21.19l.11-.11.11.11a2.06,2.06,0,0,0,2.64.24,2.13,2.13,0,0,0,.9-1.72,2.09,2.09,0,0,0-2.08-2.08,1.44,1.44,0,0,0-.31,0h0a2.07,2.07,0,0,0-1.11.58l-.11.11-.11-.11A2.09,2.09,0,1,0,19,21.29Zm1.55-2.53h.12a1.08,1.08,0,0,1,.77.31,1.06,1.06,0,0,1,.1,1.39l-.07.1a1.06,1.06,0,1,1-.92-1.78Zm-3,2.13a1.07,1.07,0,1,1,1.07-1.07A1.07,1.07,0,0,1,17.65,20.78Z"/><path class="cls-1" d="M12.13,16.18H10.37a.41.41,0,1,0,0,.82h1.76a.41.41,0,0,0,0-.82Z"/><path class="cls-1" d="M8.67,16.18H6.91a.41.41,0,0,0,0,.82H8.67a.41.41,0,1,0,0-.82Z"/><path class="cls-1" d="M5.26,16.18H3.5a.41.41,0,0,0,0,.82H5.26a.41.41,0,1,0,0-.82Z"/></svg>