<?xml version="1.0" encoding="utf-8"?>
<!-- Generator: Adobe Illustrator 16.0.0, SVG Export Plug-In . SVG Version: 6.00 Build 0)  -->
<!DOCTYPE svg PUBLIC "-//W3C//DTD SVG 1.1//EN" "http://www.w3.org/Graphics/SVG/1.1/DTD/svg11.dtd">
<svg version="1.1" id="icon_new_payments" xmlns="http://www.w3.org/2000/svg" xmlns:xlink="http://www.w3.org/1999/xlink" x="0px"
	 y="0px" width="18px" height="27px" viewBox="1 0 18 27" enable-background="new 1 0 18 27" xml:space="preserve">
<g>
	<polyline fill="none" stroke="#99B6E4" stroke-width="0.5846" stroke-miterlimit="10" points="4.387,14.08 4.387,9.447 
		10.664,9.447 	"/>
	<polyline fill="none" stroke="#99B6E4" stroke-width="0.5846" stroke-miterlimit="10" points="9.174,18.53 9.174,19.343 
		17.95,19.343 17.95,13.386 	"/>
	<polygon fill="#99B6E4" points="9.938,20.154 9.938,19.343 17.95,19.343 17.95,13.386 18.517,13.041 18.517,20.154 	"/>
	<g>
		<g>
			<g>
				<path fill="#99B6E4" stroke="#99B6E4" stroke-width="0.26" stroke-miterlimit="10" d="M10.825,7.838v-3.22
					c0-0.27,0.039-0.549,0.117-0.83c0.177-0.642,0.271-1.071,0.298-1.646c0.01-0.205,0.002-0.417-0.022-0.632
					c-0.029-0.256,0.104-0.499,0.337-0.626C11.872,0.709,12.451,0.5,13.403,0.5c0.999,0,1.557,0.249,1.85,0.458
					c0.174,0.124,0.274,0.31,0.274,0.511c0.021,0.256,0.04,0.383,0.08,0.517c0.023,0.08,0.043,0.148,0.061,0.208
					c0.084,0.303,0.104,0.375,0.46,0.861c0.199,0.274,0.325,0.701,0.446,1.115c0.092,0.309,0.177,0.601,0.28,0.775l1.302,1.527
					c0.131,0.158,0.198,0.332,0.189,0.507c-0.008,0.206-0.113,0.395-0.314,0.561c-0.298,0.246-0.661,0.225-0.998-0.059L15.785,6.29
					v4.365c0,0.194-0.075,0.378-0.214,0.517c-0.14,0.14-0.324,0.215-0.518,0.215c-0.396,0-0.718-0.311-0.731-0.706V9.185
					c-0.122,0.093-0.275,0.148-0.44,0.148c-0.336,0-0.619-0.228-0.705-0.536c-0.127,0.106-0.291,0.17-0.469,0.17
					c-0.194,0-0.378-0.075-0.517-0.213c-0.092-0.093-0.155-0.203-0.188-0.323c-0.117,0.089-0.267,0.135-0.438,0.135
					C11.137,8.565,10.825,8.26,10.825,7.838z M11.535,1.967c0,0.063-0.002,0.127-0.005,0.189c-0.027,0.601-0.125,1.047-0.308,1.709
					c-0.071,0.257-0.106,0.51-0.106,0.753v3.22c0,0.266,0.176,0.438,0.449,0.438c0.135,0,0.238-0.041,0.309-0.12
					c0.067-0.076,0.103-0.187,0.103-0.317V7.146c0-0.08,0.065-0.146,0.145-0.146c0.081,0,0.146,0.065,0.146,0.146v1.09
					c0,0.117,0.047,0.229,0.13,0.312c0.083,0.083,0.194,0.128,0.312,0.128c0.243,0,0.441-0.197,0.441-0.44v-1.09
					c0-0.08,0.064-0.146,0.145-0.146s0.146,0.065,0.146,0.146l0.001,1.455c0,0.243,0.198,0.441,0.441,0.441s0.44-0.198,0.44-0.441
					V7.146V7.146c0-0.038,0.015-0.075,0.042-0.103S14.429,7,14.467,7c0.081,0,0.146,0.065,0.146,0.146v3.53
					c0.008,0.233,0.201,0.42,0.44,0.42c0.117,0,0.228-0.046,0.312-0.129c0.082-0.083,0.128-0.194,0.128-0.312V5.95
					c0-0.059,0.035-0.11,0.089-0.134s0.115-0.012,0.157,0.028l1.486,1.42c0.338,0.284,0.55,0.109,0.619,0.052
					c0.135-0.111,0.205-0.229,0.21-0.349c0.001-0.124-0.063-0.238-0.122-0.309l-1.309-1.534c-0.005-0.006-0.01-0.013-0.014-0.019
					c-0.125-0.206-0.218-0.521-0.315-0.854c-0.115-0.39-0.233-0.792-0.403-1.026c-0.371-0.509-0.408-0.61-0.505-0.954
					c-0.017-0.059-0.035-0.124-0.059-0.203c-0.047-0.156-0.069-0.298-0.092-0.585c-0.001-0.004-0.001-0.008-0.001-0.012
					c0-0.108-0.056-0.208-0.152-0.276c-0.212-0.151-0.711-0.405-1.681-0.405c-0.89,0-1.421,0.19-1.709,0.35
					c-0.132,0.071-0.205,0.198-0.188,0.332C11.525,1.641,11.535,1.806,11.535,1.967z"/>
			</g>
		</g>
	</g>
	<g>
		<path fill="#99B6E4" stroke="#99B6E4" stroke-width="0.26" stroke-miterlimit="10" d="M6.422,16.008v3.441l0.252-0.495
			c0.002-0.004,0.005-0.009,0.008-0.013c0.221-0.341,0.662-0.892,1.131-0.741c0.272,0.087,0.396,0.249,0.452,0.37
			c0.086,0.184,0.081,0.419-0.013,0.643L7.44,21.084c-0.032,0.129-0.051,0.355-0.072,0.615c-0.059,0.716-0.14,1.697-0.586,2.184
			c-0.46,0.482-0.529,1.128-0.571,1.513c-0.004,0.041-0.008,0.078-0.013,0.112c-0.002,0.203-0.101,0.39-0.272,0.515
			c-0.291,0.216-0.848,0.474-1.848,0.478c-0.008,0-0.016,0-0.023,0c-0.938,0-1.512-0.211-1.829-0.389
			c-0.231-0.129-0.365-0.376-0.338-0.63c0-0.003,0.002-0.011,0.002-0.014c0.023-0.213,0.03-0.432,0.019-0.642
			c-0.028-0.589-0.124-1.031-0.304-1.688c-0.078-0.288-0.119-0.574-0.12-0.85l-0.001-4.651c0-0.405,0.319-0.735,0.713-0.735
			c0.161,0,0.31,0.054,0.431,0.145v-1.217c0-0.405,0.323-0.734,0.72-0.734c0.169,0,0.326,0.058,0.449,0.154
			c0.055-0.35,0.358-0.618,0.723-0.618c0.403,0,0.731,0.327,0.731,0.731v0.05c0.122-0.093,0.272-0.147,0.438-0.148
			c0.191-0.002,0.38,0.076,0.52,0.218C6.207,15.481,6.422,15.667,6.422,16.008z M2.196,17.192c-0.236,0-0.422,0.195-0.422,0.444
			l0.001,4.65c0.001,0.25,0.038,0.511,0.11,0.774c0.185,0.678,0.283,1.135,0.313,1.75c0.012,0.226,0.004,0.459-0.021,0.695
			c0,0.002-0.002,0.011-0.002,0.013c-0.014,0.132,0.06,0.264,0.191,0.338c0.287,0.16,0.812,0.352,1.688,0.352
			c0.007,0,0.015,0,0.022,0c0.97-0.004,1.467-0.265,1.677-0.421c0.099-0.072,0.154-0.176,0.154-0.286c0-0.006,0-0.015,0.001-0.021
			c0.004-0.035,0.008-0.074,0.013-0.117c0.046-0.422,0.122-1.128,0.647-1.68c0.377-0.411,0.453-1.335,0.509-2.009
			C7.103,21.383,7.122,21.152,7.161,21c0.002-0.007,0.004-0.015,0.008-0.021L7.984,19.1c0.062-0.147,0.068-0.297,0.017-0.407
			c-0.046-0.099-0.139-0.171-0.276-0.215C7.483,18.4,7.156,18.744,6.93,19.093l-0.547,1.075c-0.021,0.04-0.252-0.148-0.252-0.148
			v-4.012c0-0.121-0.047-0.236-0.132-0.323c-0.083-0.084-0.193-0.13-0.31-0.13c0,0,0,0-0.001,0c-0.238,0-0.431,0.193-0.438,0.439
			v4.059c0,0.08-0.065,0.146-0.146,0.146s-0.146-0.065-0.146-0.146v-4.69c0-0.243-0.197-0.44-0.44-0.44s-0.44,0.197-0.44,0.44v4.69
			c0,0.08-0.064,0.146-0.146,0.146c-0.08,0-0.146-0.065-0.146-0.146v-4.227c0-0.243-0.197-0.441-0.44-0.441
			c-0.24,0-0.43,0.195-0.43,0.444v1.749c0.002,0.019,0.002,0.036,0.002,0.055v2.42c0,0.08-0.064,0.146-0.145,0.146l0,0
			c-0.081,0-0.146-0.065-0.146-0.145l-0.002-2.463C2.605,17.368,2.421,17.192,2.196,17.192z"/>
	</g>
	<path fill="#99B6E4" d="M10.724,12.087c0-0.112-0.092-0.205-0.205-0.205H5.513c-0.113,0-0.205,0.093-0.205,0.205l0,0
		c0,0.113,0.092,0.205,0.205,0.205h5.006C10.632,12.292,10.724,12.2,10.724,12.087L10.724,12.087z"/>
	<path fill="#99B6E4" d="M10.5,14.481c0,0.1,0.081,0.181,0.18,0.181h3.726c0.101,0,0.181-0.081,0.181-0.181l0,0
		c0-0.1-0.08-0.181-0.181-0.181H10.68C10.581,14.301,10.5,14.382,10.5,14.481L10.5,14.481z"/>
	<path fill="#99B6E4" d="M6.741,14.481c0,0.1,0.081,0.181,0.181,0.181h2.445c0.1,0,0.181-0.081,0.181-0.181l0,0
		c0-0.1-0.081-0.181-0.181-0.181H6.922C6.822,14.301,6.741,14.382,6.741,14.481L6.741,14.481z"/>
	<path fill="#99B6E4" d="M9.343,13.386c0,0.118-0.096,0.214-0.214,0.214H6.955c-0.118,0-0.214-0.096-0.214-0.214l0,0
		c0-0.118,0.096-0.213,0.214-0.213h2.174C9.247,13.173,9.343,13.268,9.343,13.386L9.343,13.386z"/>
	<path fill="#99B6E4" d="M12.666,13.386c0-0.118-0.096-0.213-0.213-0.213h-2.38c-0.118,0-0.214,0.095-0.214,0.213l0,0
		c0,0.118,0.096,0.214,0.214,0.214h2.38C12.57,13.6,12.666,13.504,12.666,13.386L12.666,13.386z"/>
	<path fill="#99B6E4" d="M14.586,13.386c0,0.118-0.096,0.214-0.213,0.214h-0.838c-0.117,0-0.213-0.096-0.213-0.214l0,0
		c0-0.118,0.096-0.213,0.213-0.213h0.838C14.49,13.173,14.586,13.268,14.586,13.386L14.586,13.386z"/>
	<path fill="#99B6E4" d="M10.5,15.575c0,0.1,0.081,0.18,0.18,0.18h3.726c0.101,0,0.181-0.08,0.181-0.18l0,0
		c0-0.101-0.08-0.181-0.181-0.181H10.68C10.581,15.395,10.5,15.475,10.5,15.575L10.5,15.575z"/>
	<path fill="#99B6E4" d="M6.741,15.575c0,0.1,0.081,0.18,0.181,0.18h2.445c0.1,0,0.181-0.08,0.181-0.18l0,0
		c0-0.101-0.081-0.181-0.181-0.181H6.922C6.822,15.395,6.741,15.475,6.741,15.575L6.741,15.575z"/>
	<path fill="#99B6E4" d="M13.77,18.152c0,0.118-0.096,0.214-0.214,0.214h-2.174c-0.118,0-0.214-0.096-0.214-0.214l0,0
		c0-0.118,0.096-0.213,0.214-0.213h2.174C13.674,17.939,13.77,18.034,13.77,18.152L13.77,18.152z"/>
	<path fill="#99B6E4" d="M17.093,18.152c0-0.118-0.096-0.213-0.213-0.213H14.5c-0.118,0-0.214,0.095-0.214,0.213l0,0
		c0,0.118,0.096,0.214,0.214,0.214h2.38C16.997,18.366,17.093,18.271,17.093,18.152L17.093,18.152z"/>
	<path fill="#99B6E4" d="M11.105,12.096c0,0.117,0.096,0.213,0.213,0.213h2.38c0.117,0,0.213-0.096,0.213-0.213l0,0
		c0-0.118-0.096-0.214-0.213-0.214h-2.38C11.201,11.882,11.105,11.978,11.105,12.096L11.105,12.096z"/>
	<path fill="#99B6E4" d="M14.308,12.096c0,0.117,0.096,0.213,0.214,0.213H16.9c0.118,0,0.214-0.096,0.214-0.213l0,0
		c0-0.118-0.096-0.214-0.214-0.214h-2.379C14.403,11.882,14.308,11.978,14.308,12.096L14.308,12.096z"/>
</g>
</svg>
