<?xml version="1.0" encoding="utf-8"?>
<!-- Generator: Adobe Illustrator 16.0.0, SVG Export Plug-In . SVG Version: 6.00 Build 0)  -->
<!DOCTYPE svg PUBLIC "-//W3C//DTD SVG 1.1//EN" "http://www.w3.org/Graphics/SVG/1.1/DTD/svg11.dtd">
<svg version="1.1" id="Layer_1" xmlns="http://www.w3.org/2000/svg" xmlns:xlink="http://www.w3.org/1999/xlink" x="0px" y="0px"
	 width="29px" height="28px" viewBox="0 0 29 28" enable-background="new 0 0 29 28" xml:space="preserve">
<path fill="#99B6E4" d="M15,1c7.18,0,13,5.82,13,13s-5.82,13-13,13S2,21.18,2,14S7.82,1,15,1z"/>
<path fill="#0048BB" d="M16.439,5.424c0.197-0.068,0.413-0.056,0.601,0.036l4.8,2.436h0.012c0.336,0.168,0.444,0.54,0.24,0.84
	l-7.008,11.496c-0.078,0.109-0.187,0.192-0.312,0.24l-4.308,1.68c-0.065,0.024-0.134,0.041-0.204,0.048
	c-0.384,0.036-0.72-0.204-0.756-0.54L9,17.544c-0.015-0.126,0.015-0.253,0.084-0.36l7.021-11.496
	C16.176,5.568,16.296,5.472,16.439,5.424L16.439,5.424z M16.08,8.136l3.6,1.824l0.864-1.308l-3.601-1.824L16.08,8.136z
	 M15.396,9.192l-4.992,8.424l0.36,3.084l3.24-1.261l4.98-8.411L15.396,9.192z"/>
</svg>
