<svg xmlns="http://www.w3.org/2000/svg" xmlns:xlink="http://www.w3.org/1999/xlink" width="25" height="25" viewBox="0 0 25 25">
    <defs>
        <path id="c"
              d="M1621.2 2405.02a.65.65 0 0 1 .51.03l4 2.03c.28.14.37.45.21.69l-5.85 9.59a.52.52 0 0 1-.26.2l-3.59 1.4-.17.04c-.32.03-.6-.17-.63-.45l-.43-3.42a.48.48 0 0 1 .08-.31l5.85-9.58c.06-.1.16-.18.28-.22zm-.3 2.26l3.01 1.52.71-1.09-2.99-1.53zm-.57.88l-4.16 7.02.31 2.57 2.68-1.05 4.16-7.01z"/>
        <clipPath id="b">
            <use fill="#000000" xlink:href="#a"/>
        </clipPath>
    </defs>
    <g opacity=".21" transform="translate(-1608 -2400)">
        <use fill="#000000" fill-opacity="0" stroke="#000000" stroke-miterlimit="50" stroke-width="2"
             clip-path="url(&quot;#b&quot;)" xlink:href="#a"/>
    </g>
    <g opacity=".7" transform="translate(-1608 -2400)">
        <use fill="#000000" xlink:href="#c"/>
    </g>
</svg>
