<svg id="Layer_1" data-name="Layer 1" xmlns="http://www.w3.org/2000/svg" viewBox="0 0 26 28"><defs><style>.cls-1{fill:#9ab5de;}</style></defs><title>MB</title><path class="cls-1" d="M2.1,24.29H12.83l0,0a7.41,7.41,0,1,0-.17-9.78l-.11.13-.09-.14A5.24,5.24,0,0,0,11,13l-.15-.1.15-.1A5.27,5.27,0,0,0,13.3,8.46V5.68h.11a1.6,1.6,0,0,0,1.44-1.58v-1a1.59,1.59,0,0,0-1.59-1.59H2.1A1.59,1.59,0,0,0,.51,3.1v1A1.6,1.6,0,0,0,2,5.67h.11V8.46A5.27,5.27,0,0,0,4.35,12.8l.15.1-.15.1a5.27,5.27,0,0,0-2.29,4.34v2.78H2A1.6,1.6,0,0,0,.51,21.71v1A1.59,1.59,0,0,0,2.1,24.29Zm10.11-5.54a6.16,6.16,0,1,1,1.57,4.73A6.2,6.2,0,0,1,12.21,18.74ZM1.77,4.09v-1a.33.33,0,0,1,.33-.33H13.26a.33.33,0,0,1,.33.33v1a.33.33,0,0,1-.33.33H2.1A.33.33,0,0,1,1.77,4.09ZM3.32,17.34a4,4,0,0,1,2-3.45,1.15,1.15,0,0,0,0-2,4,4,0,0,1-2-3.45V5.67H12V8.46a4,4,0,0,1-2,3.45,1.15,1.15,0,0,0,0,2,4,4,0,0,1,1.69,2l0,.05,0,0A7.36,7.36,0,0,0,11,20v.13H3.32ZM1.77,21.71a.33.33,0,0,1,.33-.33h9.11l0,.09a7.34,7.34,0,0,0,.57,1.39l.1.18H2.1a.33.33,0,0,1-.33-.33Z"/><path class="cls-1" d="M7.15,8a.75.75,0,1,0-.75.75A.75.75,0,0,0,7.15,8Z"/><circle class="cls-1" cx="9.38" cy="9.04" r="0.75"/><path class="cls-1" d="M8.43,14.65a.75.75,0,1,0-.75.75A.75.75,0,0,0,8.43,14.65Z"/><path class="cls-1" d="M8.59,16.91a.75.75,0,1,0,.75.75A.75.75,0,0,0,8.59,16.91Z"/><path class="cls-1" d="M5.83,16.77a.75.75,0,1,0,.75.75A.75.75,0,0,0,5.83,16.77Z"/><path class="cls-1" d="M14.44,19h1.13a.3.3,0,0,1,0,.61H14.44v1.1H16a.31.31,0,1,1,0,.62H14.1a.35.35,0,0,1-.35-.35V17.67a.35.35,0,0,1,.35-.35H16a.31.31,0,0,1,0,.62H14.44Z"/><path class="cls-1" d="M19.21,19.79H18.4a.3.3,0,0,1,0-.61h1.16a.33.33,0,0,1,.33.32v1a.46.46,0,0,1-.1.32,2,2,0,0,1-1.56.65c-1.19,0-1.87-.63-1.87-2.09s.68-2.09,1.87-2.09a1.66,1.66,0,0,1,1.44.64.34.34,0,0,1,.07.2.32.32,0,0,1-.32.32.33.33,0,0,1-.24-.12,1.14,1.14,0,0,0-.94-.42c-.79,0-1.15.49-1.15,1.47s.36,1.47,1.15,1.47a1.28,1.28,0,0,0,1-.34Z"/><path class="cls-1" d="M20.87,19.78V21a.35.35,0,1,1-.69,0V17.67a.35.35,0,0,1,.35-.35h1.14a1.22,1.22,0,1,1,0,2.45Zm0-1.83v1.21h.74a.61.61,0,0,0,0-1.21Z"/></svg>