<svg xmlns="http://www.w3.org/2000/svg" width="100.98" height="100.98" viewBox="0 0 100.98 100.98"><defs><clipPath id="a"><path fill="#fff" d="M526.13 1534.17a30.27 30.27 0 0 0 4.87-16.5 30.26 30.26 0 0 0-30.17-30.35 30.26 30.26 0 0 0-30.17 30.34 30.26 30.26 0 0 0 30.17 30.34c6.05 0 11.7-1.81 16.41-4.9L531 1548z"/></clipPath><clipPath id="b"><path fill="#fff" d="M472.25 1479.34c0 6.25-4.27 11.32-9.53 11.32-5.27 0-9.53-5.07-9.53-11.32 0-6.26 4.26-11.32 9.53-11.32 5.26 0 9.52 5.06 9.52 11.32z"/></clipPath></defs><path fill="none" stroke="#c2f6ff" stroke-miterlimit="50" stroke-width="6" d="M526.13 1534.17a30.27 30.27 0 0 0 4.87-16.5 30.26 30.26 0 0 0-30.17-30.35 30.26 30.26 0 0 0-30.17 30.34 30.26 30.26 0 0 0 30.17 30.34c6.05 0 11.7-1.81 16.41-4.9L531 1548z" clip-path="url(&quot;#a&quot;)" transform="translate(-430.02 -1447.02)"/><path fill="none" stroke="#c2f6ff" stroke-miterlimit="50" stroke-width="3" d="M32.7 62.66c-6.06 0-11.7-1.81-16.42-4.9l-13.75 4.9 4.86-13.84a30.29 30.29 0 0 1-4.86-16.5A30.26 30.26 0 0 1 32.7 1.98a30.26 30.26 0 0 1 30.17 30.34M66.04 73.84h9.53M70.8 59.47l-7.93 22.35M70.8 59.47l7.95 22.35M34.29 43.82l6.35 1.28"/><path fill="none" stroke="#c2f6ff" stroke-miterlimit="50" stroke-width="6" d="M472.25 1479.34c0 6.25-4.27 11.32-9.53 11.32-5.27 0-9.53-5.07-9.53-11.32 0-6.26 4.26-11.32 9.53-11.32 5.26 0 9.52 5.06 9.52 11.32z" clip-path="url(&quot;#b&quot;)" transform="translate(-430.02 -1447.02)"/></svg>