<svg xmlns="http://www.w3.org/2000/svg" width="67.32" height="67.32" viewBox="0 0 67.32 67.32"><defs><clipPath id="a"><path fill="#fff" d="M350.75 1022.78a20.18 20.18 0 0 0 3.25-11 20.17 20.17 0 0 0-20.11-20.23 20.17 20.17 0 0 0-20.12 20.22A20.18 20.18 0 0 0 333.9 1032c4.03 0 7.8-1.2 10.94-3.27L354 1032z"/></clipPath><clipPath id="b"><path fill="#fff" d="M314.83 986.22c0 4.17-2.84 7.55-6.35 7.55s-6.35-3.38-6.35-7.55c0-4.16 2.84-7.54 6.35-7.54 3.5 0 6.35 3.38 6.35 7.54z"/></clipPath></defs><path fill="none" stroke="#c2f6ff" stroke-miterlimit="50" stroke-width="4" d="M350.75 1022.78a20.18 20.18 0 0 0 3.25-11 20.17 20.17 0 0 0-20.11-20.23 20.17 20.17 0 0 0-20.12 20.22A20.18 20.18 0 0 0 333.9 1032c4.03 0 7.8-1.2 10.94-3.27L354 1032z" clip-path="url(&quot;#a&quot;)" transform="translate(-286.68 -964.68)"/><path fill="none" stroke="#c2f6ff" stroke-miterlimit="50" stroke-width="2" d="M21.8 41.77c-4.04 0-7.8-1.2-10.94-3.26l-9.18 3.26 3.25-9.22a20.2 20.2 0 0 1-3.25-11A20.17 20.17 0 0 1 21.8 1.32c11.1 0 20.11 9.06 20.11 20.23M44.03 49.22h6.35M47.2 39.64l-5.29 14.9M47.2 39.64l5.3 14.9M22.86 29.21l4.23.85"/><path fill="none" stroke="#c2f6ff" stroke-miterlimit="50" stroke-width="4" d="M314.83 986.22c0 4.17-2.84 7.55-6.35 7.55s-6.35-3.38-6.35-7.55c0-4.16 2.84-7.54 6.35-7.54 3.5 0 6.35 3.38 6.35 7.54z" clip-path="url(&quot;#b&quot;)" transform="translate(-286.68 -964.68)"/></svg>