<svg xmlns="http://www.w3.org/2000/svg" width="62" height="62" viewBox="0 0 62 62"><defs><clipPath id="a"><path fill="#fff" d="M4179 4012a31 31 0 1 1 0 62 31 31 0 0 1 0-62z"/></clipPath><clipPath id="b"><path fill="#fff" d="M4168.16 4032.6c-.24.38-.2.84.02 1.22l.04.04 7.94 10.96v12.38c0 .32.18.6.46.74.08.06.22.06.36.06.18 0 .36-.06.52-.2l6.02-3.32c.2-.16.3-.4.3-.62v-9.04l7.94-10.96.02-.04c.24-.38.26-.84.04-1.22a1.26 1.26 0 0 0-1.08-.62h-21.54c-.42-.02-.86.24-1.04.62z"/></clipPath></defs><path fill="none" stroke="#d9d9d9" stroke-miterlimit="50" stroke-width="4" d="M4179 4012a31 31 0 1 1 0 62 31 31 0 0 1 0-62z" clip-path="url(&quot;#a&quot;)" transform="translate(-4148 -4012)"/><path fill="none" stroke="#a6a6a6" stroke-miterlimit="50" stroke-width="4" d="M4168.16 4032.6c-.24.38-.2.84.02 1.22l.04.04 7.94 10.96v12.38c0 .32.18.6.46.74.08.06.22.06.36.06.18 0 .36-.06.52-.2l6.02-3.32c.2-.16.3-.4.3-.62v-9.04l7.94-10.96.02-.04c.24-.38.26-.84.04-1.22a1.26 1.26 0 0 0-1.08-.62h-21.54c-.42-.02-.86.24-1.04.62z" clip-path="url(&quot;#b&quot;)" transform="translate(-4148 -4012)"/></svg>