<svg xmlns="http://www.w3.org/2000/svg" width="93" height="93" viewBox="0 0 93 93"><defs><clipPath id="a"><path fill="#fff" d="M6268.5 6018a46.5 46.5 0 1 1 0 93 46.5 46.5 0 0 1 0-93z"/></clipPath><clipPath id="b"><path fill="#fff" d="M6252.24 6048.9c-.36.57-.3 1.26.03 1.83l.06.06 11.91 16.44v18.57c0 .48.27.9.69 1.11.12.09.33.09.54.09.27 0 .54-.09.78-.3l9.03-4.98c.3-.24.45-.6.45-.93v-13.56l11.91-16.44.03-.06c.36-.57.39-1.26.06-1.83a1.89 1.89 0 0 0-1.62-.93h-32.31a1.7 1.7 0 0 0-1.56.93z"/></clipPath></defs><path fill="none" stroke="#d9d9d9" stroke-miterlimit="50" stroke-width="6" d="M6268.5 6018a46.5 46.5 0 1 1 0 93 46.5 46.5 0 0 1 0-93z" clip-path="url(&quot;#a&quot;)" transform="translate(-6222 -6018)"/><path fill="none" stroke="#a6a6a6" stroke-miterlimit="50" stroke-width="6" d="M6252.24 6048.9c-.36.57-.3 1.26.03 1.83l.06.06 11.91 16.44v18.57c0 .48.27.9.69 1.11.12.09.33.09.54.09.27 0 .54-.09.78-.3l9.03-4.98c.3-.24.45-.6.45-.93v-13.56l11.91-16.44.03-.06c.36-.57.39-1.26.06-1.83a1.89 1.89 0 0 0-1.62-.93h-32.31a1.7 1.7 0 0 0-1.56.93z" clip-path="url(&quot;#b&quot;)" transform="translate(-6222 -6018)"/></svg>