<svg xmlns="http://www.w3.org/2000/svg" width="21" height="21" viewBox="0 0 21 21"><defs><clipPath id="a"><path fill="#fff" d="M2854.5 538a10.5 10.5 0 1 1 0 21 10.5 10.5 0 0 1 0-21z"/></clipPath><clipPath id="b"><path fill="#fff" d="M2855.97 543v3c-2.76.75-6.69 2.76-7.97 7 3.19-3 7.7-2.68 7.97-2.66v3l6.03-5.17z"/></clipPath></defs><path fill="none" stroke="#fff" stroke-miterlimit="50" stroke-width="2" d="M2854.5 538a10.5 10.5 0 1 1 0 21 10.5 10.5 0 0 1 0-21z" clip-path="url(&quot;#a&quot;)" transform="translate(-2844 -538)"/><path fill="none" stroke="#fff" stroke-miterlimit="50" stroke-width="2" d="M2855.97 543v3c-2.76.75-6.69 2.76-7.97 7 3.19-3 7.7-2.68 7.97-2.66v3l6.03-5.17z" clip-path="url(&quot;#b&quot;)" transform="translate(-2844 -538)"/></svg>