<?xml version="1.0" encoding="utf-8"?>
<!-- Generator: Adobe Illustrator 16.0.0, SVG Export Plug-In . SVG Version: 6.00 Build 0)  -->
<!DOCTYPE svg PUBLIC "-//W3C//DTD SVG 1.1//EN" "http://www.w3.org/Graphics/SVG/1.1/DTD/svg11.dtd">
<svg version="1.1" id="Layer_1" xmlns="http://www.w3.org/2000/svg" xmlns:xlink="http://www.w3.org/1999/xlink" x="0px" y="0px"
	 width="23px" height="23px" viewBox="0 0 23 23" enable-background="new 0 0 23 23" xml:space="preserve">
<g transform="translate(-2077 -3794)">
	<g>
		<path id="a" fill="#99B6E4" d="M2088.5,3794c6.352,0,11.5,5.148,11.5,11.5s-5.148,11.5-11.5,11.5s-11.5-5.148-11.5-11.5
			S2082.148,3794,2088.5,3794z M2093.74,3804l-4.57-4.39c-0.334-0.325-0.866-0.325-1.2,0l-4.57,4.399
			c-0.349,0.335-0.363,0.889-0.03,1.24c0.33,0.35,0.88,0.36,1.229,0.03l3-2.88v8.399c0,0.5,0.4,0.89,0.89,0.89
			c0.481-0.01,0.87-0.398,0.879-0.879v-8.4l3.17,2.87c0.341,0.332,0.885,0.325,1.217-0.016c0.004-0.005,0.009-0.01,0.014-0.015
			c0.332-0.351,0.319-0.905-0.03-1.24L2093.74,3804z"/>
	</g>
</g>
</svg>
