<?xml version="1.0" encoding="utf-8"?>
<!-- Generator: Adobe Illustrator 16.0.0, SVG Export Plug-In . SVG Version: 6.00 Build 0)  -->
<!DOCTYPE svg PUBLIC "-//W3C//DTD SVG 1.1//EN" "http://www.w3.org/Graphics/SVG/1.1/DTD/svg11.dtd">
<svg version="1.1" id="icon_new_payments" xmlns="http://www.w3.org/2000/svg" xmlns:xlink="http://www.w3.org/1999/xlink" x="0px"
	 y="0px" width="26px" height="28px" viewBox="-3 -0.5 26 28" enable-background="new -3 -0.5 26 28" xml:space="preserve">
<g>
	<g>
		<path fill="#99B6E4" d="M7.891,21.568c0.291,0,0.527-0.236,0.527-0.527s-0.236-0.527-0.527-0.527s-0.527,0.236-0.527,0.527
			S7.6,21.568,7.891,21.568L7.891,21.568z M7.891,21.568"/>
		<path fill="#99B6E4" d="M20.547,8.754H17.91V0.527C17.91,0.236,17.674,0,17.383,0H2.617C2.326,0,2.09,0.236,2.09,0.527v8.227
			h-2.637c-0.873,0-1.582,0.709-1.582,1.582v4.219c0,0.688,0.441,1.273,1.055,1.491v9.372C-1.074,26.29-0.365,27,0.508,27h18.984
			c0.872,0,1.582-0.71,1.582-1.582v-9.372c0.614-0.218,1.055-0.804,1.055-1.491v-4.219C22.129,9.463,21.419,8.754,20.547,8.754
			L20.547,8.754z M17.91,11.918h1.055v1.055H17.91V11.918z M3.145,1.055h13.711v11.918H3.145V1.055z M1.035,12.973v-1.055H2.09
			v1.055H1.035z M19.492,25.945H0.508c-0.291,0-0.527-0.236-0.527-0.527v-9.281H20.02v9.281
			C20.02,25.709,19.783,25.945,19.492,25.945L19.492,25.945z M21.074,14.555c0,0.291-0.236,0.527-0.527,0.527H-0.547
			c-0.291,0-0.527-0.236-0.527-0.527v-4.219c0-0.291,0.236-0.527,0.527-0.527H2.09v1.055H0.508c-0.291,0-0.527,0.236-0.527,0.527
			V13.5c0,0.292,0.236,0.527,0.527,0.527h18.984c0.291,0,0.527-0.236,0.527-0.527v-2.109c0-0.291-0.236-0.527-0.527-0.527H17.91
			V9.809h2.637c0.291,0,0.527,0.236,0.527,0.527V14.555z M21.074,14.555"/>
		<path fill="#99B6E4" d="M15.273,18.404H4.727c-0.291,0-0.527,0.236-0.527,0.527v4.219c0,0.291,0.236,0.527,0.527,0.527h10.547
			c0.291,0,0.527-0.236,0.527-0.527v-4.219C15.801,18.641,15.564,18.404,15.273,18.404L15.273,18.404z M14.746,22.623H5.254v-3.164
			h9.492V22.623z M14.746,22.623"/>
		<path fill="#99B6E4" d="M10,21.568h2.109c0.291,0,0.527-0.236,0.527-0.527s-0.236-0.527-0.527-0.527H10
			c-0.291,0-0.527,0.236-0.527,0.527S9.709,21.568,10,21.568L10,21.568z M10,21.568"/>
	</g>
	<path fill="#99B6E4" d="M10.248,3.508c0,0.174,0.142,0.315,0.315,0.315h4.77c0.175,0,0.315-0.141,0.315-0.315
		c0-0.174-0.141-0.314-0.315-0.314h-4.77C10.39,3.194,10.248,3.334,10.248,3.508z"/>
	<path fill="#99B6E4" d="M8.03,6.413c0,0.174,0.142,0.315,0.315,0.315h3.311c0.174,0,0.315-0.141,0.315-0.315
		s-0.142-0.315-0.315-0.315H8.345C8.171,6.098,8.03,6.239,8.03,6.413z"/>
	<g>
		<path fill="#99B6E4" d="M12.479,6.413c0,0.174,0.141,0.315,0.314,0.315h2.539c0.175,0,0.315-0.141,0.315-0.315
			s-0.141-0.315-0.315-0.315h-2.539C12.62,6.098,12.479,6.239,12.479,6.413z"/>
		<path fill="#99B6E4" d="M4.352,6.413c0,0.174,0.142,0.315,0.315,0.315h2.54c0.174,0,0.314-0.141,0.314-0.315
			S7.38,6.098,7.206,6.098h-2.54C4.493,6.098,4.352,6.239,4.352,6.413z"/>
	</g>
	<path fill="#99B6E4" d="M10.248,10.315c0,0.174,0.142,0.315,0.315,0.315h4.77c0.175,0,0.315-0.141,0.315-0.315
		c0-0.174-0.141-0.315-0.315-0.315h-4.77C10.39,10,10.248,10.141,10.248,10.315z"/>
	<path fill="#99B6E4" d="M4.352,3.508c0,0.174,0.142,0.315,0.315,0.315h4.77c0.174,0,0.315-0.141,0.315-0.315
		c0-0.174-0.141-0.314-0.315-0.314h-4.77C4.493,3.194,4.352,3.334,4.352,3.508z"/>
	<path fill="#99B6E4" d="M10.248,4.926c0,0.174,0.142,0.315,0.315,0.315h4.77c0.175,0,0.315-0.141,0.315-0.315
		c0-0.174-0.141-0.315-0.315-0.315h-4.77C10.39,4.611,10.248,4.752,10.248,4.926z"/>
	<path fill="#99B6E4" d="M4.352,4.926c0,0.174,0.142,0.315,0.315,0.315h1.667c0.174,0,0.315-0.141,0.315-0.315
		c0-0.174-0.141-0.315-0.315-0.315H4.667C4.493,4.611,4.352,4.752,4.352,4.926z"/>
	<path fill="#99B6E4" d="M7.224,4.926c0,0.174,0.142,0.315,0.315,0.315h1.667c0.173,0,0.315-0.141,0.315-0.315
		c0-0.174-0.142-0.315-0.315-0.315H7.539C7.366,4.611,7.224,4.752,7.224,4.926z"/>
	<path fill="#99B6E4" d="M10.248,7.787c0,0.174,0.142,0.315,0.315,0.315h4.77c0.175,0,0.315-0.141,0.315-0.315
		c0-0.174-0.141-0.315-0.315-0.315h-4.77C10.39,7.472,10.248,7.613,10.248,7.787z"/>
	<path fill="#99B6E4" d="M7.224,7.787c0,0.174,0.142,0.315,0.315,0.315h1.667c0.173,0,0.315-0.141,0.315-0.315
		c0-0.174-0.142-0.315-0.315-0.315H7.539C7.366,7.472,7.224,7.613,7.224,7.787z"/>
</g>
</svg>
