<svg id="Layer_3" data-name="Layer 3" xmlns="http://www.w3.org/2000/svg" viewBox="0 0 95.35 129.81">
    <defs>
        <style>.cls-1,.cls-2{fill:none;stroke:#99b6e4;}.cls-1{stroke-width:2px;}</style>
    </defs>
    <title>bill</title>
    <polygon class="cls-1"
             points="94.35 7.94 94.35 128.03 81.36 120.15 71.43 126.94 58.83 119.91 47.68 125.73 35.11 119.18 24.65 125.49 13.02 118.1 1.14 126.7 1 7.94 13.51 1.16 23.93 7.46 36.29 1.16 47.68 8.18 59.55 1.16 70.7 7.46 82.58 1.16 94.35 7.94"/>
    <g id="lines">
        <path id="Shape_3044_copy_8" data-name="Shape 3044 copy 8" class="cls-2" d="M17.45,37.52H77.92"
              transform="translate(-3.79 -1.59)"/>
        <path id="Shape_3044_copy_9" data-name="Shape 3044 copy 9" class="cls-2" d="M17.45,51.75H63.69"
              transform="translate(-3.79 -1.59)"/>
        <path id="Shape_3044_copy_10" data-name="Shape 3044 copy 10" class="cls-2" d="M17.45,66H74.36"
              transform="translate(-3.79 -1.59)"/>
        <path id="Shape_3044_copy_11" data-name="Shape 3044 copy 11" class="cls-2" d="M17.45,80.21H60.13"
              transform="translate(-3.79 -1.59)"/>
        <path id="Shape_3044_copy_12" data-name="Shape 3044 copy 12" class="cls-2" d="M17.45,94.44h32"
              transform="translate(-3.79 -1.59)"/>
    </g>
</svg>