<svg xmlns="http://www.w3.org/2000/svg" xmlns:xlink="http://www.w3.org/1999/xlink" width="30" height="30"
     viewBox="0 0 15 15">
    <defs>
        <path id="axyna" d="M3420.5 771a7.5 7.5 0 1 1 0 15 7.5 7.5 0 0 1 0-15z"/>
        <path id="axynb"
              d="M3420.68 779v-3.5c0-.37.18-.5-.14-.5s-.54.13-.54.5v3.78c0 .18.07.35.18.47l1.95 2.07c.12.12.26.18.4.18.16 0 .3-.07.42-.2.22-.26-.25-.6-.48-.85z"/>
        <clipPath id="axync">
            <use fill="#fff" xlink:href="#axyna"/>
        </clipPath>
        <clipPath id="axynd">
            <use fill="#fff" xlink:href="#axynb"/>
        </clipPath>
    </defs>
    <g>
        <g transform="translate(-3413 -771)">
            <g>
                <use fill="#f8e69c" fill-opacity="0.3" xlink:href="#axyna"/>
                <use fill="#fff" fill-opacity="0" stroke="#f8e69c" stroke-miterlimit="50" stroke-width="1"
                     clip-path="url(&quot;#axync&quot;)" xlink:href="#axyna"/>
            </g>
            <g>
                <use fill="#fff" fill-opacity="0" stroke="#fff8a8" stroke-miterlimit="50" stroke-width="1"
                     clip-path="url(&quot;#axynd&quot;)" xlink:href="#axynb"/>
            </g>
        </g>
    </g>
</svg>