<svg id="Layer_1" data-name="Layer 1" xmlns="http://www.w3.org/2000/svg" viewBox="0 0 26 28"><defs><style>.cls-1{fill:#9ab5de;}</style></defs><title>MB</title><path class="cls-1" d="M22.16,3.77A11.83,11.83,0,0,0,2.76,16.39a6.62,6.62,0,0,1,1-.4,10.73,10.73,0,1,1,20.74-3.85,10.8,10.8,0,0,1-3.21,7.65l-.39.39-.17-.53a7.33,7.33,0,0,0-3.88-4.37L16.36,15l.46-.34a5.06,5.06,0,1,0-6,0l.46.34-.52.24a7.3,7.3,0,0,0-1.83,1.21l0,0a6.68,6.68,0,0,1,.95.63A6.22,6.22,0,0,1,19.9,20.71l0,.22-.19.13a10.65,10.65,0,0,1-7.41,1.71,6.66,6.66,0,0,1-.16,1.09A12,12,0,0,0,13.8,24a11.83,11.83,0,0,0,8.37-20.2ZM9.84,10.63a4,4,0,1,1,4,4A4,4,0,0,1,9.84,10.63Z"/><path class="cls-1" d="M5.69,27.69A5.32,5.32,0,1,1,11,22.37,5.33,5.33,0,0,1,5.69,27.69Zm0-9.55a4.22,4.22,0,1,0,4.22,4.22A4.23,4.23,0,0,0,5.69,18.15Z"/><circle class="cls-1" cx="5.69" cy="20.14" r="0.37"/><path class="cls-1" d="M6.53,25H4.85a.37.37,0,1,1,0-.75h.47V22H5a.37.37,0,1,1,0-.75h.65a.37.37,0,0,1,.37.37v2.61h.47a.37.37,0,1,1,0,.75Z"/></svg>