<svg id="svg" version="1.1" width="400" height="400" viewBox="0 0 400 400" xmlns="http://www.w3.org/2000/svg" xmlns:xlink="http://www.w3.org/1999/xlink" ><g id="svgg"><path id="path0" d="M244.677 29.819 C 237.940 31.236,235.535 32.838,225.820 42.375 C 186.031 81.437,82.673 185.399,81.150 187.890 C 75.159 197.691,75.578 210.120,82.214 219.372 C 84.872 223.079,232.555 370.343,235.510 372.233 C 244.590 378.044,256.696 378.048,265.667 372.244 C 268.791 370.223,288.330 350.992,290.770 347.536 C 297.281 338.314,297.262 325.046,290.723 315.273 C 290.112 314.360,264.700 288.678,234.250 258.203 L 178.888 202.794 234.939 146.685 L 290.990 90.576 292.618 87.260 C 297.448 77.423,296.397 65.525,289.952 57.068 C 288.421 55.058,276.041 42.618,269.763 36.781 C 263.209 30.687,253.439 27.976,244.677 29.819 " stroke="none" fill="#fcfcfc" fill-rule="evenodd"></path><path id="path1" d="M245.272 29.152 C 241.604 29.847,237.954 31.312,234.855 33.333 C 231.288 35.659,83.905 182.820,81.360 186.598 C 75.081 195.915,74.735 208.215,80.479 217.892 C 81.839 220.183,228.438 367.367,232.984 371.006 C 242.276 378.443,256.199 379.091,266.228 372.553 C 268.466 371.094,288.207 351.728,290.599 348.644 C 297.911 339.221,298.071 324.475,290.970 314.660 C 290.276 313.700,264.956 288.165,234.705 257.916 L 179.702 202.918 234.805 147.794 C 292.472 90.105,292.047 90.551,294.095 85.511 C 297.735 76.554,296.683 66.209,291.315 58.173 C 289.262 55.098,270.953 36.592,267.521 34.121 C 261.314 29.653,252.734 27.737,245.272 29.152 M258.813 30.363 C 262.085 31.410,265.419 33.123,267.709 34.933 C 270.592 37.212,288.160 54.684,289.959 57.061 C 296.400 65.574,297.441 77.347,292.631 87.260 L 291.022 90.576 234.955 146.685 L 178.888 202.794 234.422 258.378 C 282.120 306.118,290.182 314.331,291.555 316.579 C 296.962 325.438,297.041 337.089,291.755 346.171 C 289.937 349.295,268.719 370.395,265.237 372.542 C 256.464 377.950,244.809 377.955,235.984 372.553 C 232.964 370.705,85.131 223.438,82.213 219.372 C 75.307 209.746,75.111 196.920,81.721 187.088 C 83.794 184.005,229.018 38.407,233.492 34.926 C 240.096 29.788,250.920 27.838,258.813 30.363 " stroke="none" fill="#050505" fill-rule="evenodd"></path><path id="path2" d="" stroke="none" fill="#a4a4a4" fill-rule="evenodd"></path><path id="path3" d="M223.195 44.764 L 221.815 46.248 223.298 44.868 C 224.678 43.585,224.942 43.281,224.678 43.281 C 224.621 43.281,223.954 43.949,223.195 44.764 " stroke="none" fill="#8c8c8c" fill-rule="evenodd"></path><path id="path4" d="" stroke="none" fill="#100c8d4" fill-rule="evenodd"></path></g></svg>