<svg xmlns="http://www.w3.org/2000/svg" width="83.89" height="91.04" viewBox="0 0 83.89 91.04"><defs><clipPath id="a"><path fill="#fff" d="M493.43 1217.69c0 6.54-5.34 11.84-11.93 11.84-6.6 0-11.93-5.3-11.93-11.84a11.9 11.9 0 0 1 11.93-11.85c6.6 0 11.93 5.3 11.93 11.85z"/></clipPath><clipPath id="b"><path fill="#fff" d="M505.37 1217.69c0 13.08-19.4 38.5-23.87 38.5-4.48 0-23.87-25.42-23.87-38.5A23.78 23.78 0 0 1 481.5 1194a23.77 23.77 0 0 1 23.87 23.69z"/></clipPath></defs><path fill="none" stroke="#c2f6ff" stroke-miterlimit="50" stroke-width="3" d="M24.15 79.34l3.81-19.51M59.73 79.34l-3.81-19.51M21.61 50.72L14 53.32 2.55 88.45l21.6-9.1 17.8 7.8 17.78-7.8 21.6 9.1L69.9 53.32l-7.63-2.6"/><path fill="none" stroke="#c2f6ff" stroke-miterlimit="50" stroke-width="6" d="M493.43 1217.69c0 6.54-5.34 11.84-11.93 11.84-6.6 0-11.93-5.3-11.93-11.84a11.9 11.9 0 0 1 11.93-11.85c6.6 0 11.93 5.3 11.93 11.85z" clip-path="url(&quot;#a&quot;)" transform="translate(-439.56 -1194)"/><path fill="none" stroke="#c2f6ff" stroke-miterlimit="50" stroke-width="6" d="M505.37 1217.69c0 13.08-19.4 38.5-23.87 38.5-4.48 0-23.87-25.42-23.87-38.5A23.78 23.78 0 0 1 481.5 1194a23.77 23.77 0 0 1 23.87 23.69z" clip-path="url(&quot;#b&quot;)" transform="translate(-439.56 -1194)"/></svg>