<?xml version="1.0" encoding="utf-8"?>
<!-- Generator: Adobe Illustrator 16.0.0, SVG Export Plug-In . SVG Version: 6.00 Build 0)  -->
<!DOCTYPE svg PUBLIC "-//W3C//DTD SVG 1.1//EN" "http://www.w3.org/Graphics/SVG/1.1/DTD/svg11.dtd">
<svg version="1.1" id="Layer_1" xmlns="http://www.w3.org/2000/svg" xmlns:xlink="http://www.w3.org/1999/xlink" x="0px" y="0px"
	 width="34px" height="23px" viewBox="0 0 34 23" enable-background="new 0 0 34 23" xml:space="preserve">
<g>
	<defs>
		<path id="SVGID_1_" d="M4,0h26c2.209,0,4,1.791,4,4v15c0,2.209-1.791,4-4,4H4c-2.209,0-4-1.791-4-4V4C0,1.791,1.791,0,4,0z"/>
	</defs>
	<clipPath id="SVGID_2_">
		<use xlink:href="#SVGID_1_"  overflow="visible"/>
	</clipPath>
	<path clip-path="url(#SVGID_2_)" fill="none" stroke="#99B6E4" stroke-width="2" stroke-miterlimit="50" d="M4,0h26
		c2.209,0,4,1.791,4,4v15c0,2.209-1.791,4-4,4H4c-2.209,0-4-1.791-4-4V4C0,1.791,1.791,0,4,0z"/>
</g>
<path fill="none" stroke="#99B6E4" stroke-miterlimit="50" d="M1.441,1.386L17,15L32.599,1.351 M32.26,21L22,11.74 M1.703,21.328
	L11.01,11"/>
</svg>
