<svg xmlns="http://www.w3.org/2000/svg" width="57.26" height="60.36" viewBox="0 0 57.26 60.36"><defs><clipPath id="a"><path fill="#fff" d="M5634.96 203.8c0 4.35-3.56 7.89-7.96 7.89a7.93 7.93 0 0 1-7.96-7.9c0-4.36 3.56-7.9 7.96-7.9s7.96 3.54 7.96 7.9z"/></clipPath><clipPath id="b"><path fill="#fff" d="M5642.9 203.8c0 8.71-12.92 25.65-15.9 25.65-2.98 0-15.9-16.94-15.9-25.66 0-8.72 7.12-15.79 15.9-15.79 8.78 0 15.9 7.07 15.9 15.8z"/></clipPath></defs><path fill="none" stroke="#c2f6ff" stroke-miterlimit="50" stroke-width="2" d="M16.77 52.9l2.54-13.01M40.49 52.9l-2.54-13.01M15.07 33.81l-5.08 1.74-7.62 23.42 14.4-6.07 11.86 5.2 11.86-5.2 14.4 6.07-7.62-23.42-5.08-1.74"/><path fill="none" stroke="#c2f6ff" stroke-miterlimit="50" stroke-width="4" d="M5634.96 203.8c0 4.35-3.56 7.89-7.96 7.89a7.93 7.93 0 0 1-7.96-7.9c0-4.36 3.56-7.9 7.96-7.9s7.96 3.54 7.96 7.9z" clip-path="url(&quot;#a&quot;)" transform="translate(-5598.37 -188)"/><path fill="none" stroke="#c2f6ff" stroke-miterlimit="50" stroke-width="4" d="M5642.9 203.8c0 8.71-12.92 25.65-15.9 25.65-2.98 0-15.9-16.94-15.9-25.66 0-8.72 7.12-15.79 15.9-15.79 8.78 0 15.9 7.07 15.9 15.8z" clip-path="url(&quot;#b&quot;)" transform="translate(-5598.37 -188)"/></svg>