<?xml version="1.0" encoding="utf-8"?>
<!-- Generator: Adobe Illustrator 16.0.0, SVG Export Plug-In . SVG Version: 6.00 Build 0)  -->
<!DOCTYPE svg PUBLIC "-//W3C//DTD SVG 1.1//EN" "http://www.w3.org/Graphics/SVG/1.1/DTD/svg11.dtd">
<svg version="1.1" id="Layer_1" xmlns="http://www.w3.org/2000/svg" xmlns:xlink="http://www.w3.org/1999/xlink" x="0px" y="0px"
	 width="28.629px" height="30.68px" viewBox="0 0 28.629 30.68" enable-background="new 0 0 28.629 30.68" xml:space="preserve">
<path fill="none" stroke="#99B6E4" stroke-miterlimit="50" d="M8.38,26.45l1.27-6.5 M20.241,26.45l-1.271-6.5 M7.53,16.9L5,17.78
	L1.2,29.5l7.2-3.04l5.92,2.6l5.931-2.6l7.199,3.04l-3.8-11.721L21.1,16.92"/>
<g>
	<defs>
		<path id="SVGID_1_" d="M18.29,7.9c-0.01,2.188-1.793,3.951-3.979,3.94l0,0c-2.187,0.011-3.969-1.753-3.98-3.94l0,0
			c0.006-2.187,1.783-3.955,3.97-3.949c0.004,0,0.007,0,0.01,0C16.51,3.95,18.29,5.72,18.29,7.9z"/>
	</defs>
	<clipPath id="SVGID_2_">
		<use xlink:href="#SVGID_1_"  overflow="visible"/>
	</clipPath>
	<path clip-path="url(#SVGID_2_)" fill="none" stroke="#99B6E4" stroke-width="2" stroke-miterlimit="50" d="M18.29,7.9
		c-0.01,2.188-1.793,3.951-3.979,3.94l0,0c-2.187,0.011-3.969-1.753-3.98-3.94l0,0c0.006-2.187,1.783-3.955,3.97-3.949
		c0.004,0,0.007,0,0.01,0C16.51,3.95,18.29,5.72,18.29,7.9z"/>
</g>
<g>
	<defs>
		<path id="SVGID_3_" d="M22.26,7.9c0,4.36-6.461,12.83-7.95,12.83c-1.49,0-7.95-8.47-7.95-12.83C6.36,3.53,9.92,0,14.31,0
			c4.374-0.017,7.933,3.516,7.95,7.89C22.26,7.894,22.26,7.897,22.26,7.9z"/>
	</defs>
	<clipPath id="SVGID_4_">
		<use xlink:href="#SVGID_3_"  overflow="visible"/>
	</clipPath>
	<path clip-path="url(#SVGID_4_)" fill="none" stroke="#99B6E4" stroke-width="2" stroke-miterlimit="50" d="M22.26,7.9
		c0,4.36-6.461,12.83-7.95,12.83c-1.49,0-7.95-8.47-7.95-12.83C6.36,3.53,9.92,0,14.31,0c4.374-0.017,7.933,3.516,7.95,7.89
		C22.26,7.894,22.26,7.897,22.26,7.9z"/>
</g>
</svg>
