<?xml version="1.0" encoding="utf-8"?>
<!-- Generator: Adobe Illustrator 16.0.0, SVG Export Plug-In . SVG Version: 6.00 Build 0)  -->
<!DOCTYPE svg PUBLIC "-//W3C//DTD SVG 1.1//EN" "http://www.w3.org/Graphics/SVG/1.1/DTD/svg11.dtd">
<svg version="1.1" id="Layer_1" xmlns="http://www.w3.org/2000/svg" xmlns:xlink="http://www.w3.org/1999/xlink" x="0px" y="0px"
	 width="26px" height="25px" viewBox="0 0 26 25" enable-background="new 0 0 26 25" xml:space="preserve">
<g>
	<g>
		<defs>
			<path id="SVGID_1_" d="M21.15,9.15l3.35,3.34v10.07c0,0.8-0.641,1.439-1.439,1.439H2.94c-0.8,0-1.44-0.64-1.44-1.439V12.42
				l3.43-3.399"/>
		</defs>
		<clipPath id="SVGID_2_">
			<use xlink:href="#SVGID_1_"  overflow="visible"/>
		</clipPath>
		<g clip-path="url(#SVGID_2_)">
			<path id="ujf6a" fill="#FFFFFF" fill-opacity="0" stroke="#9AB6E0" stroke-width="2" stroke-miterlimit="50" d="M21.813,9.811
				L24.5,12.49v10.07c0,0.8-0.641,1.439-1.439,1.439H2.94c-0.8,0-1.44-0.64-1.44-1.439V12.42l2.722-2.698"/>
		</g>
	</g>
	<g transform="translate(-1646 -3395)">
		<g>
			<defs>
				<path id="SVGID_3_" d="M1669.061,3407.5l-5.721,5.72L1669.061,3407.5z"/>
			</defs>
			<clipPath id="SVGID_4_">
				<use xlink:href="#SVGID_3_"  overflow="visible"/>
			</clipPath>
			<g clip-path="url(#SVGID_4_)">
				<path id="ujf6b" fill="#FFFFFF" fill-opacity="0" stroke="#FFFFFF" stroke-width="2" stroke-miterlimit="50" d="
					M1669.061,3407.5l-5.721,5.72L1669.061,3407.5z"/>
			</g>
		</g>
	</g>
	<g transform="translate(-1646 -3395)">
		<g>
			<defs>
				<polyline id="SVGID_5_" points="1648.94,3417.561 1659,3407.5 1669.061,3417.561 				"/>
			</defs>
			<clipPath id="SVGID_6_">
				<use xlink:href="#SVGID_5_"  overflow="visible"/>
			</clipPath>
			<g clip-path="url(#SVGID_6_)">
				<path id="ujf6c" fill="#FFFFFF" fill-opacity="0" stroke="#9AB6E0" stroke-width="2" stroke-miterlimit="50" d="
					M1648.94,3417.561L1659,3407.5l10.061,10.061"/>
			</g>
		</g>
	</g>
	<g>
		<defs>
			<polyline id="SVGID_7_" points="7.48,18 6.45,17 4.5,14.98 4.5,1 21.5,1 21.5,14.84 19.52,17 18.5,18 			"/>
		</defs>
		<clipPath id="SVGID_8_">
			<use xlink:href="#SVGID_7_"  overflow="visible"/>
		</clipPath>
		<use xlink:href="#SVGID_7_"  overflow="visible" fill="none" stroke="#9AB6E0" stroke-miterlimit="50"/>
	</g>
	<g transform="translate(-1646 -3395)">
		<g>
			<path id="ujf6i" fill="#FFFFFF" fill-opacity="0" stroke="#9AB6E0" stroke-miterlimit="50" d="M1654.87,3401.85l2.75,2.45
				l5.5-4.899"/>
		</g>
	</g>
</g>
</svg>
