<?xml version="1.0" encoding="utf-8"?>
<!-- Generator: Adobe Illustrator 16.0.0, SVG Export Plug-In . SVG Version: 6.00 Build 0)  -->
<!DOCTYPE svg PUBLIC "-//W3C//DTD SVG 1.1//EN" "http://www.w3.org/Graphics/SVG/1.1/DTD/svg11.dtd">
<svg version="1.1" id="Layer_1" xmlns="http://www.w3.org/2000/svg" xmlns:xlink="http://www.w3.org/1999/xlink" x="0px" y="0px"
	 width="24px" height="16px" viewBox="0 0 24 16" enable-background="new 0 0 24 16" xml:space="preserve">
<g>
	<g transform="translate(-1610 -3287)">
		<g>
			<defs>
				<path id="SVGID_1_" d="M1632.01,3295.75v-5.64c0-0.62-0.58-1.12-1.3-1.12h-17.41c-0.72,0-1.3,0.5-1.3,1.12v9.77
					c0,0.62,0.58,1.12,1.3,1.12h17.41c0.771,0,1.271-0.54,1.271-1.12L1632.01,3295.75L1632.01,3295.75z"/>
			</defs>
			<clipPath id="SVGID_2_">
				<use xlink:href="#SVGID_1_"  overflow="visible"/>
			</clipPath>
			<g clip-path="url(#SVGID_2_)">
				<path id="rvwma" fill="#FFFFFF" fill-opacity="0" stroke="#9AB6E0" stroke-width="2" stroke-miterlimit="50" d="
					M1632.01,3295.75v-5.64c0-0.62-0.58-1.12-1.3-1.12h-17.41c-0.72,0-1.3,0.5-1.3,1.12v9.77c0,0.62,0.58,1.12,1.3,1.12h17.41
					c0.771,0,1.271-0.54,1.271-1.12L1632.01,3295.75L1632.01,3295.75z"/>
			</g>
		</g>
	</g>
	<g transform="translate(-1610 -3287)">
		<g>
			<defs>
				<path id="SVGID_3_" d="M1612.86,3289.74l7.3,5.64c0.42,0.32,0.95,0.5,1.5,0.5c0.53,0,1.029-0.16,1.43-0.44l8.16-5.7"/>
			</defs>
			<clipPath id="SVGID_4_">
				<use xlink:href="#SVGID_3_"  overflow="visible"/>
			</clipPath>
			<g clip-path="url(#SVGID_4_)">
				<path id="rvwmb" fill="#FFFFFF" fill-opacity="0" stroke="#9AB6E0" stroke-width="2" stroke-miterlimit="50" d="
					M1612.86,3289.74l7.3,5.64c0.42,0.32,0.95,0.5,1.5,0.5c0.53,0,1.029-0.16,1.43-0.44l8.16-5.7"/>
			</g>
		</g>
	</g>
</g>
</svg>
