<svg xmlns="http://www.w3.org/2000/svg" width="52" height="86" viewBox="0 0 52 86"><path fill="#c2f6ff" d="M10.8 86h30.38c6 0 10.82-4.78 10.82-10.74v-64.5C52 4.78 47.18 0 41.18 0H10.8C4.82 0 0 4.78 0 10.76v64.5A10.8 10.8 0 0 0 10.8 86zM1.96 64.1V14.36h48.06V64.1zM10.8 1.96h30.38c4.92 0 8.84 3.9 8.84 8.8v1.66H1.96v-1.66c0-4.9 4.04-8.8 8.84-8.8zm-8.84 64.1h48.06v9.2a8.77 8.77 0 0 1-8.84 8.78H10.8c-4.9 0-8.84-3.9-8.84-8.78zm24.08 13a4.85 4.85 0 0 0 4.92-4.88c0-2.74-2.16-4.9-4.92-4.9a4.87 4.87 0 0 0-4.92 4.9 4.86 4.86 0 0 0 4.92 4.88zm0-7.82A2.9 2.9 0 0 1 29 74.18a2.88 2.88 0 0 1-2.96 2.92 2.88 2.88 0 0 1-2.94-2.92 2.9 2.9 0 0 1 2.94-2.94z"/></svg>