<svg id="svg" version="1.1" width="30" height="30" viewBox="0 0 400 415.59999999999997" xmlns="http://www.w3.org/2000/svg" xmlns:xlink="http://www.w3.org/1999/xlink" ><g id="svgg"><path id="path0" d="M59.753 1.336 C 58.847 2.126,57.963 2.643,57.789 2.486 C 57.614 2.329,57.597 2.419,57.751 2.686 C 57.923 2.986,51.054 11.227,39.745 24.286 C 14.963 52.902,13.963 54.024,13.490 53.732 C 13.250 53.583,13.197 53.672,13.365 53.943 C 13.728 54.531,8.857 60.083,8.287 59.730 C 8.055 59.587,7.997 59.672,8.153 59.925 C 8.312 60.181,6.623 62.459,4.214 65.240 L -0.002 70.106 0.001 242.851 L 0.004 415.596 150.439 415.599 L 300.874 415.602 302.137 414.703 C 302.832 414.208,303.490 413.832,303.600 413.868 C 303.710 413.904,303.890 413.829,304.000 413.703 C 304.110 413.576,304.020 413.573,303.800 413.698 C 303.534 413.848,303.434 388.069,303.503 336.620 C 303.618 250.178,303.857 257.753,300.991 257.033 C 299.899 256.759,297.200 257.795,297.200 258.488 C 297.200 258.707,296.921 258.778,296.579 258.647 C 296.238 258.516,296.056 258.567,296.176 258.760 C 296.567 259.394,287.295 268.106,286.652 267.709 C 286.445 267.581,286.388 267.656,286.524 267.876 C 286.852 268.407,279.757 275.344,279.224 275.015 C 278.976 274.861,278.905 275.008,279.047 275.379 C 279.178 275.721,279.115 276.000,278.907 276.000 C 277.646 276.000,277.600 278.001,277.600 332.450 L 277.600 386.862 276.431 388.031 L 275.262 389.200 237.050 389.200 C 210.816 389.200,198.550 389.066,197.919 388.773 C 196.862 388.282,191.773 381.087,191.855 380.200 C 191.885 379.875,191.779 379.690,191.618 379.789 C 191.246 380.019,191.020 379.704,183.124 368.000 C 169.015 347.088,156.321 326.843,145.855 308.561 C 143.934 305.207,143.676 304.552,144.462 305.038 C 144.750 305.216,144.815 305.148,144.634 304.855 C 144.475 304.598,144.195 304.480,144.011 304.593 C 142.470 305.545,142.904 300.721,144.478 299.396 L 145.661 298.400 171.461 298.400 L 197.262 298.400 198.413 297.249 C 199.046 296.616,199.672 296.205,199.803 296.337 C 199.935 296.468,199.958 296.311,199.855 295.988 C 199.751 295.665,199.554 294.888,199.416 294.262 C 199.278 293.636,198.588 292.596,197.883 291.952 C 197.177 291.307,196.596 290.560,196.591 290.290 C 196.586 290.021,196.300 289.846,195.954 289.903 C 194.991 290.061,187.919 282.517,185.383 278.626 C 182.333 273.948,179.844 268.486,178.403 263.310 C 176.278 255.677,179.759 256.405,145.389 256.402 C 115.667 256.400,115.068 256.363,115.759 254.563 C 115.876 254.259,115.819 254.052,115.634 254.105 C 115.105 254.254,103.528 234.840,103.843 234.330 C 104.007 234.066,103.946 233.986,103.698 234.139 C 103.170 234.466,98.236 226.589,98.600 226.000 C 98.743 225.769,98.621 225.630,98.330 225.690 C 97.528 225.856,97.428 223.322,98.190 222.159 C 98.546 221.615,99.034 221.297,99.279 221.449 C 99.549 221.615,99.611 221.541,99.438 221.261 C 98.716 220.094,101.961 220.000,143.006 220.000 L 184.760 220.000 186.149 218.300 C 186.914 217.365,188.673 215.160,190.059 213.400 C 193.566 208.949,203.953 198.674,213.084 190.625 C 221.013 183.637,221.648 182.830,220.858 180.753 C 219.981 178.445,225.640 178.617,143.439 178.400 C 87.432 178.252,67.822 178.082,67.884 177.747 C 67.931 177.498,67.720 177.318,67.415 177.347 C 66.950 177.392,59.200 166.857,59.200 166.180 C 59.200 166.055,59.408 166.081,59.662 166.238 C 59.950 166.416,60.015 166.348,59.834 166.055 C 59.675 165.798,59.397 165.678,59.216 165.790 C 59.035 165.902,58.598 165.551,58.244 165.011 C 57.485 163.853,57.421 163.442,58.062 163.838 C 58.350 164.016,58.415 163.948,58.234 163.655 C 58.075 163.398,57.798 163.278,57.619 163.388 C 57.325 163.570,48.800 151.598,48.800 151.003 C 48.800 150.865,49.008 150.881,49.262 151.038 C 49.550 151.216,49.615 151.148,49.434 150.855 C 49.275 150.598,49.002 150.475,48.827 150.583 C 48.341 150.884,42.709 142.471,43.038 141.938 C 43.205 141.669,43.149 141.584,42.904 141.736 C 42.351 142.078,37.465 134.941,37.839 134.337 C 38.005 134.069,37.949 133.985,37.704 134.136 C 37.151 134.478,32.265 127.341,32.639 126.737 C 32.807 126.465,32.748 126.385,32.495 126.541 C 32.085 126.794,29.041 122.821,27.852 120.483 C 27.024 118.852,26.093 74.372,26.865 73.274 C 28.433 71.044,33.346 66.040,33.744 66.268 C 33.995 66.411,34.067 66.381,33.903 66.201 C 33.548 65.809,34.357 64.726,34.800 65.000 C 34.970 65.105,35.085 64.957,35.055 64.670 C 35.025 64.383,36.080 62.967,37.400 61.522 C 38.720 60.078,42.230 56.188,45.200 52.877 C 48.194 49.541,50.832 46.933,51.121 47.025 C 51.414 47.118,51.526 47.003,51.376 46.761 C 51.040 46.217,53.588 43.545,54.125 43.877 C 54.344 44.013,54.404 43.931,54.259 43.695 C 53.936 43.173,62.320 33.904,62.830 34.218 C 63.028 34.341,63.105 34.207,63.000 33.921 C 62.894 33.634,64.320 31.825,66.168 29.900 L 69.529 26.400 172.395 26.400 L 275.262 26.400 276.431 27.569 L 277.600 28.738 277.600 75.389 C 277.600 126.938,277.444 123.890,280.130 124.777 C 281.965 125.383,282.690 125.024,285.956 121.900 C 288.621 119.351,289.609 118.615,288.962 119.662 C 288.784 119.950,288.852 120.015,289.145 119.834 C 289.402 119.675,289.529 119.409,289.427 119.244 C 289.092 118.702,297.071 111.073,297.619 111.412 C 297.919 111.597,298.023 111.561,297.876 111.323 C 297.594 110.867,299.710 108.679,300.128 108.994 C 300.277 109.107,300.312 109.082,300.204 108.937 C 300.096 108.793,300.816 107.810,301.804 106.754 L 303.600 104.834 303.587 54.117 C 303.574 0.340,303.658 2.694,301.707 1.655 C 301.029 1.294,277.408 1.088,203.907 0.800 C 150.608 0.591,96.740 0.303,84.200 0.161 L 61.400 -0.099 59.753 1.336 M268.900 0.699 C 272.805 0.765,279.195 0.765,283.100 0.699 C 287.005 0.634,283.810 0.580,276.000 0.580 C 268.190 0.580,264.995 0.634,268.900 0.699 M366.939 86.394 C 362.015 87.685,358.699 89.704,353.929 94.314 C 352.215 95.971,350.664 97.163,350.419 97.012 C 350.178 96.863,350.030 96.951,350.090 97.207 C 350.254 97.905,332.875 114.494,332.332 114.158 C 332.078 114.001,331.985 114.053,332.123 114.275 C 332.377 114.686,330.609 116.460,316.115 130.340 C 310.763 135.466,307.454 138.357,307.153 138.171 C 306.879 138.002,306.781 138.046,306.923 138.276 C 307.214 138.746,304.925 140.992,277.299 167.341 C 269.446 174.830,264.217 179.534,263.937 179.361 C 263.669 179.195,263.585 179.251,263.735 179.495 C 263.877 179.725,260.080 183.659,255.297 188.238 C 250.514 192.816,244.659 198.422,242.286 200.696 C 239.791 203.086,237.783 204.713,237.524 204.553 C 237.276 204.400,237.187 204.455,237.324 204.677 C 237.687 205.265,229.750 212.940,229.158 212.574 C 228.884 212.405,228.780 212.445,228.918 212.667 C 229.290 213.268,221.786 220.562,221.181 220.188 C 220.868 219.995,220.777 220.038,220.940 220.303 C 221.086 220.539,218.687 223.136,215.572 226.115 C 209.569 231.856,207.388 234.458,205.584 238.031 C 201.407 246.307,202.789 256.953,209.037 264.624 C 210.053 265.871,210.925 267.172,210.975 267.513 C 211.026 267.854,211.356 268.176,211.711 268.228 C 212.672 268.369,216.000 271.277,215.719 271.731 C 215.586 271.947,215.670 272.004,215.907 271.857 C 216.144 271.711,217.567 272.207,219.069 272.960 C 224.877 275.871,232.090 276.499,237.400 274.554 C 238.940 273.990,240.588 273.500,241.062 273.464 C 241.536 273.429,241.851 273.282,241.762 273.138 C 241.673 272.994,242.413 272.400,243.406 271.817 C 245.206 270.763,248.964 267.360,257.477 259.079 C 260.329 256.305,262.130 254.833,262.439 255.024 C 262.730 255.204,262.820 255.156,262.665 254.905 C 262.306 254.324,278.676 238.676,279.263 239.039 C 279.518 239.196,279.616 239.149,279.483 238.934 C 279.110 238.331,287.013 230.637,287.619 231.012 C 287.919 231.197,288.023 231.161,287.876 230.923 C 287.513 230.335,295.848 222.259,296.441 222.625 C 296.721 222.798,296.820 222.756,296.676 222.523 C 296.313 221.935,304.648 213.859,305.241 214.225 C 305.531 214.404,305.620 214.355,305.464 214.103 C 305.128 213.560,329.857 189.865,330.406 190.204 C 330.634 190.344,330.770 190.221,330.710 189.930 C 330.649 189.638,330.838 189.449,331.130 189.510 C 331.421 189.570,331.557 189.454,331.432 189.251 C 331.182 188.848,355.727 165.169,356.514 165.054 C 356.781 165.015,357.024 164.831,357.054 164.645 C 357.176 163.882,364.231 157.203,364.718 157.390 C 365.006 157.500,365.145 157.434,365.027 157.243 C 364.704 156.722,373.947 147.920,374.475 148.246 C 374.722 148.399,374.815 148.348,374.682 148.133 C 374.311 147.532,381.014 141.038,381.620 141.412 C 381.919 141.597,382.023 141.561,381.877 141.324 C 381.499 140.713,390.245 132.262,390.878 132.627 C 391.165 132.793,391.270 132.785,391.112 132.610 C 390.954 132.434,391.656 131.370,392.673 130.245 C 402.096 119.822,402.280 106.152,393.138 95.676 C 392.502 94.948,392.090 94.178,392.221 93.966 C 392.352 93.754,392.221 93.630,391.930 93.690 C 391.638 93.751,391.449 93.562,391.510 93.270 C 391.570 92.979,391.432 92.856,391.203 92.998 C 390.974 93.140,389.936 92.507,388.897 91.593 C 383.319 86.683,374.133 84.508,366.939 86.394 M74.200 100.276 C 51.929 103.301,51.278 136.754,73.400 141.398 C 77.603 142.281,226.400 142.283,230.565 141.400 C 243.922 138.571,250.638 124.506,244.865 111.454 C 244.393 110.387,244.108 109.348,244.233 109.147 C 244.358 108.945,244.311 108.828,244.130 108.887 C 243.948 108.945,242.900 108.027,241.800 106.847 C 239.266 104.128,237.115 102.650,233.704 101.284 L 231.000 100.200 153.200 100.156 C 110.410 100.133,74.860 100.186,74.200 100.276 M229.500 276.282 C 229.995 276.378,230.805 276.378,231.300 276.282 C 231.795 276.187,231.390 276.109,230.400 276.109 C 229.410 276.109,229.005 276.187,229.500 276.282 " stroke="none" fill="#6494d4" fill-rule="evenodd"></path><path id="path1" d="M57.732 2.700 C 55.465 5.267,50.977 10.436,48.806 12.978 C 48.253 13.627,47.155 14.887,46.367 15.778 C 45.579 16.670,44.478 17.940,43.921 18.600 C 43.363 19.260,41.488 21.419,39.754 23.397 C 38.019 25.376,36.215 27.446,35.744 27.997 C 35.272 28.549,32.861 31.340,30.386 34.200 C 27.910 37.060,25.028 40.390,23.982 41.600 C 20.009 46.194,10.950 56.650,9.947 57.800 C 9.371 58.460,8.113 59.908,7.150 61.017 C 6.188 62.126,4.320 64.260,3.000 65.759 C 0.578 68.509,-0.187 69.558,0.063 69.783 C 0.139 69.850,4.267 65.202,9.238 59.453 C 50.744 11.451,58.260 2.816,59.682 1.500 C 60.615 0.636,61.051 -0.000,60.710 -0.000 C 60.383 -0.000,59.044 1.215,57.732 2.700 M91.638 0.172 C 91.736 0.269,138.840 0.537,196.314 0.768 C 308.019 1.215,302.616 1.101,303.352 3.018 C 303.488 3.374,303.603 26.466,303.608 54.333 L 303.615 105.000 298.708 109.749 C 282.613 125.324,282.374 125.518,280.130 124.777 C 277.444 123.890,277.600 126.938,277.600 75.389 L 277.600 28.738 276.431 27.569 L 275.262 26.400 172.481 26.400 L 69.701 26.400 68.325 27.700 C 67.568 28.415,63.362 32.960,58.979 37.800 C 54.595 42.640,50.914 46.690,50.797 46.800 C 50.681 46.910,48.711 49.070,46.419 51.600 C 44.127 54.130,40.693 57.910,38.788 60.000 C 26.010 74.017,26.400 73.535,26.395 75.332 C 26.368 84.372,27.338 119.218,27.636 119.945 C 27.992 120.812,35.952 132.525,58.119 164.800 C 62.728 171.510,66.881 177.311,67.349 177.691 C 68.148 178.340,72.753 178.383,143.411 178.391 C 226.031 178.401,219.894 178.217,220.842 180.710 C 221.652 182.840,221.044 183.621,213.083 190.680 C 199.453 202.765,193.134 209.154,188.038 216.000 C 186.809 217.650,185.533 219.180,185.202 219.400 C 184.815 219.657,169.480 219.871,142.267 220.000 L 99.934 220.200 98.767 221.506 C 96.808 223.699,96.985 224.179,103.934 235.490 C 107.418 241.161,111.571 248.006,113.164 250.702 C 114.756 253.398,116.394 255.783,116.803 256.002 C 117.277 256.255,127.701 256.401,145.474 256.402 C 179.747 256.405,176.278 255.677,178.403 263.310 C 181.318 273.780,188.468 284.618,196.452 290.670 C 199.785 293.196,200.406 295.255,198.431 297.231 L 197.262 298.400 171.437 298.400 L 145.613 298.400 144.369 299.511 C 142.390 301.279,142.584 302.677,145.538 307.952 C 151.886 319.289,162.940 337.322,172.781 352.400 C 178.833 361.671,182.756 367.511,193.400 383.093 C 195.380 385.991,197.413 388.551,197.919 388.781 C 198.538 389.064,211.292 389.200,237.050 389.200 L 275.262 389.200 276.431 388.031 L 277.600 386.862 277.600 332.404 C 277.600 293.489,277.726 277.698,278.041 277.074 C 278.284 276.593,279.049 275.689,279.741 275.064 C 280.434 274.439,282.897 272.099,285.215 269.864 C 287.534 267.629,291.346 263.955,293.686 261.701 C 299.154 256.435,300.844 255.805,302.806 258.299 C 303.592 259.297,303.600 260.118,303.600 336.293 L 303.600 413.279 302.358 414.440 C 301.674 415.078,301.290 415.600,301.503 415.600 C 302.256 415.600,303.906 413.572,304.151 412.344 C 304.726 409.471,304.426 260.436,303.842 259.039 C 302.630 256.137,299.801 255.556,297.331 257.700 C 295.500 259.289,290.977 263.580,283.248 271.060 L 277.400 276.720 277.200 331.795 L 277.000 386.869 275.878 387.835 L 274.755 388.800 236.878 388.772 C 216.045 388.756,198.666 388.612,198.257 388.452 C 197.491 388.150,195.825 385.857,188.631 375.200 C 186.329 371.790,182.275 365.789,179.623 361.864 C 176.970 357.939,174.800 354.648,174.800 354.551 C 174.800 354.454,173.810 352.961,172.600 351.235 C 171.390 349.508,170.400 347.976,170.400 347.831 C 170.400 347.685,170.216 347.349,169.991 347.083 C 169.260 346.218,161.059 333.175,156.639 325.847 C 154.266 321.912,151.983 318.132,151.565 317.447 C 151.148 316.761,150.584 315.750,150.312 315.200 C 150.041 314.650,149.256 313.300,148.569 312.200 C 147.142 309.916,144.966 306.046,143.973 304.027 C 143.474 303.014,143.390 302.334,143.649 301.430 C 143.842 300.756,144.000 300.164,144.000 300.113 C 144.000 298.948,146.670 298.823,171.858 298.809 C 200.545 298.794,198.985 298.960,199.777 295.836 C 200.250 293.967,199.414 292.233,197.359 290.827 C 188.903 285.039,180.918 272.350,178.014 260.088 C 177.639 258.501,177.192 257.729,176.219 256.988 L 174.924 256.000 146.351 256.000 C 113.611 256.000,117.103 256.486,114.195 251.529 C 110.519 245.263,106.498 238.599,102.514 232.170 C 98.055 224.974,97.821 224.403,98.578 222.591 C 99.519 220.338,98.254 220.400,143.215 220.400 C 182.159 220.400,184.761 220.357,185.525 219.700 C 185.973 219.315,187.825 217.110,189.640 214.800 C 191.456 212.490,196.015 207.533,199.771 203.785 C 205.886 197.683,207.744 195.931,211.844 192.400 C 222.304 183.393,223.373 181.664,220.191 178.900 L 219.155 178.000 143.800 178.000 L 68.445 178.000 67.450 177.100 C 66.903 176.605,65.055 174.130,63.343 171.600 C 58.106 163.858,55.186 159.576,50.626 152.953 C 48.221 149.459,44.960 144.710,43.380 142.400 C 41.801 140.090,39.142 136.220,37.472 133.800 C 31.528 125.185,28.393 120.435,28.043 119.514 C 27.848 119.001,27.571 110.845,27.427 101.390 C 27.284 91.936,27.086 82.220,26.987 79.800 C 26.757 74.126,26.845 73.870,30.400 69.943 C 32.050 68.120,34.379 65.542,35.576 64.214 C 36.773 62.886,37.855 61.710,37.981 61.600 C 38.106 61.490,40.000 59.420,42.189 57.000 C 44.378 54.580,46.356 52.402,46.584 52.160 C 46.813 51.917,48.440 50.124,50.200 48.175 C 51.960 46.225,54.494 43.453,55.832 42.015 C 57.169 40.577,59.059 38.508,60.032 37.418 C 61.004 36.328,62.909 34.258,64.264 32.818 C 65.620 31.378,67.121 29.701,67.600 29.092 C 69.545 26.617,61.129 26.800,172.811 26.800 L 274.862 26.800 276.031 27.969 L 277.200 29.138 277.200 75.789 C 277.200 127.932,276.996 124.347,280.014 125.252 C 282.339 125.948,282.940 125.544,290.791 118.000 C 294.568 114.370,298.990 110.140,300.616 108.600 C 304.755 104.681,304.400 109.807,304.400 53.954 C 304.400 1.048,304.480 3.282,302.532 1.519 C 301.549 0.629,90.749 -0.718,91.638 0.172 M368.600 85.432 C 365.025 86.300,363.952 86.650,362.200 87.517 C 359.048 89.078,357.025 90.607,352.663 94.725 C 347.525 99.576,308.425 136.829,297.800 146.998 C 289.383 155.053,222.693 218.622,214.800 226.114 C 209.100 231.523,207.121 233.865,205.401 237.235 C 194.105 259.359,219.549 284.566,241.802 273.296 C 244.742 271.807,246.368 270.532,251.017 266.071 C 253.007 264.162,258.134 259.270,262.411 255.200 C 266.689 251.130,272.351 245.718,274.994 243.174 C 277.637 240.629,285.650 232.992,292.800 226.201 C 299.950 219.410,307.780 211.952,310.200 209.627 C 312.620 207.302,316.490 203.617,318.800 201.439 C 321.110 199.261,324.988 195.571,327.418 193.239 C 329.849 190.908,333.727 187.200,336.036 185.000 C 338.346 182.800,342.028 179.285,344.218 177.188 C 348.100 173.471,352.646 169.136,379.008 144.006 C 397.445 126.431,400.173 122.893,399.965 116.827 C 399.945 116.262,399.621 116.999,399.243 118.464 C 397.267 126.129,398.182 125.139,355.978 165.296 C 336.496 183.833,303.978 214.805,283.715 234.122 C 244.715 271.303,244.731 271.289,241.000 273.131 C 219.861 283.569,195.023 258.953,205.584 238.031 C 207.577 234.084,209.767 231.653,220.687 221.269 C 236.631 206.108,246.477 196.718,251.400 191.976 C 253.820 189.646,263.540 180.382,273.000 171.390 C 282.460 162.398,292.000 153.308,294.200 151.189 C 296.400 149.070,302.340 143.398,307.400 138.584 C 316.065 130.340,321.040 125.595,341.400 106.152 C 358.814 89.523,360.103 88.490,365.600 86.761 C 379.530 82.378,395.224 91.985,399.188 107.322 C 399.597 108.905,399.947 109.804,399.966 109.320 C 400.200 103.306,393.013 92.912,385.755 88.765 C 380.996 86.047,372.702 84.435,368.600 85.432 M72.400 100.159 C 51.291 104.882,51.323 136.807,72.441 141.785 C 75.729 142.560,227.225 142.722,230.880 141.955 C 252.401 137.436,253.113 105.681,231.816 100.212 C 228.610 99.389,76.070 99.338,72.400 100.159 M233.704 101.284 C 252.932 108.989,250.730 137.128,230.565 141.400 C 226.400 142.283,77.603 142.281,73.400 141.398 C 51.269 136.752,51.919 103.302,74.200 100.276 C 74.860 100.186,110.410 100.133,153.200 100.156 L 231.000 100.200 233.704 101.284 " stroke="none" fill="#bcbcbc" fill-rule="evenodd"></path><path id="path2" d="M143.100 0.693 C 144.035 0.777,145.565 0.777,146.500 0.693 C 147.435 0.609,146.670 0.540,144.800 0.540 C 142.930 0.540,142.165 0.609,143.100 0.693 " stroke="none" fill="#9cb4e4" fill-rule="evenodd"></path><path id="path3" d="" stroke="none" fill="#64a0d8" fill-rule="evenodd"></path><path id="path4" d="M26.909 79.200 C 26.909 80.190,26.987 80.595,27.082 80.100 C 27.178 79.605,27.178 78.795,27.082 78.300 C 26.987 77.805,26.909 78.210,26.909 79.200 M27.293 103.200 C 27.293 103.970,27.375 104.285,27.476 103.900 C 27.576 103.515,27.576 102.885,27.476 102.500 C 27.375 102.115,27.293 102.430,27.293 103.200 M121.500 220.700 C 132.775 220.759,151.225 220.759,162.500 220.700 C 173.775 220.641,164.550 220.593,142.000 220.593 C 119.450 220.593,110.225 220.641,121.500 220.700 " stroke="none" fill="#84a0cc" fill-rule="evenodd"></path></g></svg>