<?xml version="1.0" encoding="utf-8"?>
<!-- Generator: Adobe Illustrator 16.0.0, SVG Export Plug-In . SVG Version: 6.00 Build 0)  -->
<!DOCTYPE svg PUBLIC "-//W3C//DTD SVG 1.1//EN" "http://www.w3.org/Graphics/SVG/1.1/DTD/svg11.dtd">
<svg version="1.1" id="icon_new_payments" xmlns="http://www.w3.org/2000/svg" xmlns:xlink="http://www.w3.org/1999/xlink" x="0px"
	 y="0px" width="27px" height="24px" viewBox="-3.5 1.5 27 24" enable-background="new -3.5 1.5 27 24" xml:space="preserve">
<g>
	<g>
		<path fill="#99B6E4" d="M15.176,11.948h-1.165c-0.213,0-0.388,0.173-0.388,0.388s0.175,0.388,0.388,0.388h1.165
			c0.214,0,0.389-0.173,0.389-0.388S15.39,11.948,15.176,11.948z"/>
		<path fill="#99B6E4" d="M8.189,11.172h1.165c0.214,0,0.388-0.174,0.388-0.388c0-0.215-0.174-0.388-0.388-0.388H8.189
			c-0.214,0-0.388,0.173-0.388,0.388C7.802,10.998,7.976,11.172,8.189,11.172z"/>
		<path fill="#99B6E4" d="M15.176,10.396h-2.717c-0.215,0-0.388,0.173-0.388,0.388c0,0.214,0.173,0.388,0.388,0.388h2.717
			c0.214,0,0.389-0.174,0.389-0.388C15.564,10.569,15.39,10.396,15.176,10.396z"/>
		<path fill="#99B6E4" d="M10.906,11.172c0.102,0,0.203-0.043,0.276-0.113c0.07-0.074,0.112-0.175,0.112-0.275
			c0-0.101-0.042-0.203-0.112-0.276c-0.147-0.143-0.407-0.143-0.551,0c-0.07,0.073-0.114,0.175-0.114,0.276
			c0,0.101,0.044,0.202,0.114,0.275C10.705,11.129,10.801,11.172,10.906,11.172z"/>
		<path fill="#99B6E4" d="M9.354,12.336c0,0.215,0.174,0.388,0.388,0.388h2.717c0.214,0,0.389-0.173,0.389-0.388
			s-0.175-0.388-0.389-0.388H9.742C9.528,11.948,9.354,12.121,9.354,12.336z"/>
		<path fill="#99B6E4" d="M10.906,14.862c0,0.149,0.122,0.271,0.271,0.271h4.113c0.15,0,0.273-0.122,0.273-0.271
			c0-0.15-0.123-0.271-0.273-0.271h-4.113C11.028,14.591,10.906,14.712,10.906,14.862z"/>
		<path fill="#99B6E4" d="M5.821,14.862c0,0.149,0.122,0.271,0.271,0.271h4.114c0.15,0,0.272-0.122,0.272-0.271
			c0-0.15-0.122-0.271-0.272-0.271H6.093C5.943,14.591,5.821,14.712,5.821,14.862z"/>
		<path fill="#99B6E4" d="M10.906,16.085c0,0.15,0.122,0.271,0.271,0.271h4.113c0.15,0,0.273-0.121,0.273-0.271
			c0-0.151-0.123-0.272-0.273-0.272h-4.113C11.028,15.812,10.906,15.934,10.906,16.085z"/>
		<path fill="#99B6E4" d="M5.821,16.085c0,0.15,0.122,0.271,0.271,0.271H7.53c0.149,0,0.271-0.121,0.271-0.271
			c0-0.151-0.122-0.272-0.271-0.272H6.093C5.943,15.812,5.821,15.934,5.821,16.085z"/>
		<path fill="#99B6E4" d="M8.298,16.085c0,0.15,0.122,0.271,0.271,0.271h1.438c0.15,0,0.272-0.121,0.272-0.271
			c0-0.151-0.122-0.272-0.272-0.272H8.569C8.42,15.812,8.298,15.934,8.298,16.085z"/>
		<path fill="#99B6E4" d="M10.906,17.927c0,0.15,0.122,0.271,0.271,0.271h4.113c0.15,0,0.273-0.121,0.273-0.271
			s-0.123-0.272-0.273-0.272h-4.113C11.028,17.654,10.906,17.776,10.906,17.927z"/>
		<path fill="#99B6E4" d="M8.189,12.724c0.101,0,0.202-0.042,0.275-0.112c0.07-0.074,0.113-0.174,0.113-0.275
			c0-0.105-0.043-0.202-0.113-0.275c-0.146-0.144-0.407-0.144-0.551,0c-0.069,0.073-0.112,0.17-0.112,0.275
			c0,0.101,0.043,0.202,0.112,0.275C7.987,12.681,8.085,12.724,8.189,12.724z"/>
		<path fill="#99B6E4" d="M21.447,7.679V6.902V4.574V3.016c0-0.639-0.52-1.158-1.158-1.158h-1.563c-0.639,0-1.158,0.52-1.158,1.158
			v1.559v2.328v0.776H-1.068v8.628h0.776V8.455h17.859V19.71H3.109v0.776h14.458v0.879l1.552,2.717v0.673
			c0,0.215,0.173,0.388,0.388,0.388c0.214,0,0.389-0.173,0.389-0.388v-0.673l1.552-2.717v-0.879H23V7.679H21.447z M19.507,23.196
			l-0.883-1.546h1.767L19.507,23.196z M20.67,7.679v12.808v0.388h-2.328v-0.388V7.679V6.902h2.328V7.679z M20.67,6.126h-2.328V5.35
			h2.328V6.126z M20.67,4.574h-2.328V3.016c0-0.211,0.172-0.382,0.384-0.382h1.563c0.21,0,0.381,0.171,0.381,0.382V4.574z
			 M22.224,19.71h-0.776V8.455h0.776V19.71z"/>
	</g>
	<g>
		<g>
			
				<line fill="none" stroke="#99B6E4" stroke-width="0.3676" stroke-miterlimit="10" x1="3.737" y1="9.636" x2="3.737" y2="10.655"/>
			
				<line fill="none" stroke="#99B6E4" stroke-width="0.3676" stroke-miterlimit="10" stroke-dasharray="2.0933,1.0466" x1="3.737" y1="11.702" x2="3.737" y2="17.458"/>
			
				<line fill="none" stroke="#99B6E4" stroke-width="0.3676" stroke-miterlimit="10" x1="3.737" y1="17.981" x2="3.737" y2="19.001"/>
		</g>
	</g>
	<path fill="#99B6E4" d="M1.094,20.751H0.003v1.09c0,0.352-0.285,0.638-0.637,0.638s-0.638-0.286-0.638-0.638v-1.09h-1.091
		C-2.714,20.751-3,20.465-3,20.113s0.286-0.638,0.638-0.638h1.091v-1.091c0-0.352,0.286-0.638,0.638-0.638s0.637,0.286,0.637,0.638
		v1.091h1.091c0.352,0,0.639,0.286,0.639,0.638S1.445,20.751,1.094,20.751L1.094,20.751z"/>
</g>
</svg>
