<svg version="1.0" xmlns="http://www.w3.org/2000/svg"
	 width="20.000000pt" height="20.000000pt" viewBox="0 0 207.000000 244.000000"
	 preserveAspectRatio="xMidYMid meet">
	<metadata>
		Created by potrace 1.15, written by Peter Selinger 2001-2017
	</metadata>
	<g transform="translate(0.000000,244.000000) scale(0.100000,-0.100000)"
	   fill="#fff" stroke="none">
		<path d="M1210 2292 l0 -137 -93 -17 c-118 -22 -257 -67 -350 -114 -276 -138
-351 -346 -218 -601 49 -93 105 -169 207 -280 41 -46 72 -83 68 -83 -16 0
-198 156 -260 223 -110 119 -175 225 -197 322 l-12 55 -172 -117 c-95 -65
-170 -120 -167 -122 3 -3 166 -132 362 -288 l357 -282 300 -1 300 0 350 276
c193 152 356 281 363 288 10 10 -26 39 -185 147 -108 74 -202 137 -207 141 -6
3 -119 -92 -251 -212 l-240 -219 -3 195 -2 195 -38 -7 c-151 -27 -278 -96
-320 -174 -20 -39 -23 -55 -19 -115 8 -118 75 -236 226 -397 95 -101 89 -100
-77 13 -53 36 -97 70 -97 75 0 5 -14 28 -31 49 -134 170 -179 336 -124 449 28
58 103 127 180 166 67 34 207 73 303 85 l57 7 0 -166 0 -167 263 237 c144 130
262 241 262 245 0 9 -520 469 -530 469 -3 0 -5 -62 -5 -138z"/>
		<path d="M0 679 l0 -674 24 25 c47 47 656 754 656 760 0 6 -433 364 -632 523
l-48 39 0 -673z"/>
		<path d="M1730 1075 c-184 -150 -336 -277 -337 -282 -2 -5 149 -184 334 -398
l338 -389 3 337 c1 185 1 488 0 671 l-3 335 -335 -274z"/>
		<path d="M427 394 c-186 -212 -337 -388 -334 -390 2 -2 429 -3 949 -2 l945 3
-345 388 -344 387 -267 0 -266 0 -338 -386z"/>
	</g>
</svg>
