<svg id="Layer_1" data-name="Layer 1" xmlns="http://www.w3.org/2000/svg" viewBox="0 0 26 28"><defs><style>.cls-1{fill:#9ab5de;}</style></defs><title>MB</title><path class="cls-1" d="M14.28,16.42A2.25,2.25,0,1,0,12,18.66,2.25,2.25,0,0,0,14.28,16.42Zm-3.71,0A1.46,1.46,0,1,1,12,17.88,1.46,1.46,0,0,1,10.57,16.42Z"/><path class="cls-1" d="M25.33,15.33H21a.35.35,0,0,0-.35.35v.39H16.49a1.09,1.09,0,0,0-.38.07h0v0a4.06,4.06,0,1,0-5.21,4.18h0l0,0a2.56,2.56,0,0,0-1,2,.35.35,0,0,0,.35.35h6.8a1.82,1.82,0,0,0,1.3-.54L20,20.48h.62v.39a.35.35,0,0,0,.35.35h4.32a.35.35,0,0,0,.35-.35V15.68A.35.35,0,0,0,25.33,15.33ZM8.67,16.42a3.36,3.36,0,1,1,6.72,0c0,.1,0,.2,0,.31h0L13.71,18.4a1.4,1.4,0,0,0-.36,1.35v0h-.88l-.32,0h0l-.11,0A3.36,3.36,0,0,1,8.67,16.42Zm12,3.36h-.76a.35.35,0,0,0-.25.1l-1.79,1.79a1.13,1.13,0,0,1-.8.33H10.63v0a1.88,1.88,0,0,1,1.84-1.5h1.36a1.4,1.4,0,0,0,1.86-.11l1.48-1.48a.35.35,0,0,0-.49-.49L15.2,19.88a.7.7,0,0,1-1-1l2-2a.39.39,0,0,1,.28-.12h4.17Zm1.85.74H21.35V16h1.16Zm2.47,0H23.21V16H25Z"/><path class="cls-1" d="M10.08,11.86l.74-.6L12.48,9.6a1.4,1.4,0,0,0,.36-1.35v0h.88l.32,0a2.25,2.25,0,0,0,1.29-.54,2.56,2.56,0,0,0,1-2,.35.35,0,0,0-.35-.35H9.14a1.82,1.82,0,0,0-1.3.54L6.15,7.52H5.54V7.13a.35.35,0,0,0-.35-.35H.87a.35.35,0,0,0-.35.35v5.19a.35.35,0,0,0,.35.35H5.19a.35.35,0,0,0,.35-.35v-.39H9.7A1.09,1.09,0,0,0,10.08,11.86ZM3,12H1.21V7.48H3Zm1.85,0H3.68V7.48H4.84Zm.7-3.75H6.3a.35.35,0,0,0,.25-.1L8.34,6.33A1.13,1.13,0,0,1,9.14,6h6.42V6a1.88,1.88,0,0,1-1.84,1.5H12.36a1.4,1.4,0,0,0-1.86.11L9,9.11a.35.35,0,0,0,.49.49L11,8.12a.7.7,0,0,1,1,1l-2,2a.39.39,0,0,1-.28.11H5.54Z"/></svg>