<?xml version="1.0" encoding="utf-8"?>
<!-- Generator: Adobe Illustrator 16.0.0, SVG Export Plug-In . SVG Version: 6.00 Build 0)  -->
<!DOCTYPE svg PUBLIC "-//W3C//DTD SVG 1.1//EN" "http://www.w3.org/Graphics/SVG/1.1/DTD/svg11.dtd">
<svg version="1.1" id="Layer_1" xmlns="http://www.w3.org/2000/svg" xmlns:xlink="http://www.w3.org/1999/xlink" x="0px" y="0px"
	 width="26px" height="20px" viewBox="0 0 26 20" enable-background="new 0 0 26 20" xml:space="preserve">
<g transform="translate(-1120 -1295)">
	<g>
		<defs>
			<path id="SVGID_1_" d="M1141,1313h-16v-11h-2.5c-0.829,0-1.5-0.672-1.5-1.5v-2c0-0.83,0.67-1.5,1.5-1.5h21
				c0.83,0,1.5,0.67,1.5,1.5v2c0,0.83-0.67,1.5-1.5,1.5h-2.5V1313z"/>
		</defs>
		<clipPath id="SVGID_2_">
			<use xlink:href="#SVGID_1_"  overflow="visible"/>
		</clipPath>
		<g clip-path="url(#SVGID_2_)">
			<path id="f" fill="#FFFFFF" fill-opacity="0" stroke="#99B6E4" stroke-width="2" stroke-miterlimit="50" d="M1141,1313h-16v-11
				h-2.5c-0.829,0-1.5-0.672-1.5-1.5v-2c0-0.83,0.67-1.5,1.5-1.5h21c0.83,0,1.5,0.67,1.5,1.5v2c0,0.83-0.67,1.5-1.5,1.5h-2.5V1313z"
				/>
		</g>
	</g>
</g>
<g transform="translate(-1120 -1295)">
	<g>
		<defs>
			<polyline id="SVGID_3_" points="1141,1299 1141,1313 1125,1313 1125,1299 			"/>
		</defs>
		<clipPath id="SVGID_4_">
			<use xlink:href="#SVGID_3_"  overflow="visible"/>
		</clipPath>
		<g clip-path="url(#SVGID_4_)">
			<path id="b" fill="#FFFFFF" fill-opacity="0" stroke="#99B6E4" stroke-width="2" stroke-miterlimit="50" d="M1141,1299v14h-16
				v-14"/>
		</g>
	</g>
</g>
<g transform="translate(-1120 -1295)">
	<g>
		<defs>
			<path id="SVGID_5_" d="M1128,1299v9c1.104,0,2,0.896,2,2h6c0-1.1,0.9-2,2-2v-9"/>
		</defs>
		<clipPath id="SVGID_6_">
			<use xlink:href="#SVGID_5_"  overflow="visible"/>
		</clipPath>
		<g clip-path="url(#SVGID_6_)">
			<path id="c" fill="#FFFFFF" fill-opacity="0" stroke="#99B6E4" stroke-width="2" stroke-miterlimit="50" d="M1128,1299v9
				c1.104,0,2,0.896,2,2h6c0-1.1,0.9-2,2-2v-9"/>
		</g>
	</g>
</g>
<g transform="translate(-1120 -1295)">
	<g>
		<defs>
			<path id="SVGID_7_" d="M1128.2,1299c0.55,1.72,2.49,3,4.8,3c2.311,0,4.25-1.28,4.801-3"/>
		</defs>
		<clipPath id="SVGID_8_">
			<use xlink:href="#SVGID_7_"  overflow="visible"/>
		</clipPath>
		<g clip-path="url(#SVGID_8_)">
			<path id="d" fill="#FFFFFF" fill-opacity="0" stroke="#99B6E4" stroke-width="2" stroke-miterlimit="50" d="M1128.2,1299
				c0.55,1.72,2.49,3,4.8,3c2.311,0,4.25-1.28,4.801-3"/>
		</g>
	</g>
</g>
<g transform="translate(-1120 -1295)">
	<g>
		<defs>
			<circle id="SVGID_9_" cx="1133" cy="1305.5" r="1"/>
		</defs>
		<clipPath id="SVGID_10_">
			<use xlink:href="#SVGID_9_"  overflow="visible"/>
		</clipPath>
		<g clip-path="url(#SVGID_10_)">
			<path id="e" fill="#FFFFFF" fill-opacity="0" stroke="#99B6E4" stroke-width="2" stroke-miterlimit="50" d="M1134,1305.5
				c0,0.553-0.447,1-1,1c-0.552,0-1-0.447-1-1c0-0.552,0.448-1,1-1C1133.553,1304.5,1134,1304.948,1134,1305.5z"/>
		</g>
	</g>
</g>
</svg>
