<?xml version="1.0" encoding="iso-8859-1"?>
<!-- Generator: Adobe Illustrator 19.0.0, SVG Export Plug-In . SVG Version: 6.00 Build 0)  -->
<svg version="1.1" id="Layer_1" xmlns="http://www.w3.org/2000/svg" xmlns:xlink="http://www.w3.org/1999/xlink" x="0px" y="0px"
	 viewBox="0 0 446.001 446.001" style="enable-background:new 0 0 446.001 446.001;" xml:space="preserve">
<g>
	<g>
		<g>
			<path fill="#fff" d="M353,76.001h-56V8.191c0-1.826-0.531-3.643-1.658-5.079c-2.262-2.884-6.013-3.82-9.235-2.57l-196,76l-0.051,0.015
				C87.064,77.411,85,80.147,85,83.26v354.741c0,4.418,3.582,8,8,8h260c4.418,0,8-3.582,8-8v-354
				C361,79.583,357.418,76.001,353,76.001z M281,19.683V76H135.76L281,19.683z M345,430.001H101v-338h188h56V430.001z"/>
			<path fill="#fff" d="M223,189.001c-28.629,0-55.594,11.081-75.922,31.197C126.392,240.633,115,267.909,115,297.001
				c0,59.551,48.449,108,108,108c59.552,0,108-48.449,108-108c0-29.092-11.393-56.367-32.073-76.798
				C278.593,200.082,251.628,189.001,223,189.001z M158.327,231.576c7.426-7.348,15.897-13.27,25.067-17.65
				c-12.293,18.09-20.358,44.655-21.567,75.075h-30.48C133.205,267.251,142.615,247.099,158.327,231.576z M131.352,305.001h30.475
				c1.208,30.382,9.254,56.918,21.521,75.007C154.696,366.265,134.218,338.114,131.352,305.001z M215,387.496
				c-19.647-7.442-35.321-41.621-37.151-82.495H215V387.496z M215,289.001h-37.151c1.831-40.874,17.505-75.053,37.151-82.495
				V289.001z M231,206.506c19.647,7.442,35.32,41.621,37.151,82.495H231V206.506z M231,387.495V305h37.151
				C266.32,345.874,250.647,380.053,231,387.495z M262.652,380.008c12.267-18.089,20.313-44.625,21.521-75.007h30.476
				C311.782,338.114,291.305,366.265,262.652,380.008z M284.172,289.001c-1.209-30.419-9.274-56.983-21.566-75.074
				c9.171,4.381,17.643,10.303,25.072,17.654c15.709,15.518,25.118,35.67,26.975,57.42H284.172z"/>
			<path fill="#fff" d="M161.5,121.001c-4.419,0-8,3.582-8,8c0,4.418,3.581,8,8,8h123c4.418,0,8-3.582,8-8c0-4.419-3.582-8-8-8H161.5z"/>
			<path fill="#fff" d="M231.5,160.001c0,4.418,3.582,8,8,8h71c4.418,0,8-3.582,8-8c0-4.419-3.582-8-8-8h-71
				C235.082,152.001,231.5,155.582,231.5,160.001z"/>
			<path fill="#fff" d="M135.5,168.001h72c4.418,0,8-3.582,8-8c0-4.419-3.582-8-8-8h-72c-4.419,0-8,3.581-8,8
				C127.5,164.419,131.082,168.001,135.5,168.001z"/>
		</g>
	</g>
</g>
</svg>
