<svg id="svg" version="1.1" width="45" height="45" viewBox="0 0 400 400" xmlns="http://www.w3.org/2000/svg" xmlns:xlink="http://www.w3.org/1999/xlink" ><g id="svgg"><path id="path0" d="M271.200 91.000 L 271.200 119.200 215.649 119.200 C 168.943 119.200,160.025 119.288,159.640 119.751 C 159.305 120.155,159.190 128.905,159.209 152.551 L 159.235 184.800 215.217 184.800 L 271.200 184.800 271.200 213.200 L 271.200 241.600 272.210 241.600 C 272.919 241.600,273.333 241.302,273.600 240.600 C 273.809 240.050,274.259 239.600,274.600 239.600 C 274.941 239.600,275.391 239.150,275.600 238.600 C 275.809 238.050,276.259 237.600,276.600 237.600 C 276.941 237.600,277.391 237.150,277.600 236.600 C 277.809 236.050,278.226 235.600,278.526 235.600 C 278.826 235.600,279.277 235.150,279.527 234.600 C 279.778 234.050,280.257 233.600,280.591 233.600 C 280.926 233.600,281.200 233.428,281.200 233.218 C 281.200 232.864,296.643 217.200,296.992 217.200 C 297.078 217.200,297.623 217.381,298.204 217.601 C 299.149 217.961,299.414 217.838,300.730 216.431 C 306.321 210.453,312.500 203.989,316.644 199.783 C 319.309 197.079,321.598 194.582,321.732 194.234 C 321.865 193.885,322.255 193.600,322.597 193.600 C 322.940 193.600,323.391 193.150,323.600 192.600 C 323.809 192.050,324.259 191.600,324.600 191.600 C 324.941 191.600,325.391 191.150,325.600 190.600 C 325.809 190.050,326.226 189.600,326.526 189.600 C 326.826 189.600,327.277 189.150,327.527 188.600 C 327.778 188.050,328.257 187.600,328.591 187.600 C 328.926 187.600,329.200 187.428,329.200 187.218 C 329.200 186.864,344.643 171.200,344.992 171.200 C 345.078 171.200,345.629 171.383,346.217 171.607 C 347.211 171.985,347.446 171.839,349.543 169.544 C 352.075 166.773,353.663 165.109,360.700 157.853 C 366.664 151.703,366.625 152.226,361.500 147.083 C 356.432 141.997,348.077 133.187,347.635 132.463 C 347.371 132.030,347.154 132.022,346.514 132.422 C 345.478 133.069,343.722 132.616,343.406 131.620 C 343.270 131.191,342.817 130.733,342.400 130.600 C 341.983 130.467,341.533 130.017,341.400 129.600 C 341.267 129.183,340.817 128.733,340.400 128.600 C 339.983 128.467,339.533 128.017,339.400 127.600 C 339.267 127.183,338.808 126.730,338.380 126.594 C 337.951 126.457,337.600 126.084,337.600 125.764 C 337.600 125.445,337.150 124.978,336.600 124.727 C 336.050 124.477,335.600 124.122,335.600 123.938 C 335.600 123.755,333.350 121.364,330.600 118.623 C 327.850 115.883,325.600 113.481,325.600 113.285 C 325.600 113.089,325.150 112.723,324.600 112.473 C 324.050 112.222,323.600 111.755,323.600 111.436 C 323.600 111.116,323.230 110.736,322.777 110.593 C 322.324 110.449,321.789 109.897,321.587 109.366 C 321.385 108.835,320.974 108.400,320.674 108.400 C 320.374 108.400,319.923 107.950,319.673 107.400 C 319.422 106.850,318.943 106.400,318.609 106.400 C 318.274 106.400,318.000 106.226,318.000 106.014 C 318.000 105.802,316.065 103.678,313.700 101.295 C 308.285 95.837,300.067 87.171,299.635 86.463 C 299.371 86.030,299.154 86.022,298.514 86.422 C 297.478 87.069,295.722 86.616,295.406 85.620 C 295.270 85.191,294.817 84.733,294.400 84.600 C 293.983 84.467,293.533 84.017,293.400 83.600 C 293.267 83.183,292.817 82.733,292.400 82.600 C 291.983 82.467,291.533 82.017,291.400 81.600 C 291.267 81.183,290.808 80.730,290.380 80.594 C 289.951 80.457,289.600 80.084,289.600 79.764 C 289.600 79.445,289.150 78.978,288.600 78.727 C 288.050 78.477,287.600 78.122,287.600 77.938 C 287.600 77.755,285.350 75.364,282.600 72.623 C 279.850 69.883,277.600 67.481,277.600 67.285 C 277.600 67.089,277.150 66.723,276.600 66.473 C 276.050 66.222,275.600 65.772,275.600 65.473 C 275.600 65.173,275.150 64.723,274.600 64.473 C 274.050 64.222,273.600 63.743,273.600 63.409 C 273.600 62.999,273.208 62.800,272.400 62.800 L 271.200 62.800 271.200 91.000 M281.200 66.600 C 281.200 66.930,281.464 67.200,281.787 67.200 C 282.145 67.200,282.285 66.965,282.145 66.600 C 282.018 66.270,281.754 66.000,281.557 66.000 C 281.361 66.000,281.200 66.270,281.200 66.600 M283.500 67.865 C 283.775 67.976,284.000 68.242,284.000 68.457 C 284.000 68.672,283.775 68.718,283.500 68.559 C 283.225 68.401,283.140 68.426,283.312 68.614 C 283.988 69.357,284.809 69.165,284.381 68.364 C 284.156 67.944,283.753 67.614,283.486 67.632 C 283.120 67.655,283.123 67.713,283.500 67.865 M329.200 112.600 C 329.200 112.930,329.464 113.200,329.787 113.200 C 330.145 113.200,330.285 112.965,330.145 112.600 C 330.018 112.270,329.754 112.000,329.557 112.000 C 329.361 112.000,329.200 112.270,329.200 112.600 M331.500 113.865 C 331.775 113.976,332.000 114.242,332.000 114.457 C 332.000 114.672,331.775 114.718,331.500 114.559 C 331.225 114.401,331.140 114.426,331.312 114.614 C 331.988 115.357,332.809 115.165,332.381 114.364 C 332.156 113.944,331.753 113.614,331.486 113.632 C 331.120 113.655,331.123 113.713,331.500 113.865 M127.839 158.687 C 127.081 158.882,120.400 165.495,120.400 166.053 C 120.400 166.214,120.049 166.457,119.620 166.594 C 119.192 166.730,118.733 167.183,118.600 167.600 C 118.467 168.017,118.017 168.467,117.600 168.600 C 117.183 168.733,116.733 169.183,116.600 169.600 C 116.467 170.017,116.017 170.467,115.600 170.600 C 115.183 170.733,114.733 171.183,114.600 171.600 C 114.467 172.017,114.017 172.467,113.600 172.600 C 113.183 172.733,112.733 173.183,112.600 173.600 C 112.467 174.017,112.028 174.464,111.623 174.593 C 111.218 174.721,110.790 175.194,110.673 175.643 C 110.555 176.092,110.103 176.553,109.667 176.667 C 109.231 176.781,108.781 177.231,108.667 177.667 C 108.553 178.103,108.103 178.553,107.667 178.667 C 107.231 178.781,106.781 179.231,106.667 179.667 C 106.553 180.103,106.103 180.553,105.667 180.667 C 105.231 180.781,104.784 181.216,104.675 181.635 C 104.408 182.654,103.318 183.020,102.013 182.528 C 101.007 182.147,100.750 182.332,97.572 185.725 C 95.718 187.705,92.445 191.104,90.300 193.277 C 88.155 195.450,86.400 197.406,86.400 197.623 C 86.400 197.840,85.950 198.222,85.400 198.473 C 84.850 198.723,84.400 199.068,84.400 199.238 C 84.400 199.409,81.700 202.283,78.400 205.626 C 75.100 208.969,72.400 211.849,72.400 212.025 C 72.400 212.202,72.049 212.457,71.620 212.594 C 71.192 212.730,70.733 213.183,70.600 213.600 C 70.467 214.017,70.017 214.467,69.600 214.600 C 69.183 214.733,68.733 215.183,68.600 215.600 C 68.467 216.017,68.017 216.467,67.600 216.600 C 67.183 216.733,66.733 217.183,66.600 217.600 C 66.467 218.017,66.017 218.467,65.600 218.600 C 65.183 218.733,64.733 219.183,64.600 219.600 C 64.467 220.017,64.028 220.464,63.623 220.593 C 63.218 220.721,62.790 221.194,62.673 221.643 C 62.555 222.092,62.103 222.553,61.667 222.667 C 61.231 222.781,60.781 223.231,60.667 223.667 C 60.553 224.103,60.103 224.553,59.667 224.667 C 59.231 224.781,58.781 225.231,58.667 225.667 C 58.553 226.103,58.103 226.553,57.667 226.667 C 57.231 226.781,56.784 227.216,56.675 227.635 C 56.408 228.654,55.318 229.020,54.013 228.528 C 53.007 228.147,52.750 228.332,49.572 231.725 C 47.718 233.705,44.445 237.104,42.300 239.277 C 40.155 241.450,38.400 243.406,38.400 243.623 C 38.400 243.840,37.950 244.222,37.400 244.473 C 36.850 244.723,36.400 245.163,36.400 245.450 C 36.400 245.737,36.040 246.165,35.600 246.400 C 33.819 247.353,34.528 248.886,38.700 253.104 C 45.133 259.608,52.332 267.197,52.475 267.624 C 52.562 267.887,53.046 267.873,53.876 267.583 C 55.295 267.089,56.800 267.605,56.800 268.587 C 56.800 268.895,57.151 269.257,57.580 269.394 C 58.008 269.530,58.467 269.983,58.600 270.400 C 58.733 270.817,59.164 271.262,59.560 271.387 C 59.955 271.513,60.482 272.062,60.731 272.608 C 60.979 273.153,61.428 273.600,61.727 273.600 C 62.027 273.600,62.477 274.050,62.727 274.600 C 62.978 275.150,63.457 275.600,63.791 275.600 C 64.126 275.600,64.400 275.764,64.400 275.964 C 64.400 276.165,68.495 280.480,73.500 285.554 C 78.505 290.628,85.158 297.439,88.285 300.689 C 91.413 303.940,95.404 308.090,97.156 309.912 C 98.908 311.734,100.401 313.404,100.475 313.625 C 100.562 313.887,101.046 313.873,101.876 313.583 C 103.295 313.089,104.800 313.605,104.800 314.587 C 104.800 314.895,105.151 315.257,105.580 315.394 C 106.008 315.530,106.467 315.983,106.600 316.400 C 106.733 316.817,107.164 317.262,107.560 317.387 C 107.955 317.513,108.482 318.062,108.731 318.608 C 108.979 319.153,109.428 319.600,109.727 319.600 C 110.027 319.600,110.477 320.050,110.727 320.600 C 110.978 321.150,111.457 321.600,111.791 321.600 C 112.126 321.600,112.400 321.765,112.400 321.966 C 112.400 322.616,127.511 337.600,128.166 337.600 C 128.739 337.600,128.800 334.852,128.800 309.200 L 128.800 280.800 184.000 280.750 C 214.360 280.723,239.380 280.655,239.600 280.600 C 239.820 280.545,240.135 280.456,240.300 280.403 C 240.465 280.349,240.690 280.312,240.800 280.319 C 240.910 280.327,240.959 265.723,240.909 247.867 C 240.819 215.591,240.814 215.400,240.009 215.350 C 239.564 215.322,214.358 215.278,183.995 215.250 L 128.789 215.200 128.895 186.800 C 128.953 171.180,128.910 158.421,128.800 158.446 C 128.690 158.472,128.258 158.580,127.839 158.687 M120.400 160.600 C 119.992 161.091,120.020 161.200,120.551 161.200 C 120.908 161.200,121.200 160.930,121.200 160.600 C 121.200 160.270,121.132 160.000,121.049 160.000 C 120.966 160.000,120.674 160.270,120.400 160.600 M118.200 162.400 C 117.497 163.176,117.501 163.200,118.338 163.200 C 118.933 163.200,119.200 162.953,119.200 162.400 C 119.200 161.960,119.138 161.600,119.062 161.600 C 118.986 161.600,118.598 161.960,118.200 162.400 M329.200 191.649 C 329.200 192.358,329.299 192.416,329.800 192.000 C 330.130 191.726,330.400 191.344,330.400 191.151 C 330.400 190.958,330.130 190.800,329.800 190.800 C 329.455 190.800,329.200 191.161,329.200 191.649 M72.400 206.600 C 71.992 207.091,72.020 207.200,72.551 207.200 C 72.908 207.200,73.200 206.930,73.200 206.600 C 73.200 206.270,73.132 206.000,73.049 206.000 C 72.966 206.000,72.674 206.270,72.400 206.600 M70.200 208.400 C 69.497 209.176,69.501 209.200,70.338 209.200 C 70.933 209.200,71.200 208.953,71.200 208.400 C 71.200 207.960,71.138 207.600,71.062 207.600 C 70.986 207.600,70.598 207.960,70.200 208.400 M281.200 237.649 C 281.200 238.358,281.299 238.416,281.800 238.000 C 282.130 237.726,282.400 237.344,282.400 237.151 C 282.400 236.958,282.130 236.800,281.800 236.800 C 281.455 236.800,281.200 237.161,281.200 237.649 M69.843 287.369 C 70.207 288.315,71.200 288.475,71.200 287.587 C 71.200 287.071,70.929 286.800,70.413 286.800 C 69.896 286.800,69.700 286.996,69.843 287.369 M72.000 288.951 C 72.000 289.034,72.270 289.326,72.600 289.600 C 73.091 290.008,73.200 289.980,73.200 289.449 C 73.200 289.092,72.930 288.800,72.600 288.800 C 72.270 288.800,72.000 288.868,72.000 288.951 M117.843 333.369 C 118.207 334.315,119.200 334.475,119.200 333.587 C 119.200 333.071,118.929 332.800,118.413 332.800 C 117.896 332.800,117.700 332.996,117.843 333.369 M120.000 334.951 C 120.000 335.034,120.270 335.326,120.600 335.600 C 121.091 336.008,121.200 335.980,121.200 335.449 C 121.200 335.092,120.930 334.800,120.600 334.800 C 120.270 334.800,120.000 334.868,120.000 334.951 " stroke="none" fill="#6494d4" fill-rule="evenodd"></path><path id="path1" d="M271.271 60.279 C 271.383 61.249,271.595 61.416,272.845 61.521 C 273.925 61.611,274.403 61.889,274.737 62.621 C 274.982 63.159,275.436 63.600,275.745 63.600 C 276.054 63.600,276.404 63.973,276.524 64.430 C 276.643 64.886,277.099 65.353,277.536 65.467 C 277.974 65.582,278.441 66.109,278.574 66.638 C 278.721 67.226,279.107 67.600,279.564 67.600 C 280.030 67.600,280.408 67.979,280.564 68.600 C 280.702 69.150,281.086 69.600,281.418 69.600 C 281.749 69.600,282.191 70.050,282.400 70.600 C 282.609 71.150,283.059 71.600,283.400 71.600 C 283.741 71.600,284.191 72.050,284.400 72.600 C 284.609 73.150,285.059 73.600,285.400 73.600 C 285.741 73.600,286.191 74.050,286.400 74.600 C 286.609 75.150,287.059 75.600,287.400 75.600 C 287.741 75.600,288.191 76.050,288.400 76.600 C 288.609 77.150,289.059 77.600,289.400 77.600 C 289.741 77.600,290.185 78.035,290.387 78.566 C 290.589 79.097,291.124 79.649,291.577 79.793 C 292.030 79.936,292.400 80.316,292.400 80.636 C 292.400 80.955,292.850 81.422,293.400 81.673 C 293.950 81.923,294.400 82.373,294.400 82.673 C 294.400 82.972,294.835 83.415,295.366 83.657 C 295.897 83.899,296.424 84.449,296.536 84.878 C 296.813 85.934,301.200 85.463,301.200 84.376 C 301.200 84.169,300.930 84.000,300.600 84.000 C 300.270 84.000,300.000 83.820,300.000 83.600 C 300.000 83.380,299.741 83.200,299.424 83.200 C 299.107 83.200,298.719 82.992,298.562 82.738 C 298.368 82.425,298.457 82.385,298.838 82.615 C 299.299 82.892,299.310 82.843,298.903 82.340 C 298.630 82.003,298.540 81.581,298.703 81.404 C 298.867 81.227,298.635 81.171,298.188 81.280 C 297.343 81.487,296.400 80.786,296.400 79.950 C 296.400 79.684,296.286 79.581,296.147 79.720 C 296.008 79.859,295.537 79.519,295.101 78.965 C 294.665 78.411,294.215 78.051,294.101 78.165 C 293.833 78.434,292.349 76.554,292.491 76.126 C 292.551 75.947,292.420 75.800,292.200 75.800 C 291.980 75.800,291.845 75.935,291.900 76.100 C 292.090 76.671,291.644 76.395,290.325 75.127 C 289.596 74.426,289.299 74.075,289.664 74.346 C 290.127 74.689,290.409 74.709,290.594 74.410 C 290.740 74.173,290.621 74.030,290.330 74.090 C 290.038 74.151,289.843 73.981,289.895 73.714 C 289.950 73.434,289.739 73.325,289.395 73.457 C 289.068 73.583,288.800 73.486,288.800 73.243 C 288.800 72.999,288.419 72.800,287.953 72.800 C 287.304 72.800,287.155 72.614,287.316 72.000 C 287.492 71.328,287.328 71.200,286.296 71.200 C 285.620 71.200,285.180 71.086,285.319 70.947 C 285.775 70.492,284.789 69.200,283.986 69.200 C 283.480 69.200,283.200 68.929,283.200 68.439 C 283.200 67.959,282.772 67.529,282.039 67.273 C 281.281 67.009,280.899 66.614,280.939 66.135 C 280.979 65.654,280.689 65.356,280.100 65.272 C 279.605 65.202,279.178 64.977,279.150 64.772 C 279.123 64.567,279.078 64.175,279.050 63.900 C 279.022 63.625,278.595 63.342,278.100 63.272 C 277.299 63.158,277.004 62.580,277.300 61.704 C 277.355 61.541,276.860 61.313,276.200 61.198 C 275.303 61.041,275.011 60.780,275.042 60.163 C 275.079 59.447,274.824 59.326,273.114 59.248 C 271.173 59.159,271.145 59.175,271.271 60.279 M301.043 85.833 C 300.622 86.930,300.772 87.200,301.800 87.200 C 302.600 87.200,302.800 87.400,302.800 88.200 C 302.800 89.000,303.000 89.200,303.800 89.200 C 304.607 89.200,304.800 89.398,304.800 90.227 C 304.800 91.110,304.953 91.236,305.900 91.127 C 306.691 91.036,307.000 90.775,307.000 90.200 C 307.000 89.625,306.691 89.364,305.900 89.273 C 305.118 89.183,304.800 88.921,304.800 88.364 C 304.800 87.904,304.402 87.429,303.839 87.215 C 303.310 87.014,302.742 86.630,302.577 86.363 C 302.373 86.033,302.457 85.970,302.838 86.168 C 303.147 86.328,303.051 86.176,302.624 85.830 C 301.647 85.038,301.348 85.039,301.043 85.833 M306.800 92.200 C 306.800 93.000,307.000 93.200,307.800 93.200 C 308.592 93.200,308.800 93.402,308.800 94.172 C 308.800 94.876,309.049 95.180,309.700 95.272 C 310.270 95.353,310.646 95.721,310.725 96.275 C 310.802 96.821,311.179 97.198,311.725 97.275 C 312.270 97.353,312.647 97.730,312.725 98.275 C 312.802 98.821,313.179 99.198,313.725 99.275 C 314.278 99.354,314.647 99.730,314.728 100.299 C 314.807 100.860,315.221 101.290,315.828 101.443 C 316.434 101.595,316.800 101.975,316.800 102.453 C 316.800 102.903,317.213 103.377,317.800 103.600 C 318.350 103.809,318.800 104.259,318.800 104.600 C 318.800 104.941,319.225 105.382,319.745 105.579 C 320.265 105.777,320.788 106.312,320.908 106.769 C 321.027 107.226,321.383 107.600,321.698 107.600 C 322.014 107.600,322.477 108.050,322.727 108.600 C 322.978 109.150,323.436 109.600,323.745 109.600 C 324.054 109.600,324.404 109.973,324.524 110.430 C 324.643 110.886,325.099 111.353,325.536 111.467 C 325.974 111.582,326.441 112.109,326.574 112.638 C 326.721 113.226,327.107 113.600,327.564 113.600 C 328.030 113.600,328.408 113.979,328.564 114.600 C 328.702 115.150,329.086 115.600,329.418 115.600 C 329.749 115.600,330.191 116.050,330.400 116.600 C 330.609 117.150,331.059 117.600,331.400 117.600 C 331.741 117.600,332.191 118.050,332.400 118.600 C 332.609 119.150,333.059 119.600,333.400 119.600 C 333.741 119.600,334.191 120.050,334.400 120.600 C 334.609 121.150,335.059 121.600,335.400 121.600 C 335.741 121.600,336.191 122.050,336.400 122.600 C 336.609 123.150,337.059 123.600,337.400 123.600 C 337.741 123.600,338.185 124.035,338.387 124.566 C 338.589 125.097,339.124 125.649,339.577 125.793 C 340.030 125.936,340.400 126.316,340.400 126.636 C 340.400 126.955,340.850 127.422,341.400 127.673 C 341.950 127.923,342.400 128.373,342.400 128.673 C 342.400 128.972,342.835 129.415,343.366 129.657 C 343.897 129.899,344.424 130.449,344.536 130.878 C 344.813 131.934,349.200 131.463,349.200 130.376 C 349.200 130.169,348.930 130.000,348.600 130.000 C 348.270 130.000,348.000 129.820,348.000 129.600 C 348.000 129.380,347.741 129.200,347.424 129.200 C 347.107 129.200,346.719 128.992,346.562 128.738 C 346.368 128.425,346.457 128.385,346.838 128.615 C 347.299 128.892,347.310 128.843,346.903 128.340 C 346.630 128.003,346.540 127.581,346.703 127.404 C 346.867 127.227,346.635 127.171,346.188 127.280 C 345.343 127.487,344.400 126.786,344.400 125.950 C 344.400 125.684,344.286 125.581,344.147 125.720 C 344.008 125.859,343.537 125.519,343.101 124.965 C 342.665 124.411,342.215 124.051,342.101 124.165 C 341.833 124.434,340.349 122.554,340.491 122.126 C 340.551 121.947,340.420 121.800,340.200 121.800 C 339.980 121.800,339.845 121.935,339.900 122.100 C 340.090 122.671,339.644 122.395,338.325 121.127 C 337.596 120.426,337.299 120.075,337.664 120.346 C 338.127 120.689,338.409 120.709,338.594 120.410 C 338.740 120.173,338.621 120.030,338.330 120.090 C 338.038 120.151,337.843 119.981,337.895 119.714 C 337.950 119.434,337.739 119.325,337.395 119.457 C 337.068 119.583,336.800 119.486,336.800 119.243 C 336.800 118.999,336.419 118.800,335.953 118.800 C 335.304 118.800,335.155 118.614,335.316 118.000 C 335.492 117.328,335.328 117.200,334.296 117.200 C 333.620 117.200,333.180 117.086,333.319 116.947 C 333.775 116.492,332.789 115.200,331.986 115.200 C 331.480 115.200,331.200 114.929,331.200 114.439 C 331.200 113.959,330.772 113.529,330.039 113.273 C 329.281 113.009,328.899 112.614,328.939 112.135 C 328.979 111.654,328.689 111.356,328.100 111.272 C 327.605 111.202,327.178 110.977,327.150 110.772 C 327.123 110.567,327.078 110.175,327.050 109.900 C 327.023 109.625,326.595 109.342,326.100 109.272 C 325.299 109.158,325.004 108.580,325.300 107.704 C 325.355 107.541,324.860 107.313,324.200 107.198 C 323.276 107.036,323.011 106.787,323.046 106.112 C 323.072 105.630,322.982 105.249,322.846 105.265 C 321.669 105.406,321.200 105.102,321.200 104.200 C 321.200 103.400,321.000 103.200,320.200 103.200 C 319.400 103.200,319.200 103.000,319.200 102.200 C 319.200 101.402,318.999 101.200,318.208 101.200 C 317.483 101.200,317.148 100.931,316.964 100.200 C 316.808 99.579,316.430 99.200,315.964 99.200 C 315.499 99.200,315.120 98.821,314.964 98.200 C 314.811 97.591,314.428 97.200,313.984 97.200 C 313.538 97.200,313.206 96.858,313.128 96.316 C 313.048 95.761,312.628 95.342,312.000 95.190 C 311.423 95.050,311.041 94.698,311.098 94.360 C 311.154 94.022,310.667 93.574,309.949 93.303 C 309.058 92.967,308.772 92.651,308.946 92.195 C 309.088 91.827,309.024 91.661,308.795 91.803 C 308.578 91.937,308.400 91.857,308.400 91.624 C 308.400 91.391,308.040 91.200,307.600 91.200 C 307.013 91.200,306.800 91.467,306.800 92.200 M349.043 131.833 C 348.622 132.930,348.772 133.200,349.800 133.200 C 350.600 133.200,350.800 133.400,350.800 134.200 C 350.800 135.320,352.528 135.685,352.926 134.649 C 353.162 134.035,352.495 133.200,351.769 133.200 C 351.510 133.200,351.051 132.895,350.749 132.523 C 350.276 131.941,350.283 131.889,350.800 132.153 C 351.130 132.321,351.051 132.176,350.624 131.830 C 349.647 131.038,349.348 131.039,349.043 131.833 M352.800 136.200 C 352.800 137.113,352.946 137.236,353.900 137.127 C 354.691 137.036,355.000 136.775,355.000 136.200 C 355.000 135.625,354.691 135.364,353.900 135.273 C 352.946 135.164,352.800 135.287,352.800 136.200 M354.800 138.200 C 354.800 139.000,355.000 139.200,355.800 139.200 C 356.592 139.200,356.800 139.402,356.800 140.172 C 356.800 140.876,357.049 141.180,357.700 141.272 C 358.270 141.353,358.646 141.721,358.725 142.275 C 358.802 142.821,359.179 143.198,359.725 143.275 C 360.270 143.353,360.647 143.730,360.725 144.275 C 360.802 144.821,361.179 145.198,361.725 145.275 C 362.278 145.354,362.647 145.730,362.728 146.299 C 362.807 146.860,363.221 147.290,363.828 147.443 C 364.434 147.595,364.800 147.975,364.800 148.453 C 364.800 148.903,365.213 149.377,365.800 149.600 C 367.393 150.206,367.203 154.800,365.585 154.800 C 365.133 154.800,364.807 155.142,364.728 155.700 C 364.647 156.270,364.279 156.646,363.725 156.725 C 363.179 156.802,362.802 157.179,362.725 157.725 C 362.647 158.270,362.270 158.647,361.725 158.725 C 361.179 158.802,360.802 159.179,360.725 159.725 C 360.646 160.279,360.270 160.647,359.700 160.728 C 359.049 160.820,358.800 161.124,358.800 161.828 C 358.800 162.598,358.592 162.800,357.800 162.800 C 357.000 162.800,356.800 163.000,356.800 163.800 C 356.800 164.600,356.600 164.800,355.800 164.800 C 355.000 164.800,354.800 165.000,354.800 165.800 C 354.800 166.600,355.000 166.800,355.800 166.800 C 356.600 166.800,356.800 166.600,356.800 165.800 C 356.800 165.000,357.000 164.800,357.800 164.800 C 358.350 164.800,358.822 164.620,358.850 164.400 C 358.878 164.180,358.923 163.777,358.950 163.504 C 358.978 163.231,359.450 162.916,360.000 162.804 C 360.550 162.692,361.018 162.375,361.040 162.100 C 361.134 160.928,361.250 160.800,362.224 160.800 C 362.787 160.800,363.146 160.636,363.022 160.436 C 362.592 159.739,363.292 158.800,364.243 158.800 C 364.997 158.800,365.200 158.588,365.200 157.800 C 365.200 157.000,365.400 156.800,366.200 156.800 C 366.750 156.800,367.179 156.665,367.153 156.500 C 366.973 155.362,367.289 154.800,368.108 154.800 C 368.955 154.800,369.024 154.611,369.131 152.000 C 369.245 149.233,369.234 149.200,368.223 149.200 C 367.398 149.200,367.200 149.006,367.200 148.200 C 367.200 147.402,366.999 147.200,366.208 147.200 C 365.483 147.200,365.148 146.931,364.964 146.200 C 364.808 145.579,364.430 145.200,363.964 145.200 C 363.499 145.200,363.120 144.821,362.964 144.200 C 362.811 143.591,362.428 143.200,361.984 143.200 C 361.538 143.200,361.206 142.858,361.128 142.316 C 361.048 141.761,360.628 141.342,360.000 141.190 C 359.376 141.038,359.041 140.706,359.110 140.307 C 359.182 139.884,358.823 139.581,358.047 139.410 C 357.250 139.235,356.796 138.840,356.630 138.176 C 356.286 136.806,354.800 136.825,354.800 138.200 M125.200 156.200 C 125.200 157.000,125.000 157.200,124.200 157.200 C 123.400 157.200,123.200 157.400,123.200 158.200 C 123.200 159.000,123.000 159.200,122.200 159.200 C 121.408 159.200,121.200 159.402,121.200 160.172 C 121.200 160.876,120.951 161.180,120.300 161.272 C 119.730 161.353,119.354 161.721,119.275 162.276 C 119.188 162.889,118.828 163.189,118.075 163.276 C 117.206 163.376,117.025 163.578,117.130 164.330 C 117.238 165.103,117.103 165.238,116.330 165.130 C 115.573 165.024,115.376 165.205,115.273 166.100 C 115.161 167.077,114.982 167.201,113.673 167.206 C 112.575 167.211,112.353 167.311,112.800 167.600 C 113.200 167.858,113.233 167.990,112.900 167.994 C 112.625 167.997,112.421 168.135,112.447 168.300 C 112.574 169.103,112.339 169.249,111.723 168.749 C 111.351 168.447,111.163 168.396,111.307 168.635 C 111.717 169.320,110.424 170.918,109.848 170.439 C 109.500 170.151,109.349 170.284,109.302 170.920 C 109.267 171.404,108.779 172.167,108.219 172.615 C 107.658 173.063,107.200 173.676,107.200 173.977 C 107.200 174.397,107.031 174.371,106.468 173.861 C 105.650 173.121,104.965 173.435,105.636 174.243 C 105.967 174.642,105.760 174.839,104.732 175.104 C 103.815 175.340,103.361 175.714,103.275 176.305 C 103.206 176.776,102.801 177.273,102.375 177.408 C 101.671 177.631,101.423 178.081,101.553 178.900 C 101.579 179.065,101.072 179.200,100.427 179.200 C 99.444 179.200,99.233 179.379,99.127 180.300 C 99.057 180.905,98.906 181.310,98.790 181.200 C 98.490 180.914,97.247 182.139,97.468 182.503 C 97.658 182.817,95.968 183.603,95.583 183.381 C 95.464 183.312,95.338 183.623,95.304 184.073 C 95.230 185.066,95.083 185.229,94.137 185.368 C 93.731 185.428,93.377 185.684,93.350 185.938 C 93.323 186.192,93.278 186.567,93.250 186.772 C 93.223 186.977,92.795 187.202,92.300 187.272 C 91.722 187.354,91.354 187.722,91.272 188.300 C 91.180 188.951,90.876 189.200,90.172 189.200 C 89.402 189.200,89.200 189.408,89.200 190.200 C 89.200 191.000,89.000 191.200,88.200 191.200 C 87.408 191.200,87.200 191.402,87.200 192.172 C 87.200 192.876,86.951 193.180,86.300 193.272 C 85.730 193.353,85.354 193.721,85.275 194.275 C 85.198 194.821,84.821 195.198,84.275 195.275 C 83.721 195.354,83.353 195.730,83.272 196.300 C 83.180 196.951,82.876 197.200,82.172 197.200 C 81.402 197.200,81.200 197.408,81.200 198.200 C 81.200 199.000,81.000 199.200,80.200 199.200 C 79.400 199.200,79.200 199.400,79.200 200.200 C 79.200 201.000,79.000 201.200,78.200 201.200 C 77.400 201.200,77.200 201.400,77.200 202.200 C 77.200 203.000,77.000 203.200,76.200 203.200 C 75.400 203.200,75.200 203.400,75.200 204.200 C 75.200 205.000,75.000 205.200,74.200 205.200 C 73.408 205.200,73.200 205.402,73.200 206.172 C 73.200 206.876,72.951 207.180,72.300 207.272 C 71.730 207.353,71.354 207.721,71.275 208.276 C 71.188 208.889,70.828 209.189,70.075 209.276 C 69.206 209.376,69.025 209.578,69.130 210.330 C 69.238 211.103,69.103 211.238,68.330 211.130 C 67.573 211.024,67.376 211.205,67.273 212.100 C 67.161 213.077,66.982 213.201,65.673 213.206 C 64.575 213.211,64.353 213.311,64.800 213.600 C 65.200 213.858,65.233 213.990,64.900 213.994 C 64.625 213.997,64.421 214.135,64.447 214.300 C 64.574 215.103,64.339 215.249,63.723 214.749 C 63.351 214.447,63.163 214.396,63.307 214.635 C 63.717 215.320,62.424 216.918,61.848 216.439 C 61.500 216.151,61.349 216.284,61.302 216.920 C 61.267 217.404,60.779 218.167,60.219 218.615 C 59.658 219.063,59.200 219.676,59.200 219.977 C 59.200 220.397,59.031 220.371,58.468 219.861 C 57.650 219.121,56.965 219.435,57.636 220.243 C 57.967 220.642,57.760 220.839,56.732 221.104 C 55.815 221.340,55.361 221.714,55.275 222.305 C 55.206 222.776,54.801 223.273,54.375 223.408 C 53.671 223.631,53.423 224.081,53.553 224.900 C 53.579 225.065,53.072 225.200,52.427 225.200 C 51.444 225.200,51.233 225.379,51.127 226.300 C 51.057 226.905,50.861 227.351,50.692 227.292 C 50.257 227.138,49.246 228.138,49.468 228.503 C 49.658 228.817,47.968 229.603,47.583 229.381 C 47.464 229.312,47.338 229.623,47.304 230.073 C 47.230 231.066,47.083 231.229,46.137 231.368 C 45.731 231.428,45.377 231.684,45.350 231.938 C 45.323 232.192,45.278 232.567,45.250 232.772 C 45.222 232.977,44.795 233.202,44.300 233.272 C 43.722 233.354,43.354 233.722,43.272 234.300 C 43.180 234.951,42.876 235.200,42.172 235.200 C 41.402 235.200,41.200 235.408,41.200 236.200 C 41.200 237.000,41.000 237.200,40.200 237.200 C 39.408 237.200,39.200 237.402,39.200 238.172 C 39.200 238.876,38.951 239.180,38.300 239.272 C 37.730 239.353,37.354 239.721,37.275 240.275 C 37.198 240.821,36.821 241.198,36.275 241.275 C 35.721 241.354,35.353 241.730,35.272 242.300 C 35.180 242.951,34.876 243.200,34.172 243.200 C 33.402 243.200,33.200 243.408,33.200 244.200 C 33.200 245.000,33.000 245.200,32.200 245.200 C 31.229 245.200,31.200 245.280,31.200 248.000 C 31.200 250.720,31.229 250.800,32.200 250.800 C 33.000 250.800,33.200 251.000,33.200 251.800 C 33.200 252.600,33.400 252.800,34.200 252.800 C 35.000 252.800,35.200 253.000,35.200 253.800 C 35.200 254.600,35.400 254.800,36.200 254.800 C 37.000 254.800,37.200 255.000,37.200 255.800 C 37.200 256.600,37.400 256.800,38.200 256.800 C 39.000 256.800,39.200 257.000,39.200 257.800 C 39.200 258.588,39.403 258.800,40.157 258.800 C 40.843 258.800,41.184 259.082,41.364 259.800 C 41.526 260.446,41.896 260.800,42.408 260.800 C 42.931 260.800,43.200 261.069,43.200 261.592 C 43.200 262.104,43.554 262.474,44.200 262.636 C 44.918 262.816,45.200 263.157,45.200 263.843 C 45.200 264.597,45.412 264.800,46.200 264.800 C 46.750 264.800,47.223 264.980,47.250 265.200 C 47.278 265.420,47.323 265.825,47.350 266.100 C 47.377 266.375,47.788 266.655,48.262 266.723 C 48.787 266.798,49.221 267.228,49.369 267.821 C 49.504 268.357,49.746 268.775,49.907 268.750 C 50.654 268.636,51.200 268.838,51.200 269.229 C 51.200 269.869,52.254 270.800,52.979 270.800 C 53.455 270.800,53.553 271.048,53.368 271.785 C 53.157 272.625,53.244 272.746,53.959 272.608 C 54.845 272.437,55.841 273.686,55.395 274.408 C 55.262 274.624,55.568 274.806,56.076 274.813 C 57.052 274.826,58.216 275.529,58.373 276.200 C 58.516 276.812,58.800 276.991,58.800 276.471 C 58.800 276.194,59.122 276.284,59.600 276.693 C 60.386 277.366,60.689 278.096,60.100 277.900 C 59.935 277.845,59.800 277.970,59.800 278.177 C 59.800 278.384,60.202 278.596,60.692 278.649 C 61.601 278.746,63.715 280.000,62.969 280.000 C 62.744 280.000,62.364 279.804,62.125 279.565 C 61.812 279.252,61.613 279.255,61.415 279.575 C 61.259 279.828,61.370 279.972,61.670 279.910 C 61.962 279.849,62.162 280.004,62.116 280.253 C 62.069 280.502,62.339 280.682,62.716 280.653 C 63.114 280.622,63.349 280.837,63.277 281.168 C 63.179 281.623,63.271 281.639,63.742 281.248 C 64.343 280.750,64.979 281.233,64.994 282.200 C 64.997 282.420,65.513 282.659,66.141 282.731 C 67.109 282.841,67.253 283.008,67.096 283.831 C 66.912 284.795,67.144 284.959,68.500 284.821 C 69.003 284.770,69.200 285.038,69.200 285.775 C 69.200 286.602,69.393 286.800,70.200 286.800 C 71.000 286.800,71.200 287.000,71.200 287.800 C 71.200 288.600,71.400 288.800,72.200 288.800 C 73.000 288.800,73.200 289.000,73.200 289.800 C 73.200 290.600,73.400 290.800,74.200 290.800 C 75.000 290.800,75.200 291.000,75.200 291.800 C 75.200 292.592,75.402 292.800,76.172 292.800 C 76.876 292.800,77.180 293.049,77.272 293.700 C 77.354 294.278,77.722 294.646,78.300 294.728 C 78.951 294.820,79.200 295.124,79.200 295.828 C 79.200 296.598,79.408 296.800,80.200 296.800 C 81.000 296.800,81.200 297.000,81.200 297.800 C 81.200 298.600,81.400 298.800,82.200 298.800 C 83.000 298.800,83.200 299.000,83.200 299.800 C 83.200 300.600,83.400 300.800,84.200 300.800 C 85.000 300.800,85.200 301.000,85.200 301.800 C 85.200 302.600,85.400 302.800,86.200 302.800 C 87.000 302.800,87.200 303.000,87.200 303.800 C 87.200 304.588,87.403 304.800,88.157 304.800 C 88.843 304.800,89.184 305.082,89.364 305.800 C 89.526 306.446,89.896 306.800,90.408 306.800 C 90.931 306.800,91.200 307.069,91.200 307.592 C 91.200 308.104,91.554 308.474,92.200 308.636 C 92.918 308.816,93.200 309.157,93.200 309.843 C 93.200 310.597,93.412 310.800,94.200 310.800 C 94.750 310.800,95.223 310.980,95.250 311.200 C 95.278 311.420,95.323 311.825,95.350 312.100 C 95.377 312.375,95.788 312.655,96.262 312.723 C 96.787 312.798,97.221 313.228,97.369 313.821 C 97.504 314.357,97.746 314.775,97.907 314.750 C 98.654 314.636,99.200 314.838,99.200 315.229 C 99.200 315.869,100.254 316.800,100.979 316.800 C 101.455 316.800,101.553 317.048,101.368 317.785 C 101.157 318.625,101.244 318.746,101.959 318.608 C 102.845 318.437,103.841 319.686,103.395 320.408 C 103.262 320.624,103.568 320.806,104.076 320.813 C 105.020 320.826,106.501 321.711,106.393 322.197 C 106.360 322.345,106.438 322.572,106.567 322.700 C 106.695 322.828,106.800 322.725,106.800 322.471 C 106.800 322.194,107.122 322.284,107.600 322.693 C 108.386 323.366,108.689 324.096,108.100 323.900 C 107.935 323.845,107.752 323.964,107.693 324.165 C 107.634 324.366,108.036 324.579,108.585 324.637 C 109.568 324.742,111.768 326.000,110.969 326.000 C 110.744 326.000,110.364 325.804,110.125 325.565 C 109.812 325.252,109.613 325.255,109.415 325.575 C 109.259 325.828,109.370 325.972,109.670 325.910 C 109.962 325.849,110.162 326.004,110.116 326.253 C 110.069 326.502,110.339 326.682,110.716 326.653 C 111.114 326.622,111.349 326.837,111.277 327.168 C 111.181 327.615,111.275 327.636,111.724 327.263 C 112.313 326.774,113.105 327.293,113.154 328.200 C 113.165 328.420,113.649 328.659,114.228 328.731 C 115.104 328.839,115.250 329.025,115.096 329.831 C 114.912 330.795,115.144 330.959,116.500 330.821 C 117.003 330.770,117.200 331.038,117.200 331.775 C 117.200 332.602,117.393 332.800,118.200 332.800 C 119.000 332.800,119.200 333.000,119.200 333.800 C 119.200 334.600,119.400 334.800,120.200 334.800 C 121.000 334.800,121.200 335.000,121.200 335.800 C 121.200 336.600,121.400 336.800,122.200 336.800 C 123.000 336.800,123.200 337.000,123.200 337.800 C 123.200 338.592,123.402 338.800,124.172 338.800 C 124.876 338.800,125.180 339.049,125.272 339.700 C 125.424 340.769,128.258 341.266,128.853 340.328 C 129.490 339.324,129.209 338.800,128.033 338.800 C 126.367 338.800,125.600 338.422,125.600 337.601 C 125.600 337.173,125.199 336.786,124.600 336.636 C 123.958 336.475,123.600 336.103,123.600 335.600 C 123.600 335.097,123.242 334.725,122.600 334.564 C 121.979 334.408,121.600 334.030,121.600 333.564 C 121.600 333.099,121.221 332.720,120.600 332.564 C 119.953 332.402,119.600 332.033,119.600 331.519 C 119.600 331.052,119.258 330.636,118.769 330.508 C 118.312 330.388,117.777 329.865,117.579 329.345 C 117.382 328.825,116.941 328.400,116.600 328.400 C 116.259 328.400,115.809 327.950,115.600 327.400 C 115.391 326.850,114.941 326.400,114.600 326.400 C 114.259 326.400,113.809 325.950,113.600 325.400 C 113.391 324.850,112.941 324.400,112.600 324.400 C 112.259 324.400,111.809 323.950,111.600 323.400 C 111.391 322.850,110.974 322.400,110.674 322.400 C 110.374 322.400,109.923 321.950,109.673 321.400 C 109.422 320.850,108.939 320.400,108.599 320.400 C 108.259 320.400,107.809 319.950,107.600 319.400 C 107.391 318.850,106.945 318.400,106.610 318.400 C 106.274 318.400,106.000 318.226,106.000 318.013 C 106.000 316.636,102.963 314.607,101.100 314.739 C 99.287 314.867,99.200 314.826,99.200 313.837 C 99.200 312.998,99.009 312.800,98.200 312.800 C 97.400 312.800,97.200 312.600,97.200 311.800 C 97.200 311.000,97.000 310.800,96.200 310.800 C 95.408 310.800,95.200 310.598,95.200 309.828 C 95.200 309.124,94.951 308.820,94.300 308.728 C 93.730 308.647,93.354 308.279,93.275 307.725 C 93.198 307.179,92.821 306.802,92.275 306.725 C 91.721 306.646,91.353 306.270,91.272 305.700 C 91.191 305.125,90.868 304.800,90.380 304.800 C 89.898 304.800,89.522 304.430,89.364 303.800 C 89.208 303.179,88.830 302.800,88.364 302.800 C 87.899 302.800,87.520 302.421,87.364 301.800 C 87.214 301.201,86.827 300.800,86.400 300.800 C 85.973 300.800,85.586 300.399,85.436 299.800 C 85.298 299.250,84.901 298.800,84.555 298.800 C 84.209 298.800,83.827 298.426,83.708 297.969 C 83.588 297.512,83.065 296.977,82.545 296.779 C 81.996 296.571,81.600 296.092,81.600 295.638 C 81.600 295.131,81.283 294.811,80.700 294.728 C 80.135 294.648,79.754 294.279,79.677 293.738 C 79.602 293.213,79.172 292.779,78.577 292.630 C 77.976 292.479,77.600 292.096,77.600 291.636 C 77.600 291.170,77.221 290.792,76.600 290.636 C 75.958 290.475,75.600 290.103,75.600 289.600 C 75.600 289.097,75.242 288.725,74.600 288.564 C 73.979 288.408,73.600 288.030,73.600 287.564 C 73.600 287.099,73.221 286.720,72.600 286.564 C 71.969 286.406,71.600 286.031,71.600 285.547 C 71.600 285.097,71.187 284.623,70.600 284.400 C 70.050 284.191,69.600 283.741,69.600 283.400 C 69.600 283.059,69.150 282.609,68.600 282.400 C 68.050 282.191,67.600 281.741,67.600 281.400 C 67.600 281.059,67.150 280.609,66.600 280.400 C 66.050 280.191,65.600 279.741,65.600 279.400 C 65.600 279.059,65.175 278.618,64.655 278.421 C 64.135 278.223,63.612 277.688,63.492 277.231 C 63.373 276.774,63.017 276.400,62.702 276.400 C 62.386 276.400,61.923 275.950,61.673 275.400 C 61.422 274.850,60.939 274.400,60.599 274.400 C 60.259 274.400,59.809 273.950,59.600 273.400 C 59.391 272.850,58.945 272.400,58.610 272.400 C 58.274 272.400,58.000 272.226,58.000 272.013 C 58.000 270.636,54.963 268.607,53.100 268.739 C 51.287 268.867,51.200 268.826,51.200 267.837 C 51.200 266.998,51.009 266.800,50.200 266.800 C 49.400 266.800,49.200 266.600,49.200 265.800 C 49.200 265.000,49.000 264.800,48.200 264.800 C 47.408 264.800,47.200 264.598,47.200 263.828 C 47.200 263.124,46.951 262.820,46.300 262.728 C 45.730 262.647,45.354 262.279,45.275 261.725 C 45.198 261.179,44.821 260.802,44.275 260.725 C 43.721 260.646,43.353 260.270,43.272 259.700 C 43.191 259.125,42.868 258.800,42.380 258.800 C 41.898 258.800,41.522 258.430,41.364 257.800 C 41.208 257.179,40.830 256.800,40.364 256.800 C 39.899 256.800,39.520 256.421,39.364 255.800 C 39.214 255.201,38.827 254.800,38.400 254.800 C 37.973 254.800,37.586 254.399,37.436 253.800 C 37.298 253.250,36.914 252.800,36.582 252.800 C 36.251 252.800,35.818 252.375,35.621 251.855 C 35.423 251.335,34.888 250.812,34.431 250.692 C 33.181 250.365,33.180 245.803,34.430 245.476 C 34.886 245.357,35.355 244.892,35.473 244.443 C 35.590 243.994,36.027 243.518,36.443 243.386 C 36.859 243.254,37.200 242.884,37.200 242.564 C 37.200 242.245,37.650 241.778,38.200 241.527 C 38.750 241.277,39.200 240.744,39.200 240.343 C 39.200 239.905,39.589 239.518,40.177 239.370 C 40.772 239.221,41.202 238.787,41.277 238.262 C 41.353 237.730,41.735 237.352,42.275 237.275 C 42.821 237.198,43.198 236.821,43.275 236.275 C 43.354 235.721,43.730 235.353,44.300 235.272 C 44.951 235.180,45.200 234.876,45.200 234.172 C 45.200 233.402,45.408 233.200,46.200 233.200 C 47.000 233.200,47.200 233.000,47.200 232.200 C 47.200 231.400,47.400 231.200,48.200 231.200 C 49.000 231.200,49.200 231.000,49.200 230.200 C 49.200 229.400,49.400 229.200,50.200 229.200 C 51.013 229.200,51.200 229.003,51.200 228.148 C 51.200 227.134,51.267 227.104,53.039 227.303 L 54.879 227.511 60.439 221.932 C 63.498 218.865,66.000 216.185,66.000 215.977 C 66.000 215.770,66.274 215.600,66.610 215.600 C 66.945 215.600,67.391 215.150,67.600 214.600 C 67.809 214.050,68.259 213.600,68.600 213.600 C 68.941 213.600,69.391 213.150,69.600 212.600 C 69.809 212.050,70.259 211.600,70.600 211.600 C 70.941 211.600,71.382 211.175,71.579 210.655 C 71.777 210.135,72.312 209.612,72.769 209.492 C 73.226 209.373,73.600 208.984,73.600 208.628 C 73.600 208.272,74.050 207.809,74.600 207.600 C 75.150 207.391,75.600 206.941,75.600 206.600 C 75.600 206.259,76.050 205.809,76.600 205.600 C 77.196 205.373,77.600 204.904,77.600 204.438 C 77.600 203.931,77.917 203.611,78.500 203.528 C 79.070 203.447,79.446 203.079,79.525 202.525 C 79.602 201.979,79.979 201.602,80.525 201.525 C 81.064 201.448,81.447 201.070,81.522 200.541 C 81.590 200.068,82.008 199.587,82.452 199.470 C 82.896 199.354,83.355 198.892,83.473 198.443 C 83.590 197.994,84.027 197.518,84.443 197.386 C 84.859 197.254,85.200 196.884,85.200 196.564 C 85.200 196.245,85.650 195.778,86.200 195.527 C 86.750 195.277,87.200 194.744,87.200 194.343 C 87.200 193.905,87.589 193.518,88.177 193.370 C 88.772 193.221,89.202 192.787,89.277 192.262 C 89.353 191.730,89.735 191.352,90.275 191.275 C 90.821 191.198,91.198 190.821,91.275 190.275 C 91.354 189.721,91.730 189.353,92.300 189.272 C 92.951 189.180,93.200 188.876,93.200 188.172 C 93.200 187.402,93.408 187.200,94.200 187.200 C 95.000 187.200,95.200 187.000,95.200 186.200 C 95.200 185.400,95.400 185.200,96.200 185.200 C 97.000 185.200,97.200 185.000,97.200 184.200 C 97.200 183.400,97.400 183.200,98.200 183.200 C 99.013 183.200,99.200 183.003,99.200 182.148 C 99.200 181.134,99.267 181.104,101.039 181.303 L 102.879 181.511 108.439 175.932 C 111.498 172.865,114.000 170.185,114.000 169.977 C 114.000 169.770,114.274 169.600,114.610 169.600 C 114.945 169.600,115.391 169.150,115.600 168.600 C 115.809 168.050,116.259 167.600,116.600 167.600 C 116.941 167.600,117.391 167.150,117.600 166.600 C 117.809 166.050,118.259 165.600,118.600 165.600 C 118.941 165.600,119.391 165.150,119.600 164.600 C 119.809 164.050,120.259 163.600,120.600 163.600 C 120.941 163.600,121.391 163.150,121.600 162.600 C 121.809 162.050,122.259 161.600,122.600 161.600 C 122.941 161.600,123.382 161.175,123.579 160.655 C 123.777 160.135,124.312 159.612,124.769 159.492 C 125.277 159.359,125.600 158.949,125.600 158.437 C 125.600 157.711,125.840 157.600,127.406 157.600 C 129.167 157.600,129.210 157.570,129.121 156.400 C 128.991 154.689,125.200 154.495,125.200 156.200 M352.800 167.773 C 352.800 168.487,353.014 168.798,353.500 168.794 C 355.271 168.778,355.626 167.072,353.900 166.873 C 352.953 166.764,352.800 166.890,352.800 167.773 M350.800 169.773 C 350.800 170.602,350.607 170.800,349.800 170.800 C 348.772 170.800,348.622 171.070,349.043 172.167 C 349.525 173.423,351.069 172.835,350.841 171.481 C 350.812 171.306,351.340 170.970,352.014 170.735 C 353.542 170.203,353.469 169.055,351.897 168.873 C 350.953 168.765,350.800 168.890,350.800 169.773 M344.382 173.446 C 344.183 173.971,343.741 174.400,343.400 174.400 C 343.059 174.400,342.609 174.850,342.400 175.400 C 342.191 175.950,341.741 176.400,341.400 176.400 C 341.059 176.400,340.609 176.850,340.400 177.400 C 340.191 177.950,339.741 178.400,339.400 178.400 C 339.059 178.400,338.615 178.835,338.413 179.366 C 338.211 179.897,337.676 180.449,337.223 180.593 C 336.770 180.736,336.400 181.116,336.400 181.436 C 336.400 181.755,335.950 182.222,335.400 182.473 C 334.850 182.723,334.400 183.173,334.400 183.473 C 334.400 183.772,333.950 184.222,333.400 184.473 C 332.850 184.723,332.400 185.240,332.400 185.621 C 332.400 186.026,331.985 186.417,331.400 186.564 C 330.781 186.720,330.400 187.099,330.400 187.561 C 330.400 187.979,330.036 188.402,329.570 188.524 C 329.114 188.643,328.647 189.097,328.533 189.533 C 328.419 189.969,327.969 190.419,327.533 190.533 C 327.097 190.647,326.643 191.114,326.524 191.570 C 326.404 192.027,326.054 192.400,325.745 192.400 C 325.436 192.400,324.987 192.830,324.747 193.356 C 324.508 193.882,323.882 194.508,323.356 194.747 C 322.830 194.987,322.400 195.445,322.400 195.764 C 322.400 196.084,322.059 196.454,321.643 196.586 C 321.227 196.718,320.790 197.194,320.673 197.643 C 320.555 198.092,320.101 198.553,319.664 198.667 C 319.226 198.782,318.759 199.309,318.626 199.838 C 318.477 200.434,318.094 200.800,317.620 200.800 C 317.132 200.800,316.809 201.125,316.728 201.700 C 316.647 202.270,316.279 202.646,315.725 202.725 C 315.179 202.802,314.802 203.179,314.725 203.725 C 314.647 204.270,314.270 204.647,313.725 204.725 C 313.179 204.802,312.802 205.179,312.725 205.725 C 312.646 206.279,312.270 206.647,311.700 206.728 C 311.049 206.820,310.800 207.124,310.800 207.828 C 310.800 208.598,310.592 208.800,309.800 208.800 C 309.000 208.800,308.800 209.000,308.800 209.800 C 308.800 210.600,308.600 210.800,307.800 210.800 C 306.993 210.800,306.800 210.998,306.800 211.827 C 306.800 212.710,306.953 212.836,307.900 212.727 C 308.691 212.636,309.000 212.375,309.000 211.800 C 309.000 211.275,309.309 210.956,309.900 210.872 C 310.395 210.802,310.822 210.577,310.850 210.372 C 310.878 210.167,310.923 209.777,310.950 209.504 C 310.978 209.231,311.450 208.916,312.000 208.804 C 312.550 208.692,313.018 208.375,313.040 208.100 C 313.134 206.928,313.250 206.800,314.224 206.800 C 314.787 206.800,315.146 206.636,315.022 206.436 C 314.592 205.739,315.292 204.800,316.243 204.800 C 316.997 204.800,317.200 204.588,317.200 203.800 C 317.200 203.000,317.400 202.800,318.200 202.800 C 318.750 202.800,319.179 202.665,319.153 202.500 C 318.970 201.342,319.287 200.800,320.148 200.800 C 320.878 200.800,321.085 200.594,321.048 199.900 C 321.013 199.253,321.253 198.964,321.899 198.872 C 322.453 198.794,322.890 198.380,323.037 197.795 C 323.180 197.226,323.621 196.797,324.138 196.723 C 324.670 196.647,325.048 196.265,325.125 195.725 C 325.202 195.179,325.579 194.802,326.125 194.725 C 326.606 194.656,327.023 194.375,327.050 194.100 C 327.078 193.825,327.123 193.420,327.150 193.200 C 327.178 192.980,327.540 192.800,327.957 192.800 C 328.430 192.800,328.807 192.426,328.964 191.800 C 329.126 191.154,329.496 190.800,330.008 190.800 C 330.443 190.800,330.800 190.609,330.800 190.376 C 330.800 190.143,330.960 190.051,331.155 190.172 C 331.350 190.293,331.755 190.078,332.055 189.696 C 332.548 189.066,332.533 189.052,331.900 189.549 C 331.295 190.023,331.200 190.010,331.200 189.449 C 331.200 189.002,331.555 188.800,332.345 188.800 C 333.350 188.800,333.466 188.678,333.298 187.800 C 333.133 186.939,333.253 186.800,334.153 186.800 C 335.008 186.800,335.200 186.613,335.200 185.782 C 335.200 185.200,335.414 184.793,335.700 184.830 C 337.131 185.016,337.687 184.775,337.497 184.051 C 337.342 183.457,337.478 183.340,338.151 183.485 C 338.842 183.635,338.888 183.590,338.400 183.241 C 337.882 182.871,337.895 182.811,338.500 182.806 C 338.885 182.803,339.200 182.526,339.200 182.190 C 339.200 181.855,339.626 181.418,340.147 181.220 C 340.668 181.022,341.594 180.397,342.205 179.830 C 342.817 179.264,343.651 178.800,344.058 178.800 C 344.467 178.800,344.800 178.517,344.800 178.169 C 344.800 177.822,345.318 177.020,345.951 176.387 C 346.584 175.754,347.004 175.138,346.885 175.018 C 346.765 174.898,347.035 174.800,347.484 174.800 C 348.462 174.800,349.487 173.714,348.963 173.232 C 347.970 172.317,344.754 172.468,344.382 173.446 M339.600 182.233 C 339.600 182.940,340.461 182.817,340.708 182.075 C 340.795 181.814,340.582 181.600,340.233 181.600 C 339.885 181.600,339.600 181.885,339.600 182.233 M304.800 213.773 C 304.800 214.602,304.607 214.800,303.800 214.800 C 303.000 214.800,302.800 215.000,302.800 215.800 C 302.800 216.600,302.600 216.800,301.800 216.800 C 300.772 216.800,300.622 217.070,301.043 218.167 C 301.522 219.417,303.064 218.838,302.844 217.491 C 302.817 217.321,303.245 217.011,303.797 216.801 C 304.382 216.579,304.800 216.103,304.800 215.660 C 304.800 215.140,305.169 214.826,305.967 214.667 C 307.484 214.363,307.410 213.057,305.864 212.873 C 304.955 212.765,304.800 212.897,304.800 213.773 M296.382 219.446 C 296.183 219.971,295.741 220.400,295.400 220.400 C 295.059 220.400,294.609 220.850,294.400 221.400 C 294.191 221.950,293.741 222.400,293.400 222.400 C 293.059 222.400,292.609 222.850,292.400 223.400 C 292.191 223.950,291.741 224.400,291.400 224.400 C 291.059 224.400,290.615 224.835,290.413 225.366 C 290.211 225.897,289.676 226.449,289.223 226.593 C 288.770 226.736,288.400 227.116,288.400 227.436 C 288.400 227.755,287.950 228.222,287.400 228.473 C 286.850 228.723,286.400 229.173,286.400 229.473 C 286.400 229.772,285.950 230.222,285.400 230.473 C 284.850 230.723,284.400 231.240,284.400 231.621 C 284.400 232.026,283.985 232.417,283.400 232.564 C 282.781 232.720,282.400 233.099,282.400 233.561 C 282.400 233.979,282.036 234.402,281.570 234.524 C 281.114 234.643,280.647 235.097,280.533 235.533 C 280.419 235.969,279.969 236.419,279.533 236.533 C 279.097 236.647,278.643 237.114,278.524 237.570 C 278.404 238.027,278.054 238.400,277.745 238.400 C 277.436 238.400,276.987 238.830,276.747 239.356 C 276.508 239.882,275.882 240.508,275.356 240.747 C 274.830 240.987,274.400 241.437,274.400 241.749 C 274.400 242.406,273.552 242.800,272.139 242.800 C 271.336 242.800,271.169 242.974,271.272 243.700 C 271.476 245.136,274.669 245.260,275.024 243.845 C 275.179 243.230,275.606 242.799,276.138 242.723 C 276.670 242.647,277.048 242.265,277.125 241.725 C 277.202 241.179,277.579 240.802,278.125 240.725 C 278.606 240.656,279.022 240.375,279.050 240.100 C 279.078 239.825,279.123 239.420,279.150 239.200 C 279.178 238.980,279.540 238.800,279.957 238.800 C 280.430 238.800,280.807 238.426,280.964 237.800 C 281.126 237.154,281.496 236.800,282.008 236.800 C 282.443 236.800,282.800 236.609,282.800 236.376 C 282.800 236.143,282.960 236.051,283.155 236.172 C 283.350 236.293,283.755 236.078,284.055 235.696 C 284.548 235.066,284.533 235.052,283.900 235.549 C 283.295 236.023,283.200 236.010,283.200 235.449 C 283.200 235.002,283.555 234.800,284.345 234.800 C 285.350 234.800,285.466 234.678,285.298 233.800 C 285.133 232.939,285.253 232.800,286.153 232.800 C 287.008 232.800,287.200 232.613,287.200 231.782 C 287.200 231.200,287.414 230.793,287.700 230.830 C 289.131 231.016,289.687 230.775,289.497 230.051 C 289.342 229.457,289.478 229.340,290.151 229.485 C 290.842 229.635,290.888 229.590,290.400 229.241 C 289.882 228.871,289.895 228.811,290.500 228.806 C 290.885 228.803,291.200 228.526,291.200 228.190 C 291.200 227.855,291.626 227.418,292.147 227.220 C 292.668 227.022,293.594 226.397,294.205 225.830 C 294.817 225.264,295.651 224.800,296.058 224.800 C 296.467 224.800,296.800 224.517,296.800 224.169 C 296.800 223.822,297.318 223.020,297.951 222.387 C 298.584 221.754,299.004 221.138,298.885 221.018 C 298.765 220.898,299.035 220.800,299.484 220.800 C 300.462 220.800,301.487 219.714,300.963 219.232 C 299.970 218.317,296.754 218.468,296.382 219.446 M291.600 228.233 C 291.600 228.582,291.814 228.795,292.075 228.708 C 292.817 228.461,292.940 227.600,292.233 227.600 C 291.885 227.600,291.600 227.885,291.600 228.233 " stroke="none" fill="#cccccc" fill-rule="evenodd"></path><path id="path2" d="M128.990 187.000 C 128.989 202.620,129.039 209.068,129.100 201.329 C 129.161 193.591,129.161 180.811,129.100 172.929 C 129.039 165.048,128.990 171.380,128.990 187.000 M240.750 248.000 C 240.722 265.160,240.675 279.335,240.644 279.500 C 240.613 279.665,240.445 280.025,240.270 280.300 C 240.067 280.620,240.171 280.800,240.559 280.800 C 241.095 280.800,241.168 277.108,241.191 248.800 C 241.205 231.200,241.123 216.800,241.008 216.800 C 240.894 216.800,240.778 230.840,240.750 248.000 M128.990 309.200 C 128.990 324.930,129.039 331.365,129.100 323.500 C 129.160 315.635,129.160 302.765,129.100 294.900 C 129.039 287.035,128.990 293.470,128.990 309.200 " stroke="none" fill="#6494d8" fill-rule="evenodd"></path><path id="path3" d="M271.200 61.852 C 271.200 62.133,271.535 62.238,272.024 62.110 C 272.691 61.935,275.157 64.234,284.977 74.186 C 296.376 85.739,297.159 86.450,298.002 85.999 C 298.494 85.735,299.416 85.623,300.049 85.750 C 300.765 85.893,301.200 85.812,301.200 85.535 C 301.200 85.230,300.497 85.173,298.965 85.353 C 296.983 85.585,296.707 85.529,296.531 84.856 C 296.422 84.439,295.897 83.899,295.366 83.657 C 294.835 83.415,294.400 82.972,294.400 82.673 C 294.400 82.373,293.950 81.923,293.400 81.673 C 292.850 81.422,292.400 80.955,292.400 80.636 C 292.400 80.316,292.030 79.936,291.577 79.793 C 291.124 79.649,290.589 79.097,290.387 78.566 C 290.185 78.035,289.741 77.600,289.400 77.600 C 289.059 77.600,288.609 77.150,288.400 76.600 C 288.191 76.050,287.741 75.600,287.400 75.600 C 287.059 75.600,286.609 75.150,286.400 74.600 C 286.191 74.050,285.741 73.600,285.400 73.600 C 285.059 73.600,284.609 73.150,284.400 72.600 C 284.191 72.050,283.741 71.600,283.400 71.600 C 283.059 71.600,282.609 71.150,282.400 70.600 C 282.191 70.050,281.749 69.600,281.418 69.600 C 281.086 69.600,280.702 69.150,280.564 68.600 C 280.408 67.979,280.030 67.600,279.564 67.600 C 279.107 67.600,278.721 67.226,278.574 66.638 C 278.441 66.109,277.974 65.582,277.536 65.467 C 277.099 65.353,276.643 64.886,276.524 64.430 C 276.404 63.973,276.054 63.600,275.745 63.600 C 275.436 63.600,274.986 63.167,274.744 62.638 C 274.263 61.581,271.200 60.902,271.200 61.852 M301.675 87.471 C 302.047 87.569,302.431 87.953,302.529 88.325 C 302.655 88.803,302.721 88.738,302.754 88.100 C 302.789 87.407,302.593 87.211,301.900 87.246 C 301.262 87.279,301.197 87.345,301.675 87.471 M303.500 89.612 C 303.995 89.811,304.400 90.254,304.400 90.597 C 304.400 90.940,304.850 91.391,305.400 91.600 C 305.950 91.809,306.400 92.189,306.400 92.444 C 306.400 92.698,307.255 93.775,308.300 94.837 C 309.345 95.898,310.416 96.999,310.681 97.283 C 310.945 97.567,311.395 98.014,311.681 98.275 C 311.966 98.536,314.450 101.113,317.200 104.001 C 334.796 122.480,345.091 132.487,346.003 131.998 C 346.495 131.735,347.416 131.623,348.049 131.750 C 348.765 131.893,349.200 131.812,349.200 131.535 C 349.200 131.230,348.497 131.173,346.965 131.353 C 344.983 131.585,344.707 131.529,344.531 130.856 C 344.422 130.439,343.897 129.899,343.366 129.657 C 342.835 129.415,342.400 128.972,342.400 128.673 C 342.400 128.373,341.950 127.923,341.400 127.673 C 340.850 127.422,340.400 126.955,340.400 126.636 C 340.400 126.316,340.030 125.936,339.577 125.793 C 339.124 125.649,338.589 125.097,338.387 124.566 C 338.185 124.035,337.741 123.600,337.400 123.600 C 337.059 123.600,336.609 123.150,336.400 122.600 C 336.191 122.050,335.741 121.600,335.400 121.600 C 335.059 121.600,334.609 121.150,334.400 120.600 C 334.191 120.050,333.741 119.600,333.400 119.600 C 333.059 119.600,332.609 119.150,332.400 118.600 C 332.191 118.050,331.741 117.600,331.400 117.600 C 331.059 117.600,330.609 117.150,330.400 116.600 C 330.191 116.050,329.749 115.600,329.418 115.600 C 329.086 115.600,328.702 115.150,328.564 114.600 C 328.408 113.979,328.030 113.600,327.564 113.600 C 327.107 113.600,326.721 113.226,326.574 112.638 C 326.441 112.109,325.974 111.582,325.536 111.467 C 325.099 111.353,324.643 110.886,324.524 110.430 C 324.404 109.973,324.054 109.600,323.745 109.600 C 323.436 109.600,322.978 109.150,322.727 108.600 C 322.477 108.050,322.026 107.600,321.726 107.600 C 321.426 107.600,321.009 107.150,320.800 106.600 C 320.591 106.050,320.141 105.600,319.800 105.600 C 319.459 105.600,319.018 105.175,318.821 104.655 C 318.623 104.135,318.088 103.612,317.631 103.492 C 317.142 103.364,316.800 102.948,316.800 102.481 C 316.800 101.973,316.449 101.599,315.828 101.443 C 315.221 101.290,314.807 100.860,314.728 100.299 C 314.647 99.730,314.278 99.354,313.725 99.275 C 313.179 99.198,312.802 98.821,312.725 98.275 C 312.647 97.730,312.270 97.353,311.725 97.275 C 311.179 97.198,310.802 96.821,310.725 96.275 C 310.646 95.721,310.270 95.353,309.700 95.272 C 309.049 95.180,308.800 94.876,308.800 94.172 C 308.800 93.402,308.592 93.200,307.800 93.200 C 307.000 93.200,306.800 93.000,306.800 92.200 C 306.800 91.400,306.600 91.200,305.800 91.200 C 305.000 91.200,304.800 91.000,304.800 90.200 C 304.800 89.370,304.613 89.204,303.700 89.225 C 302.643 89.250,302.635 89.265,303.500 89.612 M349.675 133.471 C 350.047 133.569,350.431 133.953,350.529 134.325 C 350.655 134.803,350.721 134.738,350.754 134.100 C 350.789 133.407,350.593 133.211,349.900 133.246 C 349.262 133.279,349.197 133.345,349.675 133.471 M351.500 135.612 C 351.995 135.811,352.400 136.254,352.400 136.597 C 352.400 136.940,352.850 137.391,353.400 137.600 C 353.950 137.809,354.400 138.189,354.400 138.444 C 354.400 138.829,356.049 140.679,358.720 143.291 C 359.006 143.571,359.546 144.135,359.920 144.544 C 360.294 144.953,361.815 146.529,363.300 148.047 C 366.430 151.246,367.016 153.409,365.000 154.327 C 364.450 154.578,364.000 154.944,364.000 155.141 C 364.000 155.338,362.290 157.231,360.200 159.348 C 358.110 161.466,356.400 163.370,356.400 163.579 C 356.400 163.789,356.085 164.144,355.700 164.368 C 355.075 164.732,355.096 164.777,355.900 164.788 C 356.597 164.797,356.800 164.574,356.800 163.800 C 356.800 163.000,357.000 162.800,357.800 162.800 C 358.592 162.800,358.800 162.598,358.800 161.828 C 358.800 161.124,359.049 160.820,359.700 160.728 C 360.270 160.647,360.646 160.279,360.725 159.725 C 360.802 159.179,361.179 158.802,361.725 158.725 C 362.270 158.647,362.647 158.270,362.725 157.725 C 362.802 157.179,363.179 156.802,363.725 156.725 C 364.279 156.646,364.647 156.270,364.728 155.700 C 364.807 155.142,365.133 154.800,365.585 154.800 C 367.203 154.800,367.393 150.206,365.800 149.600 C 365.213 149.377,364.800 148.903,364.800 148.453 C 364.800 147.975,364.434 147.595,363.828 147.443 C 363.221 147.290,362.807 146.860,362.728 146.299 C 362.647 145.730,362.278 145.354,361.725 145.275 C 361.179 145.198,360.802 144.821,360.725 144.275 C 360.647 143.730,360.270 143.353,359.725 143.275 C 359.179 143.198,358.802 142.821,358.725 142.275 C 358.646 141.721,358.270 141.353,357.700 141.272 C 357.049 141.180,356.800 140.876,356.800 140.172 C 356.800 139.402,356.592 139.200,355.800 139.200 C 355.000 139.200,354.800 139.000,354.800 138.200 C 354.800 137.400,354.600 137.200,353.800 137.200 C 353.000 137.200,352.800 137.000,352.800 136.200 C 352.800 135.370,352.613 135.204,351.700 135.225 C 350.643 135.250,350.635 135.265,351.500 135.612 M125.600 158.410 C 125.600 158.906,125.212 159.367,124.600 159.600 C 124.050 159.809,123.600 160.259,123.600 160.600 C 123.600 160.941,123.150 161.391,122.600 161.600 C 122.050 161.809,121.600 162.259,121.600 162.600 C 121.600 162.941,121.175 163.382,120.655 163.579 C 120.135 163.777,119.612 164.312,119.492 164.769 C 119.373 165.226,118.984 165.600,118.628 165.600 C 118.272 165.600,117.809 166.050,117.600 166.600 C 117.391 167.150,116.941 167.600,116.600 167.600 C 116.259 167.600,115.809 168.050,115.600 168.600 C 115.391 169.150,114.945 169.600,114.610 169.600 C 114.274 169.600,114.000 169.770,114.000 169.977 C 114.000 171.020,102.733 181.634,101.876 181.398 C 101.022 181.165,101.019 181.174,101.776 181.779 C 102.872 182.655,102.818 182.684,105.742 179.700 C 107.197 178.215,108.570 176.820,108.792 176.600 C 111.156 174.258,119.139 166.197,122.721 162.536 C 126.493 158.679,127.401 157.945,128.208 158.100 C 128.741 158.201,129.081 158.130,128.964 157.942 C 128.481 157.160,125.600 157.560,125.600 158.410 M354.400 165.380 C 354.400 165.699,354.085 166.144,353.700 166.368 C 353.075 166.732,353.096 166.777,353.900 166.788 C 354.597 166.797,354.800 166.574,354.800 165.800 C 354.800 165.250,354.710 164.800,354.600 164.800 C 354.490 164.800,354.400 165.061,354.400 165.380 M352.308 167.583 C 352.031 168.567,352.197 169.137,352.632 168.701 C 352.760 168.573,352.801 168.048,352.724 167.534 L 352.584 166.600 352.308 167.583 M333.200 183.667 C 326.930 190.062,320.945 196.149,319.900 197.194 C 318.855 198.238,318.000 199.268,318.000 199.482 C 318.000 199.696,317.550 200.077,317.000 200.327 C 316.450 200.578,316.000 200.944,316.000 201.141 C 316.000 201.338,314.290 203.231,312.200 205.348 C 310.110 207.466,308.400 209.370,308.400 209.579 C 308.400 209.789,308.085 210.144,307.700 210.368 C 307.075 210.732,307.096 210.777,307.900 210.788 C 308.597 210.797,308.800 210.574,308.800 209.800 C 308.800 209.000,309.000 208.800,309.800 208.800 C 310.592 208.800,310.800 208.598,310.800 207.828 C 310.800 207.124,311.049 206.820,311.700 206.728 C 312.270 206.647,312.646 206.279,312.725 205.725 C 312.802 205.179,313.179 204.802,313.725 204.725 C 314.270 204.647,314.647 204.270,314.725 203.725 C 314.802 203.179,315.179 202.802,315.725 202.725 C 316.279 202.646,316.647 202.270,316.728 201.700 C 316.809 201.125,317.132 200.800,317.620 200.800 C 318.094 200.800,318.477 200.434,318.626 199.838 C 318.759 199.309,319.226 198.782,319.664 198.667 C 320.101 198.553,320.555 198.092,320.673 197.643 C 320.790 197.194,321.227 196.718,321.643 196.586 C 322.059 196.454,322.400 196.084,322.400 195.764 C 322.400 195.445,322.830 194.987,323.356 194.747 C 323.882 194.508,324.508 193.882,324.747 193.356 C 324.987 192.830,325.436 192.400,325.745 192.400 C 326.054 192.400,326.404 192.027,326.524 191.570 C 326.643 191.114,327.097 190.647,327.533 190.533 C 327.969 190.419,328.419 189.969,328.533 189.533 C 328.647 189.097,329.114 188.643,329.570 188.524 C 330.036 188.402,330.400 187.979,330.400 187.561 C 330.400 187.099,330.781 186.720,331.400 186.564 C 331.985 186.417,332.400 186.026,332.400 185.621 C 332.400 185.240,332.850 184.723,333.400 184.473 C 333.950 184.222,334.400 183.772,334.400 183.473 C 334.400 183.173,334.850 182.723,335.400 182.473 C 335.950 182.222,336.400 181.755,336.400 181.436 C 336.400 181.116,336.770 180.736,337.223 180.593 C 337.676 180.449,338.211 179.897,338.413 179.366 C 338.615 178.835,339.059 178.400,339.400 178.400 C 339.741 178.400,340.191 177.950,340.400 177.400 C 340.609 176.850,341.059 176.400,341.400 176.400 C 341.741 176.400,342.191 175.950,342.400 175.400 C 342.609 174.850,343.059 174.400,343.400 174.400 C 343.741 174.400,344.192 173.946,344.404 173.391 C 344.725 172.546,344.960 172.425,345.853 172.649 C 346.604 172.838,346.836 172.781,346.636 172.458 C 345.790 171.089,344.372 172.272,333.200 183.667 M348.000 172.400 C 347.515 172.714,347.572 172.789,348.300 172.794 C 348.795 172.797,349.200 172.620,349.200 172.400 C 349.200 171.899,348.776 171.899,348.000 172.400 M99.200 182.200 C 99.200 183.000,99.000 183.200,98.200 183.200 C 97.400 183.200,97.200 183.400,97.200 184.200 C 97.200 185.000,97.000 185.200,96.200 185.200 C 95.400 185.200,95.200 185.400,95.200 186.200 C 95.200 187.000,95.000 187.200,94.200 187.200 C 93.408 187.200,93.200 187.402,93.200 188.172 C 93.200 188.876,92.951 189.180,92.300 189.272 C 91.730 189.353,91.354 189.721,91.275 190.275 C 91.198 190.821,90.821 191.198,90.275 191.275 C 89.735 191.352,89.353 191.730,89.277 192.262 C 89.202 192.787,88.772 193.221,88.177 193.370 C 87.589 193.518,87.200 193.905,87.200 194.343 C 87.200 194.744,86.750 195.277,86.200 195.527 C 85.650 195.778,85.200 196.245,85.200 196.564 C 85.200 196.884,84.859 197.254,84.443 197.386 C 84.027 197.518,83.590 197.994,83.473 198.443 C 83.355 198.892,82.896 199.354,82.452 199.470 C 82.008 199.587,81.590 200.068,81.522 200.541 C 81.447 201.070,81.064 201.448,80.525 201.525 C 79.979 201.602,79.602 201.979,79.525 202.525 C 79.446 203.079,79.070 203.447,78.500 203.528 C 77.917 203.611,77.600 203.931,77.600 204.438 C 77.600 204.904,77.196 205.373,76.600 205.600 C 76.050 205.809,75.600 206.259,75.600 206.600 C 75.600 206.941,75.175 207.382,74.655 207.579 C 74.135 207.777,73.612 208.312,73.492 208.769 C 73.373 209.226,72.984 209.600,72.628 209.600 C 72.272 209.600,71.809 210.050,71.600 210.600 C 71.391 211.150,70.941 211.600,70.600 211.600 C 70.259 211.600,69.809 212.050,69.600 212.600 C 69.391 213.150,68.941 213.600,68.600 213.600 C 68.259 213.600,67.809 214.050,67.600 214.600 C 67.391 215.150,66.945 215.600,66.610 215.600 C 66.274 215.600,66.000 215.770,66.000 215.977 C 66.000 217.020,54.733 227.634,53.876 227.398 C 53.022 227.165,53.019 227.174,53.776 227.779 C 54.872 228.655,54.818 228.684,57.742 225.700 C 59.197 224.215,60.570 222.820,60.792 222.600 C 70.263 213.217,80.400 202.769,80.400 202.389 C 80.400 202.175,80.649 202.000,80.954 202.000 C 81.259 202.000,81.777 201.595,82.106 201.100 C 82.435 200.605,84.705 198.179,87.152 195.709 C 89.598 193.239,91.600 191.030,91.600 190.800 C 91.600 190.571,92.050 190.178,92.600 189.927 C 93.526 189.505,93.753 189.162,93.500 188.564 C 93.445 188.434,93.895 188.068,94.500 187.751 C 95.105 187.434,95.600 186.906,95.600 186.577 C 95.600 186.249,96.050 185.809,96.600 185.600 C 97.150 185.391,97.600 184.941,97.600 184.600 C 97.600 184.259,98.050 183.809,98.600 183.600 C 99.467 183.271,100.157 181.200,99.400 181.200 C 99.290 181.200,99.200 181.650,99.200 182.200 M306.400 211.410 C 306.400 211.745,305.950 212.191,305.400 212.400 C 304.850 212.609,304.400 212.950,304.400 213.157 C 304.400 213.365,304.291 213.819,304.157 214.167 C 304.024 214.515,304.114 214.800,304.357 214.800 C 304.601 214.800,304.800 214.350,304.800 213.800 C 304.800 213.000,305.000 212.800,305.800 212.800 C 306.600 212.800,306.800 212.600,306.800 211.800 C 306.800 211.250,306.710 210.800,306.600 210.800 C 306.490 210.800,306.400 211.074,306.400 211.410 M285.200 229.634 C 278.930 236.011,273.740 241.402,273.667 241.614 C 273.593 241.826,273.008 242.000,272.367 242.000 C 271.725 242.000,271.200 242.180,271.200 242.400 C 271.200 242.842,272.775 242.938,273.767 242.557 C 274.115 242.424,274.400 242.060,274.400 241.749 C 274.400 241.437,274.830 240.987,275.356 240.747 C 275.882 240.508,276.508 239.882,276.747 239.356 C 276.987 238.830,277.436 238.400,277.745 238.400 C 278.054 238.400,278.404 238.027,278.524 237.570 C 278.643 237.114,279.097 236.647,279.533 236.533 C 279.969 236.419,280.419 235.969,280.533 235.533 C 280.647 235.097,281.114 234.643,281.570 234.524 C 282.036 234.402,282.400 233.979,282.400 233.561 C 282.400 233.099,282.781 232.720,283.400 232.564 C 283.985 232.417,284.400 232.026,284.400 231.621 C 284.400 231.240,284.850 230.723,285.400 230.473 C 285.950 230.222,286.400 229.772,286.400 229.473 C 286.400 229.173,286.850 228.723,287.400 228.473 C 287.950 228.222,288.400 227.755,288.400 227.436 C 288.400 227.116,288.770 226.736,289.223 226.593 C 289.676 226.449,290.211 225.897,290.413 225.366 C 290.615 224.835,291.059 224.400,291.400 224.400 C 291.741 224.400,292.191 223.950,292.400 223.400 C 292.609 222.850,293.059 222.400,293.400 222.400 C 293.741 222.400,294.191 221.950,294.400 221.400 C 294.609 220.850,295.059 220.400,295.400 220.400 C 295.741 220.400,296.192 219.946,296.404 219.391 C 296.725 218.546,296.960 218.425,297.853 218.649 C 298.604 218.838,298.836 218.781,298.636 218.458 C 297.791 217.092,296.369 218.275,285.200 229.634 M300.000 218.400 C 299.515 218.714,299.572 218.789,300.300 218.794 C 300.795 218.797,301.200 218.620,301.200 218.400 C 301.200 217.899,300.776 217.899,300.000 218.400 M51.200 228.200 C 51.200 229.000,51.000 229.200,50.200 229.200 C 49.400 229.200,49.200 229.400,49.200 230.200 C 49.200 231.000,49.000 231.200,48.200 231.200 C 47.400 231.200,47.200 231.400,47.200 232.200 C 47.200 233.000,47.000 233.200,46.200 233.200 C 45.408 233.200,45.200 233.402,45.200 234.172 C 45.200 234.876,44.951 235.180,44.300 235.272 C 43.730 235.353,43.354 235.721,43.275 236.275 C 43.198 236.821,42.821 237.198,42.275 237.275 C 41.735 237.352,41.353 237.730,41.277 238.262 C 41.202 238.787,40.772 239.221,40.177 239.370 C 39.589 239.518,39.200 239.905,39.200 240.343 C 39.200 240.744,38.750 241.277,38.200 241.527 C 37.650 241.778,37.200 242.245,37.200 242.564 C 37.200 242.884,36.859 243.254,36.443 243.386 C 36.027 243.518,35.590 243.994,35.473 244.443 C 35.355 244.892,34.886 245.357,34.430 245.476 C 33.180 245.803,33.181 250.365,34.431 250.692 C 34.888 250.812,35.423 251.335,35.621 251.855 C 35.818 252.375,36.251 252.800,36.582 252.800 C 36.914 252.800,37.298 253.250,37.436 253.800 C 37.586 254.399,37.973 254.800,38.400 254.800 C 38.827 254.800,39.214 255.201,39.364 255.800 C 39.520 256.421,39.899 256.800,40.364 256.800 C 40.830 256.800,41.208 257.179,41.364 257.800 C 41.522 258.430,41.898 258.800,42.380 258.800 C 42.868 258.800,43.191 259.125,43.272 259.700 C 43.353 260.270,43.721 260.646,44.275 260.725 C 44.821 260.802,45.198 261.179,45.275 261.725 C 45.354 262.279,45.730 262.647,46.300 262.728 C 46.951 262.820,47.200 263.124,47.200 263.828 C 47.200 264.598,47.408 264.800,48.200 264.800 C 49.000 264.800,49.200 265.000,49.200 265.800 C 49.200 266.350,49.355 266.800,49.545 266.800 C 50.305 266.800,49.449 264.723,48.548 264.380 C 48.026 264.182,47.600 263.741,47.600 263.400 C 47.600 263.059,47.175 262.618,46.655 262.421 C 46.135 262.223,45.612 261.688,45.492 261.231 C 45.373 260.774,44.988 260.400,44.637 260.400 C 44.287 260.400,44.000 260.143,44.000 259.829 C 44.000 259.515,43.550 258.904,43.000 258.471 C 42.450 258.039,42.000 257.577,42.000 257.445 C 42.000 257.313,40.200 255.420,38.000 253.239 C 32.675 247.958,32.649 248.327,38.800 242.082 C 41.440 239.402,43.600 237.023,43.600 236.796 C 43.600 236.569,44.050 236.178,44.600 235.927 C 45.526 235.505,45.753 235.162,45.500 234.564 C 45.445 234.434,45.895 234.068,46.500 233.751 C 47.105 233.434,47.600 232.906,47.600 232.577 C 47.600 232.249,48.050 231.809,48.600 231.600 C 49.150 231.391,49.600 230.941,49.600 230.600 C 49.600 230.259,50.050 229.809,50.600 229.600 C 51.467 229.271,52.157 227.200,51.400 227.200 C 51.290 227.200,51.200 227.650,51.200 228.200 M51.200 267.800 C 51.200 268.350,51.355 268.800,51.545 268.800 C 51.734 268.800,51.803 268.350,51.698 267.800 C 51.593 267.250,51.438 266.800,51.353 266.800 C 51.269 266.800,51.200 267.250,51.200 267.800 M53.361 268.463 C 53.163 268.784,53.356 268.853,53.991 268.686 C 54.888 268.452,58.000 271.050,58.000 272.033 C 58.000 272.235,58.274 272.400,58.610 272.400 C 58.945 272.400,59.391 272.850,59.600 273.400 C 59.809 273.950,60.259 274.400,60.599 274.400 C 60.939 274.400,61.422 274.850,61.673 275.400 C 61.923 275.950,62.374 276.400,62.674 276.400 C 62.974 276.400,63.391 276.850,63.600 277.400 C 63.809 277.950,64.259 278.400,64.600 278.400 C 64.941 278.400,65.391 278.850,65.600 279.400 C 65.809 279.950,66.259 280.400,66.600 280.400 C 66.941 280.400,67.391 280.850,67.600 281.400 C 67.809 281.950,68.259 282.400,68.600 282.400 C 68.941 282.400,69.382 282.825,69.579 283.345 C 69.777 283.865,70.312 284.388,70.769 284.508 C 71.258 284.636,71.600 285.052,71.600 285.519 C 71.600 286.033,71.953 286.402,72.600 286.564 C 73.221 286.720,73.600 287.099,73.600 287.564 C 73.600 288.030,73.979 288.408,74.600 288.564 C 75.242 288.725,75.600 289.097,75.600 289.600 C 75.600 290.103,75.958 290.475,76.600 290.636 C 77.221 290.792,77.600 291.170,77.600 291.636 C 77.600 292.096,77.976 292.479,78.577 292.630 C 79.172 292.779,79.602 293.213,79.677 293.738 C 79.754 294.279,80.135 294.648,80.700 294.728 C 81.283 294.811,81.600 295.131,81.600 295.638 C 81.600 296.092,81.996 296.571,82.545 296.779 C 83.065 296.977,83.588 297.512,83.708 297.969 C 83.827 298.426,84.209 298.800,84.555 298.800 C 84.901 298.800,85.298 299.250,85.436 299.800 C 85.586 300.399,85.973 300.800,86.400 300.800 C 86.827 300.800,87.214 301.201,87.364 301.800 C 87.520 302.421,87.899 302.800,88.364 302.800 C 88.830 302.800,89.208 303.179,89.364 303.800 C 89.522 304.430,89.898 304.800,90.380 304.800 C 90.868 304.800,91.191 305.125,91.272 305.700 C 91.353 306.270,91.721 306.646,92.275 306.725 C 92.821 306.802,93.198 307.179,93.275 307.725 C 93.354 308.279,93.730 308.647,94.300 308.728 C 94.951 308.820,95.200 309.124,95.200 309.828 C 95.200 310.598,95.408 310.800,96.200 310.800 C 97.000 310.800,97.200 311.000,97.200 311.800 C 97.200 312.350,97.355 312.800,97.545 312.800 C 98.305 312.800,97.449 310.723,96.548 310.380 C 96.026 310.182,95.600 309.741,95.600 309.400 C 95.600 309.059,95.175 308.618,94.655 308.421 C 94.135 308.223,93.612 307.688,93.492 307.231 C 93.373 306.774,92.988 306.400,92.637 306.400 C 92.287 306.400,92.000 306.143,92.000 305.829 C 92.000 305.515,91.550 304.904,91.000 304.471 C 90.450 304.039,90.000 303.585,90.000 303.463 C 90.000 303.342,87.705 300.904,84.900 298.046 C 52.866 265.408,54.375 266.823,53.361 268.463 M99.200 313.800 C 99.200 314.350,99.355 314.800,99.545 314.800 C 99.734 314.800,99.803 314.350,99.698 313.800 C 99.593 313.250,99.438 312.800,99.353 312.800 C 99.269 312.800,99.200 313.250,99.200 313.800 M101.361 314.463 C 101.163 314.784,101.356 314.853,101.991 314.686 C 102.888 314.452,106.000 317.050,106.000 318.033 C 106.000 318.235,106.274 318.400,106.610 318.400 C 106.945 318.400,107.391 318.850,107.600 319.400 C 107.809 319.950,108.259 320.400,108.599 320.400 C 108.939 320.400,109.422 320.850,109.673 321.400 C 109.923 321.950,110.374 322.400,110.674 322.400 C 110.974 322.400,111.391 322.850,111.600 323.400 C 111.809 323.950,112.259 324.400,112.600 324.400 C 112.941 324.400,113.391 324.850,113.600 325.400 C 113.809 325.950,114.259 326.400,114.600 326.400 C 114.941 326.400,115.391 326.850,115.600 327.400 C 115.809 327.950,116.259 328.400,116.600 328.400 C 116.941 328.400,117.382 328.825,117.579 329.345 C 117.777 329.865,118.312 330.388,118.769 330.508 C 119.258 330.636,119.600 331.052,119.600 331.519 C 119.600 332.033,119.953 332.402,120.600 332.564 C 121.221 332.720,121.600 333.099,121.600 333.564 C 121.600 334.030,121.979 334.408,122.600 334.564 C 123.242 334.725,123.600 335.097,123.600 335.600 C 123.600 336.103,123.958 336.475,124.600 336.636 C 125.199 336.786,125.600 337.173,125.600 337.601 C 125.600 338.425,126.368 338.800,128.056 338.800 C 128.748 338.800,129.144 338.632,129.000 338.400 C 128.864 338.180,128.385 338.000,127.936 338.000 C 127.395 338.000,123.108 333.944,115.253 326.000 C 103.582 314.198,102.223 313.069,101.361 314.463 " stroke="none" fill="#7cb4d0" fill-rule="evenodd"></path><path id="path4" d="M271.400 62.400 C 271.256 62.633,271.663 62.800,272.376 62.800 C 273.205 62.800,273.600 62.996,273.600 63.409 C 273.600 63.743,274.050 64.222,274.600 64.473 C 275.150 64.723,275.600 65.173,275.600 65.473 C 275.600 65.772,276.050 66.222,276.600 66.473 C 277.150 66.723,277.600 67.089,277.600 67.285 C 277.600 67.481,279.850 69.883,282.600 72.623 C 285.350 75.364,287.600 77.755,287.600 77.938 C 287.600 78.122,288.050 78.477,288.600 78.727 C 289.150 78.978,289.600 79.445,289.600 79.764 C 289.600 80.084,289.951 80.457,290.380 80.594 C 290.808 80.730,291.267 81.183,291.400 81.600 C 291.533 82.017,291.983 82.467,292.400 82.600 C 292.817 82.733,293.267 83.183,293.400 83.600 C 293.533 84.017,293.983 84.467,294.400 84.600 C 294.817 84.733,295.270 85.191,295.406 85.620 C 295.722 86.616,297.478 87.069,298.514 86.422 C 299.154 86.022,299.371 86.030,299.635 86.463 C 300.067 87.171,308.285 95.837,313.700 101.295 C 316.065 103.678,318.000 105.802,318.000 106.014 C 318.000 106.226,318.274 106.400,318.609 106.400 C 318.943 106.400,319.422 106.850,319.673 107.400 C 319.923 107.950,320.374 108.400,320.674 108.400 C 320.974 108.400,321.385 108.835,321.587 109.366 C 321.789 109.897,322.324 110.449,322.777 110.593 C 323.230 110.736,323.600 111.116,323.600 111.436 C 323.600 111.755,324.050 112.222,324.600 112.473 C 325.150 112.723,325.600 113.089,325.600 113.285 C 325.600 113.481,327.850 115.883,330.600 118.623 C 333.350 121.364,335.600 123.755,335.600 123.938 C 335.600 124.122,336.050 124.477,336.600 124.727 C 337.150 124.978,337.600 125.445,337.600 125.764 C 337.600 126.084,337.951 126.457,338.380 126.594 C 338.808 126.730,339.267 127.183,339.400 127.600 C 339.533 128.017,339.983 128.467,340.400 128.600 C 340.817 128.733,341.267 129.183,341.400 129.600 C 341.533 130.017,341.983 130.467,342.400 130.600 C 342.817 130.733,343.270 131.191,343.406 131.620 C 343.722 132.616,345.478 133.069,346.514 132.422 C 347.154 132.022,347.371 132.030,347.635 132.463 C 348.077 133.187,356.432 141.997,361.500 147.083 C 366.625 152.226,366.664 151.703,360.700 157.853 C 353.663 165.109,352.075 166.773,349.543 169.544 C 347.446 171.839,347.211 171.985,346.217 171.607 C 345.629 171.383,345.078 171.200,344.992 171.200 C 344.643 171.200,329.200 186.864,329.200 187.218 C 329.200 187.428,328.926 187.600,328.591 187.600 C 328.257 187.600,327.778 188.050,327.527 188.600 C 327.277 189.150,326.826 189.600,326.526 189.600 C 326.226 189.600,325.809 190.050,325.600 190.600 C 325.391 191.150,324.941 191.600,324.600 191.600 C 324.259 191.600,323.809 192.050,323.600 192.600 C 323.391 193.150,322.940 193.600,322.597 193.600 C 322.255 193.600,321.865 193.885,321.732 194.234 C 321.598 194.582,319.309 197.079,316.644 199.783 C 312.500 203.989,306.321 210.453,300.730 216.431 C 299.414 217.838,299.149 217.961,298.204 217.601 C 297.623 217.381,297.078 217.200,296.992 217.200 C 296.643 217.200,281.200 232.864,281.200 233.218 C 281.200 233.428,280.926 233.600,280.591 233.600 C 280.257 233.600,279.778 234.050,279.527 234.600 C 279.277 235.150,278.826 235.600,278.526 235.600 C 278.226 235.600,277.809 236.050,277.600 236.600 C 277.391 237.150,276.941 237.600,276.600 237.600 C 276.259 237.600,275.809 238.050,275.600 238.600 C 275.391 239.150,274.941 239.600,274.600 239.600 C 274.259 239.600,273.814 240.037,273.611 240.571 C 273.371 241.203,272.849 241.602,272.121 241.711 C 271.006 241.879,271.006 241.880,272.041 241.940 C 272.874 241.988,273.956 241.109,277.441 237.555 C 296.877 217.735,297.455 217.215,298.677 218.437 C 299.239 218.999,300.800 218.226,300.800 217.386 C 300.800 217.064,301.160 216.800,301.600 216.800 C 302.116 216.800,302.400 216.533,302.400 216.049 C 302.400 215.234,303.322 214.255,303.717 214.651 C 303.851 214.785,304.083 214.410,304.231 213.818 C 304.384 213.208,304.913 212.585,305.451 212.381 C 305.973 212.182,306.400 211.774,306.400 211.474 C 306.400 211.174,306.850 210.723,307.400 210.473 C 307.950 210.222,308.400 209.833,308.400 209.608 C 308.400 209.382,310.110 207.466,312.200 205.348 C 314.290 203.231,316.000 201.338,316.000 201.141 C 316.000 200.944,316.450 200.578,317.000 200.327 C 317.550 200.077,318.000 199.703,318.000 199.497 C 318.000 199.291,320.655 196.420,323.900 193.117 C 345.405 171.227,345.437 171.197,346.677 172.437 C 347.239 172.999,348.800 172.226,348.800 171.386 C 348.800 171.064,349.160 170.800,349.600 170.800 C 350.116 170.800,350.400 170.533,350.400 170.049 C 350.400 169.234,351.322 168.255,351.717 168.651 C 351.851 168.785,352.074 168.446,352.211 167.897 C 352.349 167.349,352.898 166.702,353.431 166.459 C 353.964 166.216,354.400 165.772,354.400 165.473 C 354.400 165.173,354.850 164.723,355.400 164.473 C 355.950 164.222,356.400 163.833,356.400 163.608 C 356.400 163.382,358.110 161.466,360.200 159.348 C 362.290 157.231,364.000 155.338,364.000 155.141 C 364.000 154.944,364.450 154.578,365.000 154.327 C 367.016 153.409,366.430 151.246,363.300 148.047 C 361.815 146.529,360.294 144.953,359.920 144.544 C 359.546 144.135,359.006 143.571,358.720 143.291 C 356.375 140.998,354.495 138.884,354.281 138.300 C 354.140 137.915,353.745 137.600,353.403 137.600 C 353.060 137.600,352.609 137.150,352.400 136.600 C 352.191 136.050,351.749 135.600,351.418 135.600 C 351.086 135.600,350.702 135.150,350.564 134.600 C 350.426 134.050,350.058 133.600,349.747 133.600 C 349.435 133.600,349.009 133.150,348.800 132.600 C 348.387 131.513,347.305 131.301,345.928 132.038 C 345.100 132.482,334.054 121.701,317.200 104.001 C 314.450 101.113,311.966 98.536,311.681 98.275 C 311.395 98.014,310.945 97.567,310.681 97.283 C 310.416 96.999,309.376 95.919,308.369 94.883 C 307.362 93.847,306.423 92.685,306.281 92.300 C 306.140 91.915,305.745 91.600,305.403 91.600 C 305.060 91.600,304.609 91.150,304.400 90.600 C 304.191 90.050,303.749 89.600,303.418 89.600 C 303.086 89.600,302.702 89.150,302.564 88.600 C 302.426 88.050,302.058 87.600,301.747 87.600 C 301.435 87.600,301.009 87.150,300.800 86.600 C 300.386 85.512,299.305 85.301,297.926 86.039 C 297.184 86.437,295.951 85.309,285.029 74.239 C 273.797 62.855,272.054 61.341,271.400 62.400 M285.172 69.947 C 285.392 70.358,285.458 70.808,285.319 70.947 C 285.180 71.086,285.488 71.200,286.003 71.200 L 286.939 71.200 286.000 70.200 C 284.881 69.009,284.628 68.932,285.172 69.947 M287.200 72.200 C 287.200 72.545,287.561 72.800,288.049 72.800 C 288.758 72.800,288.816 72.701,288.400 72.200 C 288.126 71.870,287.744 71.600,287.551 71.600 C 287.358 71.600,287.200 71.870,287.200 72.200 M289.200 73.600 C 289.530 73.813,289.625 73.991,289.411 73.994 C 289.197 73.997,289.613 74.540,290.336 75.200 C 291.856 76.589,291.867 76.593,291.867 75.800 C 291.867 75.470,291.627 75.200,291.333 75.200 C 291.040 75.200,290.800 75.033,290.800 74.829 C 290.800 74.298,289.629 73.199,289.071 73.206 C 288.795 73.210,288.848 73.373,289.200 73.600 M293.430 77.733 C 293.542 78.027,293.897 78.267,294.217 78.267 C 294.993 78.267,294.961 77.747,294.167 77.443 C 293.276 77.101,293.199 77.131,293.430 77.733 M295.600 79.590 C 295.600 79.842,295.766 79.944,295.970 79.819 C 296.173 79.693,296.425 79.866,296.529 80.203 C 296.676 80.677,296.705 80.663,296.659 80.141 C 296.593 79.388,295.600 78.871,295.600 79.590 M333.172 115.947 C 333.392 116.358,333.458 116.808,333.319 116.947 C 333.180 117.086,333.488 117.200,334.003 117.200 L 334.939 117.200 334.000 116.200 C 332.881 115.009,332.628 114.932,333.172 115.947 M335.200 118.200 C 335.200 118.545,335.561 118.800,336.049 118.800 C 336.758 118.800,336.816 118.701,336.400 118.200 C 336.126 117.870,335.744 117.600,335.551 117.600 C 335.358 117.600,335.200 117.870,335.200 118.200 M337.200 119.600 C 337.530 119.813,337.625 119.991,337.411 119.994 C 337.197 119.997,337.613 120.540,338.336 121.200 C 339.856 122.589,339.867 122.593,339.867 121.800 C 339.867 121.470,339.627 121.200,339.333 121.200 C 339.040 121.200,338.800 121.033,338.800 120.829 C 338.800 120.298,337.629 119.199,337.071 119.206 C 336.795 119.210,336.848 119.373,337.200 119.600 M341.430 123.733 C 341.542 124.027,341.897 124.267,342.217 124.267 C 342.993 124.267,342.961 123.747,342.167 123.443 C 341.276 123.101,341.199 123.131,341.430 123.733 M343.600 125.590 C 343.600 125.842,343.766 125.944,343.970 125.819 C 344.173 125.693,344.425 125.866,344.529 126.203 C 344.676 126.677,344.705 126.663,344.659 126.141 C 344.593 125.388,343.600 124.871,343.600 125.590 M128.045 157.890 C 127.500 157.993,125.180 160.022,122.645 162.614 C 119.123 166.214,111.137 174.277,108.792 176.600 C 108.570 176.820,107.197 178.215,105.742 179.700 C 102.778 182.724,103.052 182.567,101.874 181.920 C 100.259 181.032,99.600 181.117,99.600 182.212 C 99.600 182.919,99.301 183.333,98.600 183.600 C 98.050 183.809,97.600 184.259,97.600 184.600 C 97.600 184.941,97.150 185.391,96.600 185.600 C 96.050 185.809,95.600 186.249,95.600 186.577 C 95.600 186.906,95.160 187.405,94.621 187.687 C 94.083 187.969,93.633 188.335,93.621 188.500 C 93.610 188.665,93.600 188.951,93.600 189.136 C 93.600 189.320,93.150 189.677,92.600 189.927 C 92.050 190.178,91.600 190.571,91.600 190.800 C 91.600 191.030,89.598 193.239,87.152 195.709 C 84.705 198.179,82.435 200.605,82.106 201.100 C 81.777 201.595,81.259 202.000,80.954 202.000 C 80.649 202.000,80.400 202.175,80.400 202.389 C 80.400 202.771,70.521 212.952,60.745 222.647 C 60.497 222.893,59.125 224.288,57.695 225.747 C 54.783 228.720,55.051 228.567,53.874 227.920 C 52.259 227.032,51.600 227.117,51.600 228.212 C 51.600 228.919,51.301 229.333,50.600 229.600 C 50.050 229.809,49.600 230.259,49.600 230.600 C 49.600 230.941,49.150 231.391,48.600 231.600 C 48.050 231.809,47.600 232.249,47.600 232.577 C 47.600 232.906,47.160 233.405,46.621 233.687 C 46.083 233.969,45.633 234.335,45.621 234.500 C 45.610 234.665,45.600 234.951,45.600 235.136 C 45.600 235.320,45.150 235.677,44.600 235.927 C 44.050 236.178,43.600 236.569,43.600 236.796 C 43.600 237.023,41.440 239.402,38.800 242.082 C 32.649 248.327,32.675 247.958,38.000 253.239 C 40.200 255.420,42.000 257.313,42.000 257.445 C 42.000 257.577,42.450 258.039,43.000 258.471 C 43.550 258.904,44.000 259.515,44.000 259.829 C 44.000 260.143,44.287 260.400,44.637 260.400 C 44.988 260.400,45.373 260.774,45.492 261.231 C 45.612 261.688,46.135 262.223,46.655 262.421 C 47.175 262.618,47.600 263.059,47.600 263.400 C 47.600 263.741,48.036 264.186,48.569 264.388 C 49.131 264.602,49.594 265.145,49.669 265.678 C 49.754 266.278,50.114 266.645,50.700 266.728 C 51.284 266.811,51.600 267.131,51.600 267.640 C 51.600 268.580,52.671 269.089,53.307 268.453 C 54.494 267.266,55.547 268.149,67.601 280.425 C 74.310 287.259,82.095 295.188,84.900 298.046 C 87.705 300.904,90.000 303.342,90.000 303.463 C 90.000 303.585,90.450 304.039,91.000 304.471 C 91.550 304.904,92.000 305.515,92.000 305.829 C 92.000 306.143,92.274 306.400,92.610 306.400 C 92.945 306.400,93.391 306.850,93.600 307.400 C 93.809 307.950,94.259 308.400,94.600 308.400 C 94.941 308.400,95.382 308.825,95.579 309.345 C 95.777 309.865,96.297 310.384,96.735 310.499 C 97.188 310.617,97.590 311.117,97.666 311.654 C 97.754 312.278,98.106 312.643,98.700 312.728 C 99.284 312.811,99.600 313.131,99.600 313.640 C 99.600 314.580,100.671 315.089,101.307 314.453 C 102.479 313.281,103.558 314.174,115.193 325.936 C 126.167 337.030,129.200 339.630,129.200 337.945 C 129.200 337.755,128.825 337.600,128.366 337.600 C 127.544 337.600,112.400 322.771,112.400 321.966 C 112.400 321.765,112.126 321.600,111.791 321.600 C 111.457 321.600,110.978 321.150,110.727 320.600 C 110.477 320.050,110.027 319.600,109.727 319.600 C 109.428 319.600,108.979 319.153,108.731 318.608 C 108.482 318.062,107.955 317.513,107.560 317.387 C 107.164 317.262,106.733 316.817,106.600 316.400 C 106.467 315.983,106.008 315.530,105.580 315.394 C 105.151 315.257,104.800 314.895,104.800 314.587 C 104.800 313.605,103.295 313.089,101.876 313.583 C 101.046 313.873,100.562 313.887,100.475 313.625 C 100.401 313.404,98.908 311.734,97.156 309.912 C 95.404 308.090,91.413 303.940,88.285 300.689 C 85.158 297.439,78.505 290.628,73.500 285.554 C 68.495 280.480,64.400 276.165,64.400 275.964 C 64.400 275.764,64.126 275.600,63.791 275.600 C 63.457 275.600,62.978 275.150,62.727 274.600 C 62.477 274.050,62.027 273.600,61.727 273.600 C 61.428 273.600,60.979 273.153,60.731 272.608 C 60.482 272.062,59.955 271.513,59.560 271.387 C 59.164 271.262,58.733 270.817,58.600 270.400 C 58.467 269.983,58.008 269.530,57.580 269.394 C 57.151 269.257,56.800 268.895,56.800 268.587 C 56.800 267.605,55.295 267.089,53.876 267.583 C 53.046 267.873,52.562 267.887,52.475 267.624 C 52.332 267.197,45.133 259.608,38.700 253.104 C 34.528 248.886,33.819 247.353,35.600 246.400 C 36.040 246.165,36.400 245.737,36.400 245.450 C 36.400 245.163,36.850 244.723,37.400 244.473 C 37.950 244.222,38.400 243.840,38.400 243.623 C 38.400 243.406,40.155 241.450,42.300 239.277 C 44.445 237.104,47.718 233.705,49.572 231.725 C 52.750 228.332,53.007 228.147,54.013 228.528 C 55.318 229.020,56.408 228.654,56.675 227.635 C 56.784 227.216,57.231 226.781,57.667 226.667 C 58.103 226.553,58.553 226.103,58.667 225.667 C 58.781 225.231,59.231 224.781,59.667 224.667 C 60.103 224.553,60.553 224.103,60.667 223.667 C 60.781 223.231,61.231 222.781,61.667 222.667 C 62.103 222.553,62.555 222.092,62.673 221.643 C 62.790 221.194,63.218 220.721,63.623 220.593 C 64.028 220.464,64.467 220.017,64.600 219.600 C 64.733 219.183,65.183 218.733,65.600 218.600 C 66.017 218.467,66.467 218.017,66.600 217.600 C 66.733 217.183,67.183 216.733,67.600 216.600 C 68.017 216.467,68.467 216.017,68.600 215.600 C 68.733 215.183,69.183 214.733,69.600 214.600 C 70.017 214.467,70.467 214.017,70.600 213.600 C 70.733 213.183,71.192 212.730,71.620 212.594 C 72.049 212.457,72.400 212.202,72.400 212.025 C 72.400 211.849,75.100 208.969,78.400 205.626 C 81.700 202.283,84.400 199.409,84.400 199.238 C 84.400 199.068,84.850 198.723,85.400 198.473 C 85.950 198.222,86.400 197.840,86.400 197.623 C 86.400 197.406,88.155 195.450,90.300 193.277 C 92.445 191.104,95.718 187.705,97.572 185.725 C 100.750 182.332,101.007 182.147,102.013 182.528 C 103.318 183.020,104.408 182.654,104.675 181.635 C 104.784 181.216,105.231 180.781,105.667 180.667 C 106.103 180.553,106.553 180.103,106.667 179.667 C 106.781 179.231,107.231 178.781,107.667 178.667 C 108.103 178.553,108.553 178.103,108.667 177.667 C 108.781 177.231,109.231 176.781,109.667 176.667 C 110.103 176.553,110.555 176.092,110.673 175.643 C 110.790 175.194,111.218 174.721,111.623 174.593 C 112.028 174.464,112.467 174.017,112.600 173.600 C 112.733 173.183,113.183 172.733,113.600 172.600 C 114.017 172.467,114.467 172.017,114.600 171.600 C 114.733 171.183,115.183 170.733,115.600 170.600 C 116.017 170.467,116.467 170.017,116.600 169.600 C 116.733 169.183,117.183 168.733,117.600 168.600 C 118.017 168.467,118.467 168.017,118.600 167.600 C 118.733 167.183,119.192 166.730,119.620 166.594 C 120.049 166.457,120.400 166.214,120.400 166.053 C 120.400 165.491,127.162 158.800,127.730 158.800 C 128.045 158.800,128.526 158.530,128.800 158.200 C 129.074 157.870,129.231 157.625,129.149 157.654 C 129.067 157.684,128.570 157.790,128.045 157.890 M116.267 164.267 C 115.806 164.727,115.975 165.200,116.600 165.200 C 116.930 165.200,117.200 164.930,117.200 164.600 C 117.200 163.975,116.727 163.806,116.267 164.267 M114.052 166.137 C 113.563 166.727,113.836 167.200,114.667 167.200 C 114.960 167.200,115.200 166.840,115.200 166.400 C 115.200 165.477,114.696 165.361,114.052 166.137 M111.614 168.373 C 111.387 168.798,110.857 169.255,110.437 169.388 C 109.480 169.692,109.004 170.758,109.883 170.629 C 110.228 170.578,110.764 170.191,111.073 169.768 C 111.382 169.346,111.807 169.000,112.017 169.000 C 112.228 169.000,112.385 168.840,112.366 168.645 C 112.347 168.449,112.572 168.137,112.866 167.951 C 113.278 167.690,113.243 167.611,112.714 167.606 C 112.337 167.603,111.842 167.948,111.614 168.373 M107.680 171.680 C 107.416 171.944,107.200 172.351,107.200 172.585 C 107.200 172.819,106.807 173.188,106.326 173.405 C 105.384 173.831,104.856 174.800,105.567 174.800 C 105.805 174.800,105.979 174.665,105.953 174.500 C 105.829 173.717,106.052 173.545,106.600 174.000 C 107.088 174.405,107.200 174.386,107.200 173.895 C 107.200 173.563,107.650 172.997,108.200 172.637 C 108.750 172.276,109.200 171.806,109.200 171.591 C 109.200 171.047,108.258 171.102,107.680 171.680 M346.000 176.200 C 345.592 176.691,345.620 176.800,346.151 176.800 C 346.508 176.800,346.800 176.530,346.800 176.200 C 346.800 175.870,346.732 175.600,346.649 175.600 C 346.566 175.600,346.274 175.870,346.000 176.200 M341.784 180.027 C 341.639 180.261,341.616 180.549,341.733 180.667 C 342.020 180.953,342.800 180.448,342.800 179.976 C 342.800 179.465,342.109 179.499,341.784 180.027 M339.338 181.817 C 339.208 182.157,339.213 182.547,339.351 182.684 C 339.488 182.821,339.600 182.647,339.600 182.296 C 339.600 181.945,339.915 181.576,340.300 181.476 C 340.956 181.304,340.955 181.290,340.287 181.246 C 339.896 181.221,339.468 181.478,339.338 181.817 M337.500 184.059 C 337.655 184.652,337.818 184.717,338.249 184.359 C 338.956 183.773,338.947 183.732,338.051 183.497 C 337.472 183.346,337.347 183.474,337.500 184.059 M335.200 185.887 C 335.200 186.899,335.220 186.906,336.000 186.200 C 336.440 185.802,336.800 185.362,336.800 185.223 C 336.800 185.084,336.440 184.943,336.000 184.910 C 335.390 184.864,335.200 185.096,335.200 185.887 M333.200 187.600 C 333.200 188.040,333.374 188.400,333.586 188.400 C 333.798 188.400,334.165 188.040,334.400 187.600 C 334.763 186.922,334.704 186.800,334.014 186.800 C 333.467 186.800,333.200 187.062,333.200 187.600 M331.397 189.130 C 331.505 189.238,331.389 189.572,331.140 189.873 C 330.890 190.173,330.757 190.487,330.843 190.570 C 330.929 190.654,331.301 190.319,331.668 189.827 C 332.211 189.102,332.230 188.933,331.768 188.933 C 331.456 188.933,331.288 189.022,331.397 189.130 M68.267 210.267 C 67.806 210.727,67.975 211.200,68.600 211.200 C 68.930 211.200,69.200 210.930,69.200 210.600 C 69.200 209.975,68.727 209.806,68.267 210.267 M66.052 212.137 C 65.563 212.727,65.836 213.200,66.667 213.200 C 66.960 213.200,67.200 212.840,67.200 212.400 C 67.200 211.477,66.696 211.361,66.052 212.137 M63.614 214.373 C 63.387 214.798,62.857 215.255,62.437 215.388 C 61.480 215.692,61.004 216.758,61.883 216.629 C 62.228 216.578,62.764 216.191,63.073 215.768 C 63.382 215.346,63.807 215.000,64.017 215.000 C 64.228 215.000,64.385 214.840,64.366 214.645 C 64.347 214.449,64.572 214.137,64.866 213.951 C 65.278 213.690,65.243 213.611,64.714 213.606 C 64.337 213.603,63.842 213.948,63.614 214.373 M59.680 217.680 C 59.416 217.944,59.200 218.351,59.200 218.585 C 59.200 218.819,58.807 219.188,58.326 219.405 C 57.384 219.831,56.856 220.800,57.567 220.800 C 57.805 220.800,57.979 220.665,57.953 220.500 C 57.829 219.717,58.052 219.545,58.600 220.000 C 59.088 220.405,59.200 220.386,59.200 219.895 C 59.200 219.563,59.650 218.997,60.200 218.637 C 60.750 218.276,61.200 217.806,61.200 217.591 C 61.200 217.047,60.258 217.102,59.680 217.680 M298.000 222.200 C 297.592 222.691,297.620 222.800,298.151 222.800 C 298.508 222.800,298.800 222.530,298.800 222.200 C 298.800 221.870,298.732 221.600,298.649 221.600 C 298.566 221.600,298.274 221.870,298.000 222.200 M293.784 226.027 C 293.639 226.261,293.616 226.549,293.733 226.667 C 294.020 226.953,294.800 226.448,294.800 225.976 C 294.800 225.465,294.109 225.499,293.784 226.027 M291.338 227.817 C 291.208 228.157,291.213 228.547,291.351 228.684 C 291.488 228.821,291.600 228.647,291.600 228.296 C 291.600 227.945,291.915 227.576,292.300 227.476 C 292.956 227.304,292.955 227.290,292.287 227.246 C 291.896 227.221,291.468 227.478,291.338 227.817 M289.500 230.059 C 289.655 230.652,289.818 230.717,290.249 230.359 C 290.956 229.773,290.947 229.732,290.051 229.497 C 289.472 229.346,289.347 229.474,289.500 230.059 M287.200 231.887 C 287.200 232.899,287.220 232.906,288.000 232.200 C 288.440 231.802,288.800 231.362,288.800 231.223 C 288.800 231.084,288.440 230.943,288.000 230.910 C 287.390 230.864,287.200 231.096,287.200 231.887 M285.200 233.600 C 285.200 234.040,285.374 234.400,285.586 234.400 C 285.798 234.400,286.165 234.040,286.400 233.600 C 286.763 232.922,286.704 232.800,286.014 232.800 C 285.467 232.800,285.200 233.062,285.200 233.600 M283.397 235.130 C 283.505 235.238,283.389 235.572,283.140 235.873 C 282.890 236.173,282.757 236.487,282.843 236.570 C 282.929 236.654,283.301 236.319,283.668 235.827 C 284.211 235.102,284.230 234.933,283.768 234.933 C 283.456 234.933,283.288 235.022,283.397 235.130 M57.355 275.828 C 57.490 276.179,57.600 276.541,57.600 276.633 C 57.600 276.725,57.750 276.800,57.933 276.800 C 58.502 276.800,58.299 275.647,57.689 275.413 C 57.286 275.258,57.185 275.384,57.355 275.828 M58.939 276.584 C 59.082 276.959,59.200 277.401,59.200 277.566 C 59.200 277.731,59.470 277.867,59.800 277.867 C 60.628 277.867,60.551 277.507,59.539 276.640 C 58.772 275.984,58.706 275.978,58.939 276.584 M61.200 279.184 C 61.200 279.396,61.491 279.801,61.846 280.084 C 62.202 280.368,62.962 281.095,63.535 281.700 C 64.663 282.889,65.173 283.091,65.053 282.300 C 64.937 281.530,64.376 280.767,64.068 280.958 C 63.916 281.052,63.444 280.875,63.019 280.565 C 62.507 280.190,62.433 280.000,62.800 280.000 C 63.169 280.000,63.095 279.805,62.576 279.413 C 61.667 278.725,61.200 278.647,61.200 279.184 M65.870 283.063 C 65.567 283.366,66.324 284.400,66.849 284.400 C 67.042 284.400,67.200 284.040,67.200 283.600 C 67.200 282.831,66.418 282.516,65.870 283.063 M68.000 285.151 C 68.000 285.344,68.270 285.726,68.600 286.000 C 69.101 286.416,69.200 286.358,69.200 285.649 C 69.200 285.161,68.945 284.800,68.600 284.800 C 68.270 284.800,68.000 284.958,68.000 285.151 M105.355 321.828 C 105.490 322.179,105.600 322.541,105.600 322.633 C 105.600 322.725,105.750 322.800,105.933 322.800 C 106.502 322.800,106.299 321.647,105.689 321.413 C 105.286 321.258,105.185 321.384,105.355 321.828 M106.939 322.584 C 107.082 322.959,107.200 323.401,107.200 323.566 C 107.200 323.731,107.470 323.867,107.800 323.867 C 108.628 323.867,108.551 323.507,107.539 322.640 C 106.772 321.984,106.706 321.978,106.939 322.584 M109.200 325.184 C 109.200 325.396,109.491 325.801,109.846 326.084 C 110.202 326.368,110.962 327.095,111.535 327.700 C 112.663 328.889,113.173 329.091,113.053 328.300 C 112.937 327.530,112.376 326.767,112.068 326.958 C 111.916 327.052,111.444 326.875,111.019 326.565 C 110.507 326.190,110.433 326.000,110.800 326.000 C 111.169 326.000,111.095 325.805,110.576 325.413 C 109.667 324.725,109.200 324.647,109.200 325.184 M113.870 329.063 C 113.567 329.366,114.324 330.400,114.849 330.400 C 115.042 330.400,115.200 330.040,115.200 329.600 C 115.200 328.831,114.418 328.516,113.870 329.063 M116.000 331.151 C 116.000 331.344,116.270 331.726,116.600 332.000 C 117.101 332.416,117.200 332.358,117.200 331.649 C 117.200 331.161,116.945 330.800,116.600 330.800 C 116.270 330.800,116.000 330.958,116.000 331.151 " stroke="none" fill="#8094d0" fill-rule="evenodd"></path></g></svg>