<?xml version="1.0" encoding="utf-8"?>
<!-- Generator: Adobe Illustrator 18.0.0, SVG Export Plug-In . SVG Version: 6.00 Build 0)  -->
<!DOCTYPE svg PUBLIC "-//W3C//DTD SVG 1.1//EN" "http://www.w3.org/Graphics/SVG/1.1/DTD/svg11.dtd">
<svg version="1.1" id="Layer_1" xmlns="http://www.w3.org/2000/svg" xmlns:xlink="http://www.w3.org/1999/xlink" x="0px" y="0px"
	 viewBox="0 0 30 25" enable-background="new 0 0 30 25" xml:space="preserve">
<g>
	<path fill="#FFFFFF" d="M2,2v11h9.2c-0.1-0.3-0.2-0.7-0.2-1H6c-0.2-1.6-1.3-2.8-3-3V6c1.7-0.2,3.1-1.4,3.3-3L19,3
		c0.2,1.6,1.3,2.8,3,3v1.6c0.4,0.1,0.7,0.3,1,0.4V2H2z M5,12H3v-2C4.1,10.2,4.8,10.9,5,12z M3,5V3h2C4.8,4.1,4.1,4.8,3,5z M22,5
		c-1.1-0.2-1.8-0.9-2-2h2V5z"/>
	<path fill="#FFFFFF" d="M12.3,3.6c-1.6,0-2.9,1.6-2.9,3.6c0,1.6,0.8,2.9,1.9,3.4c0.1-0.3,0.3-0.6,0.5-0.8c-0.8-0.3-1.4-1.3-1.4-2.6
		c0-1.5,0.9-2.7,1.9-2.7s1.9,1.2,1.9,2.7c0,0.3,0,0.5-0.1,0.7c0.3-0.2,0.7-0.3,1-0.4c0-0.1,0-0.2,0-0.3C15.2,5.2,13.9,3.6,12.3,3.6z
		"/>
</g>
<path fill="#FFFFFF" d="M19.8,23.5h-1.6c-0.6,0-0.8-0.3-1.5-2.2l-0.3-0.1c-1.7,0.8-1.9,0.8-2,0.8c-0.2,0-0.4-0.1-0.5-0.2l-1.1-1.1
	c-0.4-0.4-0.3-0.8,0.5-2.6l-0.1-0.3c-1.8-0.7-2.2-0.8-2.2-1.4v-1.6c0-0.6,0.3-0.8,2.2-1.5l0.1-0.3c-0.8-1.7-0.9-2.1-0.5-2.6l1.1-1.1
	c0.1-0.1,0.3-0.2,0.6-0.2c0.1,0,0.4,0,2,0.7l0.3-0.1c0.7-1.8,0.8-2.2,1.4-2.2h1.6c0.6,0,0.8,0.3,1.5,2.2l0.3,0.1
	C23.2,9,23.4,9,23.5,9c0.2,0,0.4,0.1,0.6,0.2l1.1,1.1c0.4,0.4,0.3,0.7-0.5,2.6l0.1,0.3c1.8,0.7,2.2,0.8,2.2,1.4v1.6
	c0,0.6-0.3,0.8-2.2,1.5L24.7,18c0.8,1.7,0.9,2.1,0.5,2.6l-1.1,1.1c-0.1,0.1-0.3,0.2-0.6,0.2c-0.1,0-0.4,0-2-0.7l-0.3,0.1
	C20.6,23.1,20.4,23.5,19.8,23.5z M19.8,22.5V23V22.5C19.9,22.5,19.8,22.5,19.8,22.5z M18.4,22.5h1.4c0.2-0.3,0.5-1.3,0.7-1.7
	l0.1-0.2l0.2-0.2l0.9-0.4l0.2,0.1c1.1,0.5,1.6,0.6,1.8,0.7l1-1c-0.1-0.4-0.5-1.3-0.7-1.6l-0.1-0.2l0.1-0.3l0.4-0.9l0.2-0.1
	c0.4-0.2,1.4-0.6,1.7-0.7v-1.4c-0.3-0.2-1.3-0.5-1.7-0.7l-0.2-0.1L24,13.8l-0.4-0.9l0.1-0.2c0.2-0.4,0.6-1.4,0.7-1.8l-1-1
	c-0.1,0-0.6,0.2-1.6,0.7l-0.2,0.1l-0.3-0.1l-0.9-0.4l-0.1-0.2c-0.2-0.4-0.6-1.4-0.7-1.7h-1.3c-0.1,0.2-0.3,0.8-0.7,1.7l-0.1,0.2
	l-0.2,0.2l-0.9,0.4l-0.2-0.1c-1.1-0.5-1.6-0.6-1.8-0.7l-1,1c0.1,0.4,0.5,1.3,0.7,1.6l0.1,0.2l-0.1,0.3L13.9,14l-0.2,0.1
	c-0.4,0.2-1.4,0.6-1.7,0.7v1.4c0.3,0.2,1.3,0.5,1.7,0.7l0.2,0.1l0.2,0.2l0.4,0.9l-0.1,0.2c-0.2,0.4-0.6,1.4-0.7,1.8l1,1
	c0.1,0,0.6-0.2,1.6-0.7l0.2-0.1l0.3,0.1l0.9,0.4l0.1,0.2C17.8,21.2,18.2,22.2,18.4,22.5z M19,18.6c-1.7,0-3.1-1.4-3.1-3.1
	c0-1.7,1.4-3.1,3.1-3.1c1.7,0,3.1,1.4,3.1,3.1C22.1,17.2,20.7,18.6,19,18.6z M19,13.4c-1.1,0-2.1,0.9-2.1,2.1c0,1.1,0.9,2.1,2.1,2.1
	c1.1,0,2.1-0.9,2.1-2.1C21.1,14.4,20.2,13.4,19,13.4z"/>
</svg>
