<svg xmlns="http://www.w3.org/2000/svg" width="23" height="19" viewBox="0 0 23 19">
  <defs>
    <style>
      .cls-1 {
        fill: #fff;
        fill-rule: evenodd;
      }
    </style>
  </defs>
  <path class="cls-1" d="M3666,1179h-21a1.108,1.108,0,0,1-1-1v-13h1v12a0.877,0.877,0,0,0,1,1h19a0.862,0.862,0,0,0,1-1v-12h1v13A1.074,1.074,0,0,1,3666,1179Zm-16.5-16.01a0.472,0.472,0,0,1-.5-0.44v-2.11a0.5,0.5,0,0,1,1,0v2.11A0.472,0.472,0,0,1,3649.5,1162.99Zm11.99,0a0.482,0.482,0,0,1-.51-0.44v-2.11a0.51,0.51,0,0,1,1.01,0v2.11A0.479,0.479,0,0,1,3661.49,1162.99Zm-2-1.98-7.9-.01a0.507,0.507,0,1,1,0-1h7.9A0.506,0.506,0,0,1,3659.49,1161.01ZM3667,1166h-23v-5a1.02,1.02,0,0,1,1-1h2a0.5,0.5,0,0,1,0,1h-1a0.867,0.867,0,0,0-1,1v3h21v-3c0-1.22-.68-1-1-1h-1a0.5,0.5,0,1,1,0-1h2a1,1,0,0,1,1,1v5Zm-18,3h0l-1.08.99,0.08-.99,1-1h1v7h-1v-6Zm6,4h-2v2h2v-2Zm0-4h-2v2h2v-2Zm2,6h2v-2h-2v2Zm0-4h2v-2h-2v2Zm4,4h2v-2h-2v2Zm0-4h2v-2h-2v2Z" transform="translate(-3644 -1160)"/>
</svg>
