<?xml version="1.0" encoding="utf-8"?>
<!-- Generator: Adobe Illustrator 16.0.0, SVG Export Plug-In . SVG Version: 6.00 Build 0)  -->
<!DOCTYPE svg PUBLIC "-//W3C//DTD SVG 1.1//EN" "http://www.w3.org/Graphics/SVG/1.1/DTD/svg11.dtd">
<svg version="1.1" id="Layer_1" xmlns="http://www.w3.org/2000/svg" xmlns:xlink="http://www.w3.org/1999/xlink" x="0px" y="0px"
	 width="31px" height="29px" viewBox="0 0 31 29" enable-background="new 0 0 31 29" xml:space="preserve">
<g>
	<g transform="translate(-647 -379)">
		<g>
			<path id="a" fill="#FFFFFF" d="M676,387v18.42c0,0.32-0.25,0.58-0.57,0.58h-25.86c-0.316-0.006-0.57-0.264-0.57-0.58V387
				c0-0.32,0.68-1,1-1h5c0.55-1.44,2.36-2.83,3.89-2.83h0.96c0.263-1.256,1.366-2.16,2.65-2.17c1.3,0,2.4,0.93,2.66,2.17h0.96
				c1.521,0,3.33,1.4,3.88,2.83h5C675.311,386,676,386.68,676,387L676,387z M656,387h13l-0.5-0.98c-0.357-1.011-1.309-1.69-2.38-1.7
				h-1.47c-0.316,0-0.575-0.253-0.58-0.57c0-0.88-0.7-1.59-1.57-1.59c-0.86,0-1.57,0.71-1.57,1.59c0,0.32-0.25,0.58-0.57,0.58h-1.47
				c-1.07,0-2.03,0.68-2.39,1.7L656,387z M655,387h-5v18h25v-18h-5c0,0,0.09,0.75,0,1h-15C654.81,388,655,387,655,387z
				 M655.01,392.48c0-1.37,1.04-2.5,2.32-2.5c1.27,0,2.31,1.13,2.31,2.5s-1.04,2.48-2.31,2.48
				C656.05,394.96,655.01,393.85,655.01,392.48z M655.98,392.48c0,0.8,0.6,1.45,1.35,1.45c0.74,0,1.35-0.66,1.35-1.45
				c0-0.8-0.61-1.45-1.35-1.45C656.58,391.03,655.98,391.68,655.98,392.48z M662.99,401.41c0,0.311-0.23,0.57-0.53,0.57h-9.93
				c-0.29,0-0.53-0.25-0.53-0.57c0-3.301,2.47-5.98,5.5-5.98c3.03,0,5.5,2.68,5.5,5.98H662.99z M661.89,400.83
				c-0.25-2.38-2.13-4.24-4.4-4.24c-2.26,0-4.22,2.03-4.49,4.41L661.89,400.83z"/>
		</g>
		<g>
			<defs>
				<path id="SVGID_1_" d="M676,387v18.42c0,0.32-0.25,0.58-0.57,0.58h-25.86c-0.316-0.006-0.57-0.264-0.57-0.58V387
					c0-0.32,0.68-1,1-1h5c0.55-1.44,2.36-2.83,3.89-2.83h0.96c0.263-1.256,1.366-2.16,2.65-2.17c1.3,0,2.4,0.93,2.66,2.17h0.96
					c1.521,0,3.33,1.4,3.88,2.83h5C675.311,386,676,386.68,676,387L676,387z M656,387h13l-0.5-0.98
					c-0.357-1.011-1.309-1.69-2.38-1.7h-1.47c-0.316,0-0.575-0.253-0.58-0.57c0-0.88-0.7-1.59-1.57-1.59
					c-0.86,0-1.57,0.71-1.57,1.59c0,0.32-0.25,0.58-0.57,0.58h-1.47c-1.07,0-2.03,0.68-2.39,1.7L656,387z M655,387h-5v18h25v-18h-5
					c0,0,0.09,0.75,0,1h-15C654.81,388,655,387,655,387z M655.01,392.48c0-1.37,1.04-2.5,2.32-2.5c1.27,0,2.31,1.13,2.31,2.5
					s-1.04,2.48-2.31,2.48C656.05,394.96,655.01,393.85,655.01,392.48z M655.98,392.48c0,0.8,0.6,1.45,1.35,1.45
					c0.74,0,1.35-0.66,1.35-1.45c0-0.8-0.61-1.45-1.35-1.45C656.58,391.03,655.98,391.68,655.98,392.48z M662.99,401.41
					c0,0.311-0.23,0.57-0.53,0.57h-9.93c-0.29,0-0.53-0.25-0.53-0.57c0-3.301,2.47-5.98,5.5-5.98c3.03,0,5.5,2.68,5.5,5.98H662.99z
					 M661.89,400.83c-0.25-2.38-2.13-4.24-4.4-4.24c-2.26,0-4.22,2.03-4.49,4.41L661.89,400.83z"/>
			</defs>
			<clipPath id="SVGID_2_">
				<use xlink:href="#SVGID_1_"  overflow="visible"/>
			</clipPath>
			<g clip-path="url(#SVGID_2_)">
				<path id="a_1_" fill="#FFFFFF" fill-opacity="0" stroke="#99B6E4" stroke-width="1.5" stroke-miterlimit="50" d="M676,387v18.42
					c0,0.32-0.25,0.58-0.57,0.58h-25.86c-0.316-0.006-0.57-0.264-0.57-0.58V387c0-0.32,0.68-1,1-1h5c0.55-1.44,2.36-2.83,3.89-2.83
					h0.96c0.263-1.256,1.366-2.16,2.65-2.17c1.3,0,2.4,0.93,2.66,2.17h0.96c1.521,0,3.33,1.4,3.88,2.83h5
					C675.311,386,676,386.68,676,387L676,387z M656,387h13l-0.5-0.98c-0.357-1.011-1.309-1.69-2.38-1.7h-1.47
					c-0.316,0-0.575-0.253-0.58-0.57c0-0.88-0.7-1.59-1.57-1.59c-0.86,0-1.57,0.71-1.57,1.59c0,0.32-0.25,0.58-0.57,0.58h-1.47
					c-1.07,0-2.03,0.68-2.39,1.7L656,387z M655,387h-5v18h25v-18h-5c0,0,0.09,0.75,0,1h-15C654.81,388,655,387,655,387z
					 M655.01,392.48c0-1.37,1.04-2.5,2.32-2.5c1.27,0,2.31,1.13,2.31,2.5s-1.04,2.48-2.31,2.48
					C656.05,394.96,655.01,393.85,655.01,392.48z M655.98,392.48c0,0.8,0.6,1.45,1.35,1.45c0.74,0,1.35-0.66,1.35-1.45
					c0-0.8-0.61-1.45-1.35-1.45C656.58,391.03,655.98,391.68,655.98,392.48z M662.99,401.41c0,0.311-0.23,0.57-0.53,0.57h-9.93
					c-0.29,0-0.53-0.25-0.53-0.57c0-3.301,2.47-5.98,5.5-5.98c3.03,0,5.5,2.68,5.5,5.98H662.99z M661.89,400.83
					c-0.25-2.38-2.13-4.24-4.4-4.24c-2.26,0-4.22,2.03-4.49,4.41L661.89,400.83z"/>
			</g>
		</g>
	</g>
	<g transform="translate(-647 -379)">
		<g>
			<path id="b" fill="#FFFFFF" d="M665,395v-1h9v1H665z"/>
		</g>
		<g>
			<defs>
				<rect id="SVGID_3_" x="665" y="394" width="9" height="1"/>
			</defs>
			<clipPath id="SVGID_4_">
				<use xlink:href="#SVGID_3_"  overflow="visible"/>
			</clipPath>
			<g clip-path="url(#SVGID_4_)">
				<path id="b_1_" fill="#FFFFFF" fill-opacity="0" stroke="#99B6E4" stroke-miterlimit="50" d="M665,395v-1h9v1H665z"/>
			</g>
		</g>
	</g>
	<g transform="translate(-647 -379)">
		<g>
			<path id="c" fill="#FFFFFF" d="M665,398v-1h9v1H665z"/>
		</g>
		<g>
			<defs>
				<rect id="SVGID_5_" x="665" y="397" width="9" height="1"/>
			</defs>
			<clipPath id="SVGID_6_">
				<use xlink:href="#SVGID_5_"  overflow="visible"/>
			</clipPath>
			<g clip-path="url(#SVGID_6_)">
				<path id="c_1_" fill="#FFFFFF" fill-opacity="0" stroke="#99B6E4" stroke-miterlimit="50" d="M665,398v-1h9v1H665z"/>
			</g>
		</g>
	</g>
</g>
</svg>
