<?xml version="1.0" encoding="utf-8"?>
<!-- Generator: Adobe Illustrator 16.0.0, SVG Export Plug-In . SVG Version: 6.00 Build 0)  -->
<!DOCTYPE svg PUBLIC "-//W3C//DTD SVG 1.1//EN" "http://www.w3.org/Graphics/SVG/1.1/DTD/svg11.dtd">
<svg version="1.1" id="Layer_1" xmlns="http://www.w3.org/2000/svg" xmlns:xlink="http://www.w3.org/1999/xlink" x="0px" y="0px"
	 width="15px" height="15px" viewBox="0 0 15 15" enable-background="new 0 0 15 15" xml:space="preserve">
<g transform="translate(0.000000,512.000000) scale(0.100000,-0.100000)">
	<path fill="#99B6E4" d="M69.053,5109.443c-11.045-2.402-19.746-11.074-22.061-21.943c-1.055-5.098-0.586-11.543,1.172-16.143
		c2.637-6.826,8.203-12.773,14.795-15.791c16.289-7.5,35.127,1.494,39.785,18.984c0.908,3.457,0.908,10.4-0.029,13.975
		c-2.842,10.811-11.777,19.102-22.705,21.064C77.607,5110.029,71.309,5109.941,69.053,5109.443z"/>
	<path fill="#99B6E4" d="M31.201,5051.933c-5.098-1.641-8.789-5.186-10.459-9.99l-0.645-1.904l-0.029-23.613
		c0-22.734,0.029-23.701,0.586-25.488c1.143-3.662,4.219-7.354,7.617-9.053c3.574-1.787,2.988-1.758,23.936-1.758
		c15.146,0,19.102,0.088,18.984,0.381c-0.059,0.176-1.436,4.512-3.076,9.58s-3.545,10.957-4.248,13.037
		c-0.703,2.109-2.666,8.174-4.395,13.477c-1.729,5.332-3.75,11.572-4.541,13.916c-0.762,2.344-2.52,7.822-3.926,12.158
		c-1.406,4.365-2.725,8.35-2.9,8.877l-0.322,0.938l-7.5-0.029C33.955,5052.46,32.578,5052.373,31.201,5051.933z"/>
	<path fill="#99B6E4" d="M99.609,5044.667c-1.406-4.336-3.193-9.756-3.955-12.1s-2.812-8.584-4.541-13.916
		c-1.729-5.303-3.633-11.191-4.248-13.037s-2.52-7.705-4.248-13.037c-1.699-5.303-3.311-10.166-3.545-10.781
		c-0.234-0.586-0.41-1.23-0.41-1.377c0-0.176,6.826-0.293,19.131-0.293c21.064,0,20.479-0.059,24.023,1.846
		c2.08,1.084,4.805,3.662,5.889,5.566c0.469,0.762,1.143,2.256,1.523,3.369l0.703,1.963v23.379c0,22.91,0,23.408-0.615,25.195
		c-1.816,5.391-5.801,9.229-10.986,10.576c-1.406,0.381-3.398,0.469-8.994,0.469h-7.148L99.609,5044.667z M119.326,5007.783
		c0.791-0.527,0.879-2.021,0.146-2.812c-0.439-0.498-1.172-0.527-10.957-0.527c-10.43,0-10.488,0-11.104,0.645
		c-0.732,0.82-0.732,1.406,0.029,2.402l0.586,0.762h10.342C117.217,5008.251,118.77,5008.193,119.326,5007.783z"/>
	<path fill="#99B6E4" d="M73.389,5047.568c-0.732-0.586-3.838-3.193-6.885-5.742c-3.076-2.578-5.596-4.688-5.654-4.717
		c-0.029-0.029,0.439-1.641,1.084-3.545c0.615-1.904,2.666-8.232,4.57-14.033c1.875-5.801,4.307-13.242,5.391-16.553
		s2.168-6.621,2.402-7.383c0.674-2.373,0.293-3.223,5.127,11.631c1.875,5.801,3.779,11.66,4.219,13.037
		c3.281,9.902,5.273,16.172,5.273,16.523c0,0.41-13.506,11.895-13.975,11.895C74.824,5048.652,74.121,5048.183,73.389,5047.568z"/>
</g>
</svg>
