<svg xmlns="http://www.w3.org/2000/svg" xmlns:xlink="http://www.w3.org/1999/xlink" width="30" height="30"
     viewBox="0 0 30 30">
    <defs>
        <path id="a" d="M1024 527.65l6.02-2.3 3.02 4.6 4.01-9.95 5.02 9.18 4.02-6.12"/>
        <path id="b" d="M1048.24 527.01l-2.12-3.83-3.67 2.21"/>
        <path id="c" d="M1038 511a14 14 0 1 1 0 28 14 14 0 0 1 0-28z"/>
        <path id="f" d="M1037 518a2 2 0 1 1 0 4 2 2 0 0 1 0-4z"/>
        <clipPath id="d">
            <use fill="#fff" xlink:href="#a"/>
        </clipPath>
        <clipPath id="e">
            <use fill="#fff" xlink:href="#b"/>
        </clipPath>
        <clipPath id="g">
            <use fill="#fff" xlink:href="#c"/>
        </clipPath>
    </defs>
    <g transform="translate(-1021 -510)">
        <use fill="#fff" fill-opacity="0" stroke="#c6c3d2" stroke-miterlimit="50" stroke-width="1.5"
             clip-path="url(&quot;#d&quot;)" xlink:href="#a"/>
    </g>
    <g transform="translate(-1021.4 -510.8)">
        <use fill="#fff" fill-opacity="0" stroke="#c6c3d2" stroke-miterlimit="50" stroke-width="1.5"
             clip-path="url(&quot;#e&quot;)" xlink:href="#b"/>
    </g>
    <g transform="translate(-1021 -510)">
        <use fill="#c6c3d2" xlink:href="#f"/>
    </g>
    <g transform="translate(-1023 -510)">
        <use fill="#fff" fill-opacity="0" stroke="#c6c3d2" stroke-miterlimit="50" stroke-width="1.5"
             clip-path="url(&quot;#g&quot;)" xlink:href="#c"/>
    </g>
</svg>