<svg xmlns="http://www.w3.org/2000/svg" width="23" height="31" viewBox="0 0 23 31">
  <path fill="#fff" d="M3635.75,1225.01l-4.02,3.1a0.524,0.524,0,0,0-.1.7,0.47,0.47,0,0,0,.38.2,0.49,0.49,0,0,0,.28-0.09l5.71-4.41-5.71-4.41a0.46,0.46,0,0,0-.66.11,0.525,0.525,0,0,0,.1.7l4.02,3.1h-5.62a6.336,6.336,0,0,0-6.13,6.51,0.471,0.471,0,1,0,.94,0,5.363,5.363,0,0,1,5.19-5.51h5.62Zm10.77,15a0.483,0.483,0,0,0-.47.5,5.352,5.352,0,0,1-5.19,5.49h-5.62l4.02-3.09a0.524,0.524,0,0,0,.1-0.7,0.46,0.46,0,0,0-.66-0.11l-5.7,4.4,5.7,4.39a0.438,0.438,0,0,0,.28.1,0.455,0.455,0,0,0,.38-0.21,0.512,0.512,0,0,0-.1-0.69l-4.02-3.09h5.62a6.324,6.324,0,0,0,6.13-6.49A0.483,0.483,0,0,0,3646.52,1240.01ZM3627,1231v9h17v-9h-17Zm1,3v-2l2.07-.08A3.01,3.01,0,0,1,3628,1234Zm13-2h2v2A2.805,2.805,0,0,1,3641,1232Zm1.97,5.04L3643,1239h-2A2.719,2.719,0,0,1,3642.97,1237.04ZM3628,1236v-1a4.024,4.024,0,0,0,3-3h9a4.024,4.024,0,0,0,3,3v1a4.039,4.039,0,0,0-3,3h-9A4.039,4.039,0,0,0,3628,1236Zm0,3v-2a2.81,2.81,0,0,1,2,2h-2Zm7.65-.74a2.675,2.675,0,0,0,2.32-2.92c0-1.61-1.04-2.93-2.32-2.93s-2.32,1.32-2.32,2.93A2.675,2.675,0,0,0,3635.65,1238.26Zm0-5.07a2.264,2.264,0,1,1-1.54,2.15A1.923,1.923,0,0,1,3635.65,1233.19Z" transform="translate(-3624 -1220)"/>
</svg>
