<svg id="Layer_1" data-name="Layer 1" xmlns="http://www.w3.org/2000/svg" viewBox="0 0 26 28"><defs><style>.cls-1{fill:#9ab5de;}</style></defs><title>MB</title><path class="cls-1" d="M18.91,13a1.44,1.44,0,0,0,2.38,1.19l.08-.07h0a1.42,1.42,0,0,0,1.83.17,1.47,1.47,0,0,0,.62-1.19,1.44,1.44,0,0,0-1.44-1.44l-.22,0h0a1.43,1.43,0,0,0-.78.4h0a1.44,1.44,0,0,0-2.46.91Zm3.42-.5h.07a.62.62,0,0,1,.44.18.6.6,0,0,1,.06.79l0,0v0h0a.61.61,0,1,1-.53-1Zm-2,0a.61.61,0,1,1-.61.61A.61.61,0,0,1,20.36,12.52Z"/><path class="cls-1" d="M16.77,10.75H15.63a.35.35,0,1,0,0,.7h1.15a.35.35,0,0,0,0-.7Z"/><path class="cls-1" d="M14.52,10.75H13.38a.35.35,0,0,0,0,.7h1.15a.35.35,0,1,0,0-.7Z"/><path class="cls-1" d="M12.3,10.75H11.15a.35.35,0,0,0,0,.7H12.3a.35.35,0,1,0,0-.7Z"/><path class="cls-1" d="M25.3,17.3a.42.42,0,0,0-.55.25,4.25,4.25,0,0,1-3.93,2.71l.79-.65a.43.43,0,1,0-.55-.66l-1.58,1.31a.43.43,0,0,0-.06.6l1.31,1.58a.43.43,0,0,0,.66-.55l-.65-.78a5.11,5.11,0,0,0,4.79-3.25A.43.43,0,0,0,25.3,17.3Z"/><path class="cls-1" d="M.9,12a.42.42,0,0,0,.55-.25A4.25,4.25,0,0,1,5.37,9l-.79.65a.43.43,0,1,0,.55.66L6.71,9a.43.43,0,0,0,.06-.6L5.46,6.83a.43.43,0,0,0-.66.55l.65.78A5.11,5.11,0,0,0,.65,11.41.43.43,0,0,0,.9,12Z"/><path class="cls-1" d="M24.47,4H10.36a1.11,1.11,0,0,0-1.1,1.1v7.55h.83V10H24.75v4.74a.27.27,0,0,1-.27.27H18.1v.83h6.37a1.11,1.11,0,0,0,1.1-1.1V5.12A1.11,1.11,0,0,0,24.47,4Zm.27,5.16H10.09V7.26H24.75Zm0-2.75H10.09V5.12a.27.27,0,0,1,.27-.27H24.47a.27.27,0,0,1,.27.27Z"/><path class="cls-1" d="M15.84,13.51H1.73a1.11,1.11,0,0,0-1.1,1.1v9.63a1.11,1.11,0,0,0,1.1,1.1H15.84a1.11,1.11,0,0,0,1.1-1.1V14.61A1.11,1.11,0,0,0,15.84,13.51Zm.27,10.73a.27.27,0,0,1-.27.27H1.73a.27.27,0,0,1-.27-.27V19.5H16.11Zm0-5.57H1.45V16.75H16.11Zm0-2.75H1.45v-1.3a.27.27,0,0,1,.27-.27H15.84a.27.27,0,0,1,.27.27Z"/><path class="cls-1" d="M10.28,22.52a1.44,1.44,0,0,0,2.38,1.19l.08-.07h0a1.42,1.42,0,0,0,1.83.17,1.47,1.47,0,0,0,.62-1.19,1.44,1.44,0,0,0-1.44-1.44l-.22,0h0a1.43,1.43,0,0,0-.78.4h0a1.44,1.44,0,0,0-2.46.91ZM13.7,22h.07a.62.62,0,0,1,.44.18.6.6,0,0,1,.06.79l0,0v0h0a.61.61,0,1,1-.53-1Zm-2,0a.61.61,0,1,1-.61.61A.61.61,0,0,1,11.73,22Z"/><path class="cls-1" d="M8.14,20.24H7a.35.35,0,1,0,0,.7H8.14a.35.35,0,0,0,0-.7Z"/><path class="cls-1" d="M5.89,20.24H4.74a.35.35,0,0,0,0,.7H5.89a.35.35,0,1,0,0-.7Z"/><path class="cls-1" d="M3.67,20.24H2.52a.35.35,0,0,0,0,.7H3.67a.35.35,0,1,0,0-.7Z"/></svg>