<svg id="svg" version="1.1" width="400" height="400" viewBox="0 0 400 400" xmlns="http://www.w3.org/2000/svg" xmlns:xlink="http://www.w3.org/1999/xlink" ><g id="svgg"><path id="path0" d="M147.000 23.407 C 141.893 23.808,138.054 25.114,133.966 27.841 C 131.265 29.642,111.912 48.613,109.538 51.786 C 102.084 61.749,102.394 76.194,110.279 86.279 C 110.994 87.193,135.372 111.689,166.174 142.444 C 196.218 172.443,220.800 197.058,220.800 197.144 C 220.800 197.230,196.133 221.960,165.984 252.100 C 135.836 282.240,110.602 307.620,109.909 308.500 C 101.824 318.773,102.303 333.974,111.041 344.400 C 113.211 346.990,131.418 364.638,133.254 365.933 C 142.979 372.788,156.959 372.495,166.495 365.237 C 167.985 364.103,314.967 217.479,316.464 215.632 C 325.284 204.759,325.508 189.908,317.012 179.347 C 315.531 177.506,168.119 30.356,166.318 28.922 C 161.144 24.798,154.270 22.836,147.000 23.407 " stroke="none" fill="#fcfcfc" fill-rule="evenodd"></path><path id="path1" d="M146.650 23.346 C 147.063 23.389,147.738 23.389,148.150 23.346 C 148.563 23.303,148.225 23.267,147.400 23.267 C 146.575 23.267,146.238 23.303,146.650 23.346 M150.650 23.346 C 151.063 23.389,151.738 23.389,152.150 23.346 C 152.563 23.303,152.225 23.267,151.400 23.267 C 150.575 23.267,150.238 23.303,150.650 23.346 M143.500 23.631 C 142.262 23.861,139.130 24.797,139.238 24.905 C 139.282 24.948,139.898 24.798,140.609 24.571 C 141.319 24.344,142.800 23.995,143.900 23.795 C 145.000 23.596,145.585 23.435,145.200 23.439 C 144.815 23.442,144.050 23.528,143.500 23.631 M154.400 23.681 C 159.246 24.565,163.021 26.259,166.570 29.143 C 169.272 31.339,316.628 178.685,317.955 180.517 C 319.940 183.260,321.404 186.361,322.335 189.800 C 322.611 190.823,322.746 191.141,322.673 190.600 C 322.192 187.037,319.374 181.547,316.352 178.284 C 311.891 173.468,167.488 29.508,166.056 28.450 C 162.367 25.723,157.778 23.829,154.094 23.511 C 152.943 23.411,152.955 23.418,154.400 23.681 M136.777 25.952 C 133.103 27.794,125.816 34.457,112.235 48.392 C 107.998 52.739,104.296 59.879,104.414 63.476 C 104.422 63.709,104.640 63.000,104.899 61.900 C 106.159 56.552,108.160 52.940,112.199 48.724 C 124.089 36.311,133.862 27.463,137.608 25.720 C 138.429 25.338,139.004 25.020,138.887 25.013 C 138.770 25.006,137.820 25.428,136.777 25.952 M104.250 64.700 C 104.253 65.140,104.294 65.296,104.341 65.048 C 104.389 64.799,104.387 64.439,104.337 64.248 C 104.287 64.056,104.248 64.260,104.250 64.700 M104.079 68.500 C 104.079 70.040,104.111 70.644,104.149 69.841 C 104.187 69.039,104.186 67.779,104.148 67.041 C 104.110 66.304,104.079 66.960,104.079 68.500 M104.219 71.969 C 104.156 74.139,105.728 79.210,107.421 82.300 C 109.645 86.358,108.041 84.708,165.835 142.383 L 220.631 197.066 165.552 252.183 C 135.258 282.497,110.095 307.804,109.635 308.420 C 106.768 312.255,104.591 317.557,104.304 321.400 L 104.207 322.700 104.478 321.100 C 105.224 316.705,106.492 313.480,108.958 309.700 C 109.664 308.618,122.487 295.676,165.336 252.798 C 195.841 222.273,220.800 197.228,220.800 197.143 C 220.800 197.058,196.218 172.444,166.174 142.444 C 135.386 111.703,110.994 87.193,110.280 86.279 C 107.178 82.312,105.273 77.950,104.515 73.080 C 104.363 72.101,104.230 71.601,104.219 71.969 M322.941 193.000 C 323.002 193.825,323.085 194.538,323.126 194.583 C 323.265 194.740,323.177 193.100,323.003 192.300 C 322.874 191.707,322.858 191.888,322.941 193.000 M323.276 197.000 C 323.276 198.265,323.308 198.783,323.348 198.150 C 323.387 197.518,323.387 196.483,323.348 195.850 C 323.308 195.218,323.276 195.735,323.276 197.000 M323.054 200.400 C 323.054 200.895,323.093 201.097,323.141 200.850 C 323.189 200.603,323.189 200.197,323.141 199.950 C 323.093 199.703,323.054 199.905,323.054 200.400 M322.641 202.802 C 321.919 207.013,319.772 211.531,316.655 215.402 C 314.803 217.700,167.761 364.323,166.100 365.527 C 164.233 366.880,162.196 368.053,160.552 368.722 C 159.810 369.023,159.239 369.306,159.283 369.349 C 159.485 369.552,162.998 367.821,164.941 366.560 C 166.891 365.296,167.960 364.308,176.000 356.333 C 201.505 331.033,316.168 216.331,316.985 215.300 C 320.206 211.232,323.404 203.944,322.966 201.669 C 322.928 201.472,322.782 201.982,322.641 202.802 M104.079 325.600 C 104.079 327.195,104.111 327.848,104.149 327.050 C 104.186 326.253,104.186 324.947,104.149 324.150 C 104.111 323.353,104.079 324.005,104.079 325.600 M104.219 329.084 C 104.197 329.751,104.607 332.260,104.719 332.147 C 104.760 332.106,104.669 331.269,104.516 330.286 C 104.364 329.304,104.230 328.763,104.219 329.084 M104.823 332.639 C 104.722 334.113,107.532 340.075,109.695 342.978 C 111.013 344.745,124.130 358.010,129.974 363.485 C 132.657 365.998,137.042 368.750,139.200 369.275 C 139.475 369.341,139.250 369.200,138.700 368.959 C 133.895 366.861,132.825 365.988,121.821 355.200 C 108.476 342.118,106.693 339.740,104.946 332.700 C 104.870 332.395,104.841 332.381,104.823 332.639 M140.330 369.671 C 141.160 370.057,143.918 370.665,144.244 370.535 C 144.385 370.478,144.312 370.424,144.082 370.416 C 143.852 370.407,142.997 370.223,142.182 370.008 C 139.752 369.364,139.618 369.340,140.330 369.671 M157.400 369.808 C 156.795 370.010,156.480 370.174,156.700 370.172 C 156.920 370.170,157.550 370.003,158.100 369.800 C 159.394 369.322,158.835 369.329,157.400 369.808 M154.900 370.400 C 154.361 370.537,154.351 370.553,154.800 370.556 C 155.075 370.558,155.525 370.488,155.800 370.400 C 156.472 370.185,155.746 370.185,154.900 370.400 M144.850 370.738 C 145.042 370.788,145.358 370.788,145.550 370.738 C 145.743 370.688,145.585 370.646,145.200 370.646 C 144.815 370.646,144.657 370.688,144.850 370.738 M153.250 370.738 C 153.442 370.788,153.758 370.788,153.950 370.738 C 154.143 370.688,153.985 370.646,153.600 370.646 C 153.215 370.646,153.058 370.688,153.250 370.738 M147.650 370.949 C 148.613 370.986,150.188 370.986,151.150 370.949 C 152.113 370.912,151.325 370.882,149.400 370.882 C 147.475 370.882,146.688 370.912,147.650 370.949 " stroke="none" fill="#040404" fill-rule="evenodd"></path><path id="path2" d="M234.100 96.400 C 234.864 97.170,235.534 97.800,235.589 97.800 C 235.644 97.800,235.064 97.170,234.300 96.400 C 233.536 95.630,232.866 95.000,232.811 95.000 C 232.756 95.000,233.336 95.630,234.100 96.400 " stroke="none" fill="#8c8c8c" fill-rule="evenodd"></path><path id="path3" d="" stroke="none" fill="#bcc8100" fill-rule="evenodd"></path><path id="path4" d="" stroke="none" fill="#bcc8100" fill-rule="evenodd"></path></g></svg>