<svg xmlns="http://www.w3.org/2000/svg" xmlns:xlink="http://www.w3.org/1999/xlink" width="31" height="33" viewBox="0 0 31 33"><defs><path id="n2r4a" d="M3227.15 257.99s-4.14 1.55-4.14 4.06v14.22c0 2.02 7.77 4.74 14.49 4.74 6.72 0 14.5-2.35 14.5-4.74v-14.9c0-2.7-4.84-3.38-4.84-3.38"/><path id="n2r4b" d="M3237 249c6.07 0 11 1.57 11 3.5s-4.93 3.5-11 3.5c-6.08 0-11-1.57-11-3.5s4.92-3.5 11-3.5z"/><path id="n2r4c" d="M3248 253v4.33c0 2.03-4.92 3.67-11 3.67s-11-1.64-11-3.67v-5"/><path id="n2r4d" d="M3233 252h8"/><path id="n2r4e" d="M3237.5 266c-1.05-.08-1.73-2-3.25-2s-3.25 1.71-3.25 4 6.5 8 6.5 8 6.5-6.04 6.5-8-1.85-4-3.25-4-2.43 2.06-3.25 2z"/><path id="n2r4f" d="M3252 260s-1.69 2.5-3.79 3"/><path id="n2r4g" d="M3223.71 260s1.46 2.27 3.28 2.72"/><clipPath id="n2r4h"><use fill="#fff" xlink:href="#n2r4a"/></clipPath><clipPath id="n2r4i"><use fill="#fff" xlink:href="#n2r4b"/></clipPath><clipPath id="n2r4j"><use fill="#fff" xlink:href="#n2r4c"/></clipPath><clipPath id="n2r4k"><use fill="#fff" xlink:href="#n2r4d"/></clipPath><clipPath id="n2r4l"><use fill="#fff" xlink:href="#n2r4e"/></clipPath><clipPath id="n2r4m"><use fill="#fff" xlink:href="#n2r4f"/></clipPath><clipPath id="n2r4n"><use fill="#fff" xlink:href="#n2r4g"/></clipPath></defs><g><g transform="translate(-3222 -249)"><g><g><use fill="#fff" fill-opacity="0" stroke="#c2f6ff" stroke-miterlimit="50" stroke-width="2" clip-path="url(&quot;#n2r4h&quot;)" xlink:href="#n2r4a"/></g><g><use fill="#fff" fill-opacity="0" stroke="#c2f6ff" stroke-miterlimit="50" stroke-width="2" clip-path="url(&quot;#n2r4i&quot;)" xlink:href="#n2r4b"/></g><g><use fill="#fff" fill-opacity="0" stroke="#c2f6ff" stroke-miterlimit="50" stroke-width="2" clip-path="url(&quot;#n2r4j&quot;)" xlink:href="#n2r4c"/></g><g><use fill="#fff" fill-opacity="0" stroke="#c2f6ff" stroke-miterlimit="50" stroke-width="2" clip-path="url(&quot;#n2r4k&quot;)" xlink:href="#n2r4d"/></g><g><use fill="#fff" fill-opacity="0" stroke="#c2f6ff" stroke-miterlimit="50" stroke-width="2" clip-path="url(&quot;#n2r4l&quot;)" xlink:href="#n2r4e"/></g><g><use fill="#fff" fill-opacity="0" stroke="#c2f6ff" stroke-miterlimit="50" stroke-width="2" clip-path="url(&quot;#n2r4m&quot;)" xlink:href="#n2r4f"/></g><g><use fill="#fff" fill-opacity="0" stroke="#c2f6ff" stroke-miterlimit="50" stroke-width="2" clip-path="url(&quot;#n2r4n&quot;)" xlink:href="#n2r4g"/></g></g></g></g></svg>