<?xml version="1.0" encoding="utf-8"?>
<!-- Generator: Adobe Illustrator 16.0.0, SVG Export Plug-In . SVG Version: 6.00 Build 0)  -->
<!DOCTYPE svg PUBLIC "-//W3C//DTD SVG 1.1//EN" "http://www.w3.org/Graphics/SVG/1.1/DTD/svg11.dtd">
<svg version="1.1" id="Layer_1" xmlns="http://www.w3.org/2000/svg" xmlns:xlink="http://www.w3.org/1999/xlink" x="0px" y="0px"
	 width="21px" height="30px" viewBox="0 0 21 30" enable-background="new 0 0 21 30" xml:space="preserve">
<g>
	<g transform="translate(-3369 -838)">
		<g>
			<defs>
				<path id="SVGID_1_" d="M3384,840h-12.15c-1.02,0-1.85,0.8-1.85,1.78v22.44c0,0.979,0.83,1.779,1.85,1.779h15.3
					c1.02,0,1.85-0.8,1.85-1.779V844.9L3384,840z"/>
			</defs>
			<clipPath id="SVGID_2_">
				<use xlink:href="#SVGID_1_"  overflow="visible"/>
			</clipPath>
			<g clip-path="url(#SVGID_2_)">
				<path id="w3jxa" fill="#FFFFFF" fill-opacity="0" stroke="#99B6E4" stroke-width="2" stroke-miterlimit="50" d="M3384,840
					h-12.15c-1.02,0-1.85,0.8-1.85,1.78v22.44c0,0.979,0.83,1.779,1.85,1.779h15.3c1.02,0,1.85-0.8,1.85-1.779V844.9L3384,840z"/>
			</g>
		</g>
	</g>
	<g transform="translate(-3369 -838)">
		<g>
			<defs>
				<polyline id="SVGID_3_" points="3384,840 3384,845 3389,845 				"/>
			</defs>
			<clipPath id="SVGID_4_">
				<use xlink:href="#SVGID_3_"  overflow="visible"/>
			</clipPath>
			<g clip-path="url(#SVGID_4_)">
				<path id="w3jxb" fill="#FFFFFF" fill-opacity="0" stroke="#99B6E4" stroke-width="2" stroke-miterlimit="50" d="M3384,840v5h5"
					/>
			</g>
		</g>
	</g>
	<g transform="translate(-3369 -838)">
		<g>
			<defs>
				<path id="SVGID_5_" d="M3379.15,854.22v-2.54c0-0.359-0.291-0.65-0.65-0.65s-0.65,0.291-0.65,0.65v2.82
					c0,0.18,0.07,0.35,0.2,0.47l2.2,2.08c0.301,0.204,0.712,0.126,0.916-0.177c0.158-0.232,0.15-0.538-0.016-0.764L3379.15,854.22z"
					/>
			</defs>
			<clipPath id="SVGID_6_">
				<use xlink:href="#SVGID_5_"  overflow="visible"/>
			</clipPath>
			<g clip-path="url(#SVGID_6_)">
				<path id="w3jxc" fill="#FFFFFF" fill-opacity="0" stroke="#99B6E4" stroke-width="2" stroke-miterlimit="50" d="M3379.15,854.22
					v-2.54c0-0.359-0.291-0.65-0.65-0.65s-0.65,0.291-0.65,0.65v2.82c0,0.18,0.07,0.35,0.2,0.47l2.2,2.08
					c0.301,0.204,0.712,0.126,0.916-0.177c0.158-0.232,0.15-0.538-0.016-0.764L3379.15,854.22z"/>
			</g>
		</g>
	</g>
	<g transform="translate(-3369 -838)">
		<g>
			<defs>
				<circle id="SVGID_7_" cx="3379.505" cy="854.505" r="6.505"/>
			</defs>
			<clipPath id="SVGID_8_">
				<use xlink:href="#SVGID_7_"  overflow="visible"/>
			</clipPath>
			<g clip-path="url(#SVGID_8_)">
				<path id="w3jxd" fill="#FFFFFF" fill-opacity="0" stroke="#99B6E4" stroke-width="2" stroke-miterlimit="50" d="M3379.5,848
					c-3.592,0.003-6.502,2.917-6.5,6.51c0.002,3.593,2.917,6.503,6.51,6.5c3.592-0.002,6.502-2.917,6.5-6.51
					C3386.008,850.907,3383.092,847.997,3379.5,848z"/>
			</g>
		</g>
	</g>
</g>
</svg>
