<?xml version="1.0" encoding="utf-8"?>
<!-- Generator: Adobe Illustrator 16.0.0, SVG Export Plug-In . SVG Version: 6.00 Build 0)  -->
<!DOCTYPE svg PUBLIC "-//W3C//DTD SVG 1.1//EN" "http://www.w3.org/Graphics/SVG/1.1/DTD/svg11.dtd">
<svg version="1.1" id="Layer_1" xmlns="http://www.w3.org/2000/svg" xmlns:xlink="http://www.w3.org/1999/xlink" x="0px" y="0px"
	 width="24px" height="24px" viewBox="0 0 24 24" enable-background="new 0 0 24 24" xml:space="preserve">
<path fill="#99B6E4" d="M19.99,4c0-1.1-0.891-2-1.99-2h-8L4,8v12c0,1.1,0.9,2,2,2h12.01c1.1,0,1.99-0.9,1.99-2L19.99,4z M9,19H7v-2
	h2V19z M17,19h-2v-2h2V19z M9,15H7v-4h2V15z M13,19h-2v-4h2V19z M13,13h-2v-2h2V13z M17,15h-2v-4h2V15z"/>
<path fill="none" d="M0,0h24v24H0V0z"/>
</svg>
