<svg xmlns="http://www.w3.org/2000/svg" width="54" height="63" viewBox="0 0 54 63"><defs><clipPath id="a"><path fill="#fff" d="M5425.32 798.06c-3.86 1.39-6.88 3.41-8.94 6.01a14.27 14.27 0 0 0-3.12 9.02c0 3.54 1 6.54 2.98 8.94a19.84 19.84 0 0 0 7.92 5.6 68.72 68.72 0 0 0 12.06 3.5c3.52.71 6.36 1.4 8.46 2.02 2 .61 3.66 1.5 4.92 2.63a5.39 5.39 0 0 1 1.78 4.23c0 2.23-1.12 4.04-3.42 5.56-2.34 1.55-5.46 2.34-9.28 2.34-2.76 0-5.02-.39-6.68-1.15a10.1 10.1 0 0 1-3.86-2.9 22.44 22.44 0 0 1-2.66-4.53 10 10 0 0 0-2.7-3.82 6.22 6.22 0 0 0-4.06-1.37 6.9 6.9 0 0 0-4.8 1.73 5.5 5.5 0 0 0-1.92 4.21c0 2.61 1 5.32 2.94 8.06 1.94 2.7 4.5 4.9 7.6 6.51 4.32 2.22 9.86 3.35 16.48 3.35 5.52 0 10.36-.82 14.4-2.45 4.08-1.64 7.22-3.95 9.36-6.87a16.52 16.52 0 0 0 3.22-9.95c0-3.07-.64-5.71-1.88-7.85a15.44 15.44 0 0 0-5.18-5.31 33.44 33.44 0 0 0-7.88-3.49c-3.04-.93-6.46-1.8-10.2-2.58-2.94-.65-5.08-1.16-6.36-1.5-1.26-.34-2.5-.8-3.72-1.4a8.35 8.35 0 0 1-2.74-2.02 3.84 3.84 0 0 1-.92-2.6c0-1.65.94-3.05 2.86-4.27 2-1.26 4.68-1.9 7.98-1.9 3.56 0 6.14.58 7.7 1.72a14.87 14.87 0 0 1 4.12 4.95c1 1.65 1.9 2.8 2.76 3.54.92.8 2.26 1.2 3.96 1.2 1.88 0 3.48-.65 4.74-1.92a6.03 6.03 0 0 0 1.88-4.3c0-1.66-.48-3.37-1.44-5.09a16.15 16.15 0 0 0-4.48-4.87c-2-1.52-4.56-2.76-7.6-3.67a37.75 37.75 0 0 0-10.76-1.37c-5.14 0-9.68.7-13.52 2.06z"/></clipPath></defs><path fill="none" stroke="#c2f6ff" stroke-miterlimit="50" stroke-width="4" d="M5425.32 798.06c-3.86 1.39-6.88 3.41-8.94 6.01a14.27 14.27 0 0 0-3.12 9.02c0 3.54 1 6.54 2.98 8.94a19.84 19.84 0 0 0 7.92 5.6 68.72 68.72 0 0 0 12.06 3.5c3.52.71 6.36 1.4 8.46 2.02 2 .61 3.66 1.5 4.92 2.63a5.39 5.39 0 0 1 1.78 4.23c0 2.23-1.12 4.04-3.42 5.56-2.34 1.55-5.46 2.34-9.28 2.34-2.76 0-5.02-.39-6.68-1.15a10.1 10.1 0 0 1-3.86-2.9 22.44 22.44 0 0 1-2.66-4.53 10 10 0 0 0-2.7-3.82 6.22 6.22 0 0 0-4.06-1.37 6.9 6.9 0 0 0-4.8 1.73 5.5 5.5 0 0 0-1.92 4.21c0 2.61 1 5.32 2.94 8.06 1.94 2.7 4.5 4.9 7.6 6.51 4.32 2.22 9.86 3.35 16.48 3.35 5.52 0 10.36-.82 14.4-2.45 4.08-1.64 7.22-3.95 9.36-6.87a16.52 16.52 0 0 0 3.22-9.95c0-3.07-.64-5.71-1.88-7.85a15.44 15.44 0 0 0-5.18-5.31 33.44 33.44 0 0 0-7.88-3.49c-3.04-.93-6.46-1.8-10.2-2.58-2.94-.65-5.08-1.16-6.36-1.5-1.26-.34-2.5-.8-3.72-1.4a8.35 8.35 0 0 1-2.74-2.02 3.84 3.84 0 0 1-.92-2.6c0-1.65.94-3.05 2.86-4.27 2-1.26 4.68-1.9 7.98-1.9 3.56 0 6.14.58 7.7 1.72a14.87 14.87 0 0 1 4.12 4.95c1 1.65 1.9 2.8 2.76 3.54.92.8 2.26 1.2 3.96 1.2 1.88 0 3.48-.65 4.74-1.92a6.03 6.03 0 0 0 1.88-4.3c0-1.66-.48-3.37-1.44-5.09a16.15 16.15 0 0 0-4.48-4.87c-2-1.52-4.56-2.76-7.6-3.67a37.75 37.75 0 0 0-10.76-1.37c-5.14 0-9.68.7-13.52 2.06z" clip-path="url(&quot;#a&quot;)" transform="translate(-5412 -795)"/></svg>