<?xml version="1.0" encoding="utf-8"?>
<!-- Generator: Adobe Illustrator 16.0.0, SVG Export Plug-In . SVG Version: 6.00 Build 0)  -->
<!DOCTYPE svg PUBLIC "-//W3C//DTD SVG 1.1//EN" "http://www.w3.org/Graphics/SVG/1.1/DTD/svg11.dtd">
<svg version="1.1" id="Layer_1" xmlns="http://www.w3.org/2000/svg" xmlns:xlink="http://www.w3.org/1999/xlink" x="0px" y="0px"
	 width="27px" height="32px" viewBox="0 0 27 32" enable-background="new 0 0 27 32" xml:space="preserve">
<g>
	<defs>
		<path id="SVGID_1_" d="M6.66,1.531c-1.742,0.562-3.291,1.602-4.47,3C1.165,5.813,0.614,7.41,0.63,9.051c0,1.76,0.5,3.27,1.49,4.46
			c1.067,1.247,2.429,2.209,3.96,2.801c1.61,0.67,3.64,1.26,6.03,1.76c1.76,0.35,3.18,0.699,4.23,1c1,0.31,1.83,0.75,2.46,1.32
			c0.601,0.539,0.89,1.229,0.89,2.109c0,1.12-0.56,2.029-1.71,2.79c-1.397,0.837-3.012,1.244-4.64,1.17c-1.38,0-2.51-0.2-3.34-0.58
			c-0.751-0.32-1.414-0.817-1.93-1.45c-0.47-0.6-0.92-1.359-1.33-2.27c-0.294-0.73-0.756-1.382-1.35-1.9
			c-0.573-0.463-1.293-0.707-2.03-0.689c-0.96,0-1.77,0.3-2.399,0.869C0.347,20.967-0.004,21.734,0,22.542c0,1.3,0.5,2.66,1.47,4.03
			c0.992,1.371,2.294,2.488,3.8,3.26c2.16,1.1,4.93,1.67,8.24,1.67c2.76,0,5.18-0.41,7.2-1.22c1.853-0.684,3.475-1.876,4.68-3.44
			c1.062-1.441,1.628-3.189,1.61-4.98c0-1.529-0.32-2.85-0.94-3.92c-0.634-1.084-1.522-1.997-2.59-2.66
			c-1.233-0.747-2.558-1.332-3.94-1.74c-1.52-0.47-3.229-0.9-5.1-1.29c-1.064-0.23-2.125-0.48-3.18-0.75
			c-0.63-0.17-1.25-0.4-1.86-0.7c-0.521-0.236-0.986-0.576-1.37-1C7.71,9.44,7.547,8.977,7.56,8.501c0-0.83,0.47-1.53,1.43-2.14
			c1.213-0.689,2.597-1.022,3.99-0.96c1.78,0,3.07,0.3,3.851,0.86c0.859,0.667,1.562,1.513,2.06,2.48c0.5,0.83,0.95,1.4,1.38,1.77
			c0.46,0.4,1.13,0.6,1.98,0.6c0.939,0,1.739-0.32,2.369-0.96c0.621-0.63,0.94-1.35,0.94-2.15c0-0.83-0.24-1.68-0.72-2.54
			c-0.57-0.959-1.333-1.79-2.24-2.44c-1-0.76-2.28-1.38-3.8-1.84c-1.751-0.485-3.563-0.714-5.38-0.68
			C10.85,0.501,8.58,0.852,6.66,1.531L6.66,1.531z"/>
	</defs>
	<clipPath id="SVGID_2_">
		<use xlink:href="#SVGID_1_"  overflow="visible"/>
	</clipPath>
	<path clip-path="url(#SVGID_2_)" fill="none" stroke="#99B6E4" stroke-width="2" stroke-miterlimit="50" d="M6.66,1.531
		c-1.742,0.562-3.291,1.602-4.47,3C1.165,5.813,0.614,7.41,0.63,9.051c0,1.76,0.5,3.27,1.49,4.46
		c1.067,1.247,2.429,2.209,3.96,2.801c1.61,0.67,3.64,1.26,6.03,1.76c1.76,0.35,3.18,0.699,4.23,1c1,0.31,1.83,0.75,2.46,1.32
		c0.601,0.539,0.89,1.229,0.89,2.109c0,1.12-0.56,2.029-1.71,2.79c-1.397,0.837-3.012,1.244-4.64,1.17c-1.38,0-2.51-0.2-3.34-0.58
		c-0.751-0.32-1.414-0.817-1.93-1.45c-0.47-0.6-0.92-1.359-1.33-2.27c-0.294-0.73-0.756-1.382-1.35-1.9
		c-0.573-0.463-1.293-0.707-2.03-0.689c-0.96,0-1.77,0.3-2.399,0.869C0.347,20.967-0.004,21.734,0,22.542c0,1.3,0.5,2.66,1.47,4.03
		c0.992,1.371,2.294,2.488,3.8,3.26c2.16,1.1,4.93,1.67,8.24,1.67c2.76,0,5.18-0.41,7.2-1.22c1.853-0.684,3.475-1.876,4.68-3.44
		c1.062-1.441,1.628-3.189,1.61-4.98c0-1.529-0.32-2.85-0.94-3.92c-0.634-1.084-1.522-1.997-2.59-2.66
		c-1.233-0.747-2.558-1.332-3.94-1.74c-1.52-0.47-3.229-0.9-5.1-1.29c-1.064-0.23-2.125-0.48-3.18-0.75
		c-0.63-0.17-1.25-0.4-1.86-0.7c-0.521-0.236-0.986-0.576-1.37-1C7.71,9.44,7.547,8.977,7.56,8.501c0-0.83,0.47-1.53,1.43-2.14
		c1.213-0.689,2.597-1.022,3.99-0.96c1.78,0,3.07,0.3,3.851,0.86c0.859,0.667,1.562,1.513,2.06,2.48c0.5,0.83,0.95,1.4,1.38,1.77
		c0.46,0.4,1.13,0.6,1.98,0.6c0.939,0,1.739-0.32,2.369-0.96c0.621-0.63,0.94-1.35,0.94-2.15c0-0.83-0.24-1.68-0.72-2.54
		c-0.57-0.959-1.333-1.79-2.24-2.44c-1-0.76-2.28-1.38-3.8-1.84c-1.751-0.485-3.563-0.714-5.38-0.68
		C10.85,0.501,8.58,0.852,6.66,1.531L6.66,1.531z"/>
</g>
</svg>
