<?xml version="1.0" encoding="utf-8"?>
<!-- Generator: Adobe Illustrator 16.0.0, SVG Export Plug-In . SVG Version: 6.00 Build 0)  -->
<!DOCTYPE svg PUBLIC "-//W3C//DTD SVG 1.1//EN" "http://www.w3.org/Graphics/SVG/1.1/DTD/svg11.dtd">
<svg version="1.1" id="Layer_1" xmlns="http://www.w3.org/2000/svg" xmlns:xlink="http://www.w3.org/1999/xlink" x="0px" y="0px"
	 width="31px" height="31px" viewBox="0 0 31 31" enable-background="new 0 0 31 31" xml:space="preserve">
<g transform="translate(-1023 -447)">
	<g>
		<defs>
			<path id="SVGID_1_" d="M1052,460h-12v-12C1046.439,448.83,1051.3,453.62,1052,460z M1052,462c0,10.62-10,18-22,12
				c0-0.57,10-12,10-12H1052z M1038,448v12l-10,12c-2.24-2.359-4-6.529-4-10C1024,454.65,1030.58,448.55,1038,448z"/>
		</defs>
		<clipPath id="SVGID_2_">
			<use xlink:href="#SVGID_1_"  overflow="visible"/>
		</clipPath>
		<g clip-path="url(#SVGID_2_)">
			<path id="a" fill="#FFFFFF" fill-opacity="0" stroke="#99B6E4" stroke-width="1.5" stroke-miterlimit="50" d="M1052,460h-12v-12
				C1046.439,448.83,1051.3,453.62,1052,460z M1052,462c0,10.62-10,18-22,12c0-0.57,10-12,10-12H1052z M1038,448v12l-10,12
				c-2.24-2.359-4-6.529-4-10C1024,454.65,1030.58,448.55,1038,448z"/>
		</g>
	</g>
</g>
</svg>
