<?xml version="1.0" encoding="utf-8"?>
<!-- Generator: Adobe Illustrator 16.0.0, SVG Export Plug-In . SVG Version: 6.00 Build 0)  -->
<!DOCTYPE svg PUBLIC "-//W3C//DTD SVG 1.1//EN" "http://www.w3.org/Graphics/SVG/1.1/DTD/svg11.dtd">
<svg version="1.1" id="icon_new_payments" xmlns="http://www.w3.org/2000/svg" xmlns:xlink="http://www.w3.org/1999/xlink" x="0px"
	 y="0px" width="29px" height="28px" viewBox="-4.5 -0.5 29 28" enable-background="new -4.5 -0.5 29 28" xml:space="preserve">
<g>
	<g>
		<path fill="#99B6E4" d="M5.773,20.785c-0.305-0.702-0.727-1.384-1.26-2.021c-0.645-0.776-1.288-1.295-1.616-1.535l1.237-2.295
			c0.061-0.113,0.041-0.253-0.054-0.344c-0.319-0.313-0.659-0.465-1.038-0.465c-0.347,0-0.665,0.131-0.941,0.247
			c-0.219,0.089-0.425,0.177-0.592,0.177c-0.051,0-0.094-0.008-0.138-0.024c-0.577-0.211-1.021-0.341-1.45-0.341
			c-0.543,0-1.006,0.217-1.459,0.684c-0.094,0.098-0.109,0.249-0.035,0.363l1.333,2.015c-0.33,0.245-0.959,0.76-1.593,1.519
			c-0.531,0.638-0.956,1.319-1.261,2.021c-0.383,0.886-0.577,1.81-0.577,2.745c0,1.245,1.013,2.258,2.257,2.258h5.505
			c1.244,0,2.257-1.013,2.257-2.258C6.35,22.595,6.156,21.671,5.773,20.785z M1.748,23.487H1.692v0.414
			c0,0.161-0.132,0.292-0.291,0.292c-0.16,0-0.291-0.131-0.291-0.292v-0.414H0.537c-0.159,0-0.29-0.131-0.29-0.291
			s0.131-0.291,0.29-0.291h1.196c0.242,0,0.439-0.197,0.439-0.439s-0.197-0.438-0.439-0.438H1.066c-0.562,0-1.021-0.458-1.021-1.021
			c0-0.563,0.458-1.021,1.021-1.021h0.042v-0.404c0-0.16,0.13-0.291,0.29-0.291c0.16,0,0.291,0.131,0.291,0.291v0.404h0.55
			c0.161,0,0.291,0.131,0.291,0.291S2.4,20.567,2.24,20.567H1.066c-0.242,0-0.439,0.196-0.439,0.439
			c0,0.242,0.197,0.438,0.439,0.438h0.667c0.563,0,1.021,0.459,1.021,1.021C2.754,23.024,2.306,23.479,1.748,23.487z"/>
		<path fill="#99B6E4" d="M14.432,21.997c-0.306-0.702-0.728-1.385-1.261-2.021c-0.645-0.776-1.287-1.296-1.614-1.536l1.236-2.294
			c0.061-0.114,0.041-0.254-0.053-0.344c-0.32-0.313-0.66-0.466-1.038-0.466c-0.348,0-0.665,0.132-0.94,0.247
			c-0.219,0.09-0.425,0.178-0.592,0.178c-0.051,0-0.094-0.008-0.138-0.024c-0.577-0.211-1.021-0.342-1.45-0.342
			c-0.543,0-1.006,0.218-1.459,0.684c-0.096,0.097-0.11,0.249-0.035,0.363l1.333,2.016c-0.33,0.244-0.96,0.759-1.593,1.519
			c-0.531,0.637-0.955,1.319-1.26,2.021c-0.383,0.886-0.577,1.81-0.577,2.745C4.99,25.987,6.003,27,7.248,27h5.503
			c1.245,0,2.259-1.013,2.259-2.258C15.01,23.807,14.816,22.883,14.432,21.997z M10.407,24.699h-0.056v0.414
			c0,0.159-0.131,0.291-0.291,0.291c-0.161,0-0.292-0.132-0.292-0.291v-0.414H9.197c-0.16,0-0.29-0.132-0.29-0.291
			c0-0.16,0.13-0.291,0.29-0.291h1.196c0.242,0,0.439-0.197,0.439-0.439s-0.197-0.439-0.439-0.439H9.725
			c-0.562,0-1.02-0.458-1.02-1.02c0-0.563,0.458-1.021,1.02-1.021h0.042v-0.404c0-0.161,0.131-0.291,0.291-0.291
			c0.161,0,0.291,0.13,0.291,0.291v0.404h0.551c0.159,0,0.29,0.131,0.29,0.291s-0.131,0.291-0.29,0.291H9.725
			c-0.242,0-0.438,0.195-0.438,0.439c0,0.242,0.196,0.438,0.438,0.438h0.667c0.562,0,1.021,0.459,1.021,1.021
			C11.413,24.235,10.965,24.69,10.407,24.699z"/>
		<path fill="#99B6E4" d="M23.093,20.785c-0.306-0.702-0.729-1.384-1.262-2.021c-0.646-0.776-1.287-1.295-1.615-1.535l1.236-2.295
			c0.062-0.113,0.042-0.253-0.053-0.344c-0.32-0.313-0.66-0.465-1.038-0.465c-0.347,0-0.664,0.131-0.94,0.247
			c-0.219,0.089-0.425,0.177-0.592,0.177c-0.051,0-0.095-0.008-0.138-0.024c-0.577-0.211-1.021-0.341-1.45-0.341
			c-0.544,0-1.007,0.217-1.461,0.684c-0.094,0.098-0.108,0.249-0.033,0.363l1.334,2.015c-0.33,0.245-0.961,0.76-1.594,1.519
			c-0.531,0.638-0.955,1.319-1.261,2.021c-0.383,0.886-0.578,1.81-0.578,2.745c0,1.245,1.015,2.258,2.259,2.258h5.504
			c1.244,0,2.258-1.013,2.258-2.258C23.669,22.595,23.476,21.671,23.093,20.785z M19.066,23.487h-0.056v0.414
			c0,0.161-0.131,0.292-0.29,0.292c-0.16,0-0.292-0.131-0.292-0.292v-0.414h-0.572c-0.16,0-0.291-0.131-0.291-0.291
			s0.131-0.291,0.291-0.291h1.195c0.242,0,0.439-0.197,0.439-0.439s-0.197-0.438-0.439-0.438h-0.666
			c-0.562,0-1.021-0.458-1.021-1.021c0-0.563,0.459-1.021,1.021-1.021h0.041v-0.404c0-0.16,0.131-0.291,0.291-0.291
			s0.291,0.131,0.291,0.291v0.404h0.551c0.16,0,0.29,0.131,0.29,0.291s-0.13,0.291-0.29,0.291h-1.174
			c-0.243,0-0.439,0.196-0.439,0.439c0,0.242,0.196,0.438,0.439,0.438h0.666c0.563,0,1.021,0.459,1.021,1.021
			C20.072,23.024,19.624,23.479,19.066,23.487z"/>
		<g>
			<g>
				<g>
					<path fill="#99B6E4" d="M17.033,6.845H2.967c-1.021,0-1.851,0.831-1.851,1.851v8.144c0,1.02,0.83,1.851,1.851,1.851h14.066
						c1.02,0,1.851-0.831,1.851-1.851V8.696C18.884,7.675,18.053,6.845,17.033,6.845z M18.144,16.84c0,0.611-0.498,1.11-1.11,1.11
						H2.967c-0.613,0-1.112-0.499-1.112-1.11V8.696c0-0.612,0.499-1.111,1.112-1.111h14.066c0.612,0,1.11,0.499,1.11,1.111V16.84
						L18.144,16.84z"/>
				</g>
			</g>
			<g>
				<g>
					<path fill="#99B6E4" d="M18.514,9.066H1.486c-0.205,0-0.37,0.166-0.37,0.37v2.221c0,0.205,0.166,0.371,0.37,0.371h17.027
						c0.204,0,0.37-0.166,0.37-0.371V9.436C18.884,9.231,18.718,9.066,18.514,9.066z M18.144,11.287H1.855v-1.48h16.288V11.287
						L18.144,11.287z"/>
				</g>
			</g>
			<g>
				<g>
					<path fill="#99B6E4" d="M8.149,14.248H3.708c-0.205,0-0.37,0.167-0.37,0.369c0,0.205,0.165,0.371,0.37,0.371h4.442
						c0.204,0,0.37-0.166,0.37-0.371C8.52,14.415,8.353,14.248,8.149,14.248z"/>
				</g>
			</g>
			<g>
				<g>
					<path fill="#99B6E4" d="M8.149,15.729H3.708c-0.205,0-0.37,0.166-0.37,0.37c0,0.203,0.165,0.37,0.37,0.37h4.442
						c0.204,0,0.37-0.167,0.37-0.37C8.52,15.896,8.353,15.729,8.149,15.729z"/>
				</g>
			</g>
			<g>
				<g>
					<path fill="#99B6E4" d="M15.553,13.508h-0.741c-0.612,0-1.111,0.498-1.111,1.109v0.74c0,0.613,0.499,1.112,1.111,1.112h0.741
						c0.612,0,1.11-0.499,1.11-1.112v-0.74C16.663,14.006,16.165,13.508,15.553,13.508z M15.923,15.357
						c0,0.205-0.166,0.372-0.37,0.372h-0.741c-0.204,0-0.37-0.167-0.37-0.372v-0.74c0-0.202,0.166-0.369,0.37-0.369h0.741
						c0.204,0,0.37,0.167,0.37,0.369V15.357z"/>
				</g>
			</g>
		</g>
	</g>
	<g>
		<path fill="#99B6E4" d="M21.333,5.479L4.685,1.902c-0.201-0.043-0.396,0.084-0.44,0.284L3.778,4.358
			c-0.042,0.2,0.084,0.396,0.285,0.439l2.823,0.606l5.034,0.325l-7.34-1.577l0.31-1.448l15.925,3.421l-0.312,1.447l-1.401-0.301
			c0.103,0.273,0.158,0.553,0.187,0.797l1.422,0.306c0.199,0.042,0.396-0.084,0.439-0.284l0.467-2.172
			C21.659,5.718,21.531,5.521,21.333,5.479z"/>
		<path fill="#99B6E4" d="M20.352,2.996L6.599,0.042C5.602-0.173,4.615,0.464,4.401,1.462l-0.802,3.73l0.748,0.048l0.778-3.623
			c0.129-0.599,0.721-0.981,1.319-0.853l13.753,2.954c0.598,0.129,0.981,0.721,0.853,1.319L19.338,13
			c-0.025,0.121-0.075,0.231-0.135,0.332l-0.024,1.034c0.437-0.254,0.77-0.68,0.884-1.21l1.709-7.962
			C21.987,4.196,21.349,3.209,20.352,2.996z"/>
		<path fill="#99B6E4" d="M4.49,2.416L4.105,4.21l6.743,1.448l5.815,0.375c0,0,1.469-0.173,2.116,0.647
			c0.183,0.231,0.302,0.499,0.382,0.764l1.521,0.327l0.386-1.795L4.49,2.416z"/>
	</g>
</g>
</svg>
