<svg xmlns="http://www.w3.org/2000/svg" xmlns:xlink="http://www.w3.org/1999/xlink" width="18" height="18"
     viewBox="0 0 18 18">
    <defs>
        <path id="ixnia"
              d="M3567.98 944.68a1.1 1.1 0 0 1 2.04 0l1.37 3.18c.05.12.16.21.3.22l3.31.38c.96.1 1.34 1.35.63 2.02l-2.47 2.34a.4.4 0 0 0-.12.37l.69 3.4c.2.99-.81 1.76-1.65 1.26l-2.9-1.74a.36.36 0 0 0-.36 0l-2.9 1.74c-.84.5-1.85-.27-1.65-1.25l.69-3.41a.4.4 0 0 0-.12-.37l-2.47-2.34c-.72-.67-.33-1.91.63-2.02l3.32-.38c.13-.01.24-.1.3-.22z"/>
    </defs>
    <g>
        <g transform="translate(-3560 -942)">
            <use fill="#f8e69c" xlink:href="#ixnia"/>
        </g>
    </g>
</svg>