<svg xmlns="http://www.w3.org/2000/svg" xmlns:xlink="http://www.w3.org/1999/xlink" width="27" height="27"
     viewBox="0 0 27 27">

    <path transform="translate(-3624 -524)" fill="#fff" fill-opacity="0" stroke="#424242" stroke-miterlimit="50"
          d="M3635.83 527.12a1.8 1.8 0 0 1 3.34 0l2.25 5.22c.09.2.28.35.5.37l5.44.62c1.57.17 2.2 2.21 1.04 3.32l-4.07 3.84a.66.66 0 0 0-.19.6l1.13 5.6c.32 1.62-1.34 2.88-2.7 2.06l-4.77-2.85a.59.59 0 0 0-.6 0l-4.76 2.85c-1.37.82-3.03-.44-2.7-2.06l1.12-5.6a.66.66 0 0 0-.2-.6l-4.05-3.84c-1.18-1.11-.54-3.15 1.03-3.32l5.45-.62c.22-.02.4-.17.5-.37z"/>
</svg>