<svg xmlns="http://www.w3.org/2000/svg" width="18" height="23" viewBox="0 0 18 23">
  <path fill="#fff" d="M2788.44,1225.7a6.586,6.586,0,0,0,.56-0.7v20c0,1.01,0,1.02,1,1h14c1-.04,1-0.04,1-1v-15h-5a0.849,0.849,0,0,1-1-1v-4h-9c-1,0-1,0-1,1l-0.12.13c0,0.24-.2,2.56-0.44,2.56a0.442,0.442,0,0,1-.44-0.43v-2.98a1.057,1.057,0,0,1,1-1.28h11c3,1.82,3,1.52,6,5v16.72a1.3,1.3,0,0,1-1.32,1.28h-15.36a1.3,1.3,0,0,1-1.32-1.28v-19.59A0.435,0.435,0,0,1,2788.44,1225.7Zm11.56-.7v3a0.84,0.84,0,0,0,1,1h4A21.813,21.813,0,0,0,2800,1225Zm3,17h-12m0,1h12v-1h-12v1Zm11.94-3.96h-11.63m-0.31.96h12v-1h-12v1Zm12-4h-12m0,1h12v-1h-12v1Zm8-3h-8m0,0h8v-1h-8v1Z" transform="translate(-2788 -1224)"/>
</svg>
