<?xml version="1.0" encoding="utf-8"?>
<!-- Generator: Adobe Illustrator 16.0.0, SVG Export Plug-In . SVG Version: 6.00 Build 0)  -->
<!DOCTYPE svg PUBLIC "-//W3C//DTD SVG 1.1//EN" "http://www.w3.org/Graphics/SVG/1.1/DTD/svg11.dtd">
<svg version="1.1" id="Layer_1" xmlns="http://www.w3.org/2000/svg" xmlns:xlink="http://www.w3.org/1999/xlink" x="0px" y="0px"
	 width="27px" height="25px" viewBox="0 0 27 25" enable-background="new 0 0 27 25" xml:space="preserve">
<desc>Generated with Avocode.</desc>
<g transform="translate(-1103 -1223)">
	<g>
		<defs>
			<path id="SVGID_1_" d="M1114.699,1246.996c-5.661-0.029-10.226-4.642-10.197-10.303c0.001-0.182,0.007-0.365,0.018-0.547
				c0.306-5.642,5.127-9.967,10.769-9.661c0.86,0.046,1.71,0.202,2.532,0.461c0.246,0.08,0.383,0.345,0.303,0.592
				c-0.002,0.002-0.002,0.005-0.003,0.008l-2.82,8.639l8.83-1.859c0.254-0.055,0.504,0.107,0.558,0.361
				c0.002,0.003,0.002,0.006,0.002,0.009c0.701,3.559-0.529,7.28-3.209,9.7c-1.863,1.677-4.283,2.604-6.791,2.6H1114.699z
				 M1119.549,1233.227c-0.259,0.002-0.472-0.206-0.474-0.465c-0.002-0.053,0.008-0.105,0.023-0.155l2.721-8.28
				c0.08-0.245,0.344-0.379,0.59-0.3c3.127,0.999,5.459,3.626,6.08,6.85c0.05,0.26-0.11,0.5-0.36,0.56l-8.479,1.78
				C1119.616,1233.224,1119.583,1233.227,1119.549,1233.227z"/>
		</defs>
		<clipPath id="SVGID_2_">
			<use xlink:href="#SVGID_1_"  overflow="visible"/>
		</clipPath>
		<g clip-path="url(#SVGID_2_)">
			<path id="a" fill="#FFFFFF" fill-opacity="0" stroke="#99B6E4" stroke-width="2" stroke-miterlimit="50" d="M1114.699,1246.996
				c-5.661-0.029-10.226-4.642-10.197-10.303c0.001-0.182,0.007-0.365,0.018-0.547c0.306-5.642,5.127-9.967,10.769-9.661
				c0.86,0.046,1.71,0.202,2.532,0.461c0.246,0.08,0.383,0.345,0.303,0.592c-0.002,0.002-0.002,0.005-0.003,0.008l-2.82,8.639
				l8.83-1.859c0.254-0.055,0.504,0.107,0.558,0.361c0.002,0.003,0.002,0.006,0.002,0.009c0.701,3.559-0.529,7.28-3.209,9.7
				c-1.863,1.677-4.283,2.604-6.791,2.6H1114.699z M1119.549,1233.227c-0.259,0.002-0.472-0.206-0.474-0.465
				c-0.002-0.053,0.008-0.105,0.023-0.155l2.721-8.28c0.08-0.245,0.344-0.379,0.59-0.3c3.127,0.999,5.459,3.626,6.08,6.85
				c0.05,0.26-0.11,0.5-0.36,0.56l-8.479,1.78C1119.616,1233.224,1119.583,1233.227,1119.549,1233.227z"/>
		</g>
	</g>
</g>
</svg>
