<?xml version="1.0" encoding="utf-8"?>
<!-- Generator: Adobe Illustrator 16.0.0, SVG Export Plug-In . SVG Version: 6.00 Build 0)  -->
<!DOCTYPE svg PUBLIC "-//W3C//DTD SVG 1.1//EN" "http://www.w3.org/Graphics/SVG/1.1/DTD/svg11.dtd">
<svg version="1.1" id="icon_new_payments" xmlns="http://www.w3.org/2000/svg" xmlns:xlink="http://www.w3.org/1999/xlink" x="0px"
	 y="0px" width="29px" height="28px" viewBox="-4.5 -0.5 29 28" enable-background="new -4.5 -0.5 29 28" xml:space="preserve">
<g>
	<g>
		<path fill="#99B6E4" d="M2.546,12.033h-2.35c-0.318,0-0.577,0.259-0.577,0.577s0.258,0.576,0.577,0.576h2.35V12.033z"/>
		<path fill="#99B6E4" d="M18.649,10.88h-0.916l0.037,1.153h0.879c0.319,0,0.577,0.259,0.577,0.577v1.153
			c0,0.318-0.258,0.577-0.577,0.577h-0.806l0.037,1.153h0.769c0.955,0,1.731-0.777,1.731-1.73V12.61
			C20.381,11.656,19.604,10.88,18.649,10.88z"/>
		<g>
			<path fill="#99B6E4" d="M5.058,7.952L5.393,7.42h-8.08V5.113h9.849l1.47-1.153H-3.264c-0.319,0-0.577,0.258-0.577,0.576v3.461
				c0,0.318,0.257,0.576,0.577,0.576h7.969L5.058,7.952z"/>
			<path fill="#99B6E4" d="M23.264,3.96H11.702l1.443,1.153h9.542V7.42h-7.37l0.585,1.153h7.361c0.318,0,0.577-0.258,0.577-0.576
				V4.536C23.841,4.218,23.582,3.96,23.264,3.96z"/>
		</g>
		<path fill="#99B6E4" d="M2.546,14.341h-2.35c-0.318,0-0.577,0.258-0.577,0.576s0.258,0.577,0.577,0.577h2.35V14.341z"/>
		<path fill="#99B6E4" d="M20.957,0.5H-0.957c-1.59,0-2.884,1.294-2.884,2.883V16.07c0,1.59,1.294,2.883,2.884,2.883h3.502v-1.152
			h-3.502c-0.955,0-1.731-0.777-1.731-1.73V3.383c0-0.953,0.776-1.729,1.731-1.729h21.914c0.953,0,1.73,0.776,1.73,1.729V16.07
			c0,0.953-0.777,1.73-1.73,1.73h-3.003l0.037,1.152h2.966c1.59,0,2.884-1.293,2.884-2.883V3.383
			C23.841,1.794,22.547,0.5,20.957,0.5z"/>
	</g>
	<g>
		<path fill="#99B6E4" d="M4.106,15.107c0.236,0,0.427-0.19,0.427-0.427v-0.012c0-0.235-0.191-0.427-0.427-0.427
			s-0.427,0.191-0.427,0.427v0.012C3.679,14.917,3.871,15.107,4.106,15.107L4.106,15.107z M4.106,15.107"/>
		<path fill="#99B6E4" d="M15.272,11.998c-0.295,0-0.572,0.077-0.813,0.213V8.96c0-0.92-0.748-1.668-1.668-1.668
			c-0.295,0-0.572,0.077-0.813,0.213V6.303c0-0.919-0.748-1.667-1.667-1.667S8.642,5.384,8.642,6.303v0.791
			C8.401,6.959,8.124,6.882,7.829,6.882c-0.92,0-1.667,0.748-1.667,1.667v1.662C5.92,10.075,5.642,9.998,5.347,9.998
			c-0.92,0-1.668,0.748-1.668,1.667v1.298c0,0.235,0.191,0.427,0.427,0.427s0.427-0.191,0.427-0.427v-1.298
			c0-0.448,0.365-0.813,0.814-0.813s0.814,0.365,0.814,0.813v3.815H5.736c-0.236,0-0.427,0.191-0.427,0.427
			c0,0.236,0.191,0.428,0.427,0.428h6.636c0.236,0,0.427-0.191,0.427-0.428c0-0.235-0.19-0.427-0.427-0.427h-0.395V8.96
			c0-0.449,0.365-0.814,0.813-0.814c0.449,0,0.814,0.365,0.814,0.814v7.715c-2.259,0.179-4.19,1.764-4.781,3.979
			c-0.061,0.229,0.075,0.462,0.302,0.523c0.037,0.01,0.074,0.014,0.111,0.014c0.188,0,0.361-0.125,0.412-0.316
			c0.528-1.979,2.33-3.362,4.383-3.362c0.235,0,0.427-0.191,0.427-0.428v-3.418c0-0.449,0.365-0.813,0.813-0.813
			c0.449,0,0.814,0.364,0.814,0.813v6.203c0,3.185-2.592,5.776-5.777,5.776c-3.186,0-5.777-2.592-5.777-5.776v-3.962
			c0-0.235-0.191-0.427-0.427-0.427s-0.427,0.191-0.427,0.427v3.962c0,1.765,0.692,3.427,1.948,4.683S8.546,26.5,10.31,26.5
			s3.427-0.692,4.683-1.948s1.947-2.918,1.947-4.683v-6.203C16.94,12.746,16.192,11.998,15.272,11.998L15.272,11.998z M7.015,15.48
			V8.549c0-0.448,0.365-0.813,0.813-0.813c0.448,0,0.813,0.365,0.813,0.813v6.932H7.015z M9.496,15.48V6.303
			c0-0.448,0.365-0.813,0.814-0.813s0.814,0.365,0.814,0.813v9.178H9.496z M9.496,15.48"/>
		<path fill="#99B6E4" d="M9.496,22.045c0-0.236-0.191-0.428-0.427-0.428s-0.427,0.191-0.427,0.428v0.002
			c0,0.236,0.191,0.426,0.427,0.426S9.496,22.28,9.496,22.045L9.496,22.045z M9.496,22.045"/>
	</g>
	<polygon fill="#99B6E4" points="7.162,5.113 5.213,7.706 -3.152,7.706 -3.335,4.636 6.831,4.636 	"/>
	<polygon fill="#99B6E4" points="12.852,4.878 14.134,6.267 15.462,7.706 21.602,8.21 23.288,7.891 23.288,4.636 13.351,4.636 	"/>
</g>
</svg>
