<svg xmlns="http://www.w3.org/2000/svg" xmlns:xlink="http://www.w3.org/1999/xlink" width="26" height="24" viewBox="0 0 26 24"><defs><path id="a" d="M3194.87 598.68c-4.22 0-7.81-2.57-9.32-6.19h3.56v-1.32h-6.1v6h1.34v-4.02a11.46 11.46 0 0 0 10.52 6.85c5.43 0 9.99-3.75 11.13-8.76h-1.37a10.08 10.08 0 0 1-9.76 7.44z"/><path id="b" d="M3204.66 580.83v4.02a11.46 11.46 0 0 0-10.53-6.85c-5.43 0-9.99 3.75-11.13 8.76h1.38a10.04 10.04 0 0 1 9.75-7.44c4.23 0 7.81 2.57 9.32 6.19h-3.55v1.32h6.1v-6z"/></defs><g opacity=".3" transform="translate(-3182 -577)"><use fill="#fff" xlink:href="#a"/></g><g transform="translate(-3182 -577)"><use fill="#fff" xlink:href="#b"/></g></svg>