<?xml version="1.0" encoding="utf-8"?>
<!-- Generator: Adobe Illustrator 16.0.0, SVG Export Plug-In . SVG Version: 6.00 Build 0)  -->
<!DOCTYPE svg PUBLIC "-//W3C//DTD SVG 1.1//EN" "http://www.w3.org/Graphics/SVG/1.1/DTD/svg11.dtd">
<svg version="1.1" id="icon_new_payments" xmlns="http://www.w3.org/2000/svg" xmlns:xlink="http://www.w3.org/1999/xlink" x="0px"
	 y="0px" width="28px" height="27px" viewBox="-4 0 28 27" enable-background="new -4 0 28 27" xml:space="preserve">
<g>
	<path fill-rule="evenodd" clip-rule="evenodd" fill="#99B6E4" d="M0.517,12.986L3.569,9.5c0.239-0.276,0.239-0.721,0-0.997
		c-0.24-0.274-0.631-0.274-0.873,0l-2.615,2.989l-2.616-2.989c-0.24-0.274-0.632-0.274-0.871,0c-0.242,0.276-0.242,0.721,0,0.997
		l3.052,3.486C-0.114,13.26,0.275,13.26,0.517,12.986L0.517,12.986z M0.701,8.794l2.555-2.769c0.257-0.278,0.257-0.728,0-1.007
		c-0.257-0.278-0.673-0.278-0.93,0l-2.09,2.266l-2.088-2.266c-0.257-0.278-0.673-0.278-0.931,0c-0.256,0.279-0.256,0.729,0,1.007
		l2.555,2.769C0.029,9.072,0.445,9.072,0.701,8.794L0.701,8.794z M0.701,8.794"/>
	<g>
		<path fill="none" stroke="#99B6E4" stroke-width="0.6094" stroke-miterlimit="10" d="M-3.089,15.269v4.562
			c0,0.252,0.204,0.456,0.456,0.456h18.246c0.252,0,0.456-0.204,0.456-0.456v-4.562c0-0.251-0.204-0.456-0.456-0.456H-2.633
			C-2.885,14.812-3.089,15.018-3.089,15.269L-3.089,15.269z M-2.153,16.949"/>
		<g>
			<path fill="#99B6E4" d="M-1.569,16.979c0.036-0.109,0.114-0.199,0.218-0.25c0.103-0.052,0.222-0.061,0.33-0.024l0.73,0.243
				v-0.698c0-0.239,0.194-0.434,0.433-0.434c0.239,0,0.434,0.194,0.434,0.434v0.698l0.729-0.243
				c0.228-0.075,0.473,0.048,0.549,0.275c0.076,0.227-0.048,0.473-0.274,0.548l-0.762,0.255l0.552,0.827
				c0.086,0.129,0.097,0.294,0.027,0.433c-0.067,0.139-0.205,0.23-0.36,0.24c-0.154,0.011-0.303-0.062-0.388-0.192l-0.507-0.761
				l-0.506,0.76c-0.086,0.128-0.233,0.201-0.389,0.191c-0.154-0.01-0.291-0.102-0.36-0.24c-0.068-0.139-0.058-0.304,0.028-0.433
				l0.552-0.828l-0.762-0.254C-1.521,17.45-1.644,17.206-1.569,16.979L-1.569,16.979z"/>
			<path fill="#99B6E4" d="M2.663,16.979c0.036-0.109,0.114-0.199,0.217-0.25c0.103-0.052,0.222-0.061,0.331-0.024l0.729,0.243
				v-0.698c0-0.239,0.194-0.434,0.434-0.434s0.434,0.194,0.434,0.434v0.698l0.729-0.243c0.227-0.075,0.473,0.048,0.549,0.275
				c0.075,0.227-0.048,0.473-0.275,0.548l-0.762,0.255l0.553,0.827c0.085,0.129,0.096,0.294,0.027,0.433s-0.206,0.23-0.36,0.24
				C5.114,19.293,4.966,19.22,4.88,19.09l-0.506-0.761l-0.506,0.76c-0.086,0.128-0.234,0.201-0.39,0.191
				c-0.153-0.01-0.291-0.102-0.359-0.24c-0.069-0.139-0.059-0.304,0.027-0.433l0.553-0.828l-0.763-0.254
				C2.71,17.45,2.588,17.206,2.663,16.979L2.663,16.979z"/>
			<path fill="#99B6E4" d="M6.895,16.979c0.036-0.109,0.114-0.199,0.218-0.25c0.103-0.052,0.222-0.061,0.33-0.024l0.73,0.243v-0.698
				c0-0.239,0.193-0.434,0.433-0.434s0.434,0.194,0.434,0.434v0.698l0.729-0.243c0.228-0.075,0.474,0.048,0.549,0.275
				c0.076,0.227-0.047,0.473-0.274,0.548l-0.762,0.255l0.552,0.827c0.086,0.129,0.097,0.294,0.028,0.433
				c-0.069,0.139-0.206,0.23-0.36,0.24c-0.154,0.011-0.303-0.062-0.389-0.192l-0.507-0.761L8.1,19.089
				c-0.086,0.128-0.233,0.201-0.389,0.191c-0.154-0.01-0.292-0.102-0.36-0.24s-0.059-0.304,0.028-0.433l0.552-0.828l-0.762-0.254
				C6.942,17.45,6.819,17.206,6.895,16.979L6.895,16.979z"/>
			<path fill="#99B6E4" d="M11.127,16.979c0.036-0.109,0.114-0.199,0.217-0.25c0.103-0.052,0.222-0.061,0.331-0.024l0.729,0.243
				v-0.698c0-0.239,0.194-0.434,0.434-0.434s0.434,0.194,0.434,0.434v0.698l0.729-0.243c0.228-0.075,0.473,0.048,0.549,0.275
				c0.075,0.227-0.048,0.473-0.274,0.548l-0.763,0.255l0.552,0.827c0.087,0.129,0.097,0.294,0.028,0.433s-0.206,0.23-0.36,0.24
				c-0.154,0.011-0.303-0.062-0.389-0.192l-0.506-0.761l-0.506,0.76c-0.086,0.128-0.234,0.201-0.389,0.191
				c-0.155-0.01-0.292-0.102-0.36-0.24s-0.059-0.304,0.027-0.433l0.553-0.828L11.4,17.525C11.175,17.45,11.052,17.206,11.127,16.979
				L11.127,16.979z"/>
		</g>
	</g>
	<g>
		<path fill="#99B6E4" d="M21.557,10.504V8.117c0-4.2-3.417-7.617-7.617-7.617c-4.199,0-7.617,3.417-7.617,7.617v2.387
			c-1.157,0.236-2.031,1.262-2.031,2.488v0.598c0,0.28,0.228,0.508,0.508,0.508s0.508-0.228,0.508-0.508v-0.598
			c0-0.84,0.684-1.523,1.523-1.523h14.219c0.841,0,1.523,0.684,1.523,1.523v10.969c0,0.661-0.424,1.227-1.016,1.436v-3.061
			c0-0.28-0.228-0.508-0.508-0.508s-0.508,0.228-0.508,0.508v3.148H6.83c-0.84,0-1.523-0.684-1.523-1.523v-0.838
			c0-0.28-0.228-0.508-0.508-0.508s-0.508,0.228-0.508,0.508v0.838c0,1.4,1.14,2.539,2.539,2.539h14.219
			c1.4,0,2.539-1.139,2.539-2.539V12.992C23.588,11.766,22.715,10.74,21.557,10.504L21.557,10.504z M10.08,10.453V8.117
			c0-2.128,1.732-3.859,3.859-3.859c2.128,0,3.859,1.731,3.859,3.859v2.336H10.08z M18.814,10.453V8.117
			c0-2.688-2.187-4.875-4.875-4.875c-2.688,0-4.875,2.187-4.875,4.875v2.336H7.338V8.117c0-3.64,2.962-6.602,6.602-6.602
			c3.641,0,6.602,2.961,6.602,6.602v2.336H18.814z M18.814,10.453"/>
		<path fill="#99B6E4" d="M4.799,22.082c0.134,0,0.265-0.055,0.359-0.149s0.148-0.225,0.148-0.358s-0.054-0.265-0.148-0.359
			s-0.226-0.148-0.359-0.148s-0.265,0.054-0.359,0.148c-0.094,0.095-0.148,0.226-0.148,0.359s0.055,0.264,0.148,0.358
			C4.534,22.027,4.665,22.082,4.799,22.082L4.799,22.082z M4.799,22.082"/>
		<path fill="#99B6E4" d="M21.049,20.762c0.135,0,0.265-0.055,0.359-0.148c0.095-0.095,0.148-0.226,0.148-0.359
			s-0.054-0.265-0.148-0.359c-0.095-0.094-0.225-0.148-0.359-0.148c-0.133,0-0.264,0.055-0.358,0.148
			c-0.095,0.095-0.149,0.226-0.149,0.359s0.055,0.265,0.149,0.359C20.785,20.707,20.916,20.762,21.049,20.762L21.049,20.762z
			 M21.049,20.762"/>
	</g>
</g>
</svg>
