<svg xmlns="http://www.w3.org/2000/svg" xmlns:xlink="http://www.w3.org/1999/xlink" width="18" height="18"
     viewBox="0 0 29 28">

    <path fill="#6ba9b7" transform="translate(-1562 -4835)" d="M1577 4836a13 13 0 1 1 0 26 13 13 0 0 1 0-26z"/>

    <path transform="scale(1.4, 1.4) translate(-2798.5 -539)"
          d="M2810.2 541.02a.65.65 0 0 1 .5.03l4 2.03h.01c.28.14.37.45.2.7l-5.84 9.58a.56.56 0 0 1-.26.2l-3.59 1.4a.7.7 0 0 1-.17.04c-.32.03-.6-.17-.63-.45l-.42-3.43a.45.45 0 0 1 .07-.3l5.85-9.58c.06-.1.16-.18.28-.22zm-.3 2.26l3 1.52.72-1.09-3-1.52zm-.57.88l-4.16 7.02.3 2.57 2.7-1.05 4.15-7.01z"/>

</svg>