<svg id="svg" version="1.1" width="35" height="35" viewBox="0 0 400 400" xmlns="http://www.w3.org/2000/svg" xmlns:xlink="http://www.w3.org/1999/xlink" ><g id="svgg"><path id="path0" d="M178.643 24.233 C 178.509 24.581,178.400 25.363,178.400 25.971 C 178.400 28.116,176.537 28.959,174.800 27.600 C 173.905 26.900,173.137 26.817,167.500 26.809 L 161.200 26.800 161.200 28.400 L 161.200 30.000 156.400 30.000 L 151.600 30.000 151.600 31.600 L 151.600 33.200 148.600 33.200 L 145.600 33.200 145.600 34.583 L 145.600 35.966 142.500 36.083 L 139.400 36.200 139.277 37.677 C 139.162 39.065,139.065 39.162,137.677 39.277 C 136.285 39.393,136.193 39.486,136.076 40.900 L 135.952 42.400 132.976 42.400 L 130.000 42.400 130.000 44.000 L 130.000 45.600 128.400 45.600 L 126.800 45.600 126.800 47.200 L 126.800 48.800 125.200 48.800 C 123.643 48.800,123.600 48.837,123.600 50.176 C 123.600 51.477,123.519 51.558,122.100 51.676 L 120.600 51.800 120.484 54.877 L 120.367 57.954 118.884 58.077 C 117.484 58.193,117.393 58.285,117.276 59.700 C 117.158 61.119,117.077 61.200,115.776 61.200 L 114.400 61.200 114.400 65.800 L 114.400 70.400 112.800 70.400 L 111.200 70.400 111.200 102.111 L 111.200 133.821 112.778 133.671 C 114.360 133.520,116.400 134.832,116.400 136.000 C 116.400 137.168,114.360 138.480,112.778 138.329 C 111.712 138.228,111.200 138.339,111.200 138.673 C 111.200 139.012,110.229 139.203,108.100 139.283 L 105.000 139.400 104.876 140.900 C 104.755 142.358,104.708 142.400,103.176 142.400 L 101.600 142.400 101.600 145.600 C 101.600 148.122,101.722 148.800,102.177 148.800 C 102.985 148.800,104.000 150.375,104.000 151.627 C 104.000 153.147,102.793 154.039,100.641 154.109 L 98.800 154.169 98.800 157.485 L 98.800 160.800 100.200 160.800 L 101.600 160.800 101.600 168.600 L 101.600 176.400 103.200 176.400 L 104.800 176.400 104.800 179.600 L 104.800 182.800 106.383 182.800 L 107.966 182.800 108.083 185.900 L 108.200 189.000 109.700 189.124 C 111.119 189.242,111.200 189.323,111.200 190.624 C 111.200 191.963,111.243 192.000,112.800 192.000 L 114.400 192.000 114.400 193.600 L 114.400 195.200 118.983 195.200 L 123.566 195.200 123.683 198.300 L 123.800 201.400 125.300 201.524 L 126.800 201.648 126.800 204.824 L 126.800 208.000 128.400 208.000 L 130.000 208.000 130.000 211.000 L 130.000 214.000 131.600 214.000 L 133.200 214.000 133.200 217.200 L 133.200 220.400 134.600 220.400 L 136.000 220.400 136.000 223.400 L 136.000 226.400 137.600 226.400 L 139.200 226.400 139.200 229.600 L 139.200 232.800 140.800 232.800 L 142.400 232.800 142.400 236.000 L 142.400 239.200 144.000 239.200 C 145.562 239.200,145.600 239.233,145.600 240.600 C 145.600 241.967,145.638 242.000,147.200 242.000 L 148.800 242.000 148.800 243.600 C 148.800 245.162,148.833 245.200,150.200 245.200 C 151.567 245.200,151.600 245.238,151.600 246.800 C 151.600 248.396,151.604 248.400,153.176 248.400 C 154.708 248.400,154.755 248.442,154.876 249.900 L 155.000 251.400 158.100 251.517 L 161.200 251.634 161.200 253.217 L 161.200 254.800 164.176 254.800 L 167.152 254.800 167.276 256.300 L 167.400 257.800 172.100 257.913 L 176.800 258.025 176.800 259.413 L 176.800 260.800 198.600 260.800 L 220.400 260.800 220.400 259.400 L 220.400 258.000 225.000 258.000 L 229.600 258.000 229.600 256.417 L 229.600 254.834 232.700 254.717 L 235.800 254.600 235.923 253.123 C 236.038 251.735,236.135 251.638,237.523 251.523 C 238.915 251.407,239.007 251.314,239.124 249.900 C 239.242 248.481,239.323 248.400,240.624 248.400 C 241.963 248.400,242.000 248.357,242.000 246.800 L 242.000 245.200 243.600 245.200 L 245.200 245.200 245.200 243.600 L 245.200 242.000 246.800 242.000 C 248.357 242.000,248.400 241.963,248.400 240.624 C 248.400 239.323,248.481 239.242,249.900 239.124 C 251.314 239.007,251.407 238.915,251.523 237.523 C 251.638 236.135,251.735 236.038,253.123 235.923 C 254.515 235.807,254.607 235.714,254.724 234.300 C 254.845 232.842,254.892 232.800,256.424 232.800 L 258.000 232.800 258.000 229.600 L 258.000 226.400 259.400 226.400 L 260.800 226.400 260.800 223.400 L 260.800 220.400 262.400 220.400 L 264.000 220.400 264.000 217.200 L 264.000 214.000 265.600 214.000 L 267.200 214.000 267.200 211.024 L 267.200 208.048 268.700 207.924 L 270.200 207.800 270.318 204.889 C 270.432 202.074,270.395 201.944,269.218 200.954 C 266.793 198.914,268.063 196.000,271.376 196.000 C 272.353 196.000,273.264 195.820,273.400 195.600 C 273.542 195.371,275.604 195.200,278.224 195.200 L 282.800 195.200 282.800 193.600 L 282.800 192.000 284.400 192.000 C 285.957 192.000,286.000 191.963,286.000 190.624 C 286.000 189.323,286.081 189.242,287.500 189.124 C 289.354 188.971,289.876 186.975,288.458 185.456 C 286.455 183.310,287.239 181.233,290.178 180.901 L 292.000 180.696 292.000 178.548 L 292.000 176.400 293.600 176.400 L 295.200 176.400 295.200 170.227 C 295.200 164.471,295.148 164.037,294.425 163.808 C 291.229 162.794,293.138 158.400,296.774 158.400 L 298.400 158.400 298.400 153.600 L 298.400 148.800 296.800 148.800 L 295.200 148.800 295.200 145.600 L 295.200 142.400 293.600 142.400 L 292.000 142.400 292.000 140.800 L 292.000 139.200 289.000 139.200 L 286.000 139.200 285.994 137.700 C 285.991 136.875,285.946 122.160,285.894 105.000 L 285.800 73.800 284.300 73.676 L 282.800 73.552 282.800 70.376 L 282.800 67.200 281.200 67.200 L 279.600 67.200 279.600 64.200 L 279.600 61.200 278.000 61.200 L 276.400 61.200 276.400 59.600 C 276.400 58.043,276.363 58.000,275.024 58.000 C 273.723 58.000,273.642 57.919,273.524 56.500 C 273.407 55.086,273.315 54.993,271.923 54.877 C 270.535 54.762,270.438 54.665,270.323 53.277 C 270.207 51.885,270.114 51.793,268.700 51.676 C 267.281 51.558,267.200 51.477,267.200 50.176 L 267.200 48.800 264.096 48.800 C 261.474 48.800,260.918 48.919,260.515 49.564 C 258.982 52.019,255.600 50.661,255.600 47.591 L 255.600 45.600 253.600 45.600 L 251.600 45.600 251.600 44.000 L 251.600 42.400 250.000 42.400 L 248.400 42.400 248.400 40.800 L 248.400 39.200 246.800 39.200 L 245.200 39.200 245.200 37.600 L 245.200 36.000 242.200 36.000 L 239.200 36.000 239.200 34.600 L 239.200 33.200 236.000 33.200 L 232.800 33.200 232.800 31.600 L 232.800 30.000 229.600 30.000 L 226.400 30.000 226.400 28.400 L 226.400 26.800 220.200 26.800 L 214.000 26.800 214.000 25.200 L 214.000 23.600 196.443 23.600 C 180.802 23.600,178.859 23.669,178.643 24.233 M130.000 265.790 L 130.000 267.180 123.700 267.290 L 117.400 267.400 117.276 268.890 L 117.153 270.379 111.076 270.490 L 105.000 270.600 104.876 272.100 L 104.752 273.600 98.576 273.600 L 92.400 273.600 92.400 275.200 L 92.400 276.800 86.200 276.800 L 80.000 276.800 80.000 278.400 L 80.000 280.000 73.600 280.000 L 67.200 280.000 67.200 281.600 L 67.200 283.200 61.000 283.200 L 54.800 283.200 54.800 284.600 C 54.800 285.370,54.665 286.000,54.500 286.001 C 54.335 286.001,54.160 286.927,54.110 288.058 C 53.990 290.813,53.241 291.600,50.738 291.600 C 49.672 291.600,48.800 291.780,48.800 292.000 C 48.800 292.220,48.080 292.400,47.200 292.400 L 45.600 292.400 45.600 294.000 L 45.600 295.600 44.000 295.600 L 42.400 295.600 42.400 300.176 L 42.400 304.752 40.900 304.876 L 39.400 305.000 39.287 309.700 L 39.175 314.400 37.587 314.400 L 36.000 314.400 36.000 323.800 C 36.000 331.407,36.103 333.200,36.538 333.200 C 37.432 333.200,38.400 334.588,38.400 335.870 C 38.400 337.568,37.229 338.484,35.019 338.513 L 33.200 338.538 33.200 356.069 L 33.200 373.601 195.500 373.500 L 357.800 373.400 357.904 356.026 C 358.018 337.013,358.149 338.017,355.562 338.006 C 352.914 337.995,351.852 334.849,354.036 333.485 C 354.752 333.037,354.800 332.428,354.800 323.704 L 354.800 314.400 353.213 314.400 L 351.625 314.400 351.513 309.700 L 351.400 305.000 349.900 304.876 L 348.400 304.752 348.400 300.176 L 348.400 295.600 346.800 295.600 L 345.200 295.600 345.200 294.000 L 345.200 292.400 343.600 292.400 C 342.720 292.400,342.000 292.220,342.000 292.000 C 342.000 291.780,341.190 291.600,340.200 291.600 C 337.708 291.600,336.800 290.638,336.800 288.000 C 336.800 286.900,336.620 286.000,336.400 286.000 C 336.180 286.000,336.000 285.370,336.000 284.600 L 336.000 283.200 329.800 283.200 L 323.600 283.200 323.600 281.600 L 323.600 280.000 317.200 280.000 L 310.800 280.000 310.800 278.400 L 310.800 276.800 304.600 276.800 L 298.400 276.800 298.400 275.200 L 298.400 273.600 292.224 273.600 L 286.048 273.600 285.924 272.100 L 285.800 270.600 279.724 270.490 L 273.647 270.379 273.524 268.890 L 273.400 267.400 267.100 267.290 L 260.800 267.180 260.800 265.790 L 260.800 264.400 253.200 264.400 L 245.600 264.400 245.600 269.000 L 245.600 273.600 244.000 273.600 L 242.400 273.600 242.400 279.776 L 242.400 285.952 240.900 286.076 L 239.400 286.200 239.290 292.500 L 239.180 298.800 237.590 298.800 L 236.000 298.800 236.000 303.400 L 236.000 308.000 234.600 308.000 L 233.200 308.000 233.200 312.600 L 233.200 317.200 231.600 317.200 L 230.000 317.200 230.000 322.000 L 230.000 326.800 228.400 326.800 L 226.800 326.800 226.800 330.000 L 226.800 333.200 225.200 333.200 L 223.600 333.200 223.600 336.176 L 223.600 339.152 222.100 339.276 L 220.600 339.400 220.483 342.500 L 220.366 345.600 218.783 345.600 C 217.203 345.600,217.200 345.603,217.200 347.200 C 217.200 348.762,217.167 348.800,215.800 348.800 C 214.467 348.800,214.400 348.867,214.400 350.200 L 214.400 351.600 211.206 351.600 L 208.013 351.600 207.906 340.500 L 207.800 329.400 205.754 329.194 C 202.062 328.822,200.736 324.836,203.965 323.811 C 204.785 323.551,204.800 323.349,204.800 312.597 L 204.800 301.648 206.300 301.524 C 207.719 301.407,207.807 301.319,207.924 299.900 C 208.042 298.481,208.123 298.400,209.424 298.400 L 210.800 298.400 210.800 290.800 L 210.800 283.200 209.400 283.200 C 208.033 283.200,208.000 283.162,208.000 281.600 L 208.000 280.000 206.400 280.000 L 204.800 280.000 204.800 278.400 L 204.800 276.800 195.400 276.800 L 186.000 276.800 186.000 278.400 C 186.000 279.962,185.967 280.000,184.600 280.000 C 183.233 280.000,183.200 280.038,183.200 281.600 L 183.200 283.200 181.600 283.200 L 180.000 283.200 180.000 290.800 L 180.000 298.400 181.600 298.400 L 183.200 298.400 183.200 300.000 C 183.200 301.562,183.233 301.600,184.600 301.600 L 186.000 301.600 186.000 312.600 L 186.000 323.600 184.573 323.600 L 183.145 323.600 183.232 339.407 C 183.329 356.986,183.477 355.813,181.240 355.211 C 179.670 354.788,179.600 354.701,179.600 353.185 C 179.600 351.603,179.597 351.600,178.000 351.600 C 176.438 351.600,176.400 351.567,176.400 350.200 C 176.400 348.867,176.333 348.800,175.000 348.800 C 173.633 348.800,173.600 348.762,173.600 347.200 C 173.600 345.603,173.597 345.600,172.017 345.600 L 170.434 345.600 170.317 342.500 L 170.200 339.400 168.700 339.276 L 167.200 339.152 167.200 336.176 L 167.200 333.200 165.600 333.200 L 164.000 333.200 164.000 328.400 L 164.000 323.600 162.400 323.600 L 160.800 323.600 160.800 319.000 L 160.800 314.400 159.413 314.400 L 158.025 314.400 157.913 309.700 L 157.800 305.000 156.300 304.876 L 154.800 304.752 154.800 298.576 L 154.800 292.400 153.200 292.400 L 151.600 292.400 151.600 287.800 L 151.600 283.200 150.000 283.200 L 148.400 283.200 148.400 276.800 L 148.400 270.400 146.800 270.400 L 145.200 270.400 145.200 267.400 L 145.200 264.400 137.600 264.400 L 130.000 264.400 130.000 265.790 " stroke="none" fill="#6494d4" fill-rule="evenodd"></path><path id="path1" d="M174.080 24.080 C 172.956 25.204,173.496 26.800,175.000 26.800 C 175.770 26.800,176.535 26.845,176.700 26.900 C 176.865 26.955,177.102 26.235,177.227 25.300 L 177.454 23.600 176.007 23.600 C 175.211 23.600,174.344 23.816,174.080 24.080 M257.135 47.372 C 257.294 49.366,257.641 49.623,259.500 49.125 C 260.690 48.807,260.800 48.643,260.800 47.189 L 260.800 45.600 258.897 45.600 L 256.994 45.600 257.135 47.372 M111.200 136.000 C 111.200 136.748,111.397 136.832,112.900 136.723 C 114.090 136.637,114.600 136.420,114.600 136.000 C 114.600 135.580,114.090 135.363,112.900 135.277 C 111.397 135.168,111.200 135.252,111.200 136.000 M98.800 150.800 L 98.800 152.848 100.259 152.724 C 103.165 152.477,103.194 149.117,100.293 148.876 L 98.800 148.752 98.800 150.800 M294.813 160.585 C 293.760 161.853,295.028 164.000,296.831 164.000 L 298.400 164.000 298.400 162.000 L 298.400 160.000 296.849 160.000 C 295.977 160.000,295.086 160.256,294.813 160.585 M288.806 183.700 C 288.820 186.725,291.706 187.095,291.923 184.100 L 292.046 182.400 290.423 182.400 C 288.857 182.400,288.800 182.446,288.806 183.700 M271.805 197.530 C 269.502 197.717,269.149 198.131,269.767 199.925 C 270.805 202.938,273.786 202.162,273.525 198.946 C 273.400 197.406,273.394 197.400,271.805 197.530 M48.800 288.200 L 48.800 290.400 50.138 290.400 C 51.852 290.400,52.800 289.356,52.800 287.469 L 52.800 286.000 50.800 286.000 L 48.800 286.000 48.800 288.200 M338.292 287.700 C 338.516 289.747,338.596 289.835,340.500 290.123 L 342.000 290.350 342.000 288.175 L 342.000 286.000 340.052 286.000 L 338.105 286.000 338.292 287.700 M204.170 325.010 C 203.387 326.885,203.846 327.475,206.234 327.665 L 208.035 327.809 207.918 325.804 L 207.800 323.800 206.290 323.675 C 204.887 323.559,204.737 323.654,204.170 325.010 M33.200 335.200 C 33.200 337.398,34.774 338.071,36.424 336.578 C 37.730 335.396,36.631 333.200,34.733 333.200 L 33.200 333.200 33.200 335.200 M354.686 333.448 C 354.529 333.605,354.400 334.333,354.400 335.067 C 354.400 336.415,354.515 336.497,356.400 336.496 C 356.950 336.496,357.539 336.699,357.709 336.948 C 357.879 337.196,357.969 336.500,357.909 335.400 C 357.802 333.433,355.870 332.263,354.686 333.448 M181.117 352.500 C 179.600 353.693,179.819 354.800,181.573 354.800 C 183.166 354.800,183.200 354.771,183.200 353.400 C 183.200 351.880,182.364 351.519,181.117 352.500 " stroke="none" fill="#444444" fill-rule="evenodd"></path><path id="path2" d="M177.379 24.167 C 177.299 24.405,177.182 25.140,177.117 25.800 C 177.006 26.936,176.915 26.994,175.400 26.885 L 173.800 26.770 174.800 27.576 C 176.696 29.105,178.138 28.243,178.500 25.367 C 178.695 23.818,177.811 22.872,177.379 24.167 M255.600 47.561 C 255.600 50.564,258.622 51.942,260.429 49.765 C 261.107 48.948,260.752 48.755,259.327 49.164 C 257.702 49.630,257.284 49.294,257.130 47.398 C 256.916 44.782,255.600 44.923,255.600 47.561 M111.467 133.867 C 110.740 134.593,111.319 135.163,112.900 135.277 C 115.287 135.450,115.269 136.552,112.875 136.724 C 110.591 136.889,110.608 138.134,112.898 138.324 C 114.391 138.448,116.400 137.115,116.400 136.000 C 116.400 134.493,112.519 132.814,111.467 133.867 M102.126 150.010 C 102.749 151.661,102.127 152.565,100.259 152.724 C 98.871 152.842,98.094 153.922,99.300 154.055 C 103.149 154.483,105.198 152.288,103.377 149.689 C 102.400 148.294,101.560 148.509,102.126 150.010 M294.305 158.829 C 292.623 159.809,292.604 163.132,294.277 163.774 C 295.182 164.122,295.263 163.900,294.760 162.457 C 294.167 160.755,294.809 160.000,296.849 160.000 C 298.133 160.000,298.400 159.862,298.400 159.200 C 298.400 158.298,295.645 158.048,294.305 158.829 M288.758 181.065 C 287.118 181.503,286.966 184.244,288.510 185.525 C 289.024 185.952,289.076 185.776,288.900 184.209 L 288.696 182.400 290.348 182.400 C 291.733 182.400,292.000 182.271,292.000 181.600 C 292.000 180.803,290.601 180.572,288.758 181.065 M271.257 196.015 C 268.058 196.336,266.850 198.780,268.926 200.730 C 270.244 201.969,270.441 201.817,269.816 200.046 C 269.140 198.129,269.545 197.600,271.693 197.600 C 272.671 197.600,273.307 197.388,273.450 197.013 C 273.847 195.978,273.446 195.795,271.257 196.015 M52.800 287.509 C 52.800 289.405,51.860 290.400,50.069 290.400 C 49.208 290.400,48.800 290.593,48.800 291.000 C 48.800 291.920,52.473 291.824,53.326 290.882 C 54.289 289.818,54.418 286.260,53.500 286.079 C 52.929 285.967,52.800 286.230,52.800 287.509 M336.800 287.971 C 336.800 290.641,337.699 291.600,340.200 291.600 C 341.472 291.600,342.000 291.437,342.000 291.043 C 342.000 290.396,341.147 290.000,339.755 290.000 C 338.685 290.000,338.503 289.701,338.290 287.600 C 338.043 285.170,336.800 285.479,336.800 287.971 M203.200 324.400 C 202.080 325.520,202.000 327.323,203.024 328.378 C 204.032 329.417,208.060 329.619,207.918 328.623 C 207.824 327.967,207.462 327.775,206.131 327.679 C 203.875 327.514,203.393 326.869,204.160 325.035 C 204.825 323.443,204.423 323.177,203.200 324.400 M36.428 333.700 C 36.444 333.975,36.602 334.560,36.780 335.000 C 37.250 336.161,36.177 337.200,34.509 337.200 C 33.431 337.200,33.169 337.346,33.274 337.888 C 33.454 338.826,36.559 338.742,37.632 337.771 C 38.618 336.878,38.638 334.739,37.669 333.862 C 36.796 333.072,36.390 333.019,36.428 333.700 M353.651 333.738 C 352.780 334.788,352.687 336.576,353.468 337.258 C 354.360 338.039,358.003 338.515,357.994 337.851 C 357.982 336.993,357.396 336.495,356.400 336.496 C 354.338 336.497,354.309 336.472,354.469 334.800 C 354.628 333.127,354.402 332.834,353.651 333.738 M183.260 353.700 C 183.206 354.687,183.046 354.804,181.700 354.836 L 180.200 354.872 181.554 355.262 C 183.200 355.735,183.726 355.324,183.491 353.749 L 183.320 352.600 183.260 353.700 " stroke="none" fill="#5498b0" fill-rule="evenodd"></path><path id="path3" d="M177.379 24.167 C 177.299 24.405,177.182 25.140,177.117 25.800 C 177.006 26.936,176.915 26.994,175.400 26.885 L 173.800 26.770 174.800 27.576 C 176.696 29.105,178.138 28.243,178.500 25.367 C 178.695 23.818,177.811 22.872,177.379 24.167 M255.600 47.561 C 255.600 50.564,258.622 51.942,260.429 49.765 C 261.107 48.948,260.752 48.755,259.327 49.164 C 257.702 49.630,257.284 49.294,257.130 47.398 C 256.916 44.782,255.600 44.923,255.600 47.561 M111.467 133.867 C 110.740 134.593,111.319 135.163,112.900 135.277 C 115.287 135.450,115.269 136.552,112.875 136.724 C 110.591 136.889,110.608 138.134,112.898 138.324 C 114.391 138.448,116.400 137.115,116.400 136.000 C 116.400 134.493,112.519 132.814,111.467 133.867 M102.126 150.010 C 102.749 151.661,102.127 152.565,100.259 152.724 C 98.871 152.842,98.094 153.922,99.300 154.055 C 103.149 154.483,105.198 152.288,103.377 149.689 C 102.400 148.294,101.560 148.509,102.126 150.010 M294.305 158.829 C 292.623 159.809,292.604 163.132,294.277 163.774 C 295.182 164.122,295.263 163.900,294.760 162.457 C 294.167 160.755,294.809 160.000,296.849 160.000 C 298.133 160.000,298.400 159.862,298.400 159.200 C 298.400 158.298,295.645 158.048,294.305 158.829 M288.758 181.065 C 287.118 181.503,286.966 184.244,288.510 185.525 C 289.024 185.952,289.076 185.776,288.900 184.209 L 288.696 182.400 290.348 182.400 C 291.733 182.400,292.000 182.271,292.000 181.600 C 292.000 180.803,290.601 180.572,288.758 181.065 M271.257 196.015 C 268.058 196.336,266.850 198.780,268.926 200.730 C 270.244 201.969,270.441 201.817,269.816 200.046 C 269.140 198.129,269.545 197.600,271.693 197.600 C 272.671 197.600,273.307 197.388,273.450 197.013 C 273.847 195.978,273.446 195.795,271.257 196.015 M52.800 287.509 C 52.800 289.405,51.860 290.400,50.069 290.400 C 49.208 290.400,48.800 290.593,48.800 291.000 C 48.800 291.920,52.473 291.824,53.326 290.882 C 54.289 289.818,54.418 286.260,53.500 286.079 C 52.929 285.967,52.800 286.230,52.800 287.509 M336.800 287.971 C 336.800 290.641,337.699 291.600,340.200 291.600 C 341.472 291.600,342.000 291.437,342.000 291.043 C 342.000 290.396,341.147 290.000,339.755 290.000 C 338.685 290.000,338.503 289.701,338.290 287.600 C 338.043 285.170,336.800 285.479,336.800 287.971 M203.200 324.400 C 202.080 325.520,202.000 327.323,203.024 328.378 C 204.032 329.417,208.060 329.619,207.918 328.623 C 207.824 327.967,207.462 327.775,206.131 327.679 C 203.875 327.514,203.393 326.869,204.160 325.035 C 204.825 323.443,204.423 323.177,203.200 324.400 M36.428 333.700 C 36.444 333.975,36.602 334.560,36.780 335.000 C 37.250 336.161,36.177 337.200,34.509 337.200 C 33.431 337.200,33.169 337.346,33.274 337.888 C 33.454 338.826,36.559 338.742,37.632 337.771 C 38.618 336.878,38.638 334.739,37.669 333.862 C 36.796 333.072,36.390 333.019,36.428 333.700 M353.651 333.738 C 352.780 334.788,352.687 336.576,353.468 337.258 C 354.360 338.039,358.003 338.515,357.994 337.851 C 357.982 336.993,357.396 336.495,356.400 336.496 C 354.338 336.497,354.309 336.472,354.469 334.800 C 354.628 333.127,354.402 332.834,353.651 333.738 M183.260 353.700 C 183.206 354.687,183.046 354.804,181.700 354.836 L 180.200 354.872 181.554 355.262 C 183.200 355.735,183.726 355.324,183.491 353.749 L 183.320 352.600 183.260 353.700 " stroke="none" fill="#5498b0" fill-rule="evenodd"></path><path id="path4" d="M177.379 24.167 C 177.299 24.405,177.182 25.140,177.117 25.800 C 177.006 26.936,176.915 26.994,175.400 26.885 L 173.800 26.770 174.800 27.576 C 176.696 29.105,178.138 28.243,178.500 25.367 C 178.695 23.818,177.811 22.872,177.379 24.167 M255.600 47.561 C 255.600 50.564,258.622 51.942,260.429 49.765 C 261.107 48.948,260.752 48.755,259.327 49.164 C 257.702 49.630,257.284 49.294,257.130 47.398 C 256.916 44.782,255.600 44.923,255.600 47.561 M111.467 133.867 C 110.740 134.593,111.319 135.163,112.900 135.277 C 115.287 135.450,115.269 136.552,112.875 136.724 C 110.591 136.889,110.608 138.134,112.898 138.324 C 114.391 138.448,116.400 137.115,116.400 136.000 C 116.400 134.493,112.519 132.814,111.467 133.867 M102.126 150.010 C 102.749 151.661,102.127 152.565,100.259 152.724 C 98.871 152.842,98.094 153.922,99.300 154.055 C 103.149 154.483,105.198 152.288,103.377 149.689 C 102.400 148.294,101.560 148.509,102.126 150.010 M294.305 158.829 C 292.623 159.809,292.604 163.132,294.277 163.774 C 295.182 164.122,295.263 163.900,294.760 162.457 C 294.167 160.755,294.809 160.000,296.849 160.000 C 298.133 160.000,298.400 159.862,298.400 159.200 C 298.400 158.298,295.645 158.048,294.305 158.829 M288.758 181.065 C 287.118 181.503,286.966 184.244,288.510 185.525 C 289.024 185.952,289.076 185.776,288.900 184.209 L 288.696 182.400 290.348 182.400 C 291.733 182.400,292.000 182.271,292.000 181.600 C 292.000 180.803,290.601 180.572,288.758 181.065 M271.257 196.015 C 268.058 196.336,266.850 198.780,268.926 200.730 C 270.244 201.969,270.441 201.817,269.816 200.046 C 269.140 198.129,269.545 197.600,271.693 197.600 C 272.671 197.600,273.307 197.388,273.450 197.013 C 273.847 195.978,273.446 195.795,271.257 196.015 M52.800 287.509 C 52.800 289.405,51.860 290.400,50.069 290.400 C 49.208 290.400,48.800 290.593,48.800 291.000 C 48.800 291.920,52.473 291.824,53.326 290.882 C 54.289 289.818,54.418 286.260,53.500 286.079 C 52.929 285.967,52.800 286.230,52.800 287.509 M336.800 287.971 C 336.800 290.641,337.699 291.600,340.200 291.600 C 341.472 291.600,342.000 291.437,342.000 291.043 C 342.000 290.396,341.147 290.000,339.755 290.000 C 338.685 290.000,338.503 289.701,338.290 287.600 C 338.043 285.170,336.800 285.479,336.800 287.971 M203.200 324.400 C 202.080 325.520,202.000 327.323,203.024 328.378 C 204.032 329.417,208.060 329.619,207.918 328.623 C 207.824 327.967,207.462 327.775,206.131 327.679 C 203.875 327.514,203.393 326.869,204.160 325.035 C 204.825 323.443,204.423 323.177,203.200 324.400 M36.428 333.700 C 36.444 333.975,36.602 334.560,36.780 335.000 C 37.250 336.161,36.177 337.200,34.509 337.200 C 33.431 337.200,33.169 337.346,33.274 337.888 C 33.454 338.826,36.559 338.742,37.632 337.771 C 38.618 336.878,38.638 334.739,37.669 333.862 C 36.796 333.072,36.390 333.019,36.428 333.700 M353.651 333.738 C 352.780 334.788,352.687 336.576,353.468 337.258 C 354.360 338.039,358.003 338.515,357.994 337.851 C 357.982 336.993,357.396 336.495,356.400 336.496 C 354.338 336.497,354.309 336.472,354.469 334.800 C 354.628 333.127,354.402 332.834,353.651 333.738 M183.260 353.700 C 183.206 354.687,183.046 354.804,181.700 354.836 L 180.200 354.872 181.554 355.262 C 183.200 355.735,183.726 355.324,183.491 353.749 L 183.320 352.600 183.260 353.700 " stroke="none" fill="#5498b0" fill-rule="evenodd"></path></g></svg>