<svg xmlns="http://www.w3.org/2000/svg" width="19" height="23" viewBox="0 0 19 23">
  <path fill="#fff" d="M3239.01,1295.26l-0.79.75-4.72-4.49-4.72,4.49-0.79-.75,5.51-5.25ZM3234,1300h-1v-10h1v10Zm-8-3c1.18,0,1.18,1,0,1h-1v10h17v-10h-1c-1.12,0-1.16-1,0-1h1a1.024,1.024,0,0,1,1,1v10a0.9,0.9,0,0,1-1,1h-17a0.875,0.875,0,0,1-1-1v-10a1.257,1.257,0,0,1,1-1h1Zm1.99,1.48a0.447,0.447,0,1,1,.89,0,4.752,4.752,0,0,0,1.21,3.21A6.455,6.455,0,0,0,3234,1303a3.83,3.83,0,0,0,2.88-1.31h0a4.76,4.76,0,0,0,1.22-3.21,0.447,0.447,0,1,1,.89,0,5.747,5.747,0,0,1-1.48,3.89h0A4.709,4.709,0,0,1,3234,1304a7.256,7.256,0,0,1-4.54-1.63A5.74,5.74,0,0,1,3227.99,1298.48Zm-3.19,6.18a0.48,0.48,0,1,1,0-.96,4.33,4.33,0,0,1,3.03,1.23,4.123,4.123,0,0,1,1.25,2.96,0.49,0.49,0,0,1-.98,0,3.187,3.187,0,0,0-.97-2.29A3.321,3.321,0,0,0,3224.8,1304.66Zm16.97-.96a0.5,0.5,0,0,1,.49.48,0.489,0.489,0,0,1-.49.48,3.364,3.364,0,0,0-2.34.94h0a3.219,3.219,0,0,0-.96,2.29,0.49,0.49,0,0,1-.98,0A4.234,4.234,0,0,1,3241.77,1303.7Zm1.23,9.3h-19v-1h19v1Zm0-2h-19v-1h19v1Z" transform="translate(-3224 -1290)"/>
</svg>
